<svg width="765" height="490" viewBox="0 0 765 490" fill="none" xmlns="http://www.w3.org/2000/svg">
<rect width="765" height="490" fill="#FFA826"/>
<path d="M232.161 296L246.166 211.636H258.442L246.207 285.413H284.599L282.828 296H232.161ZM323.27 297.277C317.283 297.277 312.285 295.904 308.275 293.158C304.266 290.384 301.437 286.512 299.789 281.541C298.169 276.543 297.895 270.735 298.966 264.116C300.009 257.635 302.11 251.978 305.268 247.145C308.426 242.312 312.395 238.563 317.173 235.899C321.951 233.235 327.252 231.903 333.074 231.903C339.06 231.903 344.045 233.29 348.027 236.064C352.036 238.838 354.865 242.723 356.512 247.722C358.16 252.72 358.449 258.555 357.377 265.229C356.334 271.655 354.206 277.271 350.993 282.077C347.807 286.883 343.839 290.617 339.088 293.281C334.364 295.945 329.092 297.277 323.27 297.277ZM323.887 287.226C327.924 287.226 331.44 286.169 334.433 284.054C337.454 281.939 339.912 279.125 341.806 275.609C343.729 272.094 345.033 268.25 345.72 264.075C346.351 260.093 346.338 256.427 345.679 253.077C345.02 249.699 343.619 246.994 341.477 244.962C339.335 242.929 336.328 241.913 332.456 241.913C328.419 241.913 324.876 242.984 321.828 245.126C318.807 247.268 316.349 250.111 314.454 253.653C312.559 257.169 311.282 261.013 310.623 265.188C309.992 269.17 309.992 272.836 310.623 276.186C311.282 279.536 312.683 282.214 314.825 284.219C316.994 286.223 320.015 287.226 323.887 287.226ZM388.643 321.045C383.645 321.045 379.471 320.4 376.12 319.109C372.77 317.819 370.12 316.102 368.17 313.96C366.248 311.818 364.902 309.498 364.133 306.999L375.049 302.467C375.599 303.648 376.368 304.925 377.356 306.298C378.345 307.699 379.842 308.893 381.846 309.882C383.851 310.871 386.611 311.365 390.126 311.365C394.85 311.365 398.983 310.212 402.525 307.905C406.095 305.598 408.292 301.946 409.116 296.947L411.093 284.425H410.27C409.363 285.743 408.086 287.24 406.439 288.915C404.818 290.562 402.69 292.004 400.054 293.24C397.445 294.448 394.19 295.053 390.291 295.053C385.265 295.053 380.94 293.872 377.315 291.51C373.717 289.148 371.122 285.674 369.529 281.088C367.964 276.474 367.744 270.804 368.87 264.075C369.969 257.402 372.056 251.662 375.132 246.857C378.208 242.051 381.97 238.357 386.419 235.776C390.868 233.194 395.66 231.903 400.795 231.903C404.75 231.903 407.825 232.562 410.022 233.881C412.247 235.199 413.881 236.723 414.924 238.453C415.995 240.183 416.792 241.68 417.314 242.943H418.22L419.909 232.727H431.484L420.774 297.483C419.895 302.92 417.918 307.369 414.842 310.83C411.766 314.317 407.949 316.885 403.39 318.533C398.859 320.208 393.943 321.045 388.643 321.045ZM394.163 285.084C397.733 285.084 400.919 284.246 403.72 282.571C406.548 280.896 408.896 278.479 410.764 275.321C412.659 272.135 413.963 268.346 414.677 263.952C415.391 259.613 415.35 255.809 414.554 252.541C413.757 249.246 412.233 246.678 409.981 244.838C407.729 242.998 404.791 242.078 401.166 242.078C397.376 242.078 394.081 243.053 391.279 245.003C388.478 246.925 386.199 249.548 384.441 252.871C382.711 256.166 381.503 259.86 380.816 263.952C380.157 268.126 380.171 271.806 380.858 274.991C381.572 278.15 383.027 280.621 385.224 282.406C387.421 284.191 390.401 285.084 394.163 285.084ZM437.756 296L448.301 232.727H460.124L449.578 296H437.756ZM456.869 222.676C454.782 222.676 453.011 221.976 451.555 220.575C450.1 219.147 449.413 217.445 449.496 215.467C449.578 213.49 450.388 211.801 451.926 210.401C453.491 208.973 455.318 208.259 457.405 208.259C459.492 208.259 461.25 208.973 462.678 210.401C464.133 211.801 464.82 213.49 464.737 215.467C464.682 217.445 463.872 219.147 462.307 220.575C460.769 221.976 458.956 222.676 456.869 222.676ZM484.5 258.349L478.279 296H466.416L476.961 232.727H488.372L486.642 242.984H487.466C489.443 239.634 492.162 236.956 495.622 234.952C499.082 232.92 503.188 231.903 507.939 231.903C512.195 231.903 515.793 232.796 518.731 234.581C521.67 236.366 523.743 239.03 524.951 242.572C526.187 246.115 526.379 250.509 525.528 255.754L518.772 296H506.909L513.376 257.114C514.145 252.473 513.541 248.834 511.564 246.197C509.614 243.561 506.511 242.243 502.254 242.243C499.343 242.243 496.652 242.875 494.18 244.138C491.708 245.374 489.621 247.2 487.919 249.616C486.243 252.006 485.104 254.917 484.5 258.349Z" fill="black"/>
</svg>
