<svg width="765" height="490" viewBox="0 0 765 490" fill="none" xmlns="http://www.w3.org/2000/svg">
<rect width="765" height="490" fill="#BDBCBB"/>
<rect width="765" height="39" fill="#FFF8F8"/>
<path d="M192.574 30L194.506 18.3636H198.614C199.515 18.3636 200.235 18.5284 200.773 18.858C201.314 19.1837 201.684 19.6307 201.881 20.1989C202.081 20.767 202.123 21.4053 202.006 22.1136C201.888 22.822 201.634 23.4602 201.244 24.0284C200.858 24.5966 200.339 25.0473 199.688 25.3807C199.04 25.714 198.267 25.8807 197.369 25.8807H194.517L194.756 24.4318H197.46C198.044 24.4318 198.532 24.3314 198.926 24.1307C199.324 23.9299 199.634 23.6553 199.858 23.3068C200.085 22.9545 200.235 22.5568 200.307 22.1136C200.379 21.6667 200.36 21.2727 200.25 20.9318C200.14 20.5871 199.92 20.3163 199.591 20.1193C199.261 19.9223 198.803 19.8239 198.216 19.8239H195.966L194.267 30H192.574ZM206.232 30.1761C205.379 30.1761 204.675 29.9924 204.118 29.625C203.561 29.2538 203.171 28.733 202.947 28.0625C202.728 27.3883 202.692 26.6004 202.839 25.6989C202.987 24.8011 203.283 24.0114 203.726 23.3295C204.173 22.6477 204.73 22.1155 205.396 21.733C206.067 21.3504 206.804 21.1591 207.607 21.1591C208.091 21.1591 208.55 21.2405 208.982 21.4034C209.417 21.5625 209.788 21.8163 210.095 22.1648C210.406 22.5095 210.62 22.9602 210.737 23.517C210.858 24.0739 210.853 24.7481 210.72 25.5398L210.624 26.1364H203.726L203.919 24.8807H209.209C209.288 24.4299 209.266 24.0284 209.141 23.6761C209.019 23.3201 208.809 23.0398 208.51 22.8352C208.214 22.6307 207.841 22.5284 207.391 22.5284C206.925 22.5284 206.491 22.6515 206.089 22.8977C205.688 23.1402 205.353 23.4489 205.084 23.8239C204.815 24.1989 204.646 24.5871 204.578 24.9886L204.391 26.1193C204.288 26.7708 204.305 27.2936 204.442 27.6875C204.582 28.0814 204.824 28.3674 205.169 28.5455C205.514 28.7197 205.947 28.8068 206.47 28.8068C206.807 28.8068 207.118 28.7614 207.402 28.6705C207.686 28.5758 207.94 28.4356 208.163 28.25C208.387 28.0606 208.574 27.8258 208.726 27.5455L210.226 27.8466C210.018 28.3125 209.718 28.7216 209.328 29.0739C208.942 29.4223 208.485 29.6932 207.959 29.8864C207.436 30.0795 206.86 30.1761 206.232 30.1761ZM211.916 30L213.371 21.2727H214.95L214.717 22.6477H214.808C215.039 22.1856 215.382 21.8201 215.837 21.5511C216.291 21.2784 216.776 21.142 217.291 21.142C217.397 21.142 217.52 21.1439 217.661 21.1477C217.804 21.1515 217.918 21.161 218.001 21.1761L217.74 22.7557C217.679 22.7367 217.564 22.7159 217.393 22.6932C217.223 22.6667 217.049 22.6534 216.871 22.6534C216.465 22.6534 216.09 22.7386 215.746 22.9091C215.401 23.0795 215.111 23.3144 214.876 23.6136C214.645 23.9129 214.498 24.2538 214.433 24.6364L213.547 30H211.916ZM224.135 21.2727L223.919 22.5966H219.027L219.243 21.2727H224.135ZM219.146 30L220.777 20.2273C220.86 19.6894 221.05 19.2424 221.345 18.8864C221.644 18.5303 222.004 18.2633 222.425 18.0852C222.845 17.9072 223.283 17.8182 223.737 17.8182C224.078 17.8182 224.36 17.8466 224.584 17.9034C224.811 17.9564 224.978 18.0057 225.084 18.0511L224.47 19.3864C224.398 19.3636 224.304 19.3371 224.186 19.3068C224.069 19.2727 223.919 19.2557 223.737 19.2557C223.321 19.2557 223.004 19.3598 222.788 19.5682C222.576 19.7727 222.434 20.072 222.362 20.4659L220.783 30H219.146ZM227.797 30.1761C226.971 30.1761 226.282 29.9867 225.729 29.608C225.176 29.2254 224.786 28.6913 224.558 28.0057C224.335 27.3163 224.297 26.5152 224.445 25.6023C224.589 24.7083 224.878 23.928 225.314 23.2614C225.75 22.5947 226.297 22.0777 226.956 21.7102C227.615 21.3428 228.346 21.1591 229.149 21.1591C229.975 21.1591 230.662 21.3504 231.212 21.733C231.765 22.1155 232.155 22.6515 232.382 23.3409C232.609 24.0303 232.649 24.8352 232.501 25.7557C232.357 26.642 232.064 27.4167 231.621 28.0795C231.181 28.7424 230.634 29.2576 229.979 29.625C229.327 29.9924 228.6 30.1761 227.797 30.1761ZM227.882 28.7898C228.439 28.7898 228.924 28.6439 229.337 28.3523C229.753 28.0606 230.092 27.6723 230.354 27.1875C230.619 26.7027 230.799 26.1723 230.893 25.5966C230.981 25.0473 230.979 24.5417 230.888 24.0795C230.797 23.6136 230.604 23.2405 230.308 22.9602C230.013 22.6799 229.598 22.5398 229.064 22.5398C228.507 22.5398 228.018 22.6875 227.598 22.983C227.181 23.2784 226.842 23.6705 226.581 24.1591C226.32 24.6439 226.143 25.1742 226.053 25.75C225.965 26.2992 225.965 26.8049 226.053 27.267C226.143 27.7292 226.337 28.0985 226.632 28.375C226.931 28.6515 227.348 28.7898 227.882 28.7898ZM233.729 30L235.183 21.2727H236.763L236.53 22.6477H236.621C236.852 22.1856 237.195 21.8201 237.649 21.5511C238.104 21.2784 238.589 21.142 239.104 21.142C239.21 21.142 239.333 21.1439 239.473 21.1477C239.617 21.1515 239.731 21.161 239.814 21.1761L239.553 22.7557C239.492 22.7367 239.376 22.7159 239.206 22.6932C239.036 22.6667 238.861 22.6534 238.683 22.6534C238.278 22.6534 237.903 22.7386 237.558 22.9091C237.214 23.0795 236.924 23.3144 236.689 23.6136C236.458 23.9129 236.31 24.2538 236.246 24.6364L235.359 30H233.729ZM239.869 30L241.324 21.2727H242.898L242.659 22.6875H242.773C243.034 22.2064 243.392 21.8314 243.847 21.5625C244.305 21.2936 244.822 21.1591 245.398 21.1591C245.97 21.1591 246.432 21.2955 246.784 21.5682C247.136 21.8371 247.371 22.2102 247.489 22.6875H247.58C247.864 22.2178 248.256 21.8466 248.756 21.5739C249.256 21.2973 249.822 21.1591 250.455 21.1591C251.235 21.1591 251.835 21.4072 252.256 21.9034C252.676 22.3996 252.803 23.1496 252.636 24.1534L251.659 30H250.023L250.983 24.2841C251.078 23.678 250.985 23.2424 250.705 22.9773C250.424 22.7121 250.057 22.5795 249.602 22.5795C249.038 22.5795 248.57 22.7519 248.199 23.0966C247.831 23.4375 247.606 23.8769 247.523 24.4148L246.58 30H244.949L245.926 24.1705C246.002 23.6894 245.915 23.3049 245.665 23.017C245.415 22.7254 245.049 22.5795 244.568 22.5795C244.239 22.5795 243.92 22.6667 243.614 22.8409C243.307 23.0114 243.044 23.25 242.824 23.5568C242.608 23.8598 242.47 24.2083 242.409 24.6023L241.506 30H239.869ZM256.486 30.1932C255.933 30.1932 255.448 30.0909 255.031 29.8864C254.618 29.678 254.313 29.3769 254.116 28.983C253.92 28.5852 253.868 28.1023 253.963 27.5341C254.046 27.0379 254.211 26.6326 254.457 26.3182C254.704 26 255.003 25.7481 255.355 25.5625C255.707 25.3769 256.09 25.2367 256.503 25.142C256.916 25.0473 257.332 24.9773 257.753 24.9318C258.283 24.8674 258.713 24.8163 259.043 24.7784C259.376 24.7367 259.626 24.6723 259.793 24.5852C259.963 24.4943 260.065 24.3466 260.099 24.142V24.0966C260.183 23.5966 260.111 23.2064 259.884 22.9261C259.66 22.642 259.27 22.5 258.713 22.5C258.134 22.5 257.647 22.6288 257.253 22.8864C256.859 23.1402 256.571 23.4223 256.389 23.733L254.929 23.3523C255.205 22.822 255.556 22.3958 255.98 22.0739C256.404 21.7519 256.865 21.5189 257.361 21.375C257.861 21.2311 258.366 21.1591 258.878 21.1591C259.211 21.1591 259.563 21.1989 259.935 21.2784C260.31 21.358 260.651 21.5057 260.957 21.7216C261.268 21.9337 261.499 22.2405 261.651 22.642C261.802 23.0436 261.825 23.5663 261.719 24.2102L260.759 30H259.156L259.361 28.8125H259.293C259.152 29.0246 258.955 29.2367 258.702 29.4489C258.448 29.661 258.135 29.839 257.764 29.983C257.397 30.1231 256.971 30.1932 256.486 30.1932ZM257.031 28.8636C257.512 28.8636 257.938 28.7689 258.31 28.5795C258.681 28.3864 258.982 28.1383 259.213 27.8352C259.444 27.5284 259.588 27.2008 259.645 26.8523L259.838 25.7045C259.766 25.7689 259.637 25.8277 259.452 25.8807C259.27 25.9299 259.063 25.9735 258.832 26.0114C258.605 26.0455 258.382 26.0777 258.162 26.108C257.946 26.1345 257.768 26.1572 257.628 26.1761C257.291 26.2216 256.974 26.2936 256.679 26.392C256.384 26.4905 256.135 26.6326 255.935 26.8182C255.738 27.0038 255.616 27.2519 255.571 27.5625C255.499 27.9905 255.601 28.3144 255.878 28.5341C256.154 28.7538 256.539 28.8636 257.031 28.8636ZM265.551 24.8068L264.693 30H263.057L264.511 21.2727H266.085L265.847 22.6875H265.96C266.233 22.2254 266.608 21.8561 267.085 21.5795C267.563 21.2992 268.129 21.1591 268.784 21.1591C269.371 21.1591 269.867 21.2822 270.273 21.5284C270.678 21.7746 270.964 22.142 271.131 22.6307C271.301 23.1193 271.328 23.7254 271.21 24.4489L270.278 30H268.642L269.534 24.6364C269.64 23.9962 269.557 23.4943 269.284 23.1307C269.015 22.767 268.587 22.5852 268 22.5852C267.598 22.5852 267.227 22.6723 266.886 22.8466C266.545 23.017 266.258 23.2689 266.023 23.6023C265.792 23.9318 265.634 24.3333 265.551 24.8068ZM276.203 30.1761C275.358 30.1761 274.665 29.9848 274.124 29.6023C273.586 29.2159 273.211 28.6837 272.999 28.0057C272.79 27.3277 272.758 26.5511 272.902 25.6761C273.046 24.7898 273.339 24.0076 273.783 23.3295C274.23 22.6477 274.786 22.1155 275.453 21.733C276.124 21.3504 276.866 21.1591 277.68 21.1591C278.336 21.1591 278.9 21.2803 279.374 21.5227C279.847 21.7614 280.207 22.0985 280.453 22.5341C280.699 22.9659 280.807 23.4735 280.777 24.0568H279.175C279.148 23.6477 278.995 23.2955 278.714 23C278.434 22.7008 278.021 22.5511 277.476 22.5511C276.991 22.5511 276.546 22.678 276.141 22.9318C275.735 23.1818 275.394 23.5379 275.118 24C274.841 24.4621 274.652 25.0076 274.55 25.6364C274.444 26.2765 274.449 26.8333 274.567 27.3068C274.688 27.7765 274.908 28.1402 275.226 28.3977C275.548 28.6515 275.953 28.7784 276.442 28.7784C276.771 28.7784 277.078 28.7197 277.362 28.6023C277.65 28.4811 277.904 28.3087 278.124 28.0852C278.343 27.8617 278.518 27.5928 278.646 27.2784H280.243C280.08 27.8352 279.809 28.3314 279.43 28.767C279.052 29.2027 278.588 29.5473 278.038 29.8011C277.493 30.0511 276.881 30.1761 276.203 30.1761ZM285.357 30.1761C284.504 30.1761 283.8 29.9924 283.243 29.625C282.686 29.2538 282.296 28.733 282.072 28.0625C281.853 27.3883 281.817 26.6004 281.964 25.6989C282.112 24.8011 282.408 24.0114 282.851 23.3295C283.298 22.6477 283.855 22.1155 284.521 21.733C285.192 21.3504 285.929 21.1591 286.732 21.1591C287.216 21.1591 287.675 21.2405 288.107 21.4034C288.542 21.5625 288.913 21.8163 289.22 22.1648C289.531 22.5095 289.745 22.9602 289.862 23.517C289.983 24.0739 289.978 24.7481 289.845 25.5398L289.749 26.1364H282.851L283.044 24.8807H288.334C288.413 24.4299 288.391 24.0284 288.266 23.6761C288.144 23.3201 287.934 23.0398 287.635 22.8352C287.339 22.6307 286.966 22.5284 286.516 22.5284C286.05 22.5284 285.616 22.6515 285.214 22.8977C284.813 23.1402 284.478 23.4489 284.209 23.8239C283.94 24.1989 283.771 24.5871 283.703 24.9886L283.516 26.1193C283.413 26.7708 283.43 27.2936 283.567 27.6875C283.707 28.0814 283.949 28.3674 284.294 28.5455C284.639 28.7197 285.072 28.8068 285.595 28.8068C285.932 28.8068 286.243 28.7614 286.527 28.6705C286.811 28.5758 287.065 28.4356 287.288 28.25C287.512 28.0606 287.699 27.8258 287.851 27.5455L289.351 27.8466C289.143 28.3125 288.843 28.7216 288.453 29.0739C288.067 29.4223 287.61 29.6932 287.084 29.8864C286.561 30.0795 285.985 30.1761 285.357 30.1761ZM297.396 18.3636H299.447L301.686 27.517H301.822L307.084 18.3636H309.135L307.203 30H305.595L307.01 21.5057H306.902L302.021 29.983H300.652L298.607 21.5H298.493L297.072 30H295.464L297.396 18.3636ZM312.189 30.1932C311.636 30.1932 311.151 30.0909 310.734 29.8864C310.321 29.678 310.017 29.3769 309.82 28.983C309.623 28.5852 309.571 28.1023 309.666 27.5341C309.75 27.0379 309.914 26.6326 310.161 26.3182C310.407 26 310.706 25.7481 311.058 25.5625C311.411 25.3769 311.793 25.2367 312.206 25.142C312.619 25.0473 313.036 24.9773 313.456 24.9318C313.986 24.8674 314.416 24.8163 314.746 24.7784C315.079 24.7367 315.329 24.6723 315.496 24.5852C315.666 24.4943 315.768 24.3466 315.803 24.142V24.0966C315.886 23.5966 315.814 23.2064 315.587 22.9261C315.363 22.642 314.973 22.5 314.416 22.5C313.837 22.5 313.35 22.6288 312.956 22.8864C312.562 23.1402 312.274 23.4223 312.092 23.733L310.632 23.3523C310.909 22.822 311.259 22.3958 311.683 22.0739C312.107 21.7519 312.568 21.5189 313.064 21.375C313.564 21.2311 314.07 21.1591 314.581 21.1591C314.914 21.1591 315.267 21.1989 315.638 21.2784C316.013 21.358 316.354 21.5057 316.661 21.7216C316.971 21.9337 317.202 22.2405 317.354 22.642C317.505 23.0436 317.528 23.5663 317.422 24.2102L316.462 30H314.859L315.064 28.8125H314.996C314.856 29.0246 314.659 29.2367 314.405 29.4489C314.151 29.661 313.839 29.839 313.467 29.983C313.1 30.1231 312.674 30.1932 312.189 30.1932ZM312.734 28.8636C313.215 28.8636 313.642 28.7689 314.013 28.5795C314.384 28.3864 314.685 28.1383 314.916 27.8352C315.147 27.5284 315.291 27.2008 315.348 26.8523L315.541 25.7045C315.469 25.7689 315.34 25.8277 315.155 25.8807C314.973 25.9299 314.767 25.9735 314.536 26.0114C314.308 26.0455 314.085 26.0777 313.865 26.108C313.649 26.1345 313.471 26.1572 313.331 26.1761C312.994 26.2216 312.678 26.2936 312.382 26.392C312.087 26.4905 311.839 26.6326 311.638 26.8182C311.441 27.0038 311.32 27.2519 311.274 27.5625C311.202 27.9905 311.304 28.3144 311.581 28.5341C311.857 28.7538 312.242 28.8636 312.734 28.8636ZM321.254 24.8068L320.396 30H318.76L320.214 21.2727H321.788L321.55 22.6875H321.663C321.936 22.2254 322.311 21.8561 322.788 21.5795C323.266 21.2992 323.832 21.1591 324.487 21.1591C325.074 21.1591 325.571 21.2822 325.976 21.5284C326.381 21.7746 326.667 22.142 326.834 22.6307C327.004 23.1193 327.031 23.7254 326.913 24.4489L325.982 30H324.345L325.237 24.6364C325.343 23.9962 325.26 23.4943 324.987 23.1307C324.718 22.767 324.29 22.5852 323.703 22.5852C323.302 22.5852 322.93 22.6723 322.589 22.8466C322.249 23.017 321.961 23.2689 321.726 23.6023C321.495 23.9318 321.338 24.3333 321.254 24.8068ZM330.798 30.1932C330.245 30.1932 329.76 30.0909 329.344 29.8864C328.931 29.678 328.626 29.3769 328.429 28.983C328.232 28.5852 328.181 28.1023 328.276 27.5341C328.359 27.0379 328.524 26.6326 328.77 26.3182C329.016 26 329.315 25.7481 329.668 25.5625C330.02 25.3769 330.402 25.2367 330.815 25.142C331.228 25.0473 331.645 24.9773 332.065 24.9318C332.596 24.8674 333.026 24.8163 333.355 24.7784C333.688 24.7367 333.938 24.6723 334.105 24.5852C334.276 24.4943 334.378 24.3466 334.412 24.142V24.0966C334.495 23.5966 334.423 23.2064 334.196 22.9261C333.973 22.642 333.582 22.5 333.026 22.5C332.446 22.5 331.959 22.6288 331.565 22.8864C331.171 23.1402 330.884 23.4223 330.702 23.733L329.241 23.3523C329.518 22.822 329.868 22.3958 330.293 22.0739C330.717 21.7519 331.177 21.5189 331.673 21.375C332.173 21.2311 332.679 21.1591 333.19 21.1591C333.524 21.1591 333.876 21.1989 334.247 21.2784C334.622 21.358 334.963 21.5057 335.27 21.7216C335.58 21.9337 335.812 22.2405 335.963 22.642C336.115 23.0436 336.137 23.5663 336.031 24.2102L335.071 30H333.469L333.673 28.8125H333.605C333.465 29.0246 333.268 29.2367 333.014 29.4489C332.76 29.661 332.448 29.839 332.077 29.983C331.709 30.1231 331.283 30.1932 330.798 30.1932ZM331.344 28.8636C331.825 28.8636 332.251 28.7689 332.622 28.5795C332.993 28.3864 333.295 28.1383 333.526 27.8352C333.757 27.5284 333.901 27.2008 333.957 26.8523L334.151 25.7045C334.079 25.7689 333.95 25.8277 333.764 25.8807C333.582 25.9299 333.376 25.9735 333.145 26.0114C332.918 26.0455 332.694 26.0777 332.474 26.108C332.259 26.1345 332.08 26.1572 331.94 26.1761C331.603 26.2216 331.287 26.2936 330.991 26.392C330.696 26.4905 330.448 26.6326 330.247 26.8182C330.05 27.0038 329.929 27.2519 329.884 27.5625C329.812 27.9905 329.914 28.3144 330.19 28.5341C330.467 28.7538 330.851 28.8636 331.344 28.8636ZM340.455 33.4545C339.765 33.4545 339.189 33.3655 338.727 33.1875C338.265 33.0095 337.9 32.7727 337.631 32.4773C337.366 32.1818 337.18 31.8617 337.074 31.517L338.58 30.892C338.655 31.0549 338.761 31.2311 338.898 31.4205C339.034 31.6136 339.241 31.7784 339.517 31.9148C339.794 32.0511 340.174 32.1193 340.659 32.1193C341.311 32.1193 341.881 31.9602 342.369 31.642C342.862 31.3239 343.165 30.8201 343.278 30.1307L343.551 28.4034H343.438C343.312 28.5852 343.136 28.7917 342.909 29.0227C342.686 29.25 342.392 29.4489 342.028 29.6193C341.669 29.786 341.22 29.8693 340.682 29.8693C339.989 29.8693 339.392 29.7064 338.892 29.3807C338.396 29.0549 338.038 28.5758 337.818 27.9432C337.602 27.3068 337.572 26.5246 337.727 25.5966C337.879 24.6761 338.167 23.8845 338.591 23.2216C339.015 22.5587 339.534 22.0492 340.148 21.6932C340.761 21.3371 341.422 21.1591 342.131 21.1591C342.676 21.1591 343.1 21.25 343.403 21.4318C343.71 21.6136 343.936 21.8239 344.08 22.0625C344.227 22.3011 344.337 22.5076 344.409 22.6818H344.534L344.767 21.2727H346.364L344.886 30.2045C344.765 30.9545 344.492 31.5682 344.068 32.0455C343.644 32.5265 343.117 32.8807 342.489 33.108C341.864 33.339 341.186 33.4545 340.455 33.4545ZM341.216 28.4943C341.708 28.4943 342.148 28.3788 342.534 28.1477C342.924 27.9167 343.248 27.5833 343.506 27.1477C343.767 26.7083 343.947 26.1856 344.045 25.5795C344.144 24.9811 344.138 24.4564 344.028 24.0057C343.919 23.5511 343.708 23.197 343.398 22.9432C343.087 22.6894 342.682 22.5625 342.182 22.5625C341.659 22.5625 341.205 22.697 340.818 22.9659C340.432 23.2311 340.117 23.5928 339.875 24.0511C339.636 24.5057 339.47 25.0152 339.375 25.5795C339.284 26.1553 339.286 26.6629 339.381 27.1023C339.479 27.5379 339.68 27.8788 339.983 28.125C340.286 28.3712 340.697 28.4943 341.216 28.4943ZM347.229 30L348.683 21.2727H350.257L350.018 22.6875H350.132C350.393 22.2064 350.751 21.8314 351.206 21.5625C351.664 21.2936 352.181 21.1591 352.757 21.1591C353.329 21.1591 353.791 21.2955 354.143 21.5682C354.496 21.8371 354.731 22.2102 354.848 22.6875H354.939C355.223 22.2178 355.615 21.8466 356.115 21.5739C356.615 21.2973 357.181 21.1591 357.814 21.1591C358.594 21.1591 359.195 21.4072 359.615 21.9034C360.036 22.3996 360.162 23.1496 359.996 24.1534L359.018 30H357.382L358.342 24.2841C358.437 23.678 358.344 23.2424 358.064 22.9773C357.784 22.7121 357.416 22.5795 356.962 22.5795C356.397 22.5795 355.929 22.7519 355.558 23.0966C355.191 23.4375 354.965 23.8769 354.882 24.4148L353.939 30H352.308L353.286 24.1705C353.361 23.6894 353.274 23.3049 353.024 23.017C352.774 22.7254 352.409 22.5795 351.928 22.5795C351.598 22.5795 351.28 22.6667 350.973 22.8409C350.666 23.0114 350.403 23.25 350.183 23.5568C349.967 23.8598 349.829 24.2083 349.768 24.6023L348.865 30H347.229ZM365.044 30.1761C364.192 30.1761 363.487 29.9924 362.93 29.625C362.374 29.2538 361.983 28.733 361.76 28.0625C361.54 27.3883 361.504 26.6004 361.652 25.6989C361.8 24.8011 362.095 24.0114 362.538 23.3295C362.985 22.6477 363.542 22.1155 364.209 21.733C364.879 21.3504 365.616 21.1591 366.419 21.1591C366.904 21.1591 367.362 21.2405 367.794 21.4034C368.23 21.5625 368.601 21.8163 368.908 22.1648C369.218 22.5095 369.432 22.9602 369.55 23.517C369.671 24.0739 369.665 24.7481 369.533 25.5398L369.436 26.1364H362.538L362.732 24.8807H368.021C368.101 24.4299 368.078 24.0284 367.953 23.6761C367.832 23.3201 367.622 23.0398 367.322 22.8352C367.027 22.6307 366.654 22.5284 366.203 22.5284C365.737 22.5284 365.304 22.6515 364.902 22.8977C364.5 23.1402 364.165 23.4489 363.896 23.8239C363.627 24.1989 363.459 24.5871 363.391 24.9886L363.203 26.1193C363.101 26.7708 363.118 27.2936 363.254 27.6875C363.394 28.0814 363.637 28.3674 363.982 28.5455C364.326 28.7197 364.76 28.8068 365.283 28.8068C365.62 28.8068 365.93 28.7614 366.214 28.6705C366.499 28.5758 366.752 28.4356 366.976 28.25C367.199 28.0606 367.387 27.8258 367.538 27.5455L369.038 27.8466C368.83 28.3125 368.531 28.7216 368.141 29.0739C367.754 29.4223 367.298 29.6932 366.771 29.8864C366.249 30.0795 365.673 30.1761 365.044 30.1761ZM373.223 24.8068L372.365 30H370.729L372.183 21.2727H373.757L373.518 22.6875H373.632C373.905 22.2254 374.28 21.8561 374.757 21.5795C375.234 21.2992 375.801 21.1591 376.456 21.1591C377.043 21.1591 377.539 21.2822 377.945 21.5284C378.35 21.7746 378.636 22.142 378.803 22.6307C378.973 23.1193 379 23.7254 378.882 24.4489L377.95 30H376.314L377.206 24.6364C377.312 23.9962 377.229 23.4943 376.956 23.1307C376.687 22.767 376.259 22.5852 375.672 22.5852C375.27 22.5852 374.899 22.6723 374.558 22.8466C374.217 23.017 373.929 23.2689 373.695 23.6023C373.464 23.9318 373.306 24.3333 373.223 24.8068ZM385.722 21.2727L385.506 22.5966H380.784L381 21.2727H385.722ZM382.625 19.1818H384.261L382.881 27.4489C382.828 27.786 382.837 28.0398 382.909 28.2102C382.981 28.3807 383.095 28.4962 383.25 28.5568C383.405 28.6136 383.576 28.642 383.761 28.642C383.902 28.642 384.021 28.6326 384.119 28.6136C384.222 28.5947 384.303 28.5795 384.364 28.5682L384.455 29.9375C384.341 29.9754 384.189 30.0133 384 30.0511C383.814 30.0928 383.587 30.1136 383.318 30.1136C382.883 30.1212 382.487 30.0417 382.131 29.875C381.778 29.7083 381.513 29.4527 381.335 29.108C381.157 28.7595 381.114 28.3239 381.205 27.8011L382.625 19.1818Z" fill="black"/>
<g filter="url(#filter0_i_47_98)">
<rect x="462" y="39" width="188" height="70" fill="#FCFCFC"/>
</g>
<rect x="462.5" y="39.5" width="187" height="69" stroke="black"/>
<g filter="url(#filter1_i_47_98)">
<rect x="462" y="15" width="68" height="21" fill="#F7F6F6"/>
</g>
<path d="M463.466 32H461.676L467.807 20.3636H469.733L472 32H470.21L468.483 22.4261H468.392L463.466 32ZM464.574 27.4489H470.602L470.364 28.8807H464.335L464.574 27.4489ZM477.078 32.1761C476.233 32.1761 475.54 31.9848 474.999 31.6023C474.461 31.2159 474.086 30.6837 473.874 30.0057C473.665 29.3277 473.633 28.5511 473.777 27.6761C473.921 26.7898 474.214 26.0076 474.658 25.3295C475.105 24.6477 475.661 24.1155 476.328 23.733C476.999 23.3504 477.741 23.1591 478.555 23.1591C479.211 23.1591 479.775 23.2803 480.249 23.5227C480.722 23.7614 481.082 24.0985 481.328 24.5341C481.574 24.9659 481.682 25.4735 481.652 26.0568H480.05C480.023 25.6477 479.87 25.2955 479.589 25C479.309 24.7008 478.896 24.5511 478.351 24.5511C477.866 24.5511 477.421 24.678 477.016 24.9318C476.61 25.1818 476.269 25.5379 475.993 26C475.716 26.4621 475.527 27.0076 475.425 27.6364C475.319 28.2765 475.324 28.8333 475.442 29.3068C475.563 29.7765 475.783 30.1402 476.101 30.3977C476.423 30.6515 476.828 30.7784 477.317 30.7784C477.646 30.7784 477.953 30.7197 478.237 30.6023C478.525 30.4811 478.779 30.3087 478.999 30.0852C479.218 29.8617 479.393 29.5928 479.521 29.2784H481.118C480.955 29.8352 480.684 30.3314 480.305 30.767C479.927 31.2027 479.463 31.5473 478.913 31.8011C478.368 32.0511 477.756 32.1761 477.078 32.1761ZM486.141 32.1761C485.296 32.1761 484.603 31.9848 484.061 31.6023C483.523 31.2159 483.148 30.6837 482.936 30.0057C482.728 29.3277 482.696 28.5511 482.839 27.6761C482.983 26.7898 483.277 26.0076 483.72 25.3295C484.167 24.6477 484.724 24.1155 485.391 23.733C486.061 23.3504 486.804 23.1591 487.618 23.1591C488.273 23.1591 488.838 23.2803 489.311 23.5227C489.785 23.7614 490.144 24.0985 490.391 24.5341C490.637 24.9659 490.745 25.4735 490.714 26.0568H489.112C489.086 25.6477 488.932 25.2955 488.652 25C488.372 24.7008 487.959 24.5511 487.413 24.5511C486.929 24.5511 486.483 24.678 486.078 24.9318C485.673 25.1818 485.332 25.5379 485.055 26C484.779 26.4621 484.589 27.0076 484.487 27.6364C484.381 28.2765 484.387 28.8333 484.504 29.3068C484.625 29.7765 484.845 30.1402 485.163 30.3977C485.485 30.6515 485.891 30.7784 486.379 30.7784C486.709 30.7784 487.016 30.7197 487.3 30.6023C487.588 30.4811 487.841 30.3087 488.061 30.0852C488.281 29.8617 488.455 29.5928 488.584 29.2784H490.18C490.018 29.8352 489.747 30.3314 489.368 30.767C488.989 31.2027 488.525 31.5473 487.976 31.8011C487.43 32.0511 486.819 32.1761 486.141 32.1761ZM495.266 32.1761C494.44 32.1761 493.75 31.9867 493.197 31.608C492.644 31.2254 492.254 30.6913 492.027 30.0057C491.804 29.3163 491.766 28.5152 491.913 27.6023C492.057 26.7083 492.347 25.928 492.783 25.2614C493.218 24.5947 493.766 24.0777 494.425 23.7102C495.084 23.3428 495.815 23.1591 496.618 23.1591C497.444 23.1591 498.131 23.3504 498.68 23.733C499.233 24.1155 499.624 24.6515 499.851 25.3409C500.078 26.0303 500.118 26.8352 499.97 27.7557C499.826 28.642 499.533 29.4167 499.089 30.0795C498.65 30.7424 498.103 31.2576 497.447 31.625C496.796 31.9924 496.069 32.1761 495.266 32.1761ZM495.351 30.7898C495.908 30.7898 496.393 30.6439 496.805 30.3523C497.222 30.0606 497.561 29.6723 497.822 29.1875C498.088 28.7027 498.268 28.1723 498.362 27.5966C498.449 27.0473 498.447 26.5417 498.357 26.0795C498.266 25.6136 498.072 25.2405 497.777 24.9602C497.482 24.6799 497.067 24.5398 496.533 24.5398C495.976 24.5398 495.487 24.6875 495.067 24.983C494.65 25.2784 494.311 25.6705 494.05 26.1591C493.788 26.6439 493.612 27.1742 493.521 27.75C493.434 28.2992 493.434 28.8049 493.521 29.267C493.612 29.7292 493.805 30.0985 494.101 30.375C494.4 30.6515 494.817 30.7898 495.351 30.7898ZM507.317 28.392L508.175 23.2727H509.811L508.357 32H506.749L506.999 30.4943H506.908C506.639 30.9564 506.256 31.3428 505.76 31.6534C505.264 31.9602 504.686 32.1136 504.027 32.1136C503.47 32.1136 502.997 31.9905 502.607 31.7443C502.22 31.4981 501.946 31.1307 501.783 30.642C501.62 30.1534 501.599 29.5473 501.72 28.8239L502.652 23.2727H504.283L503.391 28.6364C503.296 29.2386 503.385 29.7197 503.658 30.0795C503.934 30.4356 504.338 30.6136 504.868 30.6136C505.19 30.6136 505.523 30.5341 505.868 30.375C506.216 30.2121 506.525 29.9678 506.794 29.642C507.063 29.3125 507.237 28.8958 507.317 28.392ZM513.161 26.8068L512.303 32H510.666L512.121 23.2727H513.695L513.456 24.6875H513.57C513.842 24.2254 514.217 23.8561 514.695 23.5795C515.172 23.2992 515.738 23.1591 516.393 23.1591C516.981 23.1591 517.477 23.2822 517.882 23.5284C518.287 23.7746 518.573 24.142 518.74 24.6307C518.911 25.1193 518.937 25.7254 518.82 26.4489L517.888 32H516.251L517.143 26.6364C517.25 25.9962 517.166 25.4943 516.893 25.1307C516.625 24.767 516.196 24.5852 515.609 24.5852C515.208 24.5852 514.837 24.6723 514.496 24.8466C514.155 25.017 513.867 25.2689 513.632 25.6023C513.401 25.9318 513.244 26.3333 513.161 26.8068ZM525.659 23.2727L525.443 24.5966H520.722L520.938 23.2727H525.659ZM522.562 21.1818H524.199L522.818 29.4489C522.765 29.786 522.775 30.0398 522.847 30.2102C522.919 30.3807 523.032 30.4962 523.188 30.5568C523.343 30.6136 523.513 30.642 523.699 30.642C523.839 30.642 523.958 30.6326 524.057 30.6136C524.159 30.5947 524.241 30.5795 524.301 30.5682L524.392 31.9375C524.278 31.9754 524.127 32.0133 523.938 32.0511C523.752 32.0928 523.525 32.1136 523.256 32.1136C522.82 32.1212 522.424 32.0417 522.068 31.875C521.716 31.7083 521.451 31.4527 521.273 31.108C521.095 30.7595 521.051 30.3239 521.142 29.8011L522.562 21.1818Z" fill="black"/>
<g filter="url(#filter2_i_47_98)">
<path d="M10.5739 32L12.5057 20.3636H19.75L19.5114 21.8239H13.9602L13.358 25.4432H18.5341L18.2898 26.9034H13.1136L12.5114 30.5398H18.1364L17.892 32H10.5739ZM20.0568 32L21.5114 23.2727H23.0852L22.8466 24.6875H22.9602C23.2216 24.2064 23.5795 23.8314 24.0341 23.5625C24.4924 23.2936 25.0095 23.1591 25.5852 23.1591C26.1572 23.1591 26.6193 23.2955 26.9716 23.5682C27.3239 23.8371 27.5587 24.2102 27.6761 24.6875H27.767C28.0511 24.2178 28.4432 23.8466 28.9432 23.5739C29.4432 23.2973 30.0095 23.1591 30.642 23.1591C31.4223 23.1591 32.0227 23.4072 32.4432 23.9034C32.8636 24.3996 32.9905 25.1496 32.8239 26.1534L31.8466 32H30.2102L31.1705 26.2841C31.2652 25.678 31.1723 25.2424 30.892 24.9773C30.6117 24.7121 30.2443 24.5795 29.7898 24.5795C29.2254 24.5795 28.7576 24.7519 28.3864 25.0966C28.0189 25.4375 27.7936 25.8769 27.7102 26.4148L26.767 32H25.1364L26.1136 26.1705C26.1894 25.6894 26.1023 25.3049 25.8523 25.017C25.6023 24.7254 25.2367 24.5795 24.7557 24.5795C24.4261 24.5795 24.108 24.6667 23.8011 24.8409C23.4943 25.0114 23.2311 25.25 23.0114 25.5568C22.7955 25.8598 22.6572 26.2083 22.5966 26.6023L21.6932 32H20.0568ZM33.6051 35.2727L35.6165 23.2727H37.2131L36.9801 24.6818H37.1222C37.2509 24.5076 37.4252 24.3011 37.6449 24.0625C37.8684 23.8239 38.1619 23.6136 38.5256 23.4318C38.8892 23.25 39.3438 23.1591 39.8892 23.1591C40.5975 23.1591 41.1979 23.339 41.6903 23.6989C42.1828 24.0549 42.5313 24.5682 42.7358 25.2386C42.9441 25.9091 42.9706 26.714 42.8153 27.6534C42.66 28.5928 42.3684 29.3996 41.9403 30.0739C41.5123 30.7481 40.9934 31.267 40.3835 31.6307C39.7737 31.9905 39.1146 32.1705 38.4062 32.1705C37.8684 32.1705 37.446 32.0814 37.1392 31.9034C36.8362 31.7254 36.6108 31.517 36.4631 31.2784C36.3153 31.036 36.2055 30.8239 36.1335 30.642H36.0256L35.2528 35.2727H33.6051ZM36.4972 27.6364C36.3949 28.2576 36.393 28.803 36.4915 29.2727C36.5938 29.7424 36.7964 30.1098 37.0994 30.375C37.4025 30.6364 37.8021 30.767 38.2983 30.767C38.8172 30.767 39.2718 30.6307 39.6619 30.358C40.0521 30.0814 40.3741 29.7064 40.6278 29.233C40.8854 28.7595 41.0634 28.2273 41.1619 27.6364C41.2566 27.053 41.2547 26.5303 41.1562 26.0682C41.0578 25.6023 40.8589 25.2348 40.5597 24.9659C40.2604 24.697 39.8494 24.5625 39.3267 24.5625C38.8229 24.5625 38.3759 24.6913 37.9858 24.9489C37.5994 25.2027 37.2794 25.5606 37.0256 26.0227C36.7718 26.4848 36.5956 27.0227 36.4972 27.6364ZM47.5724 20.3636L45.6406 32H44.0099L45.9418 20.3636H47.5724ZM51.6562 32.1761C50.8305 32.1761 50.1411 31.9867 49.5881 31.608C49.035 31.2254 48.6449 30.6913 48.4176 30.0057C48.1941 29.3163 48.1563 28.5152 48.304 27.6023C48.4479 26.7083 48.7377 25.928 49.1733 25.2614C49.6089 24.5947 50.1562 24.0777 50.8153 23.7102C51.4744 23.3428 52.2055 23.1591 53.0085 23.1591C53.8343 23.1591 54.5218 23.3504 55.071 23.733C55.6241 24.1155 56.0142 24.6515 56.2415 25.3409C56.4688 26.0303 56.5085 26.8352 56.3608 27.7557C56.2169 28.642 55.9233 29.4167 55.4801 30.0795C55.0407 30.7424 54.4934 31.2576 53.8381 31.625C53.1866 31.9924 52.4593 32.1761 51.6562 32.1761ZM51.7415 30.7898C52.2983 30.7898 52.7831 30.6439 53.196 30.3523C53.6127 30.0606 53.9517 29.6723 54.2131 29.1875C54.4782 28.7027 54.6581 28.1723 54.7528 27.5966C54.84 27.0473 54.8381 26.5417 54.7472 26.0795C54.6563 25.6136 54.4631 25.2405 54.1676 24.9602C53.8722 24.6799 53.4574 24.5398 52.9233 24.5398C52.3665 24.5398 51.8778 24.6875 51.4574 24.983C51.0407 25.2784 50.7017 25.6705 50.4403 26.1591C50.179 26.6439 50.0028 27.1742 49.9119 27.75C49.8248 28.2992 49.8248 28.8049 49.9119 29.267C50.0028 29.7292 50.196 30.0985 50.4915 30.375C50.7907 30.6515 51.2074 30.7898 51.7415 30.7898ZM57.7756 35.2727C57.5256 35.2727 57.3021 35.2519 57.1051 35.2102C56.9119 35.1723 56.768 35.1326 56.6733 35.0909L57.304 33.7386C57.6032 33.822 57.8722 33.8523 58.1108 33.8295C58.3494 33.8068 58.5729 33.7045 58.7812 33.5227C58.9934 33.3409 59.2093 33.053 59.429 32.6591L59.7585 32.0625L58.0426 23.2727H59.7301L60.8381 30.0966H60.929L64.3153 23.2727H66.1335L60.8835 33.1761C60.6335 33.642 60.3532 34.0303 60.0426 34.3409C59.7358 34.6515 59.393 34.8845 59.0142 35.0398C58.6354 35.1951 58.2225 35.2727 57.7756 35.2727ZM69.7159 32.1761C68.8636 32.1761 68.1591 31.9924 67.6023 31.625C67.0455 31.2538 66.6553 30.733 66.4318 30.0625C66.2121 29.3883 66.1761 28.6004 66.3239 27.6989C66.4716 26.8011 66.767 26.0114 67.2102 25.3295C67.6572 24.6477 68.214 24.1155 68.8807 23.733C69.5511 23.3504 70.2879 23.1591 71.0909 23.1591C71.5758 23.1591 72.0341 23.2405 72.4659 23.4034C72.9015 23.5625 73.2727 23.8163 73.5795 24.1648C73.8902 24.5095 74.1042 24.9602 74.2216 25.517C74.3428 26.0739 74.3371 26.7481 74.2045 27.5398L74.108 28.1364H67.2102L67.4034 26.8807H72.6932C72.7727 26.4299 72.75 26.0284 72.625 25.6761C72.5038 25.3201 72.2936 25.0398 71.9943 24.8352C71.6989 24.6307 71.3258 24.5284 70.875 24.5284C70.4091 24.5284 69.9754 24.6515 69.5739 24.8977C69.1723 25.1402 68.8371 25.4489 68.5682 25.8239C68.2992 26.1989 68.1307 26.5871 68.0625 26.9886L67.875 28.1193C67.7727 28.7708 67.7898 29.2936 67.9261 29.6875C68.0663 30.0814 68.3087 30.3674 68.6534 30.5455C68.9981 30.7197 69.4318 30.8068 69.9545 30.8068C70.2917 30.8068 70.6023 30.7614 70.8864 30.6705C71.1705 30.5758 71.4242 30.4356 71.6477 30.25C71.8712 30.0606 72.0587 29.8258 72.2102 29.5455L73.7102 29.8466C73.5019 30.3125 73.2027 30.7216 72.8125 31.0739C72.4261 31.4223 71.9697 31.6932 71.4432 31.8864C70.9205 32.0795 70.3447 32.1761 69.7159 32.1761ZM79.1222 32.1761C78.2699 32.1761 77.5653 31.9924 77.0085 31.625C76.4517 31.2538 76.0616 30.733 75.8381 30.0625C75.6184 29.3883 75.5824 28.6004 75.7301 27.6989C75.8778 26.8011 76.1733 26.0114 76.6165 25.3295C77.0634 24.6477 77.6203 24.1155 78.2869 23.733C78.9574 23.3504 79.6941 23.1591 80.4972 23.1591C80.982 23.1591 81.4403 23.2405 81.8722 23.4034C82.3078 23.5625 82.679 23.8163 82.9858 24.1648C83.2964 24.5095 83.5104 24.9602 83.6278 25.517C83.7491 26.0739 83.7434 26.7481 83.6108 27.5398L83.5142 28.1364H76.6165L76.8097 26.8807H82.0994C82.179 26.4299 82.1562 26.0284 82.0312 25.6761C81.91 25.3201 81.6998 25.0398 81.4006 24.8352C81.1051 24.6307 80.732 24.5284 80.2812 24.5284C79.8153 24.5284 79.3816 24.6515 78.9801 24.8977C78.5786 25.1402 78.2434 25.4489 77.9744 25.8239C77.7055 26.1989 77.5369 26.5871 77.4688 26.9886L77.2812 28.1193C77.179 28.7708 77.196 29.2936 77.3324 29.6875C77.4725 30.0814 77.715 30.3674 78.0597 30.5455C78.4044 30.7197 78.8381 30.8068 79.3608 30.8068C79.6979 30.8068 80.0085 30.7614 80.2926 30.6705C80.5767 30.5758 80.8305 30.4356 81.054 30.25C81.2775 30.0606 81.465 29.8258 81.6165 29.5455L83.1165 29.8466C82.9081 30.3125 82.6089 30.7216 82.2188 31.0739C81.8324 31.4223 81.3759 31.6932 80.8494 31.8864C80.3267 32.0795 79.7509 32.1761 79.1222 32.1761ZM91.1619 20.3636H93.2131L95.4517 29.517H95.5881L100.849 20.3636H102.901L100.969 32H99.3608L100.776 23.5057H100.668L95.7869 31.983H94.4176L92.3722 23.5H92.2585L90.8381 32H89.2301L91.1619 20.3636ZM105.955 32.1932C105.402 32.1932 104.917 32.0909 104.5 31.8864C104.087 31.678 103.782 31.3769 103.585 30.983C103.388 30.5852 103.337 30.1023 103.432 29.5341C103.515 29.0379 103.68 28.6326 103.926 28.3182C104.172 28 104.472 27.7481 104.824 27.5625C105.176 27.3769 105.559 27.2367 105.972 27.142C106.384 27.0473 106.801 26.9773 107.222 26.9318C107.752 26.8674 108.182 26.8163 108.511 26.7784C108.845 26.7367 109.095 26.6723 109.261 26.5852C109.432 26.4943 109.534 26.3466 109.568 26.142V26.0966C109.652 25.5966 109.58 25.2064 109.352 24.9261C109.129 24.642 108.739 24.5 108.182 24.5C107.602 24.5 107.116 24.6288 106.722 24.8864C106.328 25.1402 106.04 25.4223 105.858 25.733L104.398 25.3523C104.674 24.822 105.025 24.3958 105.449 24.0739C105.873 23.7519 106.333 23.5189 106.83 23.375C107.33 23.2311 107.835 23.1591 108.347 23.1591C108.68 23.1591 109.032 23.1989 109.403 23.2784C109.778 23.358 110.119 23.5057 110.426 23.7216C110.737 23.9337 110.968 24.2405 111.119 24.642C111.271 25.0436 111.294 25.5663 111.188 26.2102L110.227 32H108.625L108.83 30.8125H108.761C108.621 31.0246 108.424 31.2367 108.17 31.4489C107.917 31.661 107.604 31.839 107.233 31.983C106.866 32.1231 106.439 32.1932 105.955 32.1932ZM106.5 30.8636C106.981 30.8636 107.407 30.7689 107.778 30.5795C108.15 30.3864 108.451 30.1383 108.682 29.8352C108.913 29.5284 109.057 29.2008 109.114 28.8523L109.307 27.7045C109.235 27.7689 109.106 27.8277 108.92 27.8807C108.739 27.9299 108.532 27.9735 108.301 28.0114C108.074 28.0455 107.85 28.0777 107.631 28.108C107.415 28.1345 107.237 28.1572 107.097 28.1761C106.759 28.2216 106.443 28.2936 106.148 28.392C105.852 28.4905 105.604 28.6326 105.403 28.8182C105.206 29.0038 105.085 29.2519 105.04 29.5625C104.968 29.9905 105.07 30.3144 105.347 30.5341C105.623 30.7538 106.008 30.8636 106.5 30.8636ZM115.02 26.8068L114.162 32H112.526L113.98 23.2727H115.554L115.315 24.6875H115.429C115.702 24.2254 116.077 23.8561 116.554 23.5795C117.031 23.2992 117.598 23.1591 118.253 23.1591C118.84 23.1591 119.336 23.2822 119.741 23.5284C120.147 23.7746 120.433 24.142 120.599 24.6307C120.77 25.1193 120.796 25.7254 120.679 26.4489L119.747 32H118.111L119.003 26.6364C119.109 25.9962 119.026 25.4943 118.753 25.1307C118.484 24.767 118.056 24.5852 117.469 24.5852C117.067 24.5852 116.696 24.6723 116.355 24.8466C116.014 25.017 115.726 25.2689 115.491 25.6023C115.26 25.9318 115.103 26.3333 115.02 26.8068ZM124.564 32.1932C124.011 32.1932 123.526 32.0909 123.109 31.8864C122.696 31.678 122.392 31.3769 122.195 30.983C121.998 30.5852 121.946 30.1023 122.041 29.5341C122.125 29.0379 122.289 28.6326 122.536 28.3182C122.782 28 123.081 27.7481 123.433 27.5625C123.786 27.3769 124.168 27.2367 124.581 27.142C124.994 27.0473 125.411 26.9773 125.831 26.9318C126.361 26.8674 126.791 26.8163 127.121 26.7784C127.454 26.7367 127.704 26.6723 127.871 26.5852C128.041 26.4943 128.143 26.3466 128.178 26.142V26.0966C128.261 25.5966 128.189 25.2064 127.962 24.9261C127.738 24.642 127.348 24.5 126.791 24.5C126.212 24.5 125.725 24.6288 125.331 24.8864C124.937 25.1402 124.649 25.4223 124.467 25.733L123.007 25.3523C123.284 24.822 123.634 24.3958 124.058 24.0739C124.482 23.7519 124.943 23.5189 125.439 23.375C125.939 23.2311 126.445 23.1591 126.956 23.1591C127.289 23.1591 127.642 23.1989 128.013 23.2784C128.388 23.358 128.729 23.5057 129.036 23.7216C129.346 23.9337 129.577 24.2405 129.729 24.642C129.88 25.0436 129.903 25.5663 129.797 26.2102L128.837 32H127.234L127.439 30.8125H127.371C127.231 31.0246 127.034 31.2367 126.78 31.4489C126.526 31.661 126.214 31.839 125.842 31.983C125.475 32.1231 125.049 32.1932 124.564 32.1932ZM125.109 30.8636C125.59 30.8636 126.017 30.7689 126.388 30.5795C126.759 30.3864 127.06 30.1383 127.291 29.8352C127.522 29.5284 127.666 29.2008 127.723 28.8523L127.916 27.7045C127.844 27.7689 127.715 27.8277 127.53 27.8807C127.348 27.9299 127.142 27.9735 126.911 28.0114C126.683 28.0455 126.46 28.0777 126.24 28.108C126.024 28.1345 125.846 28.1572 125.706 28.1761C125.369 28.2216 125.053 28.2936 124.757 28.392C124.462 28.4905 124.214 28.6326 124.013 28.8182C123.816 29.0038 123.695 29.2519 123.649 29.5625C123.577 29.9905 123.679 30.3144 123.956 30.5341C124.232 30.7538 124.617 30.8636 125.109 30.8636ZM134.22 35.4545C133.531 35.4545 132.955 35.3655 132.493 35.1875C132.031 35.0095 131.665 34.7727 131.396 34.4773C131.131 34.1818 130.946 33.8617 130.839 33.517L132.345 32.892C132.421 33.0549 132.527 33.2311 132.663 33.4205C132.8 33.6136 133.006 33.7784 133.283 33.9148C133.559 34.0511 133.94 34.1193 134.425 34.1193C135.076 34.1193 135.646 33.9602 136.135 33.642C136.627 33.3239 136.93 32.8201 137.044 32.1307L137.317 30.4034H137.203C137.078 30.5852 136.902 30.7917 136.675 31.0227C136.451 31.25 136.158 31.4489 135.794 31.6193C135.434 31.786 134.985 31.8693 134.447 31.8693C133.754 31.8693 133.158 31.7064 132.658 31.3807C132.161 31.0549 131.804 30.5758 131.584 29.9432C131.368 29.3068 131.338 28.5246 131.493 27.5966C131.644 26.6761 131.932 25.8845 132.357 25.2216C132.781 24.5587 133.3 24.0492 133.913 23.6932C134.527 23.3371 135.188 23.1591 135.896 23.1591C136.442 23.1591 136.866 23.25 137.169 23.4318C137.476 23.6136 137.701 23.8239 137.845 24.0625C137.993 24.3011 138.103 24.5076 138.175 24.6818H138.3L138.533 23.2727H140.129L138.652 32.2045C138.531 32.9545 138.258 33.5682 137.834 34.0455C137.41 34.5265 136.883 34.8807 136.254 35.108C135.629 35.339 134.951 35.4545 134.22 35.4545ZM134.982 30.4943C135.474 30.4943 135.913 30.3788 136.3 30.1477C136.69 29.9167 137.014 29.5833 137.271 29.1477C137.533 28.7083 137.713 28.1856 137.811 27.5795C137.91 26.9811 137.904 26.4564 137.794 26.0057C137.684 25.5511 137.474 25.197 137.163 24.9432C136.853 24.6894 136.447 24.5625 135.947 24.5625C135.425 24.5625 134.97 24.697 134.584 24.9659C134.197 25.2311 133.883 25.5928 133.641 26.0511C133.402 26.5057 133.235 27.0152 133.141 27.5795C133.05 28.1553 133.052 28.6629 133.146 29.1023C133.245 29.5379 133.446 29.8788 133.749 30.125C134.052 30.3712 134.463 30.4943 134.982 30.4943ZM140.994 32L142.449 23.2727H144.023L143.784 24.6875H143.898C144.159 24.2064 144.517 23.8314 144.972 23.5625C145.43 23.2936 145.947 23.1591 146.523 23.1591C147.095 23.1591 147.557 23.2955 147.909 23.5682C148.261 23.8371 148.496 24.2102 148.614 24.6875H148.705C148.989 24.2178 149.381 23.8466 149.881 23.5739C150.381 23.2973 150.947 23.1591 151.58 23.1591C152.36 23.1591 152.96 23.4072 153.381 23.9034C153.801 24.3996 153.928 25.1496 153.761 26.1534L152.784 32H151.148L152.108 26.2841C152.203 25.678 152.11 25.2424 151.83 24.9773C151.549 24.7121 151.182 24.5795 150.727 24.5795C150.163 24.5795 149.695 24.7519 149.324 25.0966C148.956 25.4375 148.731 25.8769 148.648 26.4148L147.705 32H146.074L147.051 26.1705C147.127 25.6894 147.04 25.3049 146.79 25.017C146.54 24.7254 146.174 24.5795 145.693 24.5795C145.364 24.5795 145.045 24.6667 144.739 24.8409C144.432 25.0114 144.169 25.25 143.949 25.5568C143.733 25.8598 143.595 26.2083 143.534 26.6023L142.631 32H140.994ZM158.81 32.1761C157.957 32.1761 157.253 31.9924 156.696 31.625C156.139 31.2538 155.749 30.733 155.526 30.0625C155.306 29.3883 155.27 28.6004 155.418 27.6989C155.565 26.8011 155.861 26.0114 156.304 25.3295C156.751 24.6477 157.308 24.1155 157.974 23.733C158.645 23.3504 159.382 23.1591 160.185 23.1591C160.67 23.1591 161.128 23.2405 161.56 23.4034C161.995 23.5625 162.366 23.8163 162.673 24.1648C162.984 24.5095 163.198 24.9602 163.315 25.517C163.437 26.0739 163.431 26.7481 163.298 27.5398L163.202 28.1364H156.304L156.497 26.8807H161.787C161.866 26.4299 161.844 26.0284 161.719 25.6761C161.598 25.3201 161.387 25.0398 161.088 24.8352C160.793 24.6307 160.42 24.5284 159.969 24.5284C159.503 24.5284 159.069 24.6515 158.668 24.8977C158.266 25.1402 157.931 25.4489 157.662 25.8239C157.393 26.1989 157.224 26.5871 157.156 26.9886L156.969 28.1193C156.866 28.7708 156.884 29.2936 157.02 29.6875C157.16 30.0814 157.402 30.3674 157.747 30.5455C158.092 30.7197 158.526 30.8068 159.048 30.8068C159.385 30.8068 159.696 30.7614 159.98 30.6705C160.264 30.5758 160.518 30.4356 160.741 30.25C160.965 30.0606 161.152 29.8258 161.304 29.5455L162.804 29.8466C162.596 30.3125 162.296 30.7216 161.906 31.0739C161.52 31.4223 161.063 31.6932 160.537 31.8864C160.014 32.0795 159.438 32.1761 158.81 32.1761ZM166.989 26.8068L166.131 32H164.494L165.949 23.2727H167.523L167.284 24.6875H167.398C167.67 24.2254 168.045 23.8561 168.523 23.5795C169 23.2992 169.566 23.1591 170.222 23.1591C170.809 23.1591 171.305 23.2822 171.71 23.5284C172.116 23.7746 172.402 24.142 172.568 24.6307C172.739 25.1193 172.765 25.7254 172.648 26.4489L171.716 32H170.08L170.972 26.6364C171.078 25.9962 170.994 25.4943 170.722 25.1307C170.453 24.767 170.025 24.5852 169.438 24.5852C169.036 24.5852 168.665 24.6723 168.324 24.8466C167.983 25.017 167.695 25.2689 167.46 25.6023C167.229 25.9318 167.072 26.3333 166.989 26.8068ZM179.487 23.2727L179.271 24.5966H174.55L174.766 23.2727H179.487ZM176.391 21.1818H178.027L176.646 29.4489C176.593 29.786 176.603 30.0398 176.675 30.2102C176.747 30.3807 176.86 30.4962 177.016 30.5568C177.171 30.6136 177.341 30.642 177.527 30.642C177.667 30.642 177.786 30.6326 177.885 30.6136C177.987 30.5947 178.069 30.5795 178.129 30.5682L178.22 31.9375C178.107 31.9754 177.955 32.0133 177.766 32.0511C177.58 32.0928 177.353 32.1136 177.084 32.1136C176.648 32.1212 176.252 32.0417 175.896 31.875C175.544 31.7083 175.279 31.4527 175.101 31.108C174.923 30.7595 174.879 30.3239 174.97 29.8011L176.391 21.1818Z" fill="black"/>
</g>
<path d="M496.574 55L498.506 43.3636H500.199L498.511 53.5398H503.807L503.562 55H496.574ZM509.141 55.1761C508.315 55.1761 507.625 54.9867 507.072 54.608C506.519 54.2254 506.129 53.6913 505.902 53.0057C505.679 52.3163 505.641 51.5152 505.788 50.6023C505.932 49.7083 506.222 48.928 506.658 48.2614C507.093 47.5947 507.641 47.0777 508.3 46.7102C508.959 46.3428 509.69 46.1591 510.493 46.1591C511.319 46.1591 512.006 46.3504 512.555 46.733C513.108 47.1155 513.499 47.6515 513.726 48.3409C513.953 49.0303 513.993 49.8352 513.845 50.7557C513.701 51.642 513.408 52.4167 512.964 53.0795C512.525 53.7424 511.978 54.2576 511.322 54.625C510.671 54.9924 509.944 55.1761 509.141 55.1761ZM509.226 53.7898C509.783 53.7898 510.268 53.6439 510.68 53.3523C511.097 53.0606 511.436 52.6723 511.697 52.1875C511.963 51.7027 512.143 51.1723 512.237 50.5966C512.324 50.0473 512.322 49.5417 512.232 49.0795C512.141 48.6136 511.947 48.2405 511.652 47.9602C511.357 47.6799 510.942 47.5398 510.408 47.5398C509.851 47.5398 509.362 47.6875 508.942 47.983C508.525 48.2784 508.186 48.6705 507.925 49.1591C507.663 49.6439 507.487 50.1742 507.396 50.75C507.309 51.2992 507.309 51.8049 507.396 52.267C507.487 52.7292 507.68 53.0985 507.976 53.375C508.275 53.6515 508.692 53.7898 509.226 53.7898ZM518.158 58.4545C517.468 58.4545 516.893 58.3655 516.43 58.1875C515.968 58.0095 515.603 57.7727 515.334 57.4773C515.069 57.1818 514.883 56.8617 514.777 56.517L516.283 55.892C516.358 56.0549 516.464 56.2311 516.601 56.4205C516.737 56.6136 516.944 56.7784 517.22 56.9148C517.497 57.0511 517.877 57.1193 518.362 57.1193C519.014 57.1193 519.584 56.9602 520.072 56.642C520.565 56.3239 520.868 55.8201 520.982 55.1307L521.254 53.4034H521.141C521.016 53.5852 520.839 53.7917 520.612 54.0227C520.389 54.25 520.095 54.4489 519.732 54.6193C519.372 54.786 518.923 54.8693 518.385 54.8693C517.692 54.8693 517.095 54.7064 516.595 54.3807C516.099 54.0549 515.741 53.5758 515.521 52.9432C515.305 52.3068 515.275 51.5246 515.43 50.5966C515.582 49.6761 515.87 48.8845 516.294 48.2216C516.718 47.5587 517.237 47.0492 517.851 46.6932C518.464 46.3371 519.125 46.1591 519.834 46.1591C520.379 46.1591 520.804 46.25 521.107 46.4318C521.413 46.6136 521.639 46.8239 521.783 47.0625C521.93 47.3011 522.04 47.5076 522.112 47.6818H522.237L522.47 46.2727H524.067L522.589 55.2045C522.468 55.9545 522.196 56.5682 521.771 57.0455C521.347 57.5265 520.821 57.8807 520.192 58.108C519.567 58.339 518.889 58.4545 518.158 58.4545ZM518.919 53.4943C519.411 53.4943 519.851 53.3788 520.237 53.1477C520.627 52.9167 520.951 52.5833 521.209 52.1477C521.47 51.7083 521.65 51.1856 521.749 50.5795C521.847 49.9811 521.841 49.4564 521.732 49.0057C521.622 48.5511 521.411 48.197 521.101 47.9432C520.79 47.6894 520.385 47.5625 519.885 47.5625C519.362 47.5625 518.908 47.697 518.521 47.9659C518.135 48.2311 517.821 48.5928 517.578 49.0511C517.339 49.5057 517.173 50.0152 517.078 50.5795C516.987 51.1553 516.989 51.6629 517.084 52.1023C517.182 52.5379 517.383 52.8788 517.686 53.125C517.989 53.3712 518.4 53.4943 518.919 53.4943ZM540.361 49.2898C540.156 50.5133 539.76 51.5625 539.173 52.4375C538.586 53.3125 537.868 53.9848 537.02 54.4545C536.171 54.9242 535.255 55.1591 534.27 55.1591C533.251 55.1591 532.38 54.9148 531.656 54.4261C530.937 53.9337 530.42 53.233 530.105 52.3239C529.795 51.4148 529.741 50.3333 529.946 49.0795C530.151 47.8598 530.546 46.8106 531.134 45.9318C531.724 45.053 532.444 44.3788 533.293 43.9091C534.145 43.4394 535.067 43.2045 536.06 43.2045C537.075 43.2045 537.94 43.4508 538.656 43.9432C539.376 44.4356 539.891 45.1364 540.202 46.0455C540.516 46.9545 540.569 48.036 540.361 49.2898ZM538.719 49.0795C538.878 48.1402 538.859 47.3504 538.662 46.7102C538.465 46.0663 538.134 45.5795 537.668 45.25C537.202 44.9205 536.641 44.7557 535.986 44.7557C535.293 44.7557 534.641 44.9318 534.031 45.2841C533.421 45.6326 532.901 46.1439 532.469 46.8182C532.041 47.4924 531.749 48.3163 531.594 49.2898C531.435 50.233 531.454 51.0246 531.651 51.6648C531.848 52.3011 532.179 52.7841 532.645 53.1136C533.111 53.4432 533.671 53.608 534.327 53.608C535.02 53.608 535.67 53.4337 536.276 53.0852C536.885 52.733 537.404 52.2216 537.832 51.5511C538.264 50.8769 538.56 50.053 538.719 49.0795ZM547.598 51.392L548.456 46.2727H550.092L548.638 55H547.03L547.28 53.4943H547.189C546.92 53.9564 546.537 54.3428 546.041 54.6534C545.545 54.9602 544.967 55.1136 544.308 55.1136C543.751 55.1136 543.278 54.9905 542.888 54.7443C542.501 54.4981 542.227 54.1307 542.064 53.642C541.901 53.1534 541.88 52.5473 542.001 51.8239L542.933 46.2727H544.564L543.672 51.6364C543.577 52.2386 543.666 52.7197 543.939 53.0795C544.215 53.4356 544.619 53.6136 545.149 53.6136C545.471 53.6136 545.804 53.5341 546.149 53.375C546.498 53.2121 546.806 52.9678 547.075 52.642C547.344 52.3125 547.518 51.8958 547.598 51.392ZM556.425 46.2727L556.209 47.5966H551.487L551.703 46.2727H556.425ZM553.328 44.1818H554.964L553.584 52.4489C553.531 52.786 553.54 53.0398 553.612 53.2102C553.684 53.3807 553.798 53.4962 553.953 53.5568C554.108 53.6136 554.279 53.642 554.464 53.642C554.605 53.642 554.724 53.6326 554.822 53.6136C554.925 53.5947 555.006 53.5795 555.067 53.5682L555.158 54.9375C555.044 54.9754 554.893 55.0133 554.703 55.0511C554.518 55.0928 554.29 55.1136 554.021 55.1136C553.586 55.1212 553.19 55.0417 552.834 54.875C552.482 54.7083 552.216 54.4527 552.038 54.108C551.86 53.7595 551.817 53.3239 551.908 52.8011L553.328 44.1818Z" fill="black"/>
<path d="M496.574 87L498.506 75.3636H500.199L498.511 85.5398H503.807L503.562 87H496.574ZM509.141 87.1761C508.315 87.1761 507.625 86.9867 507.072 86.608C506.519 86.2254 506.129 85.6913 505.902 85.0057C505.679 84.3163 505.641 83.5152 505.788 82.6023C505.932 81.7083 506.222 80.928 506.658 80.2614C507.093 79.5947 507.641 79.0777 508.3 78.7102C508.959 78.3428 509.69 78.1591 510.493 78.1591C511.319 78.1591 512.006 78.3504 512.555 78.733C513.108 79.1155 513.499 79.6515 513.726 80.3409C513.953 81.0303 513.993 81.8352 513.845 82.7557C513.701 83.642 513.408 84.4167 512.964 85.0795C512.525 85.7424 511.978 86.2576 511.322 86.625C510.671 86.9924 509.944 87.1761 509.141 87.1761ZM509.226 85.7898C509.783 85.7898 510.268 85.6439 510.68 85.3523C511.097 85.0606 511.436 84.6723 511.697 84.1875C511.963 83.7027 512.143 83.1723 512.237 82.5966C512.324 82.0473 512.322 81.5417 512.232 81.0795C512.141 80.6136 511.947 80.2405 511.652 79.9602C511.357 79.6799 510.942 79.5398 510.408 79.5398C509.851 79.5398 509.362 79.6875 508.942 79.983C508.525 80.2784 508.186 80.6705 507.925 81.1591C507.663 81.6439 507.487 82.1742 507.396 82.75C507.309 83.2992 507.309 83.8049 507.396 84.267C507.487 84.7292 507.68 85.0985 507.976 85.375C508.275 85.6515 508.692 85.7898 509.226 85.7898ZM518.158 90.4545C517.468 90.4545 516.893 90.3655 516.43 90.1875C515.968 90.0095 515.603 89.7727 515.334 89.4773C515.069 89.1818 514.883 88.8617 514.777 88.517L516.283 87.892C516.358 88.0549 516.464 88.2311 516.601 88.4205C516.737 88.6136 516.944 88.7784 517.22 88.9148C517.497 89.0511 517.877 89.1193 518.362 89.1193C519.014 89.1193 519.584 88.9602 520.072 88.642C520.565 88.3239 520.868 87.8201 520.982 87.1307L521.254 85.4034H521.141C521.016 85.5852 520.839 85.7917 520.612 86.0227C520.389 86.25 520.095 86.4489 519.732 86.6193C519.372 86.786 518.923 86.8693 518.385 86.8693C517.692 86.8693 517.095 86.7064 516.595 86.3807C516.099 86.0549 515.741 85.5758 515.521 84.9432C515.305 84.3068 515.275 83.5246 515.43 82.5966C515.582 81.6761 515.87 80.8845 516.294 80.2216C516.718 79.5587 517.237 79.0492 517.851 78.6932C518.464 78.3371 519.125 78.1591 519.834 78.1591C520.379 78.1591 520.804 78.25 521.107 78.4318C521.413 78.6136 521.639 78.8239 521.783 79.0625C521.93 79.3011 522.04 79.5076 522.112 79.6818H522.237L522.47 78.2727H524.067L522.589 87.2045C522.468 87.9545 522.196 88.5682 521.771 89.0455C521.347 89.5265 520.821 89.8807 520.192 90.108C519.567 90.339 518.889 90.4545 518.158 90.4545ZM518.919 85.4943C519.411 85.4943 519.851 85.3788 520.237 85.1477C520.627 84.9167 520.951 84.5833 521.209 84.1477C521.47 83.7083 521.65 83.1856 521.749 82.5795C521.847 81.9811 521.841 81.4564 521.732 81.0057C521.622 80.5511 521.411 80.197 521.101 79.9432C520.79 79.6894 520.385 79.5625 519.885 79.5625C519.362 79.5625 518.908 79.697 518.521 79.9659C518.135 80.2311 517.821 80.5928 517.578 81.0511C517.339 81.5057 517.173 82.0152 517.078 82.5795C516.987 83.1553 516.989 83.6629 517.084 84.1023C517.182 84.5379 517.383 84.8788 517.686 85.125C517.989 85.3712 518.4 85.4943 518.919 85.4943ZM528.017 90.4545C527.328 90.4545 526.752 90.3655 526.29 90.1875C525.828 90.0095 525.462 89.7727 525.193 89.4773C524.928 89.1818 524.742 88.8617 524.636 88.517L526.142 87.892C526.218 88.0549 526.324 88.2311 526.46 88.4205C526.597 88.6136 526.803 88.7784 527.08 88.9148C527.356 89.0511 527.737 89.1193 528.222 89.1193C528.873 89.1193 529.443 88.9602 529.932 88.642C530.424 88.3239 530.727 87.8201 530.841 87.1307L531.114 85.4034H531C530.875 85.5852 530.699 85.7917 530.472 86.0227C530.248 86.25 529.955 86.4489 529.591 86.6193C529.231 86.786 528.782 86.8693 528.244 86.8693C527.551 86.8693 526.955 86.7064 526.455 86.3807C525.958 86.0549 525.6 85.5758 525.381 84.9432C525.165 84.3068 525.134 83.5246 525.29 82.5966C525.441 81.6761 525.729 80.8845 526.153 80.2216C526.578 79.5587 527.097 79.0492 527.71 78.6932C528.324 78.3371 528.985 78.1591 529.693 78.1591C530.239 78.1591 530.663 78.25 530.966 78.4318C531.273 78.6136 531.498 78.8239 531.642 79.0625C531.79 79.3011 531.9 79.5076 531.972 79.6818H532.097L532.33 78.2727H533.926L532.449 87.2045C532.328 87.9545 532.055 88.5682 531.631 89.0455C531.206 89.5265 530.68 89.8807 530.051 90.108C529.426 90.339 528.748 90.4545 528.017 90.4545ZM528.778 85.4943C529.271 85.4943 529.71 85.3788 530.097 85.1477C530.487 84.9167 530.811 84.5833 531.068 84.1477C531.33 83.7083 531.509 83.1856 531.608 82.5795C531.706 81.9811 531.701 81.4564 531.591 81.0057C531.481 80.5511 531.271 80.197 530.96 79.9432C530.65 79.6894 530.244 79.5625 529.744 79.5625C529.222 79.5625 528.767 79.697 528.381 79.9659C527.994 80.2311 527.68 80.5928 527.438 81.0511C527.199 81.5057 527.032 82.0152 526.938 82.5795C526.847 83.1553 526.848 83.6629 526.943 84.1023C527.042 84.5379 527.242 84.8788 527.545 85.125C527.848 85.3712 528.259 85.4943 528.778 85.4943ZM538.513 87.1761C537.661 87.1761 536.956 86.9924 536.399 86.625C535.842 86.2538 535.452 85.733 535.229 85.0625C535.009 84.3883 534.973 83.6004 535.121 82.6989C535.268 81.8011 535.564 81.0114 536.007 80.3295C536.454 79.6477 537.011 79.1155 537.678 78.733C538.348 78.3504 539.085 78.1591 539.888 78.1591C540.373 78.1591 540.831 78.2405 541.263 78.4034C541.698 78.5625 542.07 78.8163 542.376 79.1648C542.687 79.5095 542.901 79.9602 543.018 80.517C543.14 81.0739 543.134 81.7481 543.001 82.5398L542.905 83.1364H536.007L536.2 81.8807H541.49C541.57 81.4299 541.547 81.0284 541.422 80.6761C541.301 80.3201 541.09 80.0398 540.791 79.8352C540.496 79.6307 540.123 79.5284 539.672 79.5284C539.206 79.5284 538.772 79.6515 538.371 79.8977C537.969 80.1402 537.634 80.4489 537.365 80.8239C537.096 81.1989 536.928 81.5871 536.859 81.9886L536.672 83.1193C536.57 83.7708 536.587 84.2936 536.723 84.6875C536.863 85.0814 537.106 85.3674 537.45 85.5455C537.795 85.7197 538.229 85.8068 538.751 85.8068C539.089 85.8068 539.399 85.7614 539.683 85.6705C539.967 85.5758 540.221 85.4356 540.445 85.25C540.668 85.0606 540.856 84.8258 541.007 84.5455L542.507 84.8466C542.299 85.3125 542 85.7216 541.609 86.0739C541.223 86.4223 540.767 86.6932 540.24 86.8864C539.717 87.0795 539.142 87.1761 538.513 87.1761ZM547.459 87.1705C546.743 87.1705 546.139 86.9905 545.646 86.6307C545.158 86.267 544.811 85.7481 544.607 85.0739C544.406 84.3996 544.381 83.5928 544.533 82.6534C544.692 81.714 544.985 80.9091 545.413 80.2386C545.841 79.5682 546.362 79.0549 546.976 78.6989C547.589 78.339 548.25 78.1591 548.959 78.1591C549.504 78.1591 549.927 78.25 550.226 78.4318C550.529 78.6136 550.752 78.8239 550.896 79.0625C551.04 79.3011 551.146 79.5076 551.214 79.6818H551.317L552.038 75.3636H553.675L551.743 87H550.146L550.379 85.642H550.232C550.099 85.8239 549.917 86.036 549.686 86.2784C549.459 86.517 549.163 86.7254 548.8 86.9034C548.44 87.0814 547.993 87.1705 547.459 87.1705ZM547.987 85.767C548.483 85.767 548.929 85.6364 549.322 85.375C549.72 85.1098 550.05 84.7424 550.311 84.2727C550.576 83.803 550.76 83.2576 550.862 82.6364C550.968 82.0227 550.966 81.4848 550.857 81.0227C550.75 80.5606 550.542 80.2027 550.232 79.9489C549.925 79.6913 549.518 79.5625 549.01 79.5625C548.491 79.5625 548.038 79.697 547.652 79.9659C547.266 80.2348 546.949 80.6023 546.703 81.0682C546.461 81.5303 546.292 82.053 546.197 82.6364C546.099 83.2273 546.095 83.7595 546.186 84.233C546.277 84.7064 546.47 85.0814 546.766 85.358C547.065 85.6307 547.472 85.767 547.987 85.767ZM562.246 75.3636L560.314 87H558.621L560.553 75.3636H562.246ZM565.27 81.8068L564.412 87H562.776L564.23 78.2727H565.804L565.565 79.6875H565.679C565.952 79.2254 566.327 78.8561 566.804 78.5795C567.281 78.2992 567.848 78.1591 568.503 78.1591C569.09 78.1591 569.586 78.2822 569.991 78.5284C570.397 78.7746 570.683 79.142 570.849 79.6307C571.02 80.1193 571.046 80.7254 570.929 81.4489L569.997 87H568.361L569.253 81.6364C569.359 80.9962 569.276 80.4943 569.003 80.1307C568.734 79.767 568.306 79.5852 567.719 79.5852C567.317 79.5852 566.946 79.6723 566.605 79.8466C566.264 80.017 565.976 80.2689 565.741 80.6023C565.51 80.9318 565.353 81.3333 565.27 81.8068ZM577.607 87H575.817L581.947 75.3636H583.874L586.141 87H584.351L582.624 77.4261H582.533L577.607 87ZM578.714 82.4489H584.743L584.504 83.8807H578.476L578.714 82.4489ZM595.214 80.375L593.692 80.6591C593.654 80.4583 593.582 80.267 593.476 80.0852C593.37 79.9034 593.209 79.7557 592.993 79.642C592.777 79.5284 592.491 79.4716 592.135 79.4716C591.635 79.4716 591.199 79.5852 590.828 79.8125C590.461 80.0398 590.25 80.3277 590.197 80.6761C590.144 80.9678 590.211 81.2027 590.396 81.3807C590.586 81.5549 590.911 81.7008 591.374 81.8182L592.697 82.1364C593.466 82.322 594.018 82.6098 594.351 83C594.684 83.3902 594.8 83.8977 594.697 84.5227C594.61 85.0379 594.385 85.4962 594.021 85.8977C593.658 86.2955 593.194 86.608 592.629 86.8352C592.065 87.0625 591.436 87.1761 590.743 87.1761C589.766 87.1761 589.004 86.9697 588.459 86.5568C587.913 86.1402 587.631 85.5511 587.612 84.7898L589.232 84.5227C589.262 84.9583 589.417 85.2879 589.697 85.5114C589.982 85.7311 590.377 85.8409 590.885 85.8409C591.461 85.8447 591.944 85.7235 592.334 85.4773C592.724 85.2273 592.944 84.928 592.993 84.5795C593.046 84.303 592.987 84.0739 592.817 83.892C592.65 83.7102 592.36 83.572 591.947 83.4773L590.538 83.1477C589.75 82.9583 589.196 82.6591 588.874 82.25C588.552 81.8409 588.444 81.3258 588.55 80.7045C588.637 80.197 588.853 79.7538 589.197 79.375C589.546 78.9924 589.987 78.6951 590.521 78.483C591.059 78.267 591.65 78.1591 592.294 78.1591C593.23 78.1591 593.93 78.3598 594.396 78.7614C594.866 79.1629 595.139 79.7008 595.214 80.375Z" fill="black"/>
<path d="M395.682 20.8239L395.92 19.3636H404.875L404.636 20.8239H401L399.312 31H397.625L399.312 20.8239H395.682ZM407.25 31.1761C406.424 31.1761 405.735 30.9867 405.182 30.608C404.629 30.2254 404.239 29.6913 404.011 29.0057C403.788 28.3163 403.75 27.5152 403.898 26.6023C404.042 25.7083 404.331 24.928 404.767 24.2614C405.203 23.5947 405.75 23.0777 406.409 22.7102C407.068 22.3428 407.799 22.1591 408.602 22.1591C409.428 22.1591 410.116 22.3504 410.665 22.733C411.218 23.1155 411.608 23.6515 411.835 24.3409C412.063 25.0303 412.102 25.8352 411.955 26.7557C411.811 27.642 411.517 28.4167 411.074 29.0795C410.634 29.7424 410.087 30.2576 409.432 30.625C408.78 30.9924 408.053 31.1761 407.25 31.1761ZM407.335 29.7898C407.892 29.7898 408.377 29.6439 408.79 29.3523C409.206 29.0606 409.545 28.6723 409.807 28.1875C410.072 27.7027 410.252 27.1723 410.347 26.5966C410.434 26.0473 410.432 25.5417 410.341 25.0795C410.25 24.6136 410.057 24.2405 409.761 23.9602C409.466 23.6799 409.051 23.5398 408.517 23.5398C407.96 23.5398 407.472 23.6875 407.051 23.983C406.634 24.2784 406.295 24.6705 406.034 25.1591C405.773 25.6439 405.597 26.1742 405.506 26.75C405.419 27.2992 405.419 27.8049 405.506 28.267C405.597 28.7292 405.79 29.0985 406.085 29.375C406.384 29.6515 406.801 29.7898 407.335 29.7898ZM416.875 31.1761C416.049 31.1761 415.36 30.9867 414.807 30.608C414.254 30.2254 413.864 29.6913 413.636 29.0057C413.413 28.3163 413.375 27.5152 413.523 26.6023C413.667 25.7083 413.956 24.928 414.392 24.2614C414.828 23.5947 415.375 23.0777 416.034 22.7102C416.693 22.3428 417.424 22.1591 418.227 22.1591C419.053 22.1591 419.741 22.3504 420.29 22.733C420.843 23.1155 421.233 23.6515 421.46 24.3409C421.688 25.0303 421.727 25.8352 421.58 26.7557C421.436 27.642 421.142 28.4167 420.699 29.0795C420.259 29.7424 419.712 30.2576 419.057 30.625C418.405 30.9924 417.678 31.1761 416.875 31.1761ZM416.96 29.7898C417.517 29.7898 418.002 29.6439 418.415 29.3523C418.831 29.0606 419.17 28.6723 419.432 28.1875C419.697 27.7027 419.877 27.1723 419.972 26.5966C420.059 26.0473 420.057 25.5417 419.966 25.0795C419.875 24.6136 419.682 24.2405 419.386 23.9602C419.091 23.6799 418.676 23.5398 418.142 23.5398C417.585 23.5398 417.097 23.6875 416.676 23.983C416.259 24.2784 415.92 24.6705 415.659 25.1591C415.398 25.6439 415.222 26.1742 415.131 26.75C415.044 27.2992 415.044 27.8049 415.131 28.267C415.222 28.7292 415.415 29.0985 415.71 29.375C416.009 29.6515 416.426 29.7898 416.96 29.7898ZM426.369 19.3636L424.438 31H422.807L424.739 19.3636H426.369ZM434.339 24.375L432.817 24.6591C432.779 24.4583 432.707 24.267 432.601 24.0852C432.495 23.9034 432.334 23.7557 432.118 23.642C431.902 23.5284 431.616 23.4716 431.26 23.4716C430.76 23.4716 430.324 23.5852 429.953 23.8125C429.586 24.0398 429.375 24.3277 429.322 24.6761C429.269 24.9678 429.336 25.2027 429.521 25.3807C429.711 25.5549 430.036 25.7008 430.499 25.8182L431.822 26.1364C432.591 26.322 433.143 26.6098 433.476 27C433.809 27.3902 433.925 27.8977 433.822 28.5227C433.735 29.0379 433.51 29.4962 433.146 29.8977C432.783 30.2955 432.319 30.608 431.754 30.8352C431.19 31.0625 430.561 31.1761 429.868 31.1761C428.891 31.1761 428.129 30.9697 427.584 30.5568C427.038 30.1402 426.756 29.5511 426.737 28.7898L428.357 28.5227C428.387 28.9583 428.542 29.2879 428.822 29.5114C429.107 29.7311 429.502 29.8409 430.01 29.8409C430.586 29.8447 431.069 29.7235 431.459 29.4773C431.849 29.2273 432.069 28.928 432.118 28.5795C432.171 28.303 432.112 28.0739 431.942 27.892C431.775 27.7102 431.485 27.572 431.072 27.4773L429.663 27.1477C428.875 26.9583 428.321 26.6591 427.999 26.25C427.677 25.8409 427.569 25.3258 427.675 24.7045C427.762 24.197 427.978 23.7538 428.322 23.375C428.671 22.9924 429.112 22.6951 429.646 22.483C430.184 22.267 430.775 22.1591 431.419 22.1591C432.355 22.1591 433.055 22.3598 433.521 22.7614C433.991 23.1629 434.264 23.7008 434.339 24.375Z" fill="black"/>
<defs>
<filter id="filter0_i_47_98" x="462" y="39" width="188" height="74" filterUnits="userSpaceOnUse" color-interpolation-filters="sRGB">
<feFlood flood-opacity="0" result="BackgroundImageFix"/>
<feBlend mode="normal" in="SourceGraphic" in2="BackgroundImageFix" result="shape"/>
<feColorMatrix in="SourceAlpha" type="matrix" values="0 0 0 0 0 0 0 0 0 0 0 0 0 0 0 0 0 0 127 0" result="hardAlpha"/>
<feOffset dy="4"/>
<feGaussianBlur stdDeviation="2"/>
<feComposite in2="hardAlpha" operator="arithmetic" k2="-1" k3="1"/>
<feColorMatrix type="matrix" values="0 0 0 0 0 0 0 0 0 0 0 0 0 0 0 0 0 0 0.25 0"/>
<feBlend mode="normal" in2="shape" result="effect1_innerShadow_47_98"/>
</filter>
<filter id="filter1_i_47_98" x="462" y="15" width="68" height="25" filterUnits="userSpaceOnUse" color-interpolation-filters="sRGB">
<feFlood flood-opacity="0" result="BackgroundImageFix"/>
<feBlend mode="normal" in="SourceGraphic" in2="BackgroundImageFix" result="shape"/>
<feColorMatrix in="SourceAlpha" type="matrix" values="0 0 0 0 0 0 0 0 0 0 0 0 0 0 0 0 0 0 127 0" result="hardAlpha"/>
<feOffset dy="4"/>
<feGaussianBlur stdDeviation="2"/>
<feComposite in2="hardAlpha" operator="arithmetic" k2="-1" k3="1"/>
<feColorMatrix type="matrix" values="0 0 0 0 0 0 0 0 0 0 0 0 0 0 0 0 0 0 0.25 0"/>
<feBlend mode="normal" in2="shape" result="effect1_innerShadow_47_98"/>
</filter>
<filter id="filter2_i_47_98" x="10.5739" y="20.3636" width="168.913" height="19.0909" filterUnits="userSpaceOnUse" color-interpolation-filters="sRGB">
<feFlood flood-opacity="0" result="BackgroundImageFix"/>
<feBlend mode="normal" in="SourceGraphic" in2="BackgroundImageFix" result="shape"/>
<feColorMatrix in="SourceAlpha" type="matrix" values="0 0 0 0 0 0 0 0 0 0 0 0 0 0 0 0 0 0 127 0" result="hardAlpha"/>
<feOffset dy="4"/>
<feGaussianBlur stdDeviation="2"/>
<feComposite in2="hardAlpha" operator="arithmetic" k2="-1" k3="1"/>
<feColorMatrix type="matrix" values="0 0 0 0 0 0 0 0 0 0 0 0 0 0 0 0 0 0 0.25 0"/>
<feBlend mode="normal" in2="shape" result="effect1_innerShadow_47_98"/>
</filter>
</defs>
</svg>
