<svg width="765" height="490" viewBox="0 0 765 490" fill="none" xmlns="http://www.w3.org/2000/svg">
<rect width="765" height="490" fill="#BDBCBB"/>
<rect width="765" height="39" fill="#FFF8F8"/>
<path d="M463.466 32H461.676L467.807 20.3636H469.733L472 32H470.21L468.483 22.4261H468.392L463.466 32ZM464.574 27.4489H470.602L470.364 28.8807H464.335L464.574 27.4489ZM477.078 32.1761C476.233 32.1761 475.54 31.9848 474.999 31.6023C474.461 31.2159 474.086 30.6837 473.874 30.0057C473.665 29.3277 473.633 28.5511 473.777 27.6761C473.921 26.7898 474.214 26.0076 474.658 25.3295C475.105 24.6477 475.661 24.1155 476.328 23.733C476.999 23.3504 477.741 23.1591 478.555 23.1591C479.211 23.1591 479.775 23.2803 480.249 23.5227C480.722 23.7614 481.082 24.0985 481.328 24.5341C481.574 24.9659 481.682 25.4735 481.652 26.0568H480.05C480.023 25.6477 479.87 25.2955 479.589 25C479.309 24.7008 478.896 24.5511 478.351 24.5511C477.866 24.5511 477.421 24.678 477.016 24.9318C476.61 25.1818 476.269 25.5379 475.993 26C475.716 26.4621 475.527 27.0076 475.425 27.6364C475.319 28.2765 475.324 28.8333 475.442 29.3068C475.563 29.7765 475.783 30.1402 476.101 30.3977C476.423 30.6515 476.828 30.7784 477.317 30.7784C477.646 30.7784 477.953 30.7197 478.237 30.6023C478.525 30.4811 478.779 30.3087 478.999 30.0852C479.218 29.8617 479.393 29.5928 479.521 29.2784H481.118C480.955 29.8352 480.684 30.3314 480.305 30.767C479.927 31.2027 479.463 31.5473 478.913 31.8011C478.368 32.0511 477.756 32.1761 477.078 32.1761ZM486.141 32.1761C485.296 32.1761 484.603 31.9848 484.061 31.6023C483.523 31.2159 483.148 30.6837 482.936 30.0057C482.728 29.3277 482.696 28.5511 482.839 27.6761C482.983 26.7898 483.277 26.0076 483.72 25.3295C484.167 24.6477 484.724 24.1155 485.391 23.733C486.061 23.3504 486.804 23.1591 487.618 23.1591C488.273 23.1591 488.838 23.2803 489.311 23.5227C489.785 23.7614 490.144 24.0985 490.391 24.5341C490.637 24.9659 490.745 25.4735 490.714 26.0568H489.112C489.086 25.6477 488.932 25.2955 488.652 25C488.372 24.7008 487.959 24.5511 487.413 24.5511C486.929 24.5511 486.483 24.678 486.078 24.9318C485.673 25.1818 485.332 25.5379 485.055 26C484.779 26.4621 484.589 27.0076 484.487 27.6364C484.381 28.2765 484.387 28.8333 484.504 29.3068C484.625 29.7765 484.845 30.1402 485.163 30.3977C485.485 30.6515 485.891 30.7784 486.379 30.7784C486.709 30.7784 487.016 30.7197 487.3 30.6023C487.588 30.4811 487.841 30.3087 488.061 30.0852C488.281 29.8617 488.455 29.5928 488.584 29.2784H490.18C490.018 29.8352 489.747 30.3314 489.368 30.767C488.989 31.2027 488.525 31.5473 487.976 31.8011C487.43 32.0511 486.819 32.1761 486.141 32.1761ZM495.266 32.1761C494.44 32.1761 493.75 31.9867 493.197 31.608C492.644 31.2254 492.254 30.6913 492.027 30.0057C491.804 29.3163 491.766 28.5152 491.913 27.6023C492.057 26.7083 492.347 25.928 492.783 25.2614C493.218 24.5947 493.766 24.0777 494.425 23.7102C495.084 23.3428 495.815 23.1591 496.618 23.1591C497.444 23.1591 498.131 23.3504 498.68 23.733C499.233 24.1155 499.624 24.6515 499.851 25.3409C500.078 26.0303 500.118 26.8352 499.97 27.7557C499.826 28.642 499.533 29.4167 499.089 30.0795C498.65 30.7424 498.103 31.2576 497.447 31.625C496.796 31.9924 496.069 32.1761 495.266 32.1761ZM495.351 30.7898C495.908 30.7898 496.393 30.6439 496.805 30.3523C497.222 30.0606 497.561 29.6723 497.822 29.1875C498.088 28.7027 498.268 28.1723 498.362 27.5966C498.449 27.0473 498.447 26.5417 498.357 26.0795C498.266 25.6136 498.072 25.2405 497.777 24.9602C497.482 24.6799 497.067 24.5398 496.533 24.5398C495.976 24.5398 495.487 24.6875 495.067 24.983C494.65 25.2784 494.311 25.6705 494.05 26.1591C493.788 26.6439 493.612 27.1742 493.521 27.75C493.434 28.2992 493.434 28.8049 493.521 29.267C493.612 29.7292 493.805 30.0985 494.101 30.375C494.4 30.6515 494.817 30.7898 495.351 30.7898ZM507.317 28.392L508.175 23.2727H509.811L508.357 32H506.749L506.999 30.4943H506.908C506.639 30.9564 506.256 31.3428 505.76 31.6534C505.264 31.9602 504.686 32.1136 504.027 32.1136C503.47 32.1136 502.997 31.9905 502.607 31.7443C502.22 31.4981 501.946 31.1307 501.783 30.642C501.62 30.1534 501.599 29.5473 501.72 28.8239L502.652 23.2727H504.283L503.391 28.6364C503.296 29.2386 503.385 29.7197 503.658 30.0795C503.934 30.4356 504.338 30.6136 504.868 30.6136C505.19 30.6136 505.523 30.5341 505.868 30.375C506.216 30.2121 506.525 29.9678 506.794 29.642C507.063 29.3125 507.237 28.8958 507.317 28.392ZM513.161 26.8068L512.303 32H510.666L512.121 23.2727H513.695L513.456 24.6875H513.57C513.842 24.2254 514.217 23.8561 514.695 23.5795C515.172 23.2992 515.738 23.1591 516.393 23.1591C516.981 23.1591 517.477 23.2822 517.882 23.5284C518.287 23.7746 518.573 24.142 518.74 24.6307C518.911 25.1193 518.937 25.7254 518.82 26.4489L517.888 32H516.251L517.143 26.6364C517.25 25.9962 517.166 25.4943 516.893 25.1307C516.625 24.767 516.196 24.5852 515.609 24.5852C515.208 24.5852 514.837 24.6723 514.496 24.8466C514.155 25.017 513.867 25.2689 513.632 25.6023C513.401 25.9318 513.244 26.3333 513.161 26.8068ZM525.659 23.2727L525.443 24.5966H520.722L520.938 23.2727H525.659ZM522.562 21.1818H524.199L522.818 29.4489C522.765 29.786 522.775 30.0398 522.847 30.2102C522.919 30.3807 523.032 30.4962 523.188 30.5568C523.343 30.6136 523.513 30.642 523.699 30.642C523.839 30.642 523.958 30.6326 524.057 30.6136C524.159 30.5947 524.241 30.5795 524.301 30.5682L524.392 31.9375C524.278 31.9754 524.127 32.0133 523.938 32.0511C523.752 32.0928 523.525 32.1136 523.256 32.1136C522.82 32.1212 522.424 32.0417 522.068 31.875C521.716 31.7083 521.451 31.4527 521.273 31.108C521.095 30.7595 521.051 30.3239 521.142 29.8011L522.562 21.1818Z" fill="black"/>
<g filter="url(#filter0_i_47_96)">
<rect x="192" y="39" width="244" height="73" fill="#FCFCFC"/>
</g>
<rect x="192.5" y="39.5" width="243" height="72" stroke="black"/>
<g filter="url(#filter1_i_47_96)">
<rect x="192" y="14" width="202" height="21" fill="#F7F6F6"/>
</g>
<path d="M192.574 30L194.506 18.3636H198.614C199.515 18.3636 200.235 18.5284 200.773 18.858C201.314 19.1837 201.684 19.6307 201.881 20.1989C202.081 20.767 202.123 21.4053 202.006 22.1136C201.888 22.822 201.634 23.4602 201.244 24.0284C200.858 24.5966 200.339 25.0473 199.688 25.3807C199.04 25.714 198.267 25.8807 197.369 25.8807H194.517L194.756 24.4318H197.46C198.044 24.4318 198.532 24.3314 198.926 24.1307C199.324 23.9299 199.634 23.6553 199.858 23.3068C200.085 22.9545 200.235 22.5568 200.307 22.1136C200.379 21.6667 200.36 21.2727 200.25 20.9318C200.14 20.5871 199.92 20.3163 199.591 20.1193C199.261 19.9223 198.803 19.8239 198.216 19.8239H195.966L194.267 30H192.574ZM206.232 30.1761C205.379 30.1761 204.675 29.9924 204.118 29.625C203.561 29.2538 203.171 28.733 202.947 28.0625C202.728 27.3883 202.692 26.6004 202.839 25.6989C202.987 24.8011 203.283 24.0114 203.726 23.3295C204.173 22.6477 204.73 22.1155 205.396 21.733C206.067 21.3504 206.804 21.1591 207.607 21.1591C208.091 21.1591 208.55 21.2405 208.982 21.4034C209.417 21.5625 209.788 21.8163 210.095 22.1648C210.406 22.5095 210.62 22.9602 210.737 23.517C210.858 24.0739 210.853 24.7481 210.72 25.5398L210.624 26.1364H203.726L203.919 24.8807H209.209C209.288 24.4299 209.266 24.0284 209.141 23.6761C209.019 23.3201 208.809 23.0398 208.51 22.8352C208.214 22.6307 207.841 22.5284 207.391 22.5284C206.925 22.5284 206.491 22.6515 206.089 22.8977C205.688 23.1402 205.353 23.4489 205.084 23.8239C204.815 24.1989 204.646 24.5871 204.578 24.9886L204.391 26.1193C204.288 26.7708 204.305 27.2936 204.442 27.6875C204.582 28.0814 204.824 28.3674 205.169 28.5455C205.514 28.7197 205.947 28.8068 206.47 28.8068C206.807 28.8068 207.118 28.7614 207.402 28.6705C207.686 28.5758 207.94 28.4356 208.163 28.25C208.387 28.0606 208.574 27.8258 208.726 27.5455L210.226 27.8466C210.018 28.3125 209.718 28.7216 209.328 29.0739C208.942 29.4223 208.485 29.6932 207.959 29.8864C207.436 30.0795 206.86 30.1761 206.232 30.1761ZM211.916 30L213.371 21.2727H214.95L214.717 22.6477H214.808C215.039 22.1856 215.382 21.8201 215.837 21.5511C216.291 21.2784 216.776 21.142 217.291 21.142C217.397 21.142 217.52 21.1439 217.661 21.1477C217.804 21.1515 217.918 21.161 218.001 21.1761L217.74 22.7557C217.679 22.7367 217.564 22.7159 217.393 22.6932C217.223 22.6667 217.049 22.6534 216.871 22.6534C216.465 22.6534 216.09 22.7386 215.746 22.9091C215.401 23.0795 215.111 23.3144 214.876 23.6136C214.645 23.9129 214.498 24.2538 214.433 24.6364L213.547 30H211.916ZM224.135 21.2727L223.919 22.5966H219.027L219.243 21.2727H224.135ZM219.146 30L220.777 20.2273C220.86 19.6894 221.05 19.2424 221.345 18.8864C221.644 18.5303 222.004 18.2633 222.425 18.0852C222.845 17.9072 223.283 17.8182 223.737 17.8182C224.078 17.8182 224.36 17.8466 224.584 17.9034C224.811 17.9564 224.978 18.0057 225.084 18.0511L224.47 19.3864C224.398 19.3636 224.304 19.3371 224.186 19.3068C224.069 19.2727 223.919 19.2557 223.737 19.2557C223.321 19.2557 223.004 19.3598 222.788 19.5682C222.576 19.7727 222.434 20.072 222.362 20.4659L220.783 30H219.146ZM227.797 30.1761C226.971 30.1761 226.282 29.9867 225.729 29.608C225.176 29.2254 224.786 28.6913 224.558 28.0057C224.335 27.3163 224.297 26.5152 224.445 25.6023C224.589 24.7083 224.878 23.928 225.314 23.2614C225.75 22.5947 226.297 22.0777 226.956 21.7102C227.615 21.3428 228.346 21.1591 229.149 21.1591C229.975 21.1591 230.662 21.3504 231.212 21.733C231.765 22.1155 232.155 22.6515 232.382 23.3409C232.609 24.0303 232.649 24.8352 232.501 25.7557C232.357 26.642 232.064 27.4167 231.621 28.0795C231.181 28.7424 230.634 29.2576 229.979 29.625C229.327 29.9924 228.6 30.1761 227.797 30.1761ZM227.882 28.7898C228.439 28.7898 228.924 28.6439 229.337 28.3523C229.753 28.0606 230.092 27.6723 230.354 27.1875C230.619 26.7027 230.799 26.1723 230.893 25.5966C230.981 25.0473 230.979 24.5417 230.888 24.0795C230.797 23.6136 230.604 23.2405 230.308 22.9602C230.013 22.6799 229.598 22.5398 229.064 22.5398C228.507 22.5398 228.018 22.6875 227.598 22.983C227.181 23.2784 226.842 23.6705 226.581 24.1591C226.32 24.6439 226.143 25.1742 226.053 25.75C225.965 26.2992 225.965 26.8049 226.053 27.267C226.143 27.7292 226.337 28.0985 226.632 28.375C226.931 28.6515 227.348 28.7898 227.882 28.7898ZM233.729 30L235.183 21.2727H236.763L236.53 22.6477H236.621C236.852 22.1856 237.195 21.8201 237.649 21.5511C238.104 21.2784 238.589 21.142 239.104 21.142C239.21 21.142 239.333 21.1439 239.473 21.1477C239.617 21.1515 239.731 21.161 239.814 21.1761L239.553 22.7557C239.492 22.7367 239.376 22.7159 239.206 22.6932C239.036 22.6667 238.861 22.6534 238.683 22.6534C238.278 22.6534 237.903 22.7386 237.558 22.9091C237.214 23.0795 236.924 23.3144 236.689 23.6136C236.458 23.9129 236.31 24.2538 236.246 24.6364L235.359 30H233.729ZM239.869 30L241.324 21.2727H242.898L242.659 22.6875H242.773C243.034 22.2064 243.392 21.8314 243.847 21.5625C244.305 21.2936 244.822 21.1591 245.398 21.1591C245.97 21.1591 246.432 21.2955 246.784 21.5682C247.136 21.8371 247.371 22.2102 247.489 22.6875H247.58C247.864 22.2178 248.256 21.8466 248.756 21.5739C249.256 21.2973 249.822 21.1591 250.455 21.1591C251.235 21.1591 251.835 21.4072 252.256 21.9034C252.676 22.3996 252.803 23.1496 252.636 24.1534L251.659 30H250.023L250.983 24.2841C251.078 23.678 250.985 23.2424 250.705 22.9773C250.424 22.7121 250.057 22.5795 249.602 22.5795C249.038 22.5795 248.57 22.7519 248.199 23.0966C247.831 23.4375 247.606 23.8769 247.523 24.4148L246.58 30H244.949L245.926 24.1705C246.002 23.6894 245.915 23.3049 245.665 23.017C245.415 22.7254 245.049 22.5795 244.568 22.5795C244.239 22.5795 243.92 22.6667 243.614 22.8409C243.307 23.0114 243.044 23.25 242.824 23.5568C242.608 23.8598 242.47 24.2083 242.409 24.6023L241.506 30H239.869ZM256.486 30.1932C255.933 30.1932 255.448 30.0909 255.031 29.8864C254.618 29.678 254.313 29.3769 254.116 28.983C253.92 28.5852 253.868 28.1023 253.963 27.5341C254.046 27.0379 254.211 26.6326 254.457 26.3182C254.704 26 255.003 25.7481 255.355 25.5625C255.707 25.3769 256.09 25.2367 256.503 25.142C256.916 25.0473 257.332 24.9773 257.753 24.9318C258.283 24.8674 258.713 24.8163 259.043 24.7784C259.376 24.7367 259.626 24.6723 259.793 24.5852C259.963 24.4943 260.065 24.3466 260.099 24.142V24.0966C260.183 23.5966 260.111 23.2064 259.884 22.9261C259.66 22.642 259.27 22.5 258.713 22.5C258.134 22.5 257.647 22.6288 257.253 22.8864C256.859 23.1402 256.571 23.4223 256.389 23.733L254.929 23.3523C255.205 22.822 255.556 22.3958 255.98 22.0739C256.404 21.7519 256.865 21.5189 257.361 21.375C257.861 21.2311 258.366 21.1591 258.878 21.1591C259.211 21.1591 259.563 21.1989 259.935 21.2784C260.31 21.358 260.651 21.5057 260.957 21.7216C261.268 21.9337 261.499 22.2405 261.651 22.642C261.802 23.0436 261.825 23.5663 261.719 24.2102L260.759 30H259.156L259.361 28.8125H259.293C259.152 29.0246 258.955 29.2367 258.702 29.4489C258.448 29.661 258.135 29.839 257.764 29.983C257.397 30.1231 256.971 30.1932 256.486 30.1932ZM257.031 28.8636C257.512 28.8636 257.938 28.7689 258.31 28.5795C258.681 28.3864 258.982 28.1383 259.213 27.8352C259.444 27.5284 259.588 27.2008 259.645 26.8523L259.838 25.7045C259.766 25.7689 259.637 25.8277 259.452 25.8807C259.27 25.9299 259.063 25.9735 258.832 26.0114C258.605 26.0455 258.382 26.0777 258.162 26.108C257.946 26.1345 257.768 26.1572 257.628 26.1761C257.291 26.2216 256.974 26.2936 256.679 26.392C256.384 26.4905 256.135 26.6326 255.935 26.8182C255.738 27.0038 255.616 27.2519 255.571 27.5625C255.499 27.9905 255.601 28.3144 255.878 28.5341C256.154 28.7538 256.539 28.8636 257.031 28.8636ZM265.551 24.8068L264.693 30H263.057L264.511 21.2727H266.085L265.847 22.6875H265.96C266.233 22.2254 266.608 21.8561 267.085 21.5795C267.563 21.2992 268.129 21.1591 268.784 21.1591C269.371 21.1591 269.867 21.2822 270.273 21.5284C270.678 21.7746 270.964 22.142 271.131 22.6307C271.301 23.1193 271.328 23.7254 271.21 24.4489L270.278 30H268.642L269.534 24.6364C269.64 23.9962 269.557 23.4943 269.284 23.1307C269.015 22.767 268.587 22.5852 268 22.5852C267.598 22.5852 267.227 22.6723 266.886 22.8466C266.545 23.017 266.258 23.2689 266.023 23.6023C265.792 23.9318 265.634 24.3333 265.551 24.8068ZM276.203 30.1761C275.358 30.1761 274.665 29.9848 274.124 29.6023C273.586 29.2159 273.211 28.6837 272.999 28.0057C272.79 27.3277 272.758 26.5511 272.902 25.6761C273.046 24.7898 273.339 24.0076 273.783 23.3295C274.23 22.6477 274.786 22.1155 275.453 21.733C276.124 21.3504 276.866 21.1591 277.68 21.1591C278.336 21.1591 278.9 21.2803 279.374 21.5227C279.847 21.7614 280.207 22.0985 280.453 22.5341C280.699 22.9659 280.807 23.4735 280.777 24.0568H279.175C279.148 23.6477 278.995 23.2955 278.714 23C278.434 22.7008 278.021 22.5511 277.476 22.5511C276.991 22.5511 276.546 22.678 276.141 22.9318C275.735 23.1818 275.394 23.5379 275.118 24C274.841 24.4621 274.652 25.0076 274.55 25.6364C274.444 26.2765 274.449 26.8333 274.567 27.3068C274.688 27.7765 274.908 28.1402 275.226 28.3977C275.548 28.6515 275.953 28.7784 276.442 28.7784C276.771 28.7784 277.078 28.7197 277.362 28.6023C277.65 28.4811 277.904 28.3087 278.124 28.0852C278.343 27.8617 278.518 27.5928 278.646 27.2784H280.243C280.08 27.8352 279.809 28.3314 279.43 28.767C279.052 29.2027 278.588 29.5473 278.038 29.8011C277.493 30.0511 276.881 30.1761 276.203 30.1761ZM285.357 30.1761C284.504 30.1761 283.8 29.9924 283.243 29.625C282.686 29.2538 282.296 28.733 282.072 28.0625C281.853 27.3883 281.817 26.6004 281.964 25.6989C282.112 24.8011 282.408 24.0114 282.851 23.3295C283.298 22.6477 283.855 22.1155 284.521 21.733C285.192 21.3504 285.929 21.1591 286.732 21.1591C287.216 21.1591 287.675 21.2405 288.107 21.4034C288.542 21.5625 288.913 21.8163 289.22 22.1648C289.531 22.5095 289.745 22.9602 289.862 23.517C289.983 24.0739 289.978 24.7481 289.845 25.5398L289.749 26.1364H282.851L283.044 24.8807H288.334C288.413 24.4299 288.391 24.0284 288.266 23.6761C288.144 23.3201 287.934 23.0398 287.635 22.8352C287.339 22.6307 286.966 22.5284 286.516 22.5284C286.05 22.5284 285.616 22.6515 285.214 22.8977C284.813 23.1402 284.478 23.4489 284.209 23.8239C283.94 24.1989 283.771 24.5871 283.703 24.9886L283.516 26.1193C283.413 26.7708 283.43 27.2936 283.567 27.6875C283.707 28.0814 283.949 28.3674 284.294 28.5455C284.639 28.7197 285.072 28.8068 285.595 28.8068C285.932 28.8068 286.243 28.7614 286.527 28.6705C286.811 28.5758 287.065 28.4356 287.288 28.25C287.512 28.0606 287.699 27.8258 287.851 27.5455L289.351 27.8466C289.143 28.3125 288.843 28.7216 288.453 29.0739C288.067 29.4223 287.61 29.6932 287.084 29.8864C286.561 30.0795 285.985 30.1761 285.357 30.1761ZM297.396 18.3636H299.447L301.686 27.517H301.822L307.084 18.3636H309.135L307.203 30H305.595L307.01 21.5057H306.902L302.021 29.983H300.652L298.607 21.5H298.493L297.072 30H295.464L297.396 18.3636ZM312.189 30.1932C311.636 30.1932 311.151 30.0909 310.734 29.8864C310.321 29.678 310.017 29.3769 309.82 28.983C309.623 28.5852 309.571 28.1023 309.666 27.5341C309.75 27.0379 309.914 26.6326 310.161 26.3182C310.407 26 310.706 25.7481 311.058 25.5625C311.411 25.3769 311.793 25.2367 312.206 25.142C312.619 25.0473 313.036 24.9773 313.456 24.9318C313.986 24.8674 314.416 24.8163 314.746 24.7784C315.079 24.7367 315.329 24.6723 315.496 24.5852C315.666 24.4943 315.768 24.3466 315.803 24.142V24.0966C315.886 23.5966 315.814 23.2064 315.587 22.9261C315.363 22.642 314.973 22.5 314.416 22.5C313.837 22.5 313.35 22.6288 312.956 22.8864C312.562 23.1402 312.274 23.4223 312.092 23.733L310.632 23.3523C310.909 22.822 311.259 22.3958 311.683 22.0739C312.107 21.7519 312.568 21.5189 313.064 21.375C313.564 21.2311 314.07 21.1591 314.581 21.1591C314.914 21.1591 315.267 21.1989 315.638 21.2784C316.013 21.358 316.354 21.5057 316.661 21.7216C316.971 21.9337 317.202 22.2405 317.354 22.642C317.505 23.0436 317.528 23.5663 317.422 24.2102L316.462 30H314.859L315.064 28.8125H314.996C314.856 29.0246 314.659 29.2367 314.405 29.4489C314.151 29.661 313.839 29.839 313.467 29.983C313.1 30.1231 312.674 30.1932 312.189 30.1932ZM312.734 28.8636C313.215 28.8636 313.642 28.7689 314.013 28.5795C314.384 28.3864 314.685 28.1383 314.916 27.8352C315.147 27.5284 315.291 27.2008 315.348 26.8523L315.541 25.7045C315.469 25.7689 315.34 25.8277 315.155 25.8807C314.973 25.9299 314.767 25.9735 314.536 26.0114C314.308 26.0455 314.085 26.0777 313.865 26.108C313.649 26.1345 313.471 26.1572 313.331 26.1761C312.994 26.2216 312.678 26.2936 312.382 26.392C312.087 26.4905 311.839 26.6326 311.638 26.8182C311.441 27.0038 311.32 27.2519 311.274 27.5625C311.202 27.9905 311.304 28.3144 311.581 28.5341C311.857 28.7538 312.242 28.8636 312.734 28.8636ZM321.254 24.8068L320.396 30H318.76L320.214 21.2727H321.788L321.55 22.6875H321.663C321.936 22.2254 322.311 21.8561 322.788 21.5795C323.266 21.2992 323.832 21.1591 324.487 21.1591C325.074 21.1591 325.571 21.2822 325.976 21.5284C326.381 21.7746 326.667 22.142 326.834 22.6307C327.004 23.1193 327.031 23.7254 326.913 24.4489L325.982 30H324.345L325.237 24.6364C325.343 23.9962 325.26 23.4943 324.987 23.1307C324.718 22.767 324.29 22.5852 323.703 22.5852C323.302 22.5852 322.93 22.6723 322.589 22.8466C322.249 23.017 321.961 23.2689 321.726 23.6023C321.495 23.9318 321.338 24.3333 321.254 24.8068ZM330.798 30.1932C330.245 30.1932 329.76 30.0909 329.344 29.8864C328.931 29.678 328.626 29.3769 328.429 28.983C328.232 28.5852 328.181 28.1023 328.276 27.5341C328.359 27.0379 328.524 26.6326 328.77 26.3182C329.016 26 329.315 25.7481 329.668 25.5625C330.02 25.3769 330.402 25.2367 330.815 25.142C331.228 25.0473 331.645 24.9773 332.065 24.9318C332.596 24.8674 333.026 24.8163 333.355 24.7784C333.688 24.7367 333.938 24.6723 334.105 24.5852C334.276 24.4943 334.378 24.3466 334.412 24.142V24.0966C334.495 23.5966 334.423 23.2064 334.196 22.9261C333.973 22.642 333.582 22.5 333.026 22.5C332.446 22.5 331.959 22.6288 331.565 22.8864C331.171 23.1402 330.884 23.4223 330.702 23.733L329.241 23.3523C329.518 22.822 329.868 22.3958 330.293 22.0739C330.717 21.7519 331.177 21.5189 331.673 21.375C332.173 21.2311 332.679 21.1591 333.19 21.1591C333.524 21.1591 333.876 21.1989 334.247 21.2784C334.622 21.358 334.963 21.5057 335.27 21.7216C335.58 21.9337 335.812 22.2405 335.963 22.642C336.115 23.0436 336.137 23.5663 336.031 24.2102L335.071 30H333.469L333.673 28.8125H333.605C333.465 29.0246 333.268 29.2367 333.014 29.4489C332.76 29.661 332.448 29.839 332.077 29.983C331.709 30.1231 331.283 30.1932 330.798 30.1932ZM331.344 28.8636C331.825 28.8636 332.251 28.7689 332.622 28.5795C332.993 28.3864 333.295 28.1383 333.526 27.8352C333.757 27.5284 333.901 27.2008 333.957 26.8523L334.151 25.7045C334.079 25.7689 333.95 25.8277 333.764 25.8807C333.582 25.9299 333.376 25.9735 333.145 26.0114C332.918 26.0455 332.694 26.0777 332.474 26.108C332.259 26.1345 332.08 26.1572 331.94 26.1761C331.603 26.2216 331.287 26.2936 330.991 26.392C330.696 26.4905 330.448 26.6326 330.247 26.8182C330.05 27.0038 329.929 27.2519 329.884 27.5625C329.812 27.9905 329.914 28.3144 330.19 28.5341C330.467 28.7538 330.851 28.8636 331.344 28.8636ZM340.455 33.4545C339.765 33.4545 339.189 33.3655 338.727 33.1875C338.265 33.0095 337.9 32.7727 337.631 32.4773C337.366 32.1818 337.18 31.8617 337.074 31.517L338.58 30.892C338.655 31.0549 338.761 31.2311 338.898 31.4205C339.034 31.6136 339.241 31.7784 339.517 31.9148C339.794 32.0511 340.174 32.1193 340.659 32.1193C341.311 32.1193 341.881 31.9602 342.369 31.642C342.862 31.3239 343.165 30.8201 343.278 30.1307L343.551 28.4034H343.438C343.312 28.5852 343.136 28.7917 342.909 29.0227C342.686 29.25 342.392 29.4489 342.028 29.6193C341.669 29.786 341.22 29.8693 340.682 29.8693C339.989 29.8693 339.392 29.7064 338.892 29.3807C338.396 29.0549 338.038 28.5758 337.818 27.9432C337.602 27.3068 337.572 26.5246 337.727 25.5966C337.879 24.6761 338.167 23.8845 338.591 23.2216C339.015 22.5587 339.534 22.0492 340.148 21.6932C340.761 21.3371 341.422 21.1591 342.131 21.1591C342.676 21.1591 343.1 21.25 343.403 21.4318C343.71 21.6136 343.936 21.8239 344.08 22.0625C344.227 22.3011 344.337 22.5076 344.409 22.6818H344.534L344.767 21.2727H346.364L344.886 30.2045C344.765 30.9545 344.492 31.5682 344.068 32.0455C343.644 32.5265 343.117 32.8807 342.489 33.108C341.864 33.339 341.186 33.4545 340.455 33.4545ZM341.216 28.4943C341.708 28.4943 342.148 28.3788 342.534 28.1477C342.924 27.9167 343.248 27.5833 343.506 27.1477C343.767 26.7083 343.947 26.1856 344.045 25.5795C344.144 24.9811 344.138 24.4564 344.028 24.0057C343.919 23.5511 343.708 23.197 343.398 22.9432C343.087 22.6894 342.682 22.5625 342.182 22.5625C341.659 22.5625 341.205 22.697 340.818 22.9659C340.432 23.2311 340.117 23.5928 339.875 24.0511C339.636 24.5057 339.47 25.0152 339.375 25.5795C339.284 26.1553 339.286 26.6629 339.381 27.1023C339.479 27.5379 339.68 27.8788 339.983 28.125C340.286 28.3712 340.697 28.4943 341.216 28.4943ZM347.229 30L348.683 21.2727H350.257L350.018 22.6875H350.132C350.393 22.2064 350.751 21.8314 351.206 21.5625C351.664 21.2936 352.181 21.1591 352.757 21.1591C353.329 21.1591 353.791 21.2955 354.143 21.5682C354.496 21.8371 354.731 22.2102 354.848 22.6875H354.939C355.223 22.2178 355.615 21.8466 356.115 21.5739C356.615 21.2973 357.181 21.1591 357.814 21.1591C358.594 21.1591 359.195 21.4072 359.615 21.9034C360.036 22.3996 360.162 23.1496 359.996 24.1534L359.018 30H357.382L358.342 24.2841C358.437 23.678 358.344 23.2424 358.064 22.9773C357.784 22.7121 357.416 22.5795 356.962 22.5795C356.397 22.5795 355.929 22.7519 355.558 23.0966C355.191 23.4375 354.965 23.8769 354.882 24.4148L353.939 30H352.308L353.286 24.1705C353.361 23.6894 353.274 23.3049 353.024 23.017C352.774 22.7254 352.409 22.5795 351.928 22.5795C351.598 22.5795 351.28 22.6667 350.973 22.8409C350.666 23.0114 350.403 23.25 350.183 23.5568C349.967 23.8598 349.829 24.2083 349.768 24.6023L348.865 30H347.229ZM365.044 30.1761C364.192 30.1761 363.487 29.9924 362.93 29.625C362.374 29.2538 361.983 28.733 361.76 28.0625C361.54 27.3883 361.504 26.6004 361.652 25.6989C361.8 24.8011 362.095 24.0114 362.538 23.3295C362.985 22.6477 363.542 22.1155 364.209 21.733C364.879 21.3504 365.616 21.1591 366.419 21.1591C366.904 21.1591 367.362 21.2405 367.794 21.4034C368.23 21.5625 368.601 21.8163 368.908 22.1648C369.218 22.5095 369.432 22.9602 369.55 23.517C369.671 24.0739 369.665 24.7481 369.533 25.5398L369.436 26.1364H362.538L362.732 24.8807H368.021C368.101 24.4299 368.078 24.0284 367.953 23.6761C367.832 23.3201 367.622 23.0398 367.322 22.8352C367.027 22.6307 366.654 22.5284 366.203 22.5284C365.737 22.5284 365.304 22.6515 364.902 22.8977C364.5 23.1402 364.165 23.4489 363.896 23.8239C363.627 24.1989 363.459 24.5871 363.391 24.9886L363.203 26.1193C363.101 26.7708 363.118 27.2936 363.254 27.6875C363.394 28.0814 363.637 28.3674 363.982 28.5455C364.326 28.7197 364.76 28.8068 365.283 28.8068C365.62 28.8068 365.93 28.7614 366.214 28.6705C366.499 28.5758 366.752 28.4356 366.976 28.25C367.199 28.0606 367.387 27.8258 367.538 27.5455L369.038 27.8466C368.83 28.3125 368.531 28.7216 368.141 29.0739C367.754 29.4223 367.298 29.6932 366.771 29.8864C366.249 30.0795 365.673 30.1761 365.044 30.1761ZM373.223 24.8068L372.365 30H370.729L372.183 21.2727H373.757L373.518 22.6875H373.632C373.905 22.2254 374.28 21.8561 374.757 21.5795C375.234 21.2992 375.801 21.1591 376.456 21.1591C377.043 21.1591 377.539 21.2822 377.945 21.5284C378.35 21.7746 378.636 22.142 378.803 22.6307C378.973 23.1193 379 23.7254 378.882 24.4489L377.95 30H376.314L377.206 24.6364C377.312 23.9962 377.229 23.4943 376.956 23.1307C376.687 22.767 376.259 22.5852 375.672 22.5852C375.27 22.5852 374.899 22.6723 374.558 22.8466C374.217 23.017 373.929 23.2689 373.695 23.6023C373.464 23.9318 373.306 24.3333 373.223 24.8068ZM385.722 21.2727L385.506 22.5966H380.784L381 21.2727H385.722ZM382.625 19.1818H384.261L382.881 27.4489C382.828 27.786 382.837 28.0398 382.909 28.2102C382.981 28.3807 383.095 28.4962 383.25 28.5568C383.405 28.6136 383.576 28.642 383.761 28.642C383.902 28.642 384.021 28.6326 384.119 28.6136C384.222 28.5947 384.303 28.5795 384.364 28.5682L384.455 29.9375C384.341 29.9754 384.189 30.0133 384 30.0511C383.814 30.0928 383.587 30.1136 383.318 30.1136C382.883 30.1212 382.487 30.0417 382.131 29.875C381.778 29.7083 381.513 29.4527 381.335 29.108C381.157 28.7595 381.114 28.3239 381.205 27.8011L382.625 19.1818Z" fill="black"/>
<g filter="url(#filter2_i_47_96)">
<path d="M10.5739 32L12.5057 20.3636H19.75L19.5114 21.8239H13.9602L13.358 25.4432H18.5341L18.2898 26.9034H13.1136L12.5114 30.5398H18.1364L17.892 32H10.5739ZM20.0568 32L21.5114 23.2727H23.0852L22.8466 24.6875H22.9602C23.2216 24.2064 23.5795 23.8314 24.0341 23.5625C24.4924 23.2936 25.0095 23.1591 25.5852 23.1591C26.1572 23.1591 26.6193 23.2955 26.9716 23.5682C27.3239 23.8371 27.5587 24.2102 27.6761 24.6875H27.767C28.0511 24.2178 28.4432 23.8466 28.9432 23.5739C29.4432 23.2973 30.0095 23.1591 30.642 23.1591C31.4223 23.1591 32.0227 23.4072 32.4432 23.9034C32.8636 24.3996 32.9905 25.1496 32.8239 26.1534L31.8466 32H30.2102L31.1705 26.2841C31.2652 25.678 31.1723 25.2424 30.892 24.9773C30.6117 24.7121 30.2443 24.5795 29.7898 24.5795C29.2254 24.5795 28.7576 24.7519 28.3864 25.0966C28.0189 25.4375 27.7936 25.8769 27.7102 26.4148L26.767 32H25.1364L26.1136 26.1705C26.1894 25.6894 26.1023 25.3049 25.8523 25.017C25.6023 24.7254 25.2367 24.5795 24.7557 24.5795C24.4261 24.5795 24.108 24.6667 23.8011 24.8409C23.4943 25.0114 23.2311 25.25 23.0114 25.5568C22.7955 25.8598 22.6572 26.2083 22.5966 26.6023L21.6932 32H20.0568ZM33.6051 35.2727L35.6165 23.2727H37.2131L36.9801 24.6818H37.1222C37.2509 24.5076 37.4252 24.3011 37.6449 24.0625C37.8684 23.8239 38.1619 23.6136 38.5256 23.4318C38.8892 23.25 39.3438 23.1591 39.8892 23.1591C40.5975 23.1591 41.1979 23.339 41.6903 23.6989C42.1828 24.0549 42.5313 24.5682 42.7358 25.2386C42.9441 25.9091 42.9706 26.714 42.8153 27.6534C42.66 28.5928 42.3684 29.3996 41.9403 30.0739C41.5123 30.7481 40.9934 31.267 40.3835 31.6307C39.7737 31.9905 39.1146 32.1705 38.4062 32.1705C37.8684 32.1705 37.446 32.0814 37.1392 31.9034C36.8362 31.7254 36.6108 31.517 36.4631 31.2784C36.3153 31.036 36.2055 30.8239 36.1335 30.642H36.0256L35.2528 35.2727H33.6051ZM36.4972 27.6364C36.3949 28.2576 36.393 28.803 36.4915 29.2727C36.5938 29.7424 36.7964 30.1098 37.0994 30.375C37.4025 30.6364 37.8021 30.767 38.2983 30.767C38.8172 30.767 39.2718 30.6307 39.6619 30.358C40.0521 30.0814 40.3741 29.7064 40.6278 29.233C40.8854 28.7595 41.0634 28.2273 41.1619 27.6364C41.2566 27.053 41.2547 26.5303 41.1562 26.0682C41.0578 25.6023 40.8589 25.2348 40.5597 24.9659C40.2604 24.697 39.8494 24.5625 39.3267 24.5625C38.8229 24.5625 38.3759 24.6913 37.9858 24.9489C37.5994 25.2027 37.2794 25.5606 37.0256 26.0227C36.7718 26.4848 36.5956 27.0227 36.4972 27.6364ZM47.5724 20.3636L45.6406 32H44.0099L45.9418 20.3636H47.5724ZM51.6562 32.1761C50.8305 32.1761 50.1411 31.9867 49.5881 31.608C49.035 31.2254 48.6449 30.6913 48.4176 30.0057C48.1941 29.3163 48.1563 28.5152 48.304 27.6023C48.4479 26.7083 48.7377 25.928 49.1733 25.2614C49.6089 24.5947 50.1562 24.0777 50.8153 23.7102C51.4744 23.3428 52.2055 23.1591 53.0085 23.1591C53.8343 23.1591 54.5218 23.3504 55.071 23.733C55.6241 24.1155 56.0142 24.6515 56.2415 25.3409C56.4688 26.0303 56.5085 26.8352 56.3608 27.7557C56.2169 28.642 55.9233 29.4167 55.4801 30.0795C55.0407 30.7424 54.4934 31.2576 53.8381 31.625C53.1866 31.9924 52.4593 32.1761 51.6562 32.1761ZM51.7415 30.7898C52.2983 30.7898 52.7831 30.6439 53.196 30.3523C53.6127 30.0606 53.9517 29.6723 54.2131 29.1875C54.4782 28.7027 54.6581 28.1723 54.7528 27.5966C54.84 27.0473 54.8381 26.5417 54.7472 26.0795C54.6563 25.6136 54.4631 25.2405 54.1676 24.9602C53.8722 24.6799 53.4574 24.5398 52.9233 24.5398C52.3665 24.5398 51.8778 24.6875 51.4574 24.983C51.0407 25.2784 50.7017 25.6705 50.4403 26.1591C50.179 26.6439 50.0028 27.1742 49.9119 27.75C49.8248 28.2992 49.8248 28.8049 49.9119 29.267C50.0028 29.7292 50.196 30.0985 50.4915 30.375C50.7907 30.6515 51.2074 30.7898 51.7415 30.7898ZM57.7756 35.2727C57.5256 35.2727 57.3021 35.2519 57.1051 35.2102C56.9119 35.1723 56.768 35.1326 56.6733 35.0909L57.304 33.7386C57.6032 33.822 57.8722 33.8523 58.1108 33.8295C58.3494 33.8068 58.5729 33.7045 58.7812 33.5227C58.9934 33.3409 59.2093 33.053 59.429 32.6591L59.7585 32.0625L58.0426 23.2727H59.7301L60.8381 30.0966H60.929L64.3153 23.2727H66.1335L60.8835 33.1761C60.6335 33.642 60.3532 34.0303 60.0426 34.3409C59.7358 34.6515 59.393 34.8845 59.0142 35.0398C58.6354 35.1951 58.2225 35.2727 57.7756 35.2727ZM69.7159 32.1761C68.8636 32.1761 68.1591 31.9924 67.6023 31.625C67.0455 31.2538 66.6553 30.733 66.4318 30.0625C66.2121 29.3883 66.1761 28.6004 66.3239 27.6989C66.4716 26.8011 66.767 26.0114 67.2102 25.3295C67.6572 24.6477 68.214 24.1155 68.8807 23.733C69.5511 23.3504 70.2879 23.1591 71.0909 23.1591C71.5758 23.1591 72.0341 23.2405 72.4659 23.4034C72.9015 23.5625 73.2727 23.8163 73.5795 24.1648C73.8902 24.5095 74.1042 24.9602 74.2216 25.517C74.3428 26.0739 74.3371 26.7481 74.2045 27.5398L74.108 28.1364H67.2102L67.4034 26.8807H72.6932C72.7727 26.4299 72.75 26.0284 72.625 25.6761C72.5038 25.3201 72.2936 25.0398 71.9943 24.8352C71.6989 24.6307 71.3258 24.5284 70.875 24.5284C70.4091 24.5284 69.9754 24.6515 69.5739 24.8977C69.1723 25.1402 68.8371 25.4489 68.5682 25.8239C68.2992 26.1989 68.1307 26.5871 68.0625 26.9886L67.875 28.1193C67.7727 28.7708 67.7898 29.2936 67.9261 29.6875C68.0663 30.0814 68.3087 30.3674 68.6534 30.5455C68.9981 30.7197 69.4318 30.8068 69.9545 30.8068C70.2917 30.8068 70.6023 30.7614 70.8864 30.6705C71.1705 30.5758 71.4242 30.4356 71.6477 30.25C71.8712 30.0606 72.0587 29.8258 72.2102 29.5455L73.7102 29.8466C73.5019 30.3125 73.2027 30.7216 72.8125 31.0739C72.4261 31.4223 71.9697 31.6932 71.4432 31.8864C70.9205 32.0795 70.3447 32.1761 69.7159 32.1761ZM79.1222 32.1761C78.2699 32.1761 77.5653 31.9924 77.0085 31.625C76.4517 31.2538 76.0616 30.733 75.8381 30.0625C75.6184 29.3883 75.5824 28.6004 75.7301 27.6989C75.8778 26.8011 76.1733 26.0114 76.6165 25.3295C77.0634 24.6477 77.6203 24.1155 78.2869 23.733C78.9574 23.3504 79.6941 23.1591 80.4972 23.1591C80.982 23.1591 81.4403 23.2405 81.8722 23.4034C82.3078 23.5625 82.679 23.8163 82.9858 24.1648C83.2964 24.5095 83.5104 24.9602 83.6278 25.517C83.7491 26.0739 83.7434 26.7481 83.6108 27.5398L83.5142 28.1364H76.6165L76.8097 26.8807H82.0994C82.179 26.4299 82.1562 26.0284 82.0312 25.6761C81.91 25.3201 81.6998 25.0398 81.4006 24.8352C81.1051 24.6307 80.732 24.5284 80.2812 24.5284C79.8153 24.5284 79.3816 24.6515 78.9801 24.8977C78.5786 25.1402 78.2434 25.4489 77.9744 25.8239C77.7055 26.1989 77.5369 26.5871 77.4688 26.9886L77.2812 28.1193C77.179 28.7708 77.196 29.2936 77.3324 29.6875C77.4725 30.0814 77.715 30.3674 78.0597 30.5455C78.4044 30.7197 78.8381 30.8068 79.3608 30.8068C79.6979 30.8068 80.0085 30.7614 80.2926 30.6705C80.5767 30.5758 80.8305 30.4356 81.054 30.25C81.2775 30.0606 81.465 29.8258 81.6165 29.5455L83.1165 29.8466C82.9081 30.3125 82.6089 30.7216 82.2188 31.0739C81.8324 31.4223 81.3759 31.6932 80.8494 31.8864C80.3267 32.0795 79.7509 32.1761 79.1222 32.1761ZM91.1619 20.3636H93.2131L95.4517 29.517H95.5881L100.849 20.3636H102.901L100.969 32H99.3608L100.776 23.5057H100.668L95.7869 31.983H94.4176L92.3722 23.5H92.2585L90.8381 32H89.2301L91.1619 20.3636ZM105.955 32.1932C105.402 32.1932 104.917 32.0909 104.5 31.8864C104.087 31.678 103.782 31.3769 103.585 30.983C103.388 30.5852 103.337 30.1023 103.432 29.5341C103.515 29.0379 103.68 28.6326 103.926 28.3182C104.172 28 104.472 27.7481 104.824 27.5625C105.176 27.3769 105.559 27.2367 105.972 27.142C106.384 27.0473 106.801 26.9773 107.222 26.9318C107.752 26.8674 108.182 26.8163 108.511 26.7784C108.845 26.7367 109.095 26.6723 109.261 26.5852C109.432 26.4943 109.534 26.3466 109.568 26.142V26.0966C109.652 25.5966 109.58 25.2064 109.352 24.9261C109.129 24.642 108.739 24.5 108.182 24.5C107.602 24.5 107.116 24.6288 106.722 24.8864C106.328 25.1402 106.04 25.4223 105.858 25.733L104.398 25.3523C104.674 24.822 105.025 24.3958 105.449 24.0739C105.873 23.7519 106.333 23.5189 106.83 23.375C107.33 23.2311 107.835 23.1591 108.347 23.1591C108.68 23.1591 109.032 23.1989 109.403 23.2784C109.778 23.358 110.119 23.5057 110.426 23.7216C110.737 23.9337 110.968 24.2405 111.119 24.642C111.271 25.0436 111.294 25.5663 111.188 26.2102L110.227 32H108.625L108.83 30.8125H108.761C108.621 31.0246 108.424 31.2367 108.17 31.4489C107.917 31.661 107.604 31.839 107.233 31.983C106.866 32.1231 106.439 32.1932 105.955 32.1932ZM106.5 30.8636C106.981 30.8636 107.407 30.7689 107.778 30.5795C108.15 30.3864 108.451 30.1383 108.682 29.8352C108.913 29.5284 109.057 29.2008 109.114 28.8523L109.307 27.7045C109.235 27.7689 109.106 27.8277 108.92 27.8807C108.739 27.9299 108.532 27.9735 108.301 28.0114C108.074 28.0455 107.85 28.0777 107.631 28.108C107.415 28.1345 107.237 28.1572 107.097 28.1761C106.759 28.2216 106.443 28.2936 106.148 28.392C105.852 28.4905 105.604 28.6326 105.403 28.8182C105.206 29.0038 105.085 29.2519 105.04 29.5625C104.968 29.9905 105.07 30.3144 105.347 30.5341C105.623 30.7538 106.008 30.8636 106.5 30.8636ZM115.02 26.8068L114.162 32H112.526L113.98 23.2727H115.554L115.315 24.6875H115.429C115.702 24.2254 116.077 23.8561 116.554 23.5795C117.031 23.2992 117.598 23.1591 118.253 23.1591C118.84 23.1591 119.336 23.2822 119.741 23.5284C120.147 23.7746 120.433 24.142 120.599 24.6307C120.77 25.1193 120.796 25.7254 120.679 26.4489L119.747 32H118.111L119.003 26.6364C119.109 25.9962 119.026 25.4943 118.753 25.1307C118.484 24.767 118.056 24.5852 117.469 24.5852C117.067 24.5852 116.696 24.6723 116.355 24.8466C116.014 25.017 115.726 25.2689 115.491 25.6023C115.26 25.9318 115.103 26.3333 115.02 26.8068ZM124.564 32.1932C124.011 32.1932 123.526 32.0909 123.109 31.8864C122.696 31.678 122.392 31.3769 122.195 30.983C121.998 30.5852 121.946 30.1023 122.041 29.5341C122.125 29.0379 122.289 28.6326 122.536 28.3182C122.782 28 123.081 27.7481 123.433 27.5625C123.786 27.3769 124.168 27.2367 124.581 27.142C124.994 27.0473 125.411 26.9773 125.831 26.9318C126.361 26.8674 126.791 26.8163 127.121 26.7784C127.454 26.7367 127.704 26.6723 127.871 26.5852C128.041 26.4943 128.143 26.3466 128.178 26.142V26.0966C128.261 25.5966 128.189 25.2064 127.962 24.9261C127.738 24.642 127.348 24.5 126.791 24.5C126.212 24.5 125.725 24.6288 125.331 24.8864C124.937 25.1402 124.649 25.4223 124.467 25.733L123.007 25.3523C123.284 24.822 123.634 24.3958 124.058 24.0739C124.482 23.7519 124.943 23.5189 125.439 23.375C125.939 23.2311 126.445 23.1591 126.956 23.1591C127.289 23.1591 127.642 23.1989 128.013 23.2784C128.388 23.358 128.729 23.5057 129.036 23.7216C129.346 23.9337 129.577 24.2405 129.729 24.642C129.88 25.0436 129.903 25.5663 129.797 26.2102L128.837 32H127.234L127.439 30.8125H127.371C127.231 31.0246 127.034 31.2367 126.78 31.4489C126.526 31.661 126.214 31.839 125.842 31.983C125.475 32.1231 125.049 32.1932 124.564 32.1932ZM125.109 30.8636C125.59 30.8636 126.017 30.7689 126.388 30.5795C126.759 30.3864 127.06 30.1383 127.291 29.8352C127.522 29.5284 127.666 29.2008 127.723 28.8523L127.916 27.7045C127.844 27.7689 127.715 27.8277 127.53 27.8807C127.348 27.9299 127.142 27.9735 126.911 28.0114C126.683 28.0455 126.46 28.0777 126.24 28.108C126.024 28.1345 125.846 28.1572 125.706 28.1761C125.369 28.2216 125.053 28.2936 124.757 28.392C124.462 28.4905 124.214 28.6326 124.013 28.8182C123.816 29.0038 123.695 29.2519 123.649 29.5625C123.577 29.9905 123.679 30.3144 123.956 30.5341C124.232 30.7538 124.617 30.8636 125.109 30.8636ZM134.22 35.4545C133.531 35.4545 132.955 35.3655 132.493 35.1875C132.031 35.0095 131.665 34.7727 131.396 34.4773C131.131 34.1818 130.946 33.8617 130.839 33.517L132.345 32.892C132.421 33.0549 132.527 33.2311 132.663 33.4205C132.8 33.6136 133.006 33.7784 133.283 33.9148C133.559 34.0511 133.94 34.1193 134.425 34.1193C135.076 34.1193 135.646 33.9602 136.135 33.642C136.627 33.3239 136.93 32.8201 137.044 32.1307L137.317 30.4034H137.203C137.078 30.5852 136.902 30.7917 136.675 31.0227C136.451 31.25 136.158 31.4489 135.794 31.6193C135.434 31.786 134.985 31.8693 134.447 31.8693C133.754 31.8693 133.158 31.7064 132.658 31.3807C132.161 31.0549 131.804 30.5758 131.584 29.9432C131.368 29.3068 131.338 28.5246 131.493 27.5966C131.644 26.6761 131.932 25.8845 132.357 25.2216C132.781 24.5587 133.3 24.0492 133.913 23.6932C134.527 23.3371 135.188 23.1591 135.896 23.1591C136.442 23.1591 136.866 23.25 137.169 23.4318C137.476 23.6136 137.701 23.8239 137.845 24.0625C137.993 24.3011 138.103 24.5076 138.175 24.6818H138.3L138.533 23.2727H140.129L138.652 32.2045C138.531 32.9545 138.258 33.5682 137.834 34.0455C137.41 34.5265 136.883 34.8807 136.254 35.108C135.629 35.339 134.951 35.4545 134.22 35.4545ZM134.982 30.4943C135.474 30.4943 135.913 30.3788 136.3 30.1477C136.69 29.9167 137.014 29.5833 137.271 29.1477C137.533 28.7083 137.713 28.1856 137.811 27.5795C137.91 26.9811 137.904 26.4564 137.794 26.0057C137.684 25.5511 137.474 25.197 137.163 24.9432C136.853 24.6894 136.447 24.5625 135.947 24.5625C135.425 24.5625 134.97 24.697 134.584 24.9659C134.197 25.2311 133.883 25.5928 133.641 26.0511C133.402 26.5057 133.235 27.0152 133.141 27.5795C133.05 28.1553 133.052 28.6629 133.146 29.1023C133.245 29.5379 133.446 29.8788 133.749 30.125C134.052 30.3712 134.463 30.4943 134.982 30.4943ZM140.994 32L142.449 23.2727H144.023L143.784 24.6875H143.898C144.159 24.2064 144.517 23.8314 144.972 23.5625C145.43 23.2936 145.947 23.1591 146.523 23.1591C147.095 23.1591 147.557 23.2955 147.909 23.5682C148.261 23.8371 148.496 24.2102 148.614 24.6875H148.705C148.989 24.2178 149.381 23.8466 149.881 23.5739C150.381 23.2973 150.947 23.1591 151.58 23.1591C152.36 23.1591 152.96 23.4072 153.381 23.9034C153.801 24.3996 153.928 25.1496 153.761 26.1534L152.784 32H151.148L152.108 26.2841C152.203 25.678 152.11 25.2424 151.83 24.9773C151.549 24.7121 151.182 24.5795 150.727 24.5795C150.163 24.5795 149.695 24.7519 149.324 25.0966C148.956 25.4375 148.731 25.8769 148.648 26.4148L147.705 32H146.074L147.051 26.1705C147.127 25.6894 147.04 25.3049 146.79 25.017C146.54 24.7254 146.174 24.5795 145.693 24.5795C145.364 24.5795 145.045 24.6667 144.739 24.8409C144.432 25.0114 144.169 25.25 143.949 25.5568C143.733 25.8598 143.595 26.2083 143.534 26.6023L142.631 32H140.994ZM158.81 32.1761C157.957 32.1761 157.253 31.9924 156.696 31.625C156.139 31.2538 155.749 30.733 155.526 30.0625C155.306 29.3883 155.27 28.6004 155.418 27.6989C155.565 26.8011 155.861 26.0114 156.304 25.3295C156.751 24.6477 157.308 24.1155 157.974 23.733C158.645 23.3504 159.382 23.1591 160.185 23.1591C160.67 23.1591 161.128 23.2405 161.56 23.4034C161.995 23.5625 162.366 23.8163 162.673 24.1648C162.984 24.5095 163.198 24.9602 163.315 25.517C163.437 26.0739 163.431 26.7481 163.298 27.5398L163.202 28.1364H156.304L156.497 26.8807H161.787C161.866 26.4299 161.844 26.0284 161.719 25.6761C161.598 25.3201 161.387 25.0398 161.088 24.8352C160.793 24.6307 160.42 24.5284 159.969 24.5284C159.503 24.5284 159.069 24.6515 158.668 24.8977C158.266 25.1402 157.931 25.4489 157.662 25.8239C157.393 26.1989 157.224 26.5871 157.156 26.9886L156.969 28.1193C156.866 28.7708 156.884 29.2936 157.02 29.6875C157.16 30.0814 157.402 30.3674 157.747 30.5455C158.092 30.7197 158.526 30.8068 159.048 30.8068C159.385 30.8068 159.696 30.7614 159.98 30.6705C160.264 30.5758 160.518 30.4356 160.741 30.25C160.965 30.0606 161.152 29.8258 161.304 29.5455L162.804 29.8466C162.596 30.3125 162.296 30.7216 161.906 31.0739C161.52 31.4223 161.063 31.6932 160.537 31.8864C160.014 32.0795 159.438 32.1761 158.81 32.1761ZM166.989 26.8068L166.131 32H164.494L165.949 23.2727H167.523L167.284 24.6875H167.398C167.67 24.2254 168.045 23.8561 168.523 23.5795C169 23.2992 169.566 23.1591 170.222 23.1591C170.809 23.1591 171.305 23.2822 171.71 23.5284C172.116 23.7746 172.402 24.142 172.568 24.6307C172.739 25.1193 172.765 25.7254 172.648 26.4489L171.716 32H170.08L170.972 26.6364C171.078 25.9962 170.994 25.4943 170.722 25.1307C170.453 24.767 170.025 24.5852 169.438 24.5852C169.036 24.5852 168.665 24.6723 168.324 24.8466C167.983 25.017 167.695 25.2689 167.46 25.6023C167.229 25.9318 167.072 26.3333 166.989 26.8068ZM179.487 23.2727L179.271 24.5966H174.55L174.766 23.2727H179.487ZM176.391 21.1818H178.027L176.646 29.4489C176.593 29.786 176.603 30.0398 176.675 30.2102C176.747 30.3807 176.86 30.4962 177.016 30.5568C177.171 30.6136 177.341 30.642 177.527 30.642C177.667 30.642 177.786 30.6326 177.885 30.6136C177.987 30.5947 178.069 30.5795 178.129 30.5682L178.22 31.9375C178.107 31.9754 177.955 32.0133 177.766 32.0511C177.58 32.0928 177.353 32.1136 177.084 32.1136C176.648 32.1212 176.252 32.0417 175.896 31.875C175.544 31.7083 175.279 31.4527 175.101 31.108C174.923 30.7595 174.879 30.3239 174.97 29.8011L176.391 21.1818Z" fill="black"/>
</g>
<path d="M226.017 42.3636H227.716L226.449 50.0284C226.313 50.839 226.002 51.5587 225.517 52.1875C225.032 52.8125 224.413 53.303 223.659 53.6591C222.909 54.0152 222.072 54.1932 221.148 54.1932C220.22 54.1932 219.439 54.0152 218.807 53.6591C218.178 53.303 217.725 52.8125 217.449 52.1875C217.172 51.5587 217.102 50.839 217.239 50.0284L218.506 42.3636H220.199L218.949 49.8864C218.866 50.4205 218.907 50.8958 219.074 51.3125C219.241 51.7254 219.521 52.0511 219.915 52.2898C220.313 52.5246 220.811 52.642 221.409 52.642C222.011 52.642 222.549 52.5246 223.023 52.2898C223.5 52.0511 223.888 51.7254 224.188 51.3125C224.491 50.8958 224.684 50.4205 224.767 49.8864L226.017 42.3636ZM227.699 57.2727L229.71 45.2727H231.307L231.074 46.6818H231.216C231.345 46.5076 231.519 46.3011 231.739 46.0625C231.962 45.8239 232.256 45.6136 232.619 45.4318C232.983 45.25 233.438 45.1591 233.983 45.1591C234.691 45.1591 235.292 45.339 235.784 45.6989C236.277 46.0549 236.625 46.5682 236.83 47.2386C237.038 47.9091 237.064 48.714 236.909 49.6534C236.754 50.5928 236.462 51.3996 236.034 52.0739C235.606 52.7481 235.087 53.267 234.477 53.6307C233.867 53.9905 233.208 54.1705 232.5 54.1705C231.962 54.1705 231.54 54.0814 231.233 53.9034C230.93 53.7254 230.705 53.517 230.557 53.2784C230.409 53.036 230.299 52.8239 230.227 52.642H230.119L229.347 57.2727H227.699ZM230.591 49.6364C230.489 50.2576 230.487 50.803 230.585 51.2727C230.688 51.7424 230.89 52.1098 231.193 52.375C231.496 52.6364 231.896 52.767 232.392 52.767C232.911 52.767 233.366 52.6307 233.756 52.358C234.146 52.0814 234.468 51.7064 234.722 51.233C234.979 50.7595 235.157 50.2273 235.256 49.6364C235.35 49.053 235.348 48.5303 235.25 48.0682C235.152 47.6023 234.953 47.2348 234.653 46.9659C234.354 46.697 233.943 46.5625 233.42 46.5625C232.917 46.5625 232.47 46.6913 232.08 46.9489C231.693 47.2027 231.373 47.5606 231.119 48.0227C230.866 48.4848 230.689 49.0227 230.591 49.6364ZM241.365 54.1705C240.649 54.1705 240.045 53.9905 239.553 53.6307C239.064 53.267 238.717 52.7481 238.513 52.0739C238.312 51.3996 238.287 50.5928 238.439 49.6534C238.598 48.714 238.892 47.9091 239.32 47.2386C239.748 46.5682 240.268 46.0549 240.882 45.6989C241.496 45.339 242.157 45.1591 242.865 45.1591C243.411 45.1591 243.833 45.25 244.132 45.4318C244.435 45.6136 244.659 45.8239 244.803 46.0625C244.946 46.3011 245.053 46.5076 245.121 46.6818H245.223L245.945 42.3636H247.581L245.649 54H244.053L244.286 52.642H244.138C244.005 52.8239 243.823 53.036 243.592 53.2784C243.365 53.517 243.07 53.7254 242.706 53.9034C242.346 54.0814 241.899 54.1705 241.365 54.1705ZM241.893 52.767C242.39 52.767 242.835 52.6364 243.229 52.375C243.626 52.1098 243.956 51.7424 244.217 51.2727C244.482 50.803 244.666 50.2576 244.768 49.6364C244.875 49.0227 244.873 48.4848 244.763 48.0227C244.657 47.5606 244.448 47.2027 244.138 46.9489C243.831 46.6913 243.424 46.5625 242.916 46.5625C242.397 46.5625 241.945 46.697 241.558 46.9659C241.172 47.2348 240.856 47.6023 240.609 48.0682C240.367 48.5303 240.198 49.053 240.104 49.6364C240.005 50.2273 240.001 50.7595 240.092 51.233C240.183 51.7064 240.376 52.0814 240.672 52.358C240.971 52.6307 241.378 52.767 241.893 52.767ZM250.626 54.1932C250.073 54.1932 249.589 54.0909 249.172 53.8864C248.759 53.678 248.454 53.3769 248.257 52.983C248.06 52.5852 248.009 52.1023 248.104 51.5341C248.187 51.0379 248.352 50.6326 248.598 50.3182C248.844 50 249.143 49.7481 249.496 49.5625C249.848 49.3769 250.231 49.2367 250.643 49.142C251.056 49.0473 251.473 48.9773 251.893 48.9318C252.424 48.8674 252.854 48.8163 253.183 48.7784C253.517 48.7367 253.767 48.6723 253.933 48.5852C254.104 48.4943 254.206 48.3466 254.24 48.142V48.0966C254.323 47.5966 254.251 47.2064 254.024 46.9261C253.801 46.642 253.411 46.5 252.854 46.5C252.274 46.5 251.787 46.6288 251.393 46.8864C251 47.1402 250.712 47.4223 250.53 47.733L249.07 47.3523C249.346 46.822 249.696 46.3958 250.121 46.0739C250.545 45.7519 251.005 45.5189 251.501 45.375C252.001 45.2311 252.507 45.1591 253.018 45.1591C253.352 45.1591 253.704 45.1989 254.075 45.2784C254.45 45.358 254.791 45.5057 255.098 45.7216C255.409 45.9337 255.64 46.2405 255.791 46.642C255.943 47.0436 255.965 47.5663 255.859 48.2102L254.899 54H253.297L253.501 52.8125H253.433C253.293 53.0246 253.096 53.2367 252.842 53.4489C252.589 53.661 252.276 53.839 251.905 53.983C251.537 54.1231 251.111 54.1932 250.626 54.1932ZM251.172 52.8636C251.653 52.8636 252.079 52.7689 252.45 52.5795C252.821 52.3864 253.123 52.1383 253.354 51.8352C253.585 51.5284 253.729 51.2008 253.786 50.8523L253.979 49.7045C253.907 49.7689 253.778 49.8277 253.592 49.8807C253.411 49.9299 253.204 49.9735 252.973 50.0114C252.746 50.0455 252.522 50.0777 252.303 50.108C252.087 50.1345 251.909 50.1572 251.768 50.1761C251.431 50.2216 251.115 50.2936 250.82 50.392C250.524 50.4905 250.276 50.6326 250.075 50.8182C249.878 51.0038 249.757 51.2519 249.712 51.5625C249.64 51.9905 249.742 52.3144 250.018 52.5341C250.295 52.7538 250.679 52.8636 251.172 52.8636ZM262.675 45.2727L262.459 46.5966H257.737L257.953 45.2727H262.675ZM259.578 43.1818H261.214L259.834 51.4489C259.781 51.786 259.79 52.0398 259.862 52.2102C259.934 52.3807 260.048 52.4962 260.203 52.5568C260.358 52.6136 260.529 52.642 260.714 52.642C260.855 52.642 260.974 52.6326 261.072 52.6136C261.175 52.5947 261.256 52.5795 261.317 52.5682L261.408 53.9375C261.294 53.9754 261.143 54.0133 260.953 54.0511C260.768 54.0928 260.54 54.1136 260.271 54.1136C259.836 54.1212 259.44 54.0417 259.084 53.875C258.732 53.7083 258.466 53.4527 258.288 53.108C258.11 52.7595 258.067 52.3239 258.158 51.8011L259.578 43.1818ZM266.747 54.1761C265.895 54.1761 265.19 53.9924 264.634 53.625C264.077 53.2538 263.687 52.733 263.463 52.0625C263.243 51.3883 263.207 50.6004 263.355 49.6989C263.503 48.8011 263.798 48.0114 264.241 47.3295C264.688 46.6477 265.245 46.1155 265.912 45.733C266.582 45.3504 267.319 45.1591 268.122 45.1591C268.607 45.1591 269.065 45.2405 269.497 45.4034C269.933 45.5625 270.304 45.8163 270.611 46.1648C270.921 46.5095 271.135 46.9602 271.253 47.517C271.374 48.0739 271.368 48.7481 271.236 49.5398L271.139 50.1364H264.241L264.435 48.8807H269.724C269.804 48.4299 269.781 48.0284 269.656 47.6761C269.535 47.3201 269.325 47.0398 269.026 46.8352C268.73 46.6307 268.357 46.5284 267.906 46.5284C267.44 46.5284 267.007 46.6515 266.605 46.8977C266.204 47.1402 265.868 47.4489 265.599 47.8239C265.33 48.1989 265.162 48.5871 265.094 48.9886L264.906 50.1193C264.804 50.7708 264.821 51.2936 264.957 51.6875C265.098 52.0814 265.34 52.3674 265.685 52.5455C266.029 52.7197 266.463 52.8068 266.986 52.8068C267.323 52.8068 267.634 52.7614 267.918 52.6705C268.202 52.5758 268.455 52.4356 268.679 52.25C268.902 52.0606 269.09 51.8258 269.241 51.5455L270.741 51.8466C270.533 52.3125 270.234 52.7216 269.844 53.0739C269.457 53.4223 269.001 53.6932 268.474 53.8864C267.952 54.0795 267.376 54.1761 266.747 54.1761ZM276.855 54L278.787 42.3636H286.031L285.793 43.8239H280.241L279.639 47.4432H284.815L284.571 48.9034H279.395L278.793 52.5398H284.418L284.173 54H276.855ZM286.338 54L287.793 45.2727H289.366L289.128 46.6875H289.241C289.503 46.2064 289.861 45.8314 290.315 45.5625C290.774 45.2936 291.291 45.1591 291.866 45.1591C292.438 45.1591 292.901 45.2955 293.253 45.5682C293.605 45.8371 293.84 46.2102 293.957 46.6875H294.048C294.332 46.2178 294.724 45.8466 295.224 45.5739C295.724 45.2973 296.291 45.1591 296.923 45.1591C297.704 45.1591 298.304 45.4072 298.724 45.9034C299.145 46.3996 299.272 47.1496 299.105 48.1534L298.128 54H296.491L297.452 48.2841C297.546 47.678 297.454 47.2424 297.173 46.9773C296.893 46.7121 296.526 46.5795 296.071 46.5795C295.507 46.5795 295.039 46.7519 294.668 47.0966C294.3 47.4375 294.075 47.8769 293.991 48.4148L293.048 54H291.418L292.395 48.1705C292.471 47.6894 292.384 47.3049 292.134 47.017C291.884 46.7254 291.518 46.5795 291.037 46.5795C290.707 46.5795 290.389 46.6667 290.082 46.8409C289.776 47.0114 289.512 47.25 289.293 47.5568C289.077 47.8598 288.938 48.2083 288.878 48.6023L287.974 54H286.338ZM299.886 57.2727L301.898 45.2727H303.494L303.261 46.6818H303.403C303.532 46.5076 303.706 46.3011 303.926 46.0625C304.15 45.8239 304.443 45.6136 304.807 45.4318C305.17 45.25 305.625 45.1591 306.17 45.1591C306.879 45.1591 307.479 45.339 307.972 45.6989C308.464 46.0549 308.813 46.5682 309.017 47.2386C309.225 47.9091 309.252 48.714 309.097 49.6534C308.941 50.5928 308.65 51.3996 308.222 52.0739C307.794 52.7481 307.275 53.267 306.665 53.6307C306.055 53.9905 305.396 54.1705 304.688 54.1705C304.15 54.1705 303.727 54.0814 303.42 53.9034C303.117 53.7254 302.892 53.517 302.744 53.2784C302.597 53.036 302.487 52.8239 302.415 52.642H302.307L301.534 57.2727H299.886ZM302.778 49.6364C302.676 50.2576 302.674 50.803 302.773 51.2727C302.875 51.7424 303.078 52.1098 303.381 52.375C303.684 52.6364 304.083 52.767 304.58 52.767C305.098 52.767 305.553 52.6307 305.943 52.358C306.333 52.0814 306.655 51.7064 306.909 51.233C307.167 50.7595 307.345 50.2273 307.443 49.6364C307.538 49.053 307.536 48.5303 307.438 48.0682C307.339 47.6023 307.14 47.2348 306.841 46.9659C306.542 46.697 306.131 46.5625 305.608 46.5625C305.104 46.5625 304.657 46.6913 304.267 46.9489C303.881 47.2027 303.561 47.5606 303.307 48.0227C303.053 48.4848 302.877 49.0227 302.778 49.6364ZM313.854 42.3636L311.922 54H310.291L312.223 42.3636H313.854ZM317.938 54.1761C317.112 54.1761 316.422 53.9867 315.869 53.608C315.316 53.2254 314.926 52.6913 314.699 52.0057C314.475 51.3163 314.438 50.5152 314.585 49.6023C314.729 48.7083 315.019 47.928 315.455 47.2614C315.89 46.5947 316.438 46.0777 317.097 45.7102C317.756 45.3428 318.487 45.1591 319.29 45.1591C320.116 45.1591 320.803 45.3504 321.352 45.733C321.905 46.1155 322.295 46.6515 322.523 47.3409C322.75 48.0303 322.79 48.8352 322.642 49.7557C322.498 50.642 322.205 51.4167 321.761 52.0795C321.322 52.7424 320.775 53.2576 320.119 53.625C319.468 53.9924 318.741 54.1761 317.938 54.1761ZM318.023 52.7898C318.58 52.7898 319.064 52.6439 319.477 52.3523C319.894 52.0606 320.233 51.6723 320.494 51.1875C320.759 50.7027 320.939 50.1723 321.034 49.5966C321.121 49.0473 321.119 48.5417 321.028 48.0795C320.938 47.6136 320.744 47.2405 320.449 46.9602C320.153 46.6799 319.739 46.5398 319.205 46.5398C318.648 46.5398 318.159 46.6875 317.739 46.983C317.322 47.2784 316.983 47.6705 316.722 48.1591C316.46 48.6439 316.284 49.1742 316.193 49.75C316.106 50.2992 316.106 50.8049 316.193 51.267C316.284 51.7292 316.477 52.0985 316.773 52.375C317.072 52.6515 317.489 52.7898 318.023 52.7898ZM324.057 57.2727C323.807 57.2727 323.583 57.2519 323.386 57.2102C323.193 57.1723 323.049 57.1326 322.955 57.0909L323.585 55.7386C323.884 55.822 324.153 55.8523 324.392 55.8295C324.631 55.8068 324.854 55.7045 325.062 55.5227C325.275 55.3409 325.491 55.053 325.71 54.6591L326.04 54.0625L324.324 45.2727H326.011L327.119 52.0966H327.21L330.597 45.2727H332.415L327.165 55.1761C326.915 55.642 326.634 56.0303 326.324 56.3409C326.017 56.6515 325.674 56.8845 325.295 57.0398C324.917 57.1951 324.504 57.2727 324.057 57.2727ZM335.997 54.1761C335.145 54.1761 334.44 53.9924 333.884 53.625C333.327 53.2538 332.937 52.733 332.713 52.0625C332.493 51.3883 332.457 50.6004 332.605 49.6989C332.753 48.8011 333.048 48.0114 333.491 47.3295C333.938 46.6477 334.495 46.1155 335.162 45.733C335.832 45.3504 336.569 45.1591 337.372 45.1591C337.857 45.1591 338.315 45.2405 338.747 45.4034C339.183 45.5625 339.554 45.8163 339.861 46.1648C340.171 46.5095 340.385 46.9602 340.503 47.517C340.624 48.0739 340.618 48.7481 340.486 49.5398L340.389 50.1364H333.491L333.685 48.8807H338.974C339.054 48.4299 339.031 48.0284 338.906 47.6761C338.785 47.3201 338.575 47.0398 338.276 46.8352C337.98 46.6307 337.607 46.5284 337.156 46.5284C336.69 46.5284 336.257 46.6515 335.855 46.8977C335.454 47.1402 335.118 47.4489 334.849 47.8239C334.58 48.1989 334.412 48.5871 334.344 48.9886L334.156 50.1193C334.054 50.7708 334.071 51.2936 334.207 51.6875C334.348 52.0814 334.59 52.3674 334.935 52.5455C335.279 52.7197 335.713 52.8068 336.236 52.8068C336.573 52.8068 336.884 52.7614 337.168 52.6705C337.452 52.5758 337.705 52.4356 337.929 52.25C338.152 52.0606 338.34 51.8258 338.491 51.5455L339.991 51.8466C339.783 52.3125 339.484 52.7216 339.094 53.0739C338.707 53.4223 338.251 53.6932 337.724 53.8864C337.202 54.0795 336.626 54.1761 335.997 54.1761ZM345.403 54.1761C344.551 54.1761 343.847 53.9924 343.29 53.625C342.733 53.2538 342.343 52.733 342.119 52.0625C341.9 51.3883 341.864 50.6004 342.011 49.6989C342.159 48.8011 342.455 48.0114 342.898 47.3295C343.345 46.6477 343.902 46.1155 344.568 45.733C345.239 45.3504 345.975 45.1591 346.778 45.1591C347.263 45.1591 347.722 45.2405 348.153 45.4034C348.589 45.5625 348.96 45.8163 349.267 46.1648C349.578 46.5095 349.792 46.9602 349.909 47.517C350.03 48.0739 350.025 48.7481 349.892 49.5398L349.795 50.1364H342.898L343.091 48.8807H348.381C348.46 48.4299 348.438 48.0284 348.312 47.6761C348.191 47.3201 347.981 47.0398 347.682 46.8352C347.386 46.6307 347.013 46.5284 346.562 46.5284C346.097 46.5284 345.663 46.6515 345.261 46.8977C344.86 47.1402 344.525 47.4489 344.256 47.8239C343.987 48.1989 343.818 48.5871 343.75 48.9886L343.562 50.1193C343.46 50.7708 343.477 51.2936 343.614 51.6875C343.754 52.0814 343.996 52.3674 344.341 52.5455C344.686 52.7197 345.119 52.8068 345.642 52.8068C345.979 52.8068 346.29 52.7614 346.574 52.6705C346.858 52.5758 347.112 52.4356 347.335 52.25C347.559 52.0606 347.746 51.8258 347.898 51.5455L349.398 51.8466C349.189 52.3125 348.89 52.7216 348.5 53.0739C348.114 53.4223 347.657 53.6932 347.131 53.8864C346.608 54.0795 346.032 54.1761 345.403 54.1761ZM355.511 54L357.443 42.3636H361.551C362.453 42.3636 363.174 42.5189 363.716 42.8295C364.261 43.1364 364.634 43.5625 364.835 44.108C365.04 44.6534 365.083 45.2822 364.966 45.9943C364.848 46.7027 364.597 47.3258 364.21 47.8636C363.828 48.3977 363.314 48.8163 362.67 49.1193C362.027 49.4186 361.254 49.5682 360.352 49.5682H357.199L357.46 48.1023H360.466C361.049 48.1023 361.534 48.0189 361.92 47.8523C362.307 47.6856 362.61 47.4451 362.83 47.1307C363.049 46.8163 363.195 46.4375 363.267 45.9943C363.339 45.5473 363.318 45.1629 363.205 44.8409C363.091 44.5152 362.867 44.2652 362.534 44.0909C362.201 43.9129 361.741 43.8239 361.153 43.8239H358.903L357.205 54H355.511ZM362.074 48.7557L364.08 54H362.148L360.193 48.7557H362.074ZM368.22 54.1932C367.667 54.1932 367.182 54.0909 366.766 53.8864C366.353 53.678 366.048 53.3769 365.851 52.983C365.654 52.5852 365.603 52.1023 365.697 51.5341C365.781 51.0379 365.946 50.6326 366.192 50.3182C366.438 50 366.737 49.7481 367.089 49.5625C367.442 49.3769 367.824 49.2367 368.237 49.142C368.65 49.0473 369.067 48.9773 369.487 48.9318C370.018 48.8674 370.447 48.8163 370.777 48.7784C371.11 48.7367 371.36 48.6723 371.527 48.5852C371.697 48.4943 371.8 48.3466 371.834 48.142V48.0966C371.917 47.5966 371.845 47.2064 371.618 46.9261C371.394 46.642 371.004 46.5 370.447 46.5C369.868 46.5 369.381 46.6288 368.987 46.8864C368.593 47.1402 368.305 47.4223 368.124 47.733L366.663 47.3523C366.94 46.822 367.29 46.3958 367.714 46.0739C368.139 45.7519 368.599 45.5189 369.095 45.375C369.595 45.2311 370.101 45.1591 370.612 45.1591C370.946 45.1591 371.298 45.1989 371.669 45.2784C372.044 45.358 372.385 45.5057 372.692 45.7216C373.002 45.9337 373.233 46.2405 373.385 46.642C373.536 47.0436 373.559 47.5663 373.453 48.2102L372.493 54H370.891L371.095 52.8125H371.027C370.887 53.0246 370.69 53.2367 370.436 53.4489C370.182 53.661 369.87 53.839 369.499 53.983C369.131 54.1231 368.705 54.1932 368.22 54.1932ZM368.766 52.8636C369.247 52.8636 369.673 52.7689 370.044 52.5795C370.415 52.3864 370.716 52.1383 370.947 51.8352C371.179 51.5284 371.322 51.2008 371.379 50.8523L371.572 49.7045C371.5 49.7689 371.372 49.8277 371.186 49.8807C371.004 49.9299 370.798 49.9735 370.567 50.0114C370.339 50.0455 370.116 50.0777 369.896 50.108C369.68 50.1345 369.502 50.1572 369.362 50.1761C369.025 50.2216 368.709 50.2936 368.413 50.392C368.118 50.4905 367.87 50.6326 367.669 50.8182C367.472 51.0038 367.351 51.2519 367.305 51.5625C367.233 51.9905 367.336 52.3144 367.612 52.5341C367.889 52.7538 368.273 52.8636 368.766 52.8636ZM380.268 45.2727L380.053 46.5966H375.331L375.547 45.2727H380.268ZM377.172 43.1818H378.808L377.428 51.4489C377.375 51.786 377.384 52.0398 377.456 52.2102C377.528 52.3807 377.642 52.4962 377.797 52.5568C377.952 52.6136 378.123 52.642 378.308 52.642C378.448 52.642 378.568 52.6326 378.666 52.6136C378.768 52.5947 378.85 52.5795 378.911 52.5682L379.001 53.9375C378.888 53.9754 378.736 54.0133 378.547 54.0511C378.361 54.0928 378.134 54.1136 377.865 54.1136C377.429 54.1212 377.034 54.0417 376.678 53.875C376.325 53.7083 376.06 53.4527 375.882 53.108C375.704 52.7595 375.661 52.3239 375.751 51.8011L377.172 43.1818ZM380.713 54L382.168 45.2727H383.798L382.344 54H380.713ZM383.349 43.8864C383.062 43.8864 382.817 43.7898 382.616 43.5966C382.416 43.3996 382.321 43.1648 382.332 42.892C382.344 42.6193 382.455 42.3864 382.668 42.1932C382.884 41.9962 383.135 41.8977 383.423 41.8977C383.711 41.8977 383.954 41.9962 384.151 42.1932C384.351 42.3864 384.446 42.6193 384.435 42.892C384.427 43.1648 384.315 43.3996 384.099 43.5966C383.887 43.7898 383.637 43.8864 383.349 43.8864ZM387.161 48.8068L386.303 54H384.666L386.121 45.2727H387.695L387.456 46.6875H387.57C387.842 46.2254 388.217 45.8561 388.695 45.5795C389.172 45.2992 389.738 45.1591 390.393 45.1591C390.981 45.1591 391.477 45.2822 391.882 45.5284C392.287 45.7746 392.573 46.142 392.74 46.6307C392.911 47.1193 392.937 47.7254 392.82 48.4489L391.888 54H390.251L391.143 48.6364C391.25 47.9962 391.166 47.4943 390.893 47.1307C390.625 46.767 390.196 46.5852 389.609 46.5852C389.208 46.5852 388.837 46.6723 388.496 46.8466C388.155 47.017 387.867 47.2689 387.632 47.6023C387.401 47.9318 387.244 48.3333 387.161 48.8068ZM397.267 57.4545C396.578 57.4545 396.002 57.3655 395.54 57.1875C395.078 57.0095 394.712 56.7727 394.443 56.4773C394.178 56.1818 393.992 55.8617 393.886 55.517L395.392 54.892C395.468 55.0549 395.574 55.2311 395.71 55.4205C395.847 55.6136 396.053 55.7784 396.33 55.9148C396.606 56.0511 396.987 56.1193 397.472 56.1193C398.123 56.1193 398.693 55.9602 399.182 55.642C399.674 55.3239 399.977 54.8201 400.091 54.1307L400.364 52.4034H400.25C400.125 52.5852 399.949 52.7917 399.722 53.0227C399.498 53.25 399.205 53.4489 398.841 53.6193C398.481 53.786 398.032 53.8693 397.494 53.8693C396.801 53.8693 396.205 53.7064 395.705 53.3807C395.208 53.0549 394.85 52.5758 394.631 51.9432C394.415 51.3068 394.384 50.5246 394.54 49.5966C394.691 48.6761 394.979 47.8845 395.403 47.2216C395.828 46.5587 396.347 46.0492 396.96 45.6932C397.574 45.3371 398.235 45.1591 398.943 45.1591C399.489 45.1591 399.913 45.25 400.216 45.4318C400.523 45.6136 400.748 45.8239 400.892 46.0625C401.04 46.3011 401.15 46.5076 401.222 46.6818H401.347L401.58 45.2727H403.176L401.699 54.2045C401.578 54.9545 401.305 55.5682 400.881 56.0455C400.456 56.5265 399.93 56.8807 399.301 57.108C398.676 57.339 397.998 57.4545 397.267 57.4545ZM398.028 52.4943C398.521 52.4943 398.96 52.3788 399.347 52.1477C399.737 51.9167 400.061 51.5833 400.318 51.1477C400.58 50.7083 400.759 50.1856 400.858 49.5795C400.956 48.9811 400.951 48.4564 400.841 48.0057C400.731 47.5511 400.521 47.197 400.21 46.9432C399.9 46.6894 399.494 46.5625 398.994 46.5625C398.472 46.5625 398.017 46.697 397.631 46.9659C397.244 47.2311 396.93 47.5928 396.688 48.0511C396.449 48.5057 396.282 49.0152 396.188 49.5795C396.097 50.1553 396.098 50.6629 396.193 51.1023C396.292 51.5379 396.492 51.8788 396.795 52.125C397.098 52.3712 397.509 52.4943 398.028 52.4943Z" fill="black"/>
<path d="M221.017 77.3636H222.716L221.449 85.0284C221.313 85.839 221.002 86.5587 220.517 87.1875C220.032 87.8125 219.413 88.303 218.659 88.6591C217.909 89.0152 217.072 89.1932 216.148 89.1932C215.22 89.1932 214.439 89.0152 213.807 88.6591C213.178 88.303 212.725 87.8125 212.449 87.1875C212.172 86.5587 212.102 85.839 212.239 85.0284L213.506 77.3636H215.199L213.949 84.8864C213.866 85.4205 213.907 85.8958 214.074 86.3125C214.241 86.7254 214.521 87.0511 214.915 87.2898C215.313 87.5246 215.811 87.642 216.409 87.642C217.011 87.642 217.549 87.5246 218.023 87.2898C218.5 87.0511 218.888 86.7254 219.188 86.3125C219.491 85.8958 219.684 85.4205 219.767 84.8864L221.017 77.3636ZM222.699 92.2727L224.71 80.2727H226.307L226.074 81.6818H226.216C226.345 81.5076 226.519 81.3011 226.739 81.0625C226.962 80.8239 227.256 80.6136 227.619 80.4318C227.983 80.25 228.438 80.1591 228.983 80.1591C229.691 80.1591 230.292 80.339 230.784 80.6989C231.277 81.0549 231.625 81.5682 231.83 82.2386C232.038 82.9091 232.064 83.714 231.909 84.6534C231.754 85.5928 231.462 86.3996 231.034 87.0739C230.606 87.7481 230.087 88.267 229.477 88.6307C228.867 88.9905 228.208 89.1705 227.5 89.1705C226.962 89.1705 226.54 89.0814 226.233 88.9034C225.93 88.7254 225.705 88.517 225.557 88.2784C225.409 88.036 225.299 87.8239 225.227 87.642H225.119L224.347 92.2727H222.699ZM225.591 84.6364C225.489 85.2576 225.487 85.803 225.585 86.2727C225.688 86.7424 225.89 87.1098 226.193 87.375C226.496 87.6364 226.896 87.767 227.392 87.767C227.911 87.767 228.366 87.6307 228.756 87.358C229.146 87.0814 229.468 86.7064 229.722 86.233C229.979 85.7595 230.157 85.2273 230.256 84.6364C230.35 84.053 230.348 83.5303 230.25 83.0682C230.152 82.6023 229.953 82.2348 229.653 81.9659C229.354 81.697 228.943 81.5625 228.42 81.5625C227.917 81.5625 227.47 81.6913 227.08 81.9489C226.693 82.2027 226.373 82.5606 226.119 83.0227C225.866 83.4848 225.689 84.0227 225.591 84.6364ZM236.365 89.1705C235.649 89.1705 235.045 88.9905 234.553 88.6307C234.064 88.267 233.717 87.7481 233.513 87.0739C233.312 86.3996 233.287 85.5928 233.439 84.6534C233.598 83.714 233.892 82.9091 234.32 82.2386C234.748 81.5682 235.268 81.0549 235.882 80.6989C236.496 80.339 237.157 80.1591 237.865 80.1591C238.411 80.1591 238.833 80.25 239.132 80.4318C239.435 80.6136 239.659 80.8239 239.803 81.0625C239.946 81.3011 240.053 81.5076 240.121 81.6818H240.223L240.945 77.3636H242.581L240.649 89H239.053L239.286 87.642H239.138C239.005 87.8239 238.823 88.036 238.592 88.2784C238.365 88.517 238.07 88.7254 237.706 88.9034C237.346 89.0814 236.899 89.1705 236.365 89.1705ZM236.893 87.767C237.39 87.767 237.835 87.6364 238.229 87.375C238.626 87.1098 238.956 86.7424 239.217 86.2727C239.482 85.803 239.666 85.2576 239.768 84.6364C239.875 84.0227 239.873 83.4848 239.763 83.0227C239.657 82.5606 239.448 82.2027 239.138 81.9489C238.831 81.6913 238.424 81.5625 237.916 81.5625C237.397 81.5625 236.945 81.697 236.558 81.9659C236.172 82.2348 235.856 82.6023 235.609 83.0682C235.367 83.5303 235.198 84.053 235.104 84.6364C235.005 85.2273 235.001 85.7595 235.092 86.233C235.183 86.7064 235.376 87.0814 235.672 87.358C235.971 87.6307 236.378 87.767 236.893 87.767ZM245.626 89.1932C245.073 89.1932 244.589 89.0909 244.172 88.8864C243.759 88.678 243.454 88.3769 243.257 87.983C243.06 87.5852 243.009 87.1023 243.104 86.5341C243.187 86.0379 243.352 85.6326 243.598 85.3182C243.844 85 244.143 84.7481 244.496 84.5625C244.848 84.3769 245.231 84.2367 245.643 84.142C246.056 84.0473 246.473 83.9773 246.893 83.9318C247.424 83.8674 247.854 83.8163 248.183 83.7784C248.517 83.7367 248.767 83.6723 248.933 83.5852C249.104 83.4943 249.206 83.3466 249.24 83.142V83.0966C249.323 82.5966 249.251 82.2064 249.024 81.9261C248.801 81.642 248.411 81.5 247.854 81.5C247.274 81.5 246.787 81.6288 246.393 81.8864C246 82.1402 245.712 82.4223 245.53 82.733L244.07 82.3523C244.346 81.822 244.696 81.3958 245.121 81.0739C245.545 80.7519 246.005 80.5189 246.501 80.375C247.001 80.2311 247.507 80.1591 248.018 80.1591C248.352 80.1591 248.704 80.1989 249.075 80.2784C249.45 80.358 249.791 80.5057 250.098 80.7216C250.409 80.9337 250.64 81.2405 250.791 81.642C250.943 82.0436 250.965 82.5663 250.859 83.2102L249.899 89H248.297L248.501 87.8125H248.433C248.293 88.0246 248.096 88.2367 247.842 88.4489C247.589 88.661 247.276 88.839 246.905 88.983C246.537 89.1231 246.111 89.1932 245.626 89.1932ZM246.172 87.8636C246.653 87.8636 247.079 87.7689 247.45 87.5795C247.821 87.3864 248.123 87.1383 248.354 86.8352C248.585 86.5284 248.729 86.2008 248.786 85.8523L248.979 84.7045C248.907 84.7689 248.778 84.8277 248.592 84.8807C248.411 84.9299 248.204 84.9735 247.973 85.0114C247.746 85.0455 247.522 85.0777 247.303 85.108C247.087 85.1345 246.909 85.1572 246.768 85.1761C246.431 85.2216 246.115 85.2936 245.82 85.392C245.524 85.4905 245.276 85.6326 245.075 85.8182C244.878 86.0038 244.757 86.2519 244.712 86.5625C244.64 86.9905 244.742 87.3144 245.018 87.5341C245.295 87.7538 245.679 87.8636 246.172 87.8636ZM257.675 80.2727L257.459 81.5966H252.737L252.953 80.2727H257.675ZM254.578 78.1818H256.214L254.834 86.4489C254.781 86.786 254.79 87.0398 254.862 87.2102C254.934 87.3807 255.048 87.4962 255.203 87.5568C255.358 87.6136 255.529 87.642 255.714 87.642C255.855 87.642 255.974 87.6326 256.072 87.6136C256.175 87.5947 256.256 87.5795 256.317 87.5682L256.408 88.9375C256.294 88.9754 256.143 89.0133 255.953 89.0511C255.768 89.0928 255.54 89.1136 255.271 89.1136C254.836 89.1212 254.44 89.0417 254.084 88.875C253.732 88.7083 253.466 88.4527 253.288 88.108C253.11 87.7595 253.067 87.3239 253.158 86.8011L254.578 78.1818ZM261.747 89.1761C260.895 89.1761 260.19 88.9924 259.634 88.625C259.077 88.2538 258.687 87.733 258.463 87.0625C258.243 86.3883 258.207 85.6004 258.355 84.6989C258.503 83.8011 258.798 83.0114 259.241 82.3295C259.688 81.6477 260.245 81.1155 260.912 80.733C261.582 80.3504 262.319 80.1591 263.122 80.1591C263.607 80.1591 264.065 80.2405 264.497 80.4034C264.933 80.5625 265.304 80.8163 265.611 81.1648C265.921 81.5095 266.135 81.9602 266.253 82.517C266.374 83.0739 266.368 83.7481 266.236 84.5398L266.139 85.1364H259.241L259.435 83.8807H264.724C264.804 83.4299 264.781 83.0284 264.656 82.6761C264.535 82.3201 264.325 82.0398 264.026 81.8352C263.73 81.6307 263.357 81.5284 262.906 81.5284C262.44 81.5284 262.007 81.6515 261.605 81.8977C261.204 82.1402 260.868 82.4489 260.599 82.8239C260.33 83.1989 260.162 83.5871 260.094 83.9886L259.906 85.1193C259.804 85.7708 259.821 86.2936 259.957 86.6875C260.098 87.0814 260.34 87.3674 260.685 87.5455C261.029 87.7197 261.463 87.8068 261.986 87.8068C262.323 87.8068 262.634 87.7614 262.918 87.6705C263.202 87.5758 263.455 87.4356 263.679 87.25C263.902 87.0606 264.09 86.8258 264.241 86.5455L265.741 86.8466C265.533 87.3125 265.234 87.7216 264.844 88.0739C264.457 88.4223 264.001 88.6932 263.474 88.8864C262.952 89.0795 262.376 89.1761 261.747 89.1761ZM271.855 89L273.787 77.3636H281.031L280.793 78.8239H275.241L274.639 82.4432H279.815L279.571 83.9034H274.395L273.793 87.5398H279.418L279.173 89H271.855ZM281.338 89L282.793 80.2727H284.366L284.128 81.6875H284.241C284.503 81.2064 284.861 80.8314 285.315 80.5625C285.774 80.2936 286.291 80.1591 286.866 80.1591C287.438 80.1591 287.901 80.2955 288.253 80.5682C288.605 80.8371 288.84 81.2102 288.957 81.6875H289.048C289.332 81.2178 289.724 80.8466 290.224 80.5739C290.724 80.2973 291.291 80.1591 291.923 80.1591C292.704 80.1591 293.304 80.4072 293.724 80.9034C294.145 81.3996 294.272 82.1496 294.105 83.1534L293.128 89H291.491L292.452 83.2841C292.546 82.678 292.454 82.2424 292.173 81.9773C291.893 81.7121 291.526 81.5795 291.071 81.5795C290.507 81.5795 290.039 81.7519 289.668 82.0966C289.3 82.4375 289.075 82.8769 288.991 83.4148L288.048 89H286.418L287.395 83.1705C287.471 82.6894 287.384 82.3049 287.134 82.017C286.884 81.7254 286.518 81.5795 286.037 81.5795C285.707 81.5795 285.389 81.6667 285.082 81.8409C284.776 82.0114 284.512 82.25 284.293 82.5568C284.077 82.8598 283.938 83.2083 283.878 83.6023L282.974 89H281.338ZM294.886 92.2727L296.898 80.2727H298.494L298.261 81.6818H298.403C298.532 81.5076 298.706 81.3011 298.926 81.0625C299.15 80.8239 299.443 80.6136 299.807 80.4318C300.17 80.25 300.625 80.1591 301.17 80.1591C301.879 80.1591 302.479 80.339 302.972 80.6989C303.464 81.0549 303.813 81.5682 304.017 82.2386C304.225 82.9091 304.252 83.714 304.097 84.6534C303.941 85.5928 303.65 86.3996 303.222 87.0739C302.794 87.7481 302.275 88.267 301.665 88.6307C301.055 88.9905 300.396 89.1705 299.688 89.1705C299.15 89.1705 298.727 89.0814 298.42 88.9034C298.117 88.7254 297.892 88.517 297.744 88.2784C297.597 88.036 297.487 87.8239 297.415 87.642H297.307L296.534 92.2727H294.886ZM297.778 84.6364C297.676 85.2576 297.674 85.803 297.773 86.2727C297.875 86.7424 298.078 87.1098 298.381 87.375C298.684 87.6364 299.083 87.767 299.58 87.767C300.098 87.767 300.553 87.6307 300.943 87.358C301.333 87.0814 301.655 86.7064 301.909 86.233C302.167 85.7595 302.345 85.2273 302.443 84.6364C302.538 84.053 302.536 83.5303 302.438 83.0682C302.339 82.6023 302.14 82.2348 301.841 81.9659C301.542 81.697 301.131 81.5625 300.608 81.5625C300.104 81.5625 299.657 81.6913 299.267 81.9489C298.881 82.2027 298.561 82.5606 298.307 83.0227C298.053 83.4848 297.877 84.0227 297.778 84.6364ZM308.854 77.3636L306.922 89H305.291L307.223 77.3636H308.854ZM312.938 89.1761C312.112 89.1761 311.422 88.9867 310.869 88.608C310.316 88.2254 309.926 87.6913 309.699 87.0057C309.475 86.3163 309.438 85.5152 309.585 84.6023C309.729 83.7083 310.019 82.928 310.455 82.2614C310.89 81.5947 311.438 81.0777 312.097 80.7102C312.756 80.3428 313.487 80.1591 314.29 80.1591C315.116 80.1591 315.803 80.3504 316.352 80.733C316.905 81.1155 317.295 81.6515 317.523 82.3409C317.75 83.0303 317.79 83.8352 317.642 84.7557C317.498 85.642 317.205 86.4167 316.761 87.0795C316.322 87.7424 315.775 88.2576 315.119 88.625C314.468 88.9924 313.741 89.1761 312.938 89.1761ZM313.023 87.7898C313.58 87.7898 314.064 87.6439 314.477 87.3523C314.894 87.0606 315.233 86.6723 315.494 86.1875C315.759 85.7027 315.939 85.1723 316.034 84.5966C316.121 84.0473 316.119 83.5417 316.028 83.0795C315.938 82.6136 315.744 82.2405 315.449 81.9602C315.153 81.6799 314.739 81.5398 314.205 81.5398C313.648 81.5398 313.159 81.6875 312.739 81.983C312.322 82.2784 311.983 82.6705 311.722 83.1591C311.46 83.6439 311.284 84.1742 311.193 84.75C311.106 85.2992 311.106 85.8049 311.193 86.267C311.284 86.7292 311.477 87.0985 311.773 87.375C312.072 87.6515 312.489 87.7898 313.023 87.7898ZM319.057 92.2727C318.807 92.2727 318.583 92.2519 318.386 92.2102C318.193 92.1723 318.049 92.1326 317.955 92.0909L318.585 90.7386C318.884 90.822 319.153 90.8523 319.392 90.8295C319.631 90.8068 319.854 90.7045 320.062 90.5227C320.275 90.3409 320.491 90.053 320.71 89.6591L321.04 89.0625L319.324 80.2727H321.011L322.119 87.0966H322.21L325.597 80.2727H327.415L322.165 90.1761C321.915 90.642 321.634 91.0303 321.324 91.3409C321.017 91.6515 320.674 91.8845 320.295 92.0398C319.917 92.1951 319.504 92.2727 319.057 92.2727ZM330.997 89.1761C330.145 89.1761 329.44 88.9924 328.884 88.625C328.327 88.2538 327.937 87.733 327.713 87.0625C327.493 86.3883 327.457 85.6004 327.605 84.6989C327.753 83.8011 328.048 83.0114 328.491 82.3295C328.938 81.6477 329.495 81.1155 330.162 80.733C330.832 80.3504 331.569 80.1591 332.372 80.1591C332.857 80.1591 333.315 80.2405 333.747 80.4034C334.183 80.5625 334.554 80.8163 334.861 81.1648C335.171 81.5095 335.385 81.9602 335.503 82.517C335.624 83.0739 335.618 83.7481 335.486 84.5398L335.389 85.1364H328.491L328.685 83.8807H333.974C334.054 83.4299 334.031 83.0284 333.906 82.6761C333.785 82.3201 333.575 82.0398 333.276 81.8352C332.98 81.6307 332.607 81.5284 332.156 81.5284C331.69 81.5284 331.257 81.6515 330.855 81.8977C330.454 82.1402 330.118 82.4489 329.849 82.8239C329.58 83.1989 329.412 83.5871 329.344 83.9886L329.156 85.1193C329.054 85.7708 329.071 86.2936 329.207 86.6875C329.348 87.0814 329.59 87.3674 329.935 87.5455C330.279 87.7197 330.713 87.8068 331.236 87.8068C331.573 87.8068 331.884 87.7614 332.168 87.6705C332.452 87.5758 332.705 87.4356 332.929 87.25C333.152 87.0606 333.34 86.8258 333.491 86.5455L334.991 86.8466C334.783 87.3125 334.484 87.7216 334.094 88.0739C333.707 88.4223 333.251 88.6932 332.724 88.8864C332.202 89.0795 331.626 89.1761 330.997 89.1761ZM340.403 89.1761C339.551 89.1761 338.847 88.9924 338.29 88.625C337.733 88.2538 337.343 87.733 337.119 87.0625C336.9 86.3883 336.864 85.6004 337.011 84.6989C337.159 83.8011 337.455 83.0114 337.898 82.3295C338.345 81.6477 338.902 81.1155 339.568 80.733C340.239 80.3504 340.975 80.1591 341.778 80.1591C342.263 80.1591 342.722 80.2405 343.153 80.4034C343.589 80.5625 343.96 80.8163 344.267 81.1648C344.578 81.5095 344.792 81.9602 344.909 82.517C345.03 83.0739 345.025 83.7481 344.892 84.5398L344.795 85.1364H337.898L338.091 83.8807H343.381C343.46 83.4299 343.438 83.0284 343.312 82.6761C343.191 82.3201 342.981 82.0398 342.682 81.8352C342.386 81.6307 342.013 81.5284 341.562 81.5284C341.097 81.5284 340.663 81.6515 340.261 81.8977C339.86 82.1402 339.525 82.4489 339.256 82.8239C338.987 83.1989 338.818 83.5871 338.75 83.9886L338.562 85.1193C338.46 85.7708 338.477 86.2936 338.614 86.6875C338.754 87.0814 338.996 87.3674 339.341 87.5455C339.686 87.7197 340.119 87.8068 340.642 87.8068C340.979 87.8068 341.29 87.7614 341.574 87.6705C341.858 87.5758 342.112 87.4356 342.335 87.25C342.559 87.0606 342.746 86.8258 342.898 86.5455L344.398 86.8466C344.189 87.3125 343.89 87.7216 343.5 88.0739C343.114 88.4223 342.657 88.6932 342.131 88.8864C341.608 89.0795 341.032 89.1761 340.403 89.1761ZM358.273 80.4659C358.28 79.8826 358.093 79.4394 357.71 79.1364C357.331 78.8295 356.805 78.6761 356.131 78.6761C355.646 78.6761 355.212 78.7519 354.83 78.9034C354.451 79.0549 354.142 79.2633 353.903 79.5284C353.665 79.7936 353.519 80.0966 353.466 80.4375C353.417 80.7178 353.443 80.9602 353.545 81.1648C353.648 81.3655 353.795 81.536 353.989 81.6761C354.186 81.8125 354.4 81.9261 354.631 82.017C354.866 82.1042 355.091 82.1761 355.307 82.233L356.403 82.5341C356.744 82.6212 357.095 82.7424 357.455 82.8977C357.814 83.0492 358.14 83.2519 358.432 83.5057C358.727 83.7557 358.949 84.0682 359.097 84.4432C359.244 84.8182 359.275 85.2689 359.188 85.7955C359.078 86.447 358.813 87.0284 358.392 87.5398C357.972 88.0511 357.419 88.4545 356.733 88.75C356.047 89.0455 355.25 89.1932 354.341 89.1932C353.481 89.1932 352.756 89.0568 352.165 88.7841C351.578 88.5076 351.146 88.1174 350.869 87.6136C350.597 87.1098 350.498 86.5133 350.574 85.8239H352.284C352.242 86.2481 352.32 86.6004 352.517 86.8807C352.718 87.1572 352.998 87.3636 353.358 87.5C353.718 87.6364 354.123 87.7045 354.574 87.7045C355.081 87.7045 355.545 87.625 355.966 87.4659C356.386 87.303 356.733 87.0777 357.006 86.7898C357.282 86.5019 357.453 86.1648 357.517 85.7784C357.578 85.4261 357.527 85.1383 357.364 84.9148C357.205 84.6875 356.968 84.5019 356.653 84.358C356.339 84.214 355.983 84.0871 355.585 83.9773L354.261 83.5909C353.379 83.3371 352.708 82.9659 352.25 82.4773C351.792 81.9848 351.627 81.3352 351.756 80.5284C351.873 79.8617 352.153 79.2803 352.597 78.7841C353.04 78.2841 353.593 77.8958 354.256 77.6193C354.919 77.3428 355.636 77.2045 356.409 77.2045C357.189 77.2045 357.854 77.3447 358.403 77.625C358.956 77.9015 359.366 78.286 359.631 78.7784C359.896 79.267 359.989 79.8295 359.909 80.4659H358.273ZM363.173 89.1932C362.62 89.1932 362.135 89.0909 361.719 88.8864C361.306 88.678 361.001 88.3769 360.804 87.983C360.607 87.5852 360.556 87.1023 360.651 86.5341C360.734 86.0379 360.899 85.6326 361.145 85.3182C361.391 85 361.69 84.7481 362.043 84.5625C362.395 84.3769 362.777 84.2367 363.19 84.142C363.603 84.0473 364.02 83.9773 364.44 83.9318C364.971 83.8674 365.401 83.8163 365.73 83.7784C366.063 83.7367 366.313 83.6723 366.48 83.5852C366.651 83.4943 366.753 83.3466 366.787 83.142V83.0966C366.87 82.5966 366.798 82.2064 366.571 81.9261C366.348 81.642 365.957 81.5 365.401 81.5C364.821 81.5 364.334 81.6288 363.94 81.8864C363.546 82.1402 363.259 82.4223 363.077 82.733L361.616 82.3523C361.893 81.822 362.243 81.3958 362.668 81.0739C363.092 80.7519 363.552 80.5189 364.048 80.375C364.548 80.2311 365.054 80.1591 365.565 80.1591C365.899 80.1591 366.251 80.1989 366.622 80.2784C366.997 80.358 367.338 80.5057 367.645 80.7216C367.955 80.9337 368.187 81.2405 368.338 81.642C368.49 82.0436 368.512 82.5663 368.406 83.2102L367.446 89H365.844L366.048 87.8125H365.98C365.84 88.0246 365.643 88.2367 365.389 88.4489C365.135 88.661 364.823 88.839 364.452 88.983C364.084 89.1231 363.658 89.1932 363.173 89.1932ZM363.719 87.8636C364.2 87.8636 364.626 87.7689 364.997 87.5795C365.368 87.3864 365.67 87.1383 365.901 86.8352C366.132 86.5284 366.276 86.2008 366.332 85.8523L366.526 84.7045C366.454 84.7689 366.325 84.8277 366.139 84.8807C365.957 84.9299 365.751 84.9735 365.52 85.0114C365.293 85.0455 365.069 85.0777 364.849 85.108C364.634 85.1345 364.455 85.1572 364.315 85.1761C363.978 85.2216 363.662 85.2936 363.366 85.392C363.071 85.4905 362.823 85.6326 362.622 85.8182C362.425 86.0038 362.304 86.2519 362.259 86.5625C362.187 86.9905 362.289 87.3144 362.565 87.5341C362.842 87.7538 363.226 87.8636 363.719 87.8636ZM373.307 77.3636L371.375 89H369.744L371.676 77.3636H373.307ZM376.22 89.1932C375.667 89.1932 375.182 89.0909 374.766 88.8864C374.353 88.678 374.048 88.3769 373.851 87.983C373.654 87.5852 373.603 87.1023 373.697 86.5341C373.781 86.0379 373.946 85.6326 374.192 85.3182C374.438 85 374.737 84.7481 375.089 84.5625C375.442 84.3769 375.824 84.2367 376.237 84.142C376.65 84.0473 377.067 83.9773 377.487 83.9318C378.018 83.8674 378.447 83.8163 378.777 83.7784C379.11 83.7367 379.36 83.6723 379.527 83.5852C379.697 83.4943 379.8 83.3466 379.834 83.142V83.0966C379.917 82.5966 379.845 82.2064 379.618 81.9261C379.394 81.642 379.004 81.5 378.447 81.5C377.868 81.5 377.381 81.6288 376.987 81.8864C376.593 82.1402 376.305 82.4223 376.124 82.733L374.663 82.3523C374.94 81.822 375.29 81.3958 375.714 81.0739C376.139 80.7519 376.599 80.5189 377.095 80.375C377.595 80.2311 378.101 80.1591 378.612 80.1591C378.946 80.1591 379.298 80.1989 379.669 80.2784C380.044 80.358 380.385 80.5057 380.692 80.7216C381.002 80.9337 381.233 81.2405 381.385 81.642C381.536 82.0436 381.559 82.5663 381.453 83.2102L380.493 89H378.891L379.095 87.8125H379.027C378.887 88.0246 378.69 88.2367 378.436 88.4489C378.182 88.661 377.87 88.839 377.499 88.983C377.131 89.1231 376.705 89.1932 376.22 89.1932ZM376.766 87.8636C377.247 87.8636 377.673 87.7689 378.044 87.5795C378.415 87.3864 378.716 87.1383 378.947 86.8352C379.179 86.5284 379.322 86.2008 379.379 85.8523L379.572 84.7045C379.5 84.7689 379.372 84.8277 379.186 84.8807C379.004 84.9299 378.798 84.9735 378.567 85.0114C378.339 85.0455 378.116 85.0777 377.896 85.108C377.68 85.1345 377.502 85.1572 377.362 85.1761C377.025 85.2216 376.709 85.2936 376.413 85.392C376.118 85.4905 375.87 85.6326 375.669 85.8182C375.472 86.0038 375.351 86.2519 375.305 86.5625C375.233 86.9905 375.336 87.3144 375.612 87.5341C375.889 87.7538 376.273 87.8636 376.766 87.8636ZM382.791 89L384.246 80.2727H385.825L385.592 81.6477H385.683C385.914 81.1856 386.257 80.8201 386.712 80.5511C387.166 80.2784 387.651 80.142 388.166 80.142C388.272 80.142 388.395 80.1439 388.536 80.1477C388.679 80.1515 388.793 80.161 388.876 80.1761L388.615 81.7557C388.554 81.7367 388.439 81.7159 388.268 81.6932C388.098 81.6667 387.924 81.6534 387.746 81.6534C387.34 81.6534 386.965 81.7386 386.621 81.9091C386.276 82.0795 385.986 82.3144 385.751 82.6136C385.52 82.9129 385.373 83.2538 385.308 83.6364L384.422 89H382.791ZM389.697 92.2727C389.447 92.2727 389.224 92.2519 389.027 92.2102C388.834 92.1723 388.69 92.1326 388.595 92.0909L389.226 90.7386C389.525 90.822 389.794 90.8523 390.033 90.8295C390.271 90.8068 390.495 90.7045 390.703 90.5227C390.915 90.3409 391.131 90.053 391.351 89.6591L391.68 89.0625L389.964 80.2727H391.652L392.76 87.0966H392.851L396.237 80.2727H398.055L392.805 90.1761C392.555 90.642 392.275 91.0303 391.964 91.3409C391.658 91.6515 391.315 91.8845 390.936 92.0398C390.557 92.1951 390.144 92.2727 389.697 92.2727Z" fill="black"/>
<path d="M395.682 20.8239L395.92 19.3636H404.875L404.636 20.8239H401L399.312 31H397.625L399.312 20.8239H395.682ZM407.25 31.1761C406.424 31.1761 405.735 30.9867 405.182 30.608C404.629 30.2254 404.239 29.6913 404.011 29.0057C403.788 28.3163 403.75 27.5152 403.898 26.6023C404.042 25.7083 404.331 24.928 404.767 24.2614C405.203 23.5947 405.75 23.0777 406.409 22.7102C407.068 22.3428 407.799 22.1591 408.602 22.1591C409.428 22.1591 410.116 22.3504 410.665 22.733C411.218 23.1155 411.608 23.6515 411.835 24.3409C412.063 25.0303 412.102 25.8352 411.955 26.7557C411.811 27.642 411.517 28.4167 411.074 29.0795C410.634 29.7424 410.087 30.2576 409.432 30.625C408.78 30.9924 408.053 31.1761 407.25 31.1761ZM407.335 29.7898C407.892 29.7898 408.377 29.6439 408.79 29.3523C409.206 29.0606 409.545 28.6723 409.807 28.1875C410.072 27.7027 410.252 27.1723 410.347 26.5966C410.434 26.0473 410.432 25.5417 410.341 25.0795C410.25 24.6136 410.057 24.2405 409.761 23.9602C409.466 23.6799 409.051 23.5398 408.517 23.5398C407.96 23.5398 407.472 23.6875 407.051 23.983C406.634 24.2784 406.295 24.6705 406.034 25.1591C405.773 25.6439 405.597 26.1742 405.506 26.75C405.419 27.2992 405.419 27.8049 405.506 28.267C405.597 28.7292 405.79 29.0985 406.085 29.375C406.384 29.6515 406.801 29.7898 407.335 29.7898ZM416.875 31.1761C416.049 31.1761 415.36 30.9867 414.807 30.608C414.254 30.2254 413.864 29.6913 413.636 29.0057C413.413 28.3163 413.375 27.5152 413.523 26.6023C413.667 25.7083 413.956 24.928 414.392 24.2614C414.828 23.5947 415.375 23.0777 416.034 22.7102C416.693 22.3428 417.424 22.1591 418.227 22.1591C419.053 22.1591 419.741 22.3504 420.29 22.733C420.843 23.1155 421.233 23.6515 421.46 24.3409C421.688 25.0303 421.727 25.8352 421.58 26.7557C421.436 27.642 421.142 28.4167 420.699 29.0795C420.259 29.7424 419.712 30.2576 419.057 30.625C418.405 30.9924 417.678 31.1761 416.875 31.1761ZM416.96 29.7898C417.517 29.7898 418.002 29.6439 418.415 29.3523C418.831 29.0606 419.17 28.6723 419.432 28.1875C419.697 27.7027 419.877 27.1723 419.972 26.5966C420.059 26.0473 420.057 25.5417 419.966 25.0795C419.875 24.6136 419.682 24.2405 419.386 23.9602C419.091 23.6799 418.676 23.5398 418.142 23.5398C417.585 23.5398 417.097 23.6875 416.676 23.983C416.259 24.2784 415.92 24.6705 415.659 25.1591C415.398 25.6439 415.222 26.1742 415.131 26.75C415.044 27.2992 415.044 27.8049 415.131 28.267C415.222 28.7292 415.415 29.0985 415.71 29.375C416.009 29.6515 416.426 29.7898 416.96 29.7898ZM426.369 19.3636L424.438 31H422.807L424.739 19.3636H426.369ZM434.339 24.375L432.817 24.6591C432.779 24.4583 432.707 24.267 432.601 24.0852C432.495 23.9034 432.334 23.7557 432.118 23.642C431.902 23.5284 431.616 23.4716 431.26 23.4716C430.76 23.4716 430.324 23.5852 429.953 23.8125C429.586 24.0398 429.375 24.3277 429.322 24.6761C429.269 24.9678 429.336 25.2027 429.521 25.3807C429.711 25.5549 430.036 25.7008 430.499 25.8182L431.822 26.1364C432.591 26.322 433.143 26.6098 433.476 27C433.809 27.3902 433.925 27.8977 433.822 28.5227C433.735 29.0379 433.51 29.4962 433.146 29.8977C432.783 30.2955 432.319 30.608 431.754 30.8352C431.19 31.0625 430.561 31.1761 429.868 31.1761C428.891 31.1761 428.129 30.9697 427.584 30.5568C427.038 30.1402 426.756 29.5511 426.737 28.7898L428.357 28.5227C428.387 28.9583 428.542 29.2879 428.822 29.5114C429.107 29.7311 429.502 29.8409 430.01 29.8409C430.586 29.8447 431.069 29.7235 431.459 29.4773C431.849 29.2273 432.069 28.928 432.118 28.5795C432.171 28.303 432.112 28.0739 431.942 27.892C431.775 27.7102 431.485 27.572 431.072 27.4773L429.663 27.1477C428.875 26.9583 428.321 26.6591 427.999 26.25C427.677 25.8409 427.569 25.3258 427.675 24.7045C427.762 24.197 427.978 23.7538 428.322 23.375C428.671 22.9924 429.112 22.6951 429.646 22.483C430.184 22.267 430.775 22.1591 431.419 22.1591C432.355 22.1591 433.055 22.3598 433.521 22.7614C433.991 23.1629 434.264 23.7008 434.339 24.375Z" fill="black"/>
<defs>
<filter id="filter0_i_47_96" x="192" y="39" width="244" height="77" filterUnits="userSpaceOnUse" color-interpolation-filters="sRGB">
<feFlood flood-opacity="0" result="BackgroundImageFix"/>
<feBlend mode="normal" in="SourceGraphic" in2="BackgroundImageFix" result="shape"/>
<feColorMatrix in="SourceAlpha" type="matrix" values="0 0 0 0 0 0 0 0 0 0 0 0 0 0 0 0 0 0 127 0" result="hardAlpha"/>
<feOffset dy="4"/>
<feGaussianBlur stdDeviation="2"/>
<feComposite in2="hardAlpha" operator="arithmetic" k2="-1" k3="1"/>
<feColorMatrix type="matrix" values="0 0 0 0 0 0 0 0 0 0 0 0 0 0 0 0 0 0 0.25 0"/>
<feBlend mode="normal" in2="shape" result="effect1_innerShadow_47_96"/>
</filter>
<filter id="filter1_i_47_96" x="192" y="14" width="202" height="25" filterUnits="userSpaceOnUse" color-interpolation-filters="sRGB">
<feFlood flood-opacity="0" result="BackgroundImageFix"/>
<feBlend mode="normal" in="SourceGraphic" in2="BackgroundImageFix" result="shape"/>
<feColorMatrix in="SourceAlpha" type="matrix" values="0 0 0 0 0 0 0 0 0 0 0 0 0 0 0 0 0 0 127 0" result="hardAlpha"/>
<feOffset dy="4"/>
<feGaussianBlur stdDeviation="2"/>
<feComposite in2="hardAlpha" operator="arithmetic" k2="-1" k3="1"/>
<feColorMatrix type="matrix" values="0 0 0 0 0 0 0 0 0 0 0 0 0 0 0 0 0 0 0.25 0"/>
<feBlend mode="normal" in2="shape" result="effect1_innerShadow_47_96"/>
</filter>
<filter id="filter2_i_47_96" x="10.5739" y="20.3636" width="168.913" height="19.0909" filterUnits="userSpaceOnUse" color-interpolation-filters="sRGB">
<feFlood flood-opacity="0" result="BackgroundImageFix"/>
<feBlend mode="normal" in="SourceGraphic" in2="BackgroundImageFix" result="shape"/>
<feColorMatrix in="SourceAlpha" type="matrix" values="0 0 0 0 0 0 0 0 0 0 0 0 0 0 0 0 0 0 127 0" result="hardAlpha"/>
<feOffset dy="4"/>
<feGaussianBlur stdDeviation="2"/>
<feComposite in2="hardAlpha" operator="arithmetic" k2="-1" k3="1"/>
<feColorMatrix type="matrix" values="0 0 0 0 0 0 0 0 0 0 0 0 0 0 0 0 0 0 0.25 0"/>
<feBlend mode="normal" in2="shape" result="effect1_innerShadow_47_96"/>
</filter>
</defs>
</svg>
