<svg width="765" height="490" viewBox="0 0 765 490" fill="none" xmlns="http://www.w3.org/2000/svg">
<rect width="765" height="490" fill="#BDBCBB"/>
<rect width="765" height="39" fill="#FFF8F8"/>
<path d="M98.5057 19.3636H100.557L102.795 28.517H102.932L108.193 19.3636H110.244L108.312 31H106.705L108.119 22.5057H108.011L103.131 30.983H101.761L99.7159 22.5H99.6023L98.1818 31H96.5739L98.5057 19.3636ZM114.497 31.1761C113.645 31.1761 112.94 30.9924 112.384 30.625C111.827 30.2538 111.437 29.733 111.213 29.0625C110.993 28.3883 110.957 27.6004 111.105 26.6989C111.253 25.8011 111.548 25.0114 111.991 24.3295C112.438 23.6477 112.995 23.1155 113.662 22.733C114.332 22.3504 115.069 22.1591 115.872 22.1591C116.357 22.1591 116.815 22.2405 117.247 22.4034C117.683 22.5625 118.054 22.8163 118.361 23.1648C118.671 23.5095 118.885 23.9602 119.003 24.517C119.124 25.0739 119.118 25.7481 118.986 26.5398L118.889 27.1364H111.991L112.185 25.8807H117.474C117.554 25.4299 117.531 25.0284 117.406 24.6761C117.285 24.3201 117.075 24.0398 116.776 23.8352C116.48 23.6307 116.107 23.5284 115.656 23.5284C115.19 23.5284 114.757 23.6515 114.355 23.8977C113.954 24.1402 113.618 24.4489 113.349 24.8239C113.08 25.1989 112.912 25.5871 112.844 25.9886L112.656 27.1193C112.554 27.7708 112.571 28.2936 112.707 28.6875C112.848 29.0814 113.09 29.3674 113.435 29.5455C113.779 29.7197 114.213 29.8068 114.736 29.8068C115.073 29.8068 115.384 29.7614 115.668 29.6705C115.952 29.5758 116.205 29.4356 116.429 29.25C116.652 29.0606 116.84 28.8258 116.991 28.5455L118.491 28.8466C118.283 29.3125 117.984 29.7216 117.594 30.0739C117.207 30.4223 116.751 30.6932 116.224 30.8864C115.702 31.0795 115.126 31.1761 114.497 31.1761ZM123.443 31.1705C122.727 31.1705 122.123 30.9905 121.631 30.6307C121.142 30.267 120.795 29.7481 120.591 29.0739C120.39 28.3996 120.366 27.5928 120.517 26.6534C120.676 25.714 120.97 24.9091 121.398 24.2386C121.826 23.5682 122.347 23.0549 122.96 22.6989C123.574 22.339 124.235 22.1591 124.943 22.1591C125.489 22.1591 125.911 22.25 126.21 22.4318C126.513 22.6136 126.737 22.8239 126.881 23.0625C127.025 23.3011 127.131 23.5076 127.199 23.6818H127.301L128.023 19.3636H129.659L127.727 31H126.131L126.364 29.642H126.216C126.083 29.8239 125.902 30.036 125.67 30.2784C125.443 30.517 125.148 30.7254 124.784 30.9034C124.424 31.0814 123.977 31.1705 123.443 31.1705ZM123.972 29.767C124.468 29.767 124.913 29.6364 125.307 29.375C125.705 29.1098 126.034 28.7424 126.295 28.2727C126.561 27.803 126.744 27.2576 126.847 26.6364C126.953 26.0227 126.951 25.4848 126.841 25.0227C126.735 24.5606 126.527 24.2027 126.216 23.9489C125.909 23.6913 125.502 23.5625 124.994 23.5625C124.475 23.5625 124.023 23.697 123.636 23.9659C123.25 24.2348 122.934 24.6023 122.688 25.0682C122.445 25.5303 122.277 26.053 122.182 26.6364C122.083 27.2273 122.08 27.7595 122.17 28.233C122.261 28.7064 122.455 29.0814 122.75 29.358C123.049 29.6307 123.456 29.767 123.972 29.767ZM130.182 31L131.636 22.2727H133.267L131.812 31H130.182ZM132.818 20.8864C132.53 20.8864 132.286 20.7898 132.085 20.5966C131.884 20.3996 131.79 20.1648 131.801 19.892C131.813 19.6193 131.924 19.3864 132.136 19.1932C132.352 18.9962 132.604 18.8977 132.892 18.8977C133.18 18.8977 133.422 18.9962 133.619 19.1932C133.82 19.3864 133.915 19.6193 133.903 19.892C133.896 20.1648 133.784 20.3996 133.568 20.5966C133.356 20.7898 133.106 20.8864 132.818 20.8864ZM137.766 31.1761C136.921 31.1761 136.228 30.9848 135.686 30.6023C135.148 30.2159 134.773 29.6837 134.561 29.0057C134.353 28.3277 134.321 27.5511 134.464 26.6761C134.608 25.7898 134.902 25.0076 135.345 24.3295C135.792 23.6477 136.349 23.1155 137.016 22.733C137.686 22.3504 138.429 22.1591 139.243 22.1591C139.898 22.1591 140.463 22.2803 140.936 22.5227C141.41 22.7614 141.769 23.0985 142.016 23.5341C142.262 23.9659 142.37 24.4735 142.339 25.0568H140.737C140.711 24.6477 140.557 24.2955 140.277 24C139.997 23.7008 139.584 23.5511 139.038 23.5511C138.554 23.5511 138.108 23.678 137.703 23.9318C137.298 24.1818 136.957 24.5379 136.68 25C136.404 25.4621 136.214 26.0076 136.112 26.6364C136.006 27.2765 136.012 27.8333 136.129 28.3068C136.25 28.7765 136.47 29.1402 136.788 29.3977C137.11 29.6515 137.516 29.7784 138.004 29.7784C138.334 29.7784 138.641 29.7197 138.925 29.6023C139.213 29.4811 139.466 29.3087 139.686 29.0852C139.906 28.8617 140.08 28.5928 140.209 28.2784H141.805C141.643 28.8352 141.372 29.3314 140.993 29.767C140.614 30.2027 140.15 30.5473 139.601 30.8011C139.055 31.0511 138.444 31.1761 137.766 31.1761ZM145.72 31.1932C145.167 31.1932 144.682 31.0909 144.266 30.8864C143.853 30.678 143.548 30.3769 143.351 29.983C143.154 29.5852 143.103 29.1023 143.197 28.5341C143.281 28.0379 143.446 27.6326 143.692 27.3182C143.938 27 144.237 26.7481 144.589 26.5625C144.942 26.3769 145.324 26.2367 145.737 26.142C146.15 26.0473 146.567 25.9773 146.987 25.9318C147.518 25.8674 147.947 25.8163 148.277 25.7784C148.61 25.7367 148.86 25.6723 149.027 25.5852C149.197 25.4943 149.3 25.3466 149.334 25.142V25.0966C149.417 24.5966 149.345 24.2064 149.118 23.9261C148.894 23.642 148.504 23.5 147.947 23.5C147.368 23.5 146.881 23.6288 146.487 23.8864C146.093 24.1402 145.805 24.4223 145.624 24.733L144.163 24.3523C144.44 23.822 144.79 23.3958 145.214 23.0739C145.639 22.7519 146.099 22.5189 146.595 22.375C147.095 22.2311 147.601 22.1591 148.112 22.1591C148.446 22.1591 148.798 22.1989 149.169 22.2784C149.544 22.358 149.885 22.5057 150.192 22.7216C150.502 22.9337 150.733 23.2405 150.885 23.642C151.036 24.0436 151.059 24.5663 150.953 25.2102L149.993 31H148.391L148.595 29.8125H148.527C148.387 30.0246 148.19 30.2367 147.936 30.4489C147.682 30.661 147.37 30.839 146.999 30.983C146.631 31.1231 146.205 31.1932 145.72 31.1932ZM146.266 29.8636C146.747 29.8636 147.173 29.7689 147.544 29.5795C147.915 29.3864 148.216 29.1383 148.447 28.8352C148.679 28.5284 148.822 28.2008 148.879 27.8523L149.072 26.7045C149 26.7689 148.872 26.8277 148.686 26.8807C148.504 26.9299 148.298 26.9735 148.067 27.0114C147.839 27.0455 147.616 27.0777 147.396 27.108C147.18 27.1345 147.002 27.1572 146.862 27.1761C146.525 27.2216 146.209 27.2936 145.913 27.392C145.618 27.4905 145.37 27.6326 145.169 27.8182C144.972 28.0038 144.851 28.2519 144.805 28.5625C144.733 28.9905 144.836 29.3144 145.112 29.5341C145.389 29.7538 145.773 29.8636 146.266 29.8636ZM155.854 19.3636L153.922 31H152.291L154.223 19.3636H155.854ZM164.452 31H160.668L162.599 19.3636H166.412C167.552 19.3636 168.493 19.6023 169.236 20.0795C169.982 20.553 170.503 21.2311 170.798 22.1136C171.098 22.9924 171.145 24.0436 170.94 25.267C170.743 26.4602 170.359 27.4848 169.787 28.3409C169.215 29.197 168.478 29.8542 167.577 30.3125C166.675 30.7708 165.634 31 164.452 31ZM162.611 29.517H164.526C165.423 29.517 166.202 29.3428 166.861 28.9943C167.52 28.642 168.054 28.1345 168.463 27.4716C168.872 26.8049 169.154 26.0019 169.31 25.0625C169.465 24.161 169.452 23.3977 169.27 22.7727C169.092 22.1439 168.743 21.6667 168.224 21.3409C167.709 21.0114 167.022 20.8466 166.162 20.8466H164.048L162.611 29.517ZM174.595 31.1932C174.042 31.1932 173.557 31.0909 173.141 30.8864C172.728 30.678 172.423 30.3769 172.226 29.983C172.029 29.5852 171.978 29.1023 172.072 28.5341C172.156 28.0379 172.321 27.6326 172.567 27.3182C172.813 27 173.112 26.7481 173.464 26.5625C173.817 26.3769 174.199 26.2367 174.612 26.142C175.025 26.0473 175.442 25.9773 175.862 25.9318C176.393 25.8674 176.822 25.8163 177.152 25.7784C177.485 25.7367 177.735 25.6723 177.902 25.5852C178.072 25.4943 178.175 25.3466 178.209 25.142V25.0966C178.292 24.5966 178.22 24.2064 177.993 23.9261C177.769 23.642 177.379 23.5 176.822 23.5C176.243 23.5 175.756 23.6288 175.362 23.8864C174.968 24.1402 174.68 24.4223 174.499 24.733L173.038 24.3523C173.315 23.822 173.665 23.3958 174.089 23.0739C174.514 22.7519 174.974 22.5189 175.47 22.375C175.97 22.2311 176.476 22.1591 176.987 22.1591C177.321 22.1591 177.673 22.1989 178.044 22.2784C178.419 22.358 178.76 22.5057 179.067 22.7216C179.377 22.9337 179.608 23.2405 179.76 23.642C179.911 24.0436 179.934 24.5663 179.828 25.2102L178.868 31H177.266L177.47 29.8125H177.402C177.262 30.0246 177.065 30.2367 176.811 30.4489C176.557 30.661 176.245 30.839 175.874 30.983C175.506 31.1231 175.08 31.1932 174.595 31.1932ZM175.141 29.8636C175.622 29.8636 176.048 29.7689 176.419 29.5795C176.79 29.3864 177.091 29.1383 177.322 28.8352C177.554 28.5284 177.697 28.2008 177.754 27.8523L177.947 26.7045C177.875 26.7689 177.747 26.8277 177.561 26.8807C177.379 26.9299 177.173 26.9735 176.942 27.0114C176.714 27.0455 176.491 27.0777 176.271 27.108C176.055 27.1345 175.877 27.1572 175.737 27.1761C175.4 27.2216 175.084 27.2936 174.788 27.392C174.493 27.4905 174.245 27.6326 174.044 27.8182C173.847 28.0038 173.726 28.2519 173.68 28.5625C173.608 28.9905 173.711 29.3144 173.987 29.5341C174.264 29.7538 174.648 29.8636 175.141 29.8636ZM186.643 22.2727L186.428 23.5966H181.706L181.922 22.2727H186.643ZM183.547 20.1818H185.183L183.803 28.4489C183.75 28.786 183.759 29.0398 183.831 29.2102C183.903 29.3807 184.017 29.4962 184.172 29.5568C184.327 29.6136 184.498 29.642 184.683 29.642C184.823 29.642 184.943 29.6326 185.041 29.6136C185.143 29.5947 185.225 29.5795 185.286 29.5682L185.376 30.9375C185.263 30.9754 185.111 31.0133 184.922 31.0511C184.736 31.0928 184.509 31.1136 184.24 31.1136C183.804 31.1212 183.409 31.0417 183.053 30.875C182.7 30.7083 182.435 30.4527 182.257 30.108C182.079 29.7595 182.036 29.3239 182.126 28.8011L183.547 20.1818ZM189.611 31.1932C189.058 31.1932 188.573 31.0909 188.156 30.8864C187.743 30.678 187.438 30.3769 187.241 29.983C187.045 29.5852 186.993 29.1023 187.088 28.5341C187.171 28.0379 187.336 27.6326 187.582 27.3182C187.829 27 188.128 26.7481 188.48 26.5625C188.832 26.3769 189.215 26.2367 189.628 26.142C190.041 26.0473 190.457 25.9773 190.878 25.9318C191.408 25.8674 191.838 25.8163 192.168 25.7784C192.501 25.7367 192.751 25.6723 192.918 25.5852C193.088 25.4943 193.19 25.3466 193.224 25.142V25.0966C193.308 24.5966 193.236 24.2064 193.009 23.9261C192.785 23.642 192.395 23.5 191.838 23.5C191.259 23.5 190.772 23.6288 190.378 23.8864C189.984 24.1402 189.696 24.4223 189.514 24.733L188.054 24.3523C188.33 23.822 188.681 23.3958 189.105 23.0739C189.529 22.7519 189.99 22.5189 190.486 22.375C190.986 22.2311 191.491 22.1591 192.003 22.1591C192.336 22.1591 192.688 22.1989 193.06 22.2784C193.435 22.358 193.776 22.5057 194.082 22.7216C194.393 22.9337 194.624 23.2405 194.776 23.642C194.927 24.0436 194.95 24.5663 194.844 25.2102L193.884 31H192.281L192.486 29.8125H192.418C192.277 30.0246 192.08 30.2367 191.827 30.4489C191.573 30.661 191.26 30.839 190.889 30.983C190.522 31.1231 190.096 31.1932 189.611 31.1932ZM190.156 29.8636C190.637 29.8636 191.063 29.7689 191.435 29.5795C191.806 29.3864 192.107 29.1383 192.338 28.8352C192.569 28.5284 192.713 28.2008 192.77 27.8523L192.963 26.7045C192.891 26.7689 192.762 26.8277 192.577 26.8807C192.395 26.9299 192.188 26.9735 191.957 27.0114C191.73 27.0455 191.507 27.0777 191.287 27.108C191.071 27.1345 190.893 27.1572 190.753 27.1761C190.416 27.2216 190.099 27.2936 189.804 27.392C189.509 27.4905 189.26 27.6326 189.06 27.8182C188.863 28.0038 188.741 28.2519 188.696 28.5625C188.624 28.9905 188.726 29.3144 189.003 29.5341C189.279 29.7538 189.664 29.8636 190.156 29.8636Z" fill="black"/>
<g filter="url(#filter0_i_47_189)">
<rect y="40" width="245" height="127" fill="#FCFCFC"/>
</g>
<rect x="0.5" y="40.5" width="244" height="126" stroke="black"/>
<g filter="url(#filter1_i_47_189)">
<rect y="15" width="68" height="21" fill="#F7F6F6"/>
</g>
<g filter="url(#filter2_i_47_189)">
<path d="M10.5739 32L12.5057 20.3636H16.6136C17.5152 20.3636 18.2348 20.5284 18.7727 20.858C19.3144 21.1837 19.6837 21.6307 19.8807 22.1989C20.0814 22.767 20.1231 23.4053 20.0057 24.1136C19.8883 24.822 19.6345 25.4602 19.2443 26.0284C18.858 26.5966 18.339 27.0473 17.6875 27.3807C17.0398 27.714 16.267 27.8807 15.3693 27.8807H12.517L12.7557 26.4318H15.4602C16.0436 26.4318 16.5322 26.3314 16.9261 26.1307C17.3239 25.9299 17.6345 25.6553 17.858 25.3068C18.0852 24.9545 18.2348 24.5568 18.3068 24.1136C18.3788 23.6667 18.3598 23.2727 18.25 22.9318C18.1402 22.5871 17.9205 22.3163 17.5909 22.1193C17.2614 21.9223 16.803 21.8239 16.2159 21.8239H13.9659L12.267 32H10.5739ZM23.0795 32.1932C22.5265 32.1932 22.0417 32.0909 21.625 31.8864C21.2121 31.678 20.9072 31.3769 20.7102 30.983C20.5133 30.5852 20.4621 30.1023 20.5568 29.5341C20.6402 29.0379 20.8049 28.6326 21.0511 28.3182C21.2973 28 21.5966 27.7481 21.9489 27.5625C22.3011 27.3769 22.6837 27.2367 23.0966 27.142C23.5095 27.0473 23.9261 26.9773 24.3466 26.9318C24.8769 26.8674 25.3068 26.8163 25.6364 26.7784C25.9697 26.7367 26.2197 26.6723 26.3864 26.5852C26.5568 26.4943 26.6591 26.3466 26.6932 26.142V26.0966C26.7765 25.5966 26.7045 25.2064 26.4773 24.9261C26.2538 24.642 25.8636 24.5 25.3068 24.5C24.7273 24.5 24.2405 24.6288 23.8466 24.8864C23.4527 25.1402 23.1648 25.4223 22.983 25.733L21.5227 25.3523C21.7992 24.822 22.1496 24.3958 22.5739 24.0739C22.9981 23.7519 23.4583 23.5189 23.9545 23.375C24.4545 23.2311 24.9602 23.1591 25.4716 23.1591C25.8049 23.1591 26.1572 23.1989 26.5284 23.2784C26.9034 23.358 27.2443 23.5057 27.5511 23.7216C27.8617 23.9337 28.0928 24.2405 28.2443 24.642C28.3958 25.0436 28.4186 25.5663 28.3125 26.2102L27.3523 32H25.75L25.9545 30.8125H25.8864C25.7462 31.0246 25.5492 31.2367 25.2955 31.4489C25.0417 31.661 24.7292 31.839 24.358 31.983C23.9905 32.1231 23.5644 32.1932 23.0795 32.1932ZM23.625 30.8636C24.1061 30.8636 24.5322 30.7689 24.9034 30.5795C25.2746 30.3864 25.5758 30.1383 25.8068 29.8352C26.0379 29.5284 26.1818 29.2008 26.2386 28.8523L26.4318 27.7045C26.3598 27.7689 26.2311 27.8277 26.0455 27.8807C25.8636 27.9299 25.6572 27.9735 25.4261 28.0114C25.1989 28.0455 24.9754 28.0777 24.7557 28.108C24.5398 28.1345 24.3617 28.1572 24.2216 28.1761C23.8845 28.2216 23.5682 28.2936 23.2727 28.392C22.9773 28.4905 22.7292 28.6326 22.5284 28.8182C22.3314 29.0038 22.2102 29.2519 22.1648 29.5625C22.0928 29.9905 22.1951 30.3144 22.4716 30.5341C22.7481 30.7538 23.1326 30.8636 23.625 30.8636ZM35.1278 23.2727L34.9119 24.5966H30.1903L30.4062 23.2727H35.1278ZM32.0312 21.1818H33.6676L32.2869 29.4489C32.2339 29.786 32.2434 30.0398 32.3153 30.2102C32.3873 30.3807 32.5009 30.4962 32.6562 30.5568C32.8116 30.6136 32.982 30.642 33.1676 30.642C33.3078 30.642 33.4271 30.6326 33.5256 30.6136C33.6278 30.5947 33.7093 30.5795 33.7699 30.5682L33.8608 31.9375C33.7472 31.9754 33.5956 32.0133 33.4062 32.0511C33.2206 32.0928 32.9934 32.1136 32.7244 32.1136C32.2888 32.1212 31.893 32.0417 31.5369 31.875C31.1847 31.7083 30.9195 31.4527 30.7415 31.108C30.5634 30.7595 30.5199 30.3239 30.6108 29.8011L32.0312 21.1818ZM35.5724 32L37.027 23.2727H38.6577L37.2031 32H35.5724ZM38.2088 21.8864C37.9209 21.8864 37.6766 21.7898 37.4759 21.5966C37.2751 21.3996 37.1804 21.1648 37.1918 20.892C37.2031 20.6193 37.3149 20.3864 37.527 20.1932C37.7429 19.9962 37.9948 19.8977 38.2827 19.8977C38.5705 19.8977 38.813 19.9962 39.0099 20.1932C39.2107 20.3864 39.3054 20.6193 39.294 20.892C39.2865 21.1648 39.1747 21.3996 38.9588 21.5966C38.7467 21.7898 38.4967 21.8864 38.2088 21.8864ZM43.2472 32.1761C42.3949 32.1761 41.6903 31.9924 41.1335 31.625C40.5767 31.2538 40.1866 30.733 39.9631 30.0625C39.7434 29.3883 39.7074 28.6004 39.8551 27.6989C40.0028 26.8011 40.2983 26.0114 40.7415 25.3295C41.1884 24.6477 41.7453 24.1155 42.4119 23.733C43.0824 23.3504 43.8191 23.1591 44.6222 23.1591C45.107 23.1591 45.5653 23.2405 45.9972 23.4034C46.4328 23.5625 46.804 23.8163 47.1108 24.1648C47.4214 24.5095 47.6354 24.9602 47.7528 25.517C47.8741 26.0739 47.8684 26.7481 47.7358 27.5398L47.6392 28.1364H40.7415L40.9347 26.8807H46.2244C46.304 26.4299 46.2812 26.0284 46.1562 25.6761C46.035 25.3201 45.8248 25.0398 45.5256 24.8352C45.2301 24.6307 44.857 24.5284 44.4062 24.5284C43.9403 24.5284 43.5066 24.6515 43.1051 24.8977C42.7036 25.1402 42.3684 25.4489 42.0994 25.8239C41.8305 26.1989 41.6619 26.5871 41.5938 26.9886L41.4062 28.1193C41.304 28.7708 41.321 29.2936 41.4574 29.6875C41.5975 30.0814 41.84 30.3674 42.1847 30.5455C42.5294 30.7197 42.9631 30.8068 43.4858 30.8068C43.8229 30.8068 44.1335 30.7614 44.4176 30.6705C44.7017 30.5758 44.9555 30.4356 45.179 30.25C45.4025 30.0606 45.59 29.8258 45.7415 29.5455L47.2415 29.8466C47.0331 30.3125 46.7339 30.7216 46.3438 31.0739C45.9574 31.4223 45.5009 31.6932 44.9744 31.8864C44.4517 32.0795 43.8759 32.1761 43.2472 32.1761ZM51.4261 26.8068L50.5682 32H48.9318L50.3864 23.2727H51.9602L51.7216 24.6875H51.8352C52.108 24.2254 52.483 23.8561 52.9602 23.5795C53.4375 23.2992 54.0038 23.1591 54.6591 23.1591C55.2462 23.1591 55.7424 23.2822 56.1477 23.5284C56.553 23.7746 56.839 24.142 57.0057 24.6307C57.1761 25.1193 57.2027 25.7254 57.0852 26.4489L56.1534 32H54.517L55.4091 26.6364C55.5152 25.9962 55.4318 25.4943 55.1591 25.1307C54.8902 24.767 54.4621 24.5852 53.875 24.5852C53.4735 24.5852 53.1023 24.6723 52.7614 24.8466C52.4205 25.017 52.1326 25.2689 51.8977 25.6023C51.6667 25.9318 51.5095 26.3333 51.4261 26.8068ZM63.9247 23.2727L63.7088 24.5966H58.9872L59.2031 23.2727H63.9247ZM60.8281 21.1818H62.4645L61.0838 29.4489C61.0308 29.786 61.0402 30.0398 61.1122 30.2102C61.1842 30.3807 61.2978 30.4962 61.4531 30.5568C61.6084 30.6136 61.7789 30.642 61.9645 30.642C62.1046 30.642 62.224 30.6326 62.3224 30.6136C62.4247 30.5947 62.5062 30.5795 62.5668 30.5682L62.6577 31.9375C62.544 31.9754 62.3925 32.0133 62.2031 32.0511C62.0175 32.0928 61.7902 32.1136 61.5213 32.1136C61.0857 32.1212 60.6899 32.0417 60.3338 31.875C59.9815 31.7083 59.7164 31.4527 59.5384 31.108C59.3603 30.7595 59.3168 30.3239 59.4077 29.8011L60.8281 21.1818Z" fill="black"/>
</g>
<path d="M31.4659 58H29.6761L35.8068 46.3636H37.733L40 58H38.2102L36.483 48.4261H36.392L31.4659 58ZM32.5739 53.4489H38.6023L38.3636 54.8807H32.3352L32.5739 53.4489ZM44.7088 58.1705C43.9929 58.1705 43.3887 57.9905 42.8963 57.6307C42.4077 57.267 42.0611 56.7481 41.8565 56.0739C41.6558 55.3996 41.6312 54.5928 41.7827 53.6534C41.9418 52.714 42.2353 51.9091 42.6634 51.2386C43.0914 50.5682 43.6122 50.0549 44.2259 49.6989C44.8395 49.339 45.5005 49.1591 46.2088 49.1591C46.7543 49.1591 47.1766 49.25 47.4759 49.4318C47.7789 49.6136 48.0024 49.8239 48.1463 50.0625C48.2902 50.3011 48.3963 50.5076 48.4645 50.6818H48.5668L49.2884 46.3636H50.9247L48.9929 58H47.3963L47.6293 56.642H47.4815C47.349 56.8239 47.1671 57.036 46.9361 57.2784C46.7088 57.517 46.4134 57.7254 46.0497 57.9034C45.6899 58.0814 45.2429 58.1705 44.7088 58.1705ZM45.2372 56.767C45.7334 56.767 46.1785 56.6364 46.5724 56.375C46.9702 56.1098 47.2997 55.7424 47.5611 55.2727C47.8262 54.803 48.0099 54.2576 48.1122 53.6364C48.2183 53.0227 48.2164 52.4848 48.1065 52.0227C48.0005 51.5606 47.7921 51.2027 47.4815 50.9489C47.1747 50.6913 46.7675 50.5625 46.2599 50.5625C45.741 50.5625 45.2884 50.697 44.902 50.9659C44.5156 51.2348 44.1993 51.6023 43.9531 52.0682C43.7107 52.5303 43.5421 53.053 43.4474 53.6364C43.349 54.2273 43.3452 54.7595 43.4361 55.233C43.527 55.7064 43.7202 56.0814 44.0156 56.358C44.3149 56.6307 44.7221 56.767 45.2372 56.767ZM54.7088 58.1705C53.9929 58.1705 53.3887 57.9905 52.8963 57.6307C52.4077 57.267 52.0611 56.7481 51.8565 56.0739C51.6558 55.3996 51.6312 54.5928 51.7827 53.6534C51.9418 52.714 52.2353 51.9091 52.6634 51.2386C53.0914 50.5682 53.6122 50.0549 54.2259 49.6989C54.8395 49.339 55.5005 49.1591 56.2088 49.1591C56.7543 49.1591 57.1766 49.25 57.4759 49.4318C57.7789 49.6136 58.0024 49.8239 58.1463 50.0625C58.2902 50.3011 58.3963 50.5076 58.4645 50.6818H58.5668L59.2884 46.3636H60.9247L58.9929 58H57.3963L57.6293 56.642H57.4815C57.349 56.8239 57.1671 57.036 56.9361 57.2784C56.7088 57.517 56.4134 57.7254 56.0497 57.9034C55.6899 58.0814 55.2429 58.1705 54.7088 58.1705ZM55.2372 56.767C55.7334 56.767 56.1785 56.6364 56.5724 56.375C56.9702 56.1098 57.2997 55.7424 57.5611 55.2727C57.8262 54.803 58.0099 54.2576 58.1122 53.6364C58.2183 53.0227 58.2164 52.4848 58.1065 52.0227C58.0005 51.5606 57.7921 51.2027 57.4815 50.9489C57.1747 50.6913 56.7675 50.5625 56.2599 50.5625C55.741 50.5625 55.2884 50.697 54.902 50.9659C54.5156 51.2348 54.1993 51.6023 53.9531 52.0682C53.7107 52.5303 53.5421 53.053 53.4474 53.6364C53.349 54.2273 53.3452 54.7595 53.4361 55.233C53.527 55.7064 53.7202 56.0814 54.0156 56.358C54.3149 56.6307 54.7221 56.767 55.2372 56.767ZM65.8707 58L67.8026 46.3636H71.9105C72.812 46.3636 73.5317 46.5284 74.0696 46.858C74.6113 47.1837 74.9806 47.6307 75.1776 48.1989C75.3783 48.767 75.42 49.4053 75.3026 50.1136C75.1851 50.822 74.9313 51.4602 74.5412 52.0284C74.1548 52.5966 73.6359 53.0473 72.9844 53.3807C72.3366 53.714 71.5639 53.8807 70.6662 53.8807H67.8139L68.0526 52.4318H70.7571C71.3404 52.4318 71.8291 52.3314 72.223 52.1307C72.6207 51.9299 72.9313 51.6553 73.1548 51.3068C73.3821 50.9545 73.5317 50.5568 73.6037 50.1136C73.6757 49.6667 73.6567 49.2727 73.5469 48.9318C73.437 48.5871 73.2173 48.3163 72.8878 48.1193C72.5582 47.9223 72.0999 47.8239 71.5128 47.8239H69.2628L67.5639 58H65.8707ZM78.3764 58.1932C77.8234 58.1932 77.3385 58.0909 76.9219 57.8864C76.509 57.678 76.2041 57.3769 76.0071 56.983C75.8101 56.5852 75.759 56.1023 75.8537 55.5341C75.937 55.0379 76.1018 54.6326 76.348 54.3182C76.5942 54 76.8935 53.7481 77.2457 53.5625C77.598 53.3769 77.9806 53.2367 78.3935 53.142C78.8063 53.0473 79.223 52.9773 79.6435 52.9318C80.1738 52.8674 80.6037 52.8163 80.9332 52.7784C81.2666 52.7367 81.5166 52.6723 81.6832 52.5852C81.8537 52.4943 81.956 52.3466 81.9901 52.142V52.0966C82.0734 51.5966 82.0014 51.2064 81.7741 50.9261C81.5507 50.642 81.1605 50.5 80.6037 50.5C80.0241 50.5 79.5374 50.6288 79.1435 50.8864C78.7495 51.1402 78.4616 51.4223 78.2798 51.733L76.8196 51.3523C77.0961 50.822 77.4465 50.3958 77.8707 50.0739C78.295 49.7519 78.7552 49.5189 79.2514 49.375C79.7514 49.2311 80.2571 49.1591 80.7685 49.1591C81.1018 49.1591 81.4541 49.1989 81.8253 49.2784C82.2003 49.358 82.5412 49.5057 82.848 49.7216C83.1586 49.9337 83.3897 50.2405 83.5412 50.642C83.6927 51.0436 83.7154 51.5663 83.6094 52.2102L82.6491 58H81.0469L81.2514 56.8125H81.1832C81.0431 57.0246 80.8461 57.2367 80.5923 57.4489C80.3385 57.661 80.026 57.839 79.6548 57.983C79.2874 58.1231 78.8613 58.1932 78.3764 58.1932ZM78.9219 56.8636C79.4029 56.8636 79.8291 56.7689 80.2003 56.5795C80.5715 56.3864 80.8726 56.1383 81.1037 55.8352C81.3348 55.5284 81.4787 55.2008 81.5355 54.8523L81.7287 53.7045C81.6567 53.7689 81.5279 53.8277 81.3423 53.8807C81.1605 53.9299 80.9541 53.9735 80.723 54.0114C80.4957 54.0455 80.2723 54.0777 80.0526 54.108C79.8366 54.1345 79.6586 54.1572 79.5185 54.1761C79.1813 54.2216 78.8651 54.2936 78.5696 54.392C78.2741 54.4905 78.026 54.6326 77.8253 54.8182C77.6283 55.0038 77.5071 55.2519 77.4616 55.5625C77.3897 55.9905 77.492 56.3144 77.7685 56.5341C78.045 56.7538 78.4295 56.8636 78.9219 56.8636ZM90.4247 49.2727L90.2088 50.5966H85.4872L85.7031 49.2727H90.4247ZM87.3281 47.1818H88.9645L87.5838 55.4489C87.5308 55.786 87.5402 56.0398 87.6122 56.2102C87.6842 56.3807 87.7978 56.4962 87.9531 56.5568C88.1084 56.6136 88.2789 56.642 88.4645 56.642C88.6046 56.642 88.724 56.6326 88.8224 56.6136C88.9247 56.5947 89.0062 56.5795 89.0668 56.5682L89.1577 57.9375C89.044 57.9754 88.8925 58.0133 88.7031 58.0511C88.5175 58.0928 88.2902 58.1136 88.0213 58.1136C87.5857 58.1212 87.1899 58.0417 86.8338 57.875C86.4815 57.7083 86.2164 57.4527 86.0384 57.108C85.8603 56.7595 85.8168 56.3239 85.9077 55.8011L87.3281 47.1818ZM90.8693 58L92.3239 49.2727H93.9545L92.5 58H90.8693ZM93.5057 47.8864C93.2178 47.8864 92.9735 47.7898 92.7727 47.5966C92.572 47.3996 92.4773 47.1648 92.4886 46.892C92.5 46.6193 92.6117 46.3864 92.8239 46.1932C93.0398 45.9962 93.2917 45.8977 93.5795 45.8977C93.8674 45.8977 94.1098 45.9962 94.3068 46.1932C94.5076 46.3864 94.6023 46.6193 94.5909 46.892C94.5833 47.1648 94.4716 47.3996 94.2557 47.5966C94.0436 47.7898 93.7936 47.8864 93.5057 47.8864ZM98.544 58.1761C97.6918 58.1761 96.9872 57.9924 96.4304 57.625C95.8736 57.2538 95.4834 56.733 95.2599 56.0625C95.0402 55.3883 95.0043 54.6004 95.152 53.6989C95.2997 52.8011 95.5952 52.0114 96.0384 51.3295C96.4853 50.6477 97.0421 50.1155 97.7088 49.733C98.3793 49.3504 99.116 49.1591 99.919 49.1591C100.404 49.1591 100.862 49.2405 101.294 49.4034C101.73 49.5625 102.101 49.8163 102.408 50.1648C102.718 50.5095 102.932 50.9602 103.05 51.517C103.171 52.0739 103.165 52.7481 103.033 53.5398L102.936 54.1364H96.0384L96.2315 52.8807H101.521C101.601 52.4299 101.578 52.0284 101.453 51.6761C101.332 51.3201 101.122 51.0398 100.822 50.8352C100.527 50.6307 100.154 50.5284 99.7031 50.5284C99.2372 50.5284 98.8035 50.6515 98.402 50.8977C98.0005 51.1402 97.6652 51.4489 97.3963 51.8239C97.1274 52.1989 96.9588 52.5871 96.8906 52.9886L96.7031 54.1193C96.6009 54.7708 96.6179 55.2936 96.7543 55.6875C96.8944 56.0814 97.1368 56.3674 97.4815 56.5455C97.8262 56.7197 98.2599 56.8068 98.7827 56.8068C99.1198 56.8068 99.4304 56.7614 99.7145 56.6705C99.9986 56.5758 100.252 56.4356 100.476 56.25C100.699 56.0606 100.887 55.8258 101.038 55.5455L102.538 55.8466C102.33 56.3125 102.031 56.7216 101.641 57.0739C101.254 57.4223 100.798 57.6932 100.271 57.8864C99.7486 58.0795 99.1728 58.1761 98.544 58.1761ZM106.723 52.8068L105.865 58H104.229L105.683 49.2727H107.257L107.018 50.6875H107.132C107.405 50.2254 107.78 49.8561 108.257 49.5795C108.734 49.2992 109.301 49.1591 109.956 49.1591C110.543 49.1591 111.039 49.2822 111.445 49.5284C111.85 49.7746 112.136 50.142 112.303 50.6307C112.473 51.1193 112.5 51.7254 112.382 52.4489L111.45 58H109.814L110.706 52.6364C110.812 51.9962 110.729 51.4943 110.456 51.1307C110.187 50.767 109.759 50.5852 109.172 50.5852C108.77 50.5852 108.399 50.6723 108.058 50.8466C107.717 51.017 107.429 51.2689 107.195 51.6023C106.964 51.9318 106.806 52.3333 106.723 52.8068ZM119.222 49.2727L119.006 50.5966H114.284L114.5 49.2727H119.222ZM116.125 47.1818H117.761L116.381 55.4489C116.328 55.786 116.337 56.0398 116.409 56.2102C116.481 56.3807 116.595 56.4962 116.75 56.5568C116.905 56.6136 117.076 56.642 117.261 56.642C117.402 56.642 117.521 56.6326 117.619 56.6136C117.722 56.5947 117.803 56.5795 117.864 56.5682L117.955 57.9375C117.841 57.9754 117.689 58.0133 117.5 58.0511C117.314 58.0928 117.087 58.1136 116.818 58.1136C116.383 58.1212 115.987 58.0417 115.631 57.875C115.278 57.7083 115.013 57.4527 114.835 57.108C114.657 56.7595 114.614 56.3239 114.705 55.8011L116.125 47.1818Z" fill="black"/>
<path d="M41.483 81.1193H39.8011C39.7936 80.7367 39.7216 80.3996 39.5852 80.108C39.4527 79.8163 39.2689 79.5701 39.0341 79.3693C38.7992 79.1648 38.5265 79.0114 38.2159 78.9091C37.9053 78.8068 37.5701 78.7557 37.2102 78.7557C36.517 78.7557 35.8655 78.9318 35.2557 79.2841C34.6458 79.6326 34.125 80.1439 33.6932 80.8182C33.2652 81.4924 32.9716 82.3163 32.8125 83.2898C32.6572 84.2292 32.678 85.0189 32.875 85.6591C33.072 86.2992 33.4034 86.7841 33.8693 87.1136C34.3352 87.4432 34.8958 87.608 35.5511 87.608C35.9337 87.608 36.3068 87.5568 36.6705 87.4545C37.0379 87.3523 37.3788 87.2027 37.6932 87.0057C38.0076 86.8049 38.2879 86.5606 38.5341 86.2727C38.7803 85.9811 38.9716 85.6477 39.108 85.2727H40.8125C40.6155 85.8485 40.3428 86.375 39.9943 86.8523C39.6496 87.3295 39.2424 87.7405 38.7727 88.0852C38.3068 88.4299 37.7955 88.6951 37.2386 88.8807C36.6856 89.0663 36.1004 89.1591 35.483 89.1591C34.4602 89.1591 33.589 88.9129 32.8693 88.4205C32.1496 87.928 31.6345 87.2292 31.3239 86.3239C31.0133 85.4148 30.9621 84.3314 31.1705 83.0739C31.375 81.8542 31.7708 80.8068 32.358 79.9318C32.9451 79.053 33.6629 78.3788 34.5114 77.9091C35.3636 77.4394 36.2841 77.2045 37.2727 77.2045C37.8902 77.2045 38.4545 77.2936 38.9659 77.4716C39.4811 77.6458 39.9261 77.9015 40.3011 78.2386C40.6761 78.5758 40.9659 78.9867 41.1705 79.4716C41.3788 79.9527 41.483 80.5019 41.483 81.1193ZM44.6761 83.8068L43.8182 89H42.1818L44.1136 77.3636H45.733L45.017 81.6875H45.1307C45.4034 81.214 45.7727 80.8409 46.2386 80.5682C46.7045 80.2955 47.2803 80.1591 47.9659 80.1591C48.5606 80.1591 49.0606 80.2822 49.4659 80.5284C49.875 80.7708 50.1629 81.1364 50.3295 81.625C50.5 82.1098 50.5265 82.7178 50.4091 83.4489L49.4773 89H47.8409L48.7386 83.6364C48.8447 82.9848 48.7576 82.4811 48.4773 82.125C48.2008 81.7652 47.7689 81.5852 47.1818 81.5852C46.7727 81.5852 46.392 81.6723 46.0398 81.8466C45.6913 82.017 45.3977 82.2689 45.1591 82.6023C44.9205 82.9318 44.7595 83.3333 44.6761 83.8068ZM55.5128 89.1761C54.6605 89.1761 53.956 88.9924 53.3991 88.625C52.8423 88.2538 52.4522 87.733 52.2287 87.0625C52.009 86.3883 51.973 85.6004 52.1207 84.6989C52.2685 83.8011 52.5639 83.0114 53.0071 82.3295C53.4541 81.6477 54.0109 81.1155 54.6776 80.733C55.348 80.3504 56.0848 80.1591 56.8878 80.1591C57.3726 80.1591 57.831 80.2405 58.2628 80.4034C58.6984 80.5625 59.0696 80.8163 59.3764 81.1648C59.687 81.5095 59.901 81.9602 60.0185 82.517C60.1397 83.0739 60.134 83.7481 60.0014 84.5398L59.9048 85.1364H53.0071L53.2003 83.8807H58.4901C58.5696 83.4299 58.5469 83.0284 58.4219 82.6761C58.3007 82.3201 58.0904 82.0398 57.7912 81.8352C57.4957 81.6307 57.1226 81.5284 56.6719 81.5284C56.206 81.5284 55.7723 81.6515 55.3707 81.8977C54.9692 82.1402 54.634 82.4489 54.3651 82.8239C54.0961 83.1989 53.9276 83.5871 53.8594 83.9886L53.6719 85.1193C53.5696 85.7708 53.5866 86.2936 53.723 86.6875C53.8632 87.0814 54.1056 87.3674 54.4503 87.5455C54.795 87.7197 55.2287 87.8068 55.7514 87.8068C56.0885 87.8068 56.3991 87.7614 56.6832 87.6705C56.9673 87.5758 57.2211 87.4356 57.4446 87.25C57.6681 87.0606 57.8556 86.8258 58.0071 86.5455L59.5071 86.8466C59.2988 87.3125 58.9995 87.7216 58.6094 88.0739C58.223 88.4223 57.7666 88.6932 57.2401 88.8864C56.7173 89.0795 56.1416 89.1761 55.5128 89.1761ZM64.8281 89.1761C63.9834 89.1761 63.2902 88.9848 62.7486 88.6023C62.2107 88.2159 61.8357 87.6837 61.6236 87.0057C61.4152 86.3277 61.383 85.5511 61.527 84.6761C61.6709 83.7898 61.9645 83.0076 62.4077 82.3295C62.8546 81.6477 63.4115 81.1155 64.0781 80.733C64.7486 80.3504 65.491 80.1591 66.3054 80.1591C66.9607 80.1591 67.5251 80.2803 67.9986 80.5227C68.4721 80.7614 68.8319 81.0985 69.0781 81.5341C69.3243 81.9659 69.4323 82.4735 69.402 83.0568H67.7997C67.7732 82.6477 67.6198 82.2955 67.3395 82C67.0592 81.7008 66.6463 81.5511 66.1009 81.5511C65.616 81.5511 65.1709 81.678 64.7656 81.9318C64.3603 82.1818 64.0194 82.5379 63.7429 83C63.4664 83.4621 63.277 84.0076 63.1747 84.6364C63.0687 85.2765 63.0743 85.8333 63.1918 86.3068C63.313 86.7765 63.5327 87.1402 63.8509 87.3977C64.1728 87.6515 64.5781 87.7784 65.0668 87.7784C65.3963 87.7784 65.7031 87.7197 65.9872 87.6023C66.2751 87.4811 66.5289 87.3087 66.7486 87.0852C66.9683 86.8617 67.1425 86.5928 67.2713 86.2784H68.8679C68.705 86.8352 68.4342 87.3314 68.0554 87.767C67.6766 88.2027 67.2126 88.5473 66.6634 88.8011C66.1179 89.0511 65.5062 89.1761 64.8281 89.1761ZM72.2599 86L72.5724 84H72.8679L77.0384 80.2727H79.0043L74.3281 84.4602H74.0838L72.2599 86ZM70.2599 89L72.1918 77.3636H73.8224L71.8906 89H70.2599ZM75.777 89L73.2997 84.8239L74.6122 83.6818L77.7884 89H75.777ZM91.3196 80.4659C91.3272 79.8826 91.1397 79.4394 90.7571 79.1364C90.3783 78.8295 89.8518 78.6761 89.1776 78.6761C88.6927 78.6761 88.259 78.7519 87.8764 78.9034C87.4976 79.0549 87.1889 79.2633 86.9503 79.5284C86.7116 79.7936 86.5658 80.0966 86.5128 80.4375C86.4635 80.7178 86.4901 80.9602 86.5923 81.1648C86.6946 81.3655 86.8423 81.536 87.0355 81.6761C87.2325 81.8125 87.4465 81.9261 87.6776 82.017C87.9124 82.1042 88.1378 82.1761 88.3537 82.233L89.4503 82.5341C89.7912 82.6212 90.1416 82.7424 90.5014 82.8977C90.8613 83.0492 91.187 83.2519 91.4787 83.5057C91.7741 83.7557 91.9957 84.0682 92.1435 84.4432C92.2912 84.8182 92.3215 85.2689 92.2344 85.7955C92.1245 86.447 91.8594 87.0284 91.4389 87.5398C91.0185 88.0511 90.4654 88.4545 89.7798 88.75C89.0942 89.0455 88.2969 89.1932 87.3878 89.1932C86.5279 89.1932 85.8026 89.0568 85.2116 88.7841C84.6245 88.5076 84.1927 88.1174 83.9162 87.6136C83.6435 87.1098 83.545 86.5133 83.6207 85.8239H85.331C85.2893 86.2481 85.367 86.6004 85.5639 86.8807C85.7647 87.1572 86.045 87.3636 86.4048 87.5C86.7647 87.6364 87.17 87.7045 87.6207 87.7045C88.1283 87.7045 88.5923 87.625 89.0128 87.4659C89.4332 87.303 89.7798 87.0777 90.0526 86.7898C90.3291 86.5019 90.4995 86.1648 90.5639 85.7784C90.6245 85.4261 90.5734 85.1383 90.4105 84.9148C90.2514 84.6875 90.0147 84.5019 89.7003 84.358C89.3859 84.214 89.0298 84.0871 88.6321 83.9773L87.3082 83.5909C86.4257 83.3371 85.7552 82.9659 85.2969 82.4773C84.8385 81.9848 84.6738 81.3352 84.8026 80.5284C84.92 79.8617 85.2003 79.2803 85.6435 78.7841C86.0866 78.2841 86.6397 77.8958 87.3026 77.6193C87.9654 77.3428 88.6832 77.2045 89.456 77.2045C90.2363 77.2045 90.901 77.3447 91.4503 77.625C92.0033 77.9015 92.4124 78.286 92.6776 78.7784C92.9427 79.267 93.0355 79.8295 92.956 80.4659H91.3196ZM99.1747 80.2727L98.9588 81.5966H94.2372L94.4531 80.2727H99.1747ZM96.0781 78.1818H97.7145L96.3338 86.4489C96.2808 86.786 96.2902 87.0398 96.3622 87.2102C96.4342 87.3807 96.5478 87.4962 96.7031 87.5568C96.8584 87.6136 97.0289 87.642 97.2145 87.642C97.3546 87.642 97.474 87.6326 97.5724 87.6136C97.6747 87.5947 97.7562 87.5795 97.8168 87.5682L97.9077 88.9375C97.794 88.9754 97.6425 89.0133 97.4531 89.0511C97.2675 89.0928 97.0402 89.1136 96.7713 89.1136C96.3357 89.1212 95.9399 89.0417 95.5838 88.875C95.2315 88.7083 94.9664 88.4527 94.7884 88.108C94.6103 87.7595 94.5668 87.3239 94.6577 86.8011L96.0781 78.1818ZM102.142 89.1932C101.589 89.1932 101.104 89.0909 100.688 88.8864C100.275 88.678 99.9697 88.3769 99.7727 87.983C99.5758 87.5852 99.5246 87.1023 99.6193 86.5341C99.7027 86.0379 99.8674 85.6326 100.114 85.3182C100.36 85 100.659 84.7481 101.011 84.5625C101.364 84.3769 101.746 84.2367 102.159 84.142C102.572 84.0473 102.989 83.9773 103.409 83.9318C103.939 83.8674 104.369 83.8163 104.699 83.7784C105.032 83.7367 105.282 83.6723 105.449 83.5852C105.619 83.4943 105.722 83.3466 105.756 83.142V83.0966C105.839 82.5966 105.767 82.2064 105.54 81.9261C105.316 81.642 104.926 81.5 104.369 81.5C103.79 81.5 103.303 81.6288 102.909 81.8864C102.515 82.1402 102.227 82.4223 102.045 82.733L100.585 82.3523C100.862 81.822 101.212 81.3958 101.636 81.0739C102.061 80.7519 102.521 80.5189 103.017 80.375C103.517 80.2311 104.023 80.1591 104.534 80.1591C104.867 80.1591 105.22 80.1989 105.591 80.2784C105.966 80.358 106.307 80.5057 106.614 80.7216C106.924 80.9337 107.155 81.2405 107.307 81.642C107.458 82.0436 107.481 82.5663 107.375 83.2102L106.415 89H104.812L105.017 87.8125H104.949C104.809 88.0246 104.612 88.2367 104.358 88.4489C104.104 88.661 103.792 88.839 103.42 88.983C103.053 89.1231 102.627 89.1932 102.142 89.1932ZM102.688 87.8636C103.169 87.8636 103.595 87.7689 103.966 87.5795C104.337 87.3864 104.638 87.1383 104.869 86.8352C105.1 86.5284 105.244 86.2008 105.301 85.8523L105.494 84.7045C105.422 84.7689 105.294 84.8277 105.108 84.8807C104.926 84.9299 104.72 84.9735 104.489 85.0114C104.261 85.0455 104.038 85.0777 103.818 85.108C103.602 85.1345 103.424 85.1572 103.284 85.1761C102.947 85.2216 102.631 85.2936 102.335 85.392C102.04 85.4905 101.792 85.6326 101.591 85.8182C101.394 86.0038 101.273 86.2519 101.227 86.5625C101.155 86.9905 101.258 87.3144 101.534 87.5341C101.811 87.7538 102.195 87.8636 102.688 87.8636ZM114.19 80.2727L113.974 81.5966H109.253L109.469 80.2727H114.19ZM111.094 78.1818H112.73L111.349 86.4489C111.296 86.786 111.306 87.0398 111.378 87.2102C111.45 87.3807 111.563 87.4962 111.719 87.5568C111.874 87.6136 112.045 87.642 112.23 87.642C112.37 87.642 112.49 87.6326 112.588 87.6136C112.69 87.5947 112.772 87.5795 112.832 87.5682L112.923 88.9375C112.81 88.9754 112.658 89.0133 112.469 89.0511C112.283 89.0928 112.056 89.1136 111.787 89.1136C111.351 89.1212 110.955 89.0417 110.599 88.875C110.247 88.7083 109.982 88.4527 109.804 88.108C109.626 87.7595 109.582 87.3239 109.673 86.8011L111.094 78.1818ZM120.754 85.392L121.612 80.2727H123.249L121.794 89H120.186L120.436 87.4943H120.345C120.076 87.9564 119.694 88.3428 119.197 88.6534C118.701 88.9602 118.124 89.1136 117.464 89.1136C116.908 89.1136 116.434 88.9905 116.044 88.7443C115.658 88.4981 115.383 88.1307 115.22 87.642C115.057 87.1534 115.036 86.5473 115.158 85.8239L116.089 80.2727H117.72L116.828 85.6364C116.733 86.2386 116.822 86.7197 117.095 87.0795C117.372 87.4356 117.775 87.6136 118.305 87.6136C118.627 87.6136 118.961 87.5341 119.305 87.375C119.654 87.2121 119.963 86.9678 120.232 86.642C120.5 86.3125 120.675 85.8958 120.754 85.392ZM131.683 82.375L130.161 82.6591C130.123 82.4583 130.051 82.267 129.945 82.0852C129.839 81.9034 129.678 81.7557 129.462 81.642C129.246 81.5284 128.96 81.4716 128.604 81.4716C128.104 81.4716 127.668 81.5852 127.297 81.8125C126.929 82.0398 126.719 82.3277 126.666 82.6761C126.613 82.9678 126.679 83.2027 126.865 83.3807C127.054 83.5549 127.38 83.7008 127.842 83.8182L129.166 84.1364C129.935 84.322 130.486 84.6098 130.82 85C131.153 85.3902 131.268 85.8977 131.166 86.5227C131.079 87.0379 130.854 87.4962 130.49 87.8977C130.126 88.2955 129.662 88.608 129.098 88.8352C128.534 89.0625 127.905 89.1761 127.212 89.1761C126.234 89.1761 125.473 88.9697 124.928 88.5568C124.382 88.1402 124.1 87.5511 124.081 86.7898L125.7 86.5227C125.731 86.9583 125.886 87.2879 126.166 87.5114C126.45 87.7311 126.846 87.8409 127.354 87.8409C127.929 87.8447 128.412 87.7235 128.803 87.4773C129.193 87.2273 129.412 86.928 129.462 86.5795C129.515 86.303 129.456 86.0739 129.286 85.892C129.119 85.7102 128.829 85.572 128.416 85.4773L127.007 85.1477C126.219 84.9583 125.664 84.6591 125.342 84.25C125.02 83.8409 124.912 83.3258 125.018 82.7045C125.106 82.197 125.321 81.7538 125.666 81.375C126.015 80.9924 126.456 80.6951 126.99 80.483C127.528 80.267 128.119 80.1591 128.763 80.1591C129.698 80.1591 130.399 80.3598 130.865 80.7614C131.335 81.1629 131.607 81.7008 131.683 82.375Z" fill="black"/>
<path d="M33.4261 103.364L35.1307 112.898H35.2614L40.1136 103.364H41.9318L35.8011 115H33.875L31.608 103.364H33.4261ZM41.5568 115L43.0114 106.273H44.642L43.1875 115H41.5568ZM44.1932 104.886C43.9053 104.886 43.661 104.79 43.4602 104.597C43.2595 104.4 43.1648 104.165 43.1761 103.892C43.1875 103.619 43.2992 103.386 43.5114 103.193C43.7273 102.996 43.9792 102.898 44.267 102.898C44.5549 102.898 44.7973 102.996 44.9943 103.193C45.1951 103.386 45.2898 103.619 45.2784 103.892C45.2708 104.165 45.1591 104.4 44.9432 104.597C44.7311 104.79 44.4811 104.886 44.1932 104.886ZM49.2315 115.176C48.3793 115.176 47.6747 114.992 47.1179 114.625C46.5611 114.254 46.1709 113.733 45.9474 113.062C45.7277 112.388 45.6918 111.6 45.8395 110.699C45.9872 109.801 46.2827 109.011 46.7259 108.33C47.1728 107.648 47.7296 107.116 48.3963 106.733C49.0668 106.35 49.8035 106.159 50.6065 106.159C51.0914 106.159 51.5497 106.241 51.9815 106.403C52.4171 106.562 52.7884 106.816 53.0952 107.165C53.4058 107.509 53.6198 107.96 53.7372 108.517C53.8584 109.074 53.8527 109.748 53.7202 110.54L53.6236 111.136H46.7259L46.919 109.881H52.2088C52.2884 109.43 52.2656 109.028 52.1406 108.676C52.0194 108.32 51.8092 108.04 51.5099 107.835C51.2145 107.631 50.8414 107.528 50.3906 107.528C49.9247 107.528 49.491 107.652 49.0895 107.898C48.688 108.14 48.3527 108.449 48.0838 108.824C47.8149 109.199 47.6463 109.587 47.5781 109.989L47.3906 111.119C47.2884 111.771 47.3054 112.294 47.4418 112.688C47.5819 113.081 47.8243 113.367 48.169 113.545C48.5137 113.72 48.9474 113.807 49.4702 113.807C49.8073 113.807 50.1179 113.761 50.402 113.67C50.6861 113.576 50.9399 113.436 51.1634 113.25C51.3868 113.061 51.5743 112.826 51.7259 112.545L53.2259 112.847C53.0175 113.312 52.7183 113.722 52.3281 114.074C51.9418 114.422 51.4853 114.693 50.9588 114.886C50.4361 115.08 49.8603 115.176 49.2315 115.176ZM56.804 115L55.679 106.273H57.3722L58.0369 112.733H58.1222L60.9403 106.273H62.6335L63.2869 112.705H63.3778L66.1847 106.273H67.8778L63.8438 115H62.1847L61.446 108.625H61.3153L58.4631 115H56.804ZM72.4957 115L74.4276 103.364H78.5355C79.437 103.364 80.1567 103.528 80.6946 103.858C81.2363 104.184 81.6056 104.631 81.8026 105.199C82.0033 105.767 82.045 106.405 81.9276 107.114C81.8101 107.822 81.5563 108.46 81.1662 109.028C80.7798 109.597 80.2609 110.047 79.6094 110.381C78.9616 110.714 78.1889 110.881 77.2912 110.881H74.4389L74.6776 109.432H77.3821C77.9654 109.432 78.4541 109.331 78.848 109.131C79.2457 108.93 79.5563 108.655 79.7798 108.307C80.0071 107.955 80.1567 107.557 80.2287 107.114C80.3007 106.667 80.2817 106.273 80.1719 105.932C80.062 105.587 79.8423 105.316 79.5128 105.119C79.1832 104.922 78.7249 104.824 78.1378 104.824H75.8878L74.1889 115H72.4957ZM85.0014 115.193C84.4484 115.193 83.9635 115.091 83.5469 114.886C83.134 114.678 82.8291 114.377 82.6321 113.983C82.4351 113.585 82.384 113.102 82.4787 112.534C82.562 112.038 82.7268 111.633 82.973 111.318C83.2192 111 83.5185 110.748 83.8707 110.562C84.223 110.377 84.6056 110.237 85.0185 110.142C85.4313 110.047 85.848 109.977 86.2685 109.932C86.7988 109.867 87.2287 109.816 87.5582 109.778C87.8916 109.737 88.1416 109.672 88.3082 109.585C88.4787 109.494 88.581 109.347 88.6151 109.142V109.097C88.6984 108.597 88.6264 108.206 88.3991 107.926C88.1757 107.642 87.7855 107.5 87.2287 107.5C86.6491 107.5 86.1624 107.629 85.7685 107.886C85.3745 108.14 85.0866 108.422 84.9048 108.733L83.4446 108.352C83.7211 107.822 84.0715 107.396 84.4957 107.074C84.92 106.752 85.3802 106.519 85.8764 106.375C86.3764 106.231 86.8821 106.159 87.3935 106.159C87.7268 106.159 88.0791 106.199 88.4503 106.278C88.8253 106.358 89.1662 106.506 89.473 106.722C89.7836 106.934 90.0147 107.241 90.1662 107.642C90.3177 108.044 90.3404 108.566 90.2344 109.21L89.2741 115H87.6719L87.8764 113.812H87.8082C87.6681 114.025 87.4711 114.237 87.2173 114.449C86.9635 114.661 86.651 114.839 86.2798 114.983C85.9124 115.123 85.4863 115.193 85.0014 115.193ZM85.5469 113.864C86.0279 113.864 86.4541 113.769 86.8253 113.58C87.1965 113.386 87.4976 113.138 87.7287 112.835C87.9598 112.528 88.1037 112.201 88.1605 111.852L88.3537 110.705C88.2817 110.769 88.1529 110.828 87.9673 110.881C87.7855 110.93 87.5791 110.973 87.348 111.011C87.1207 111.045 86.8973 111.078 86.6776 111.108C86.4616 111.134 86.2836 111.157 86.1435 111.176C85.8063 111.222 85.4901 111.294 85.1946 111.392C84.8991 111.491 84.651 111.633 84.4503 111.818C84.2533 112.004 84.1321 112.252 84.0866 112.562C84.0147 112.991 84.117 113.314 84.3935 113.534C84.67 113.754 85.0545 113.864 85.5469 113.864ZM97.0497 106.273L96.8338 107.597H92.1122L92.3281 106.273H97.0497ZM93.9531 104.182H95.5895L94.2088 112.449C94.1558 112.786 94.1652 113.04 94.2372 113.21C94.3092 113.381 94.4228 113.496 94.5781 113.557C94.7334 113.614 94.9039 113.642 95.0895 113.642C95.2296 113.642 95.349 113.633 95.4474 113.614C95.5497 113.595 95.6312 113.58 95.6918 113.568L95.7827 114.938C95.669 114.975 95.5175 115.013 95.3281 115.051C95.1425 115.093 94.9152 115.114 94.6463 115.114C94.2107 115.121 93.8149 115.042 93.4588 114.875C93.1065 114.708 92.8414 114.453 92.6634 114.108C92.4853 113.759 92.4418 113.324 92.5327 112.801L93.9531 104.182ZM97.4943 115L98.9489 106.273H100.58L99.125 115H97.4943ZM100.131 104.886C99.8428 104.886 99.5985 104.79 99.3977 104.597C99.197 104.4 99.1023 104.165 99.1136 103.892C99.125 103.619 99.2367 103.386 99.4489 103.193C99.6648 102.996 99.9167 102.898 100.205 102.898C100.492 102.898 100.735 102.996 100.932 103.193C101.133 103.386 101.227 103.619 101.216 103.892C101.208 104.165 101.097 104.4 100.881 104.597C100.669 104.79 100.419 104.886 100.131 104.886ZM105.169 115.176C104.317 115.176 103.612 114.992 103.055 114.625C102.499 114.254 102.108 113.733 101.885 113.062C101.665 112.388 101.629 111.6 101.777 110.699C101.925 109.801 102.22 109.011 102.663 108.33C103.11 107.648 103.667 107.116 104.334 106.733C105.004 106.35 105.741 106.159 106.544 106.159C107.029 106.159 107.487 106.241 107.919 106.403C108.355 106.562 108.726 106.816 109.033 107.165C109.343 107.509 109.557 107.96 109.675 108.517C109.796 109.074 109.79 109.748 109.658 110.54L109.561 111.136H102.663L102.857 109.881H108.146C108.226 109.43 108.203 109.028 108.078 108.676C107.957 108.32 107.747 108.04 107.447 107.835C107.152 107.631 106.779 107.528 106.328 107.528C105.862 107.528 105.429 107.652 105.027 107.898C104.625 108.14 104.29 108.449 104.021 108.824C103.752 109.199 103.584 109.587 103.516 109.989L103.328 111.119C103.226 111.771 103.243 112.294 103.379 112.688C103.519 113.081 103.762 113.367 104.107 113.545C104.451 113.72 104.885 113.807 105.408 113.807C105.745 113.807 106.055 113.761 106.339 113.67C106.624 113.576 106.877 113.436 107.101 113.25C107.324 113.061 107.512 112.826 107.663 112.545L109.163 112.847C108.955 113.312 108.656 113.722 108.266 114.074C107.879 114.422 107.423 114.693 106.896 114.886C106.374 115.08 105.798 115.176 105.169 115.176ZM113.348 109.807L112.49 115H110.854L112.308 106.273H113.882L113.643 107.688H113.757C114.03 107.225 114.405 106.856 114.882 106.58C115.359 106.299 115.926 106.159 116.581 106.159C117.168 106.159 117.664 106.282 118.07 106.528C118.475 106.775 118.761 107.142 118.928 107.631C119.098 108.119 119.125 108.725 119.007 109.449L118.075 115H116.439L117.331 109.636C117.437 108.996 117.354 108.494 117.081 108.131C116.812 107.767 116.384 107.585 115.797 107.585C115.395 107.585 115.024 107.672 114.683 107.847C114.342 108.017 114.054 108.269 113.82 108.602C113.589 108.932 113.431 109.333 113.348 109.807ZM125.847 106.273L125.631 107.597H120.909L121.125 106.273H125.847ZM122.75 104.182H124.386L123.006 112.449C122.953 112.786 122.962 113.04 123.034 113.21C123.106 113.381 123.22 113.496 123.375 113.557C123.53 113.614 123.701 113.642 123.886 113.642C124.027 113.642 124.146 113.633 124.244 113.614C124.347 113.595 124.428 113.58 124.489 113.568L124.58 114.938C124.466 114.975 124.314 115.013 124.125 115.051C123.939 115.093 123.712 115.114 123.443 115.114C123.008 115.121 122.612 115.042 122.256 114.875C121.903 114.708 121.638 114.453 121.46 114.108C121.282 113.759 121.239 113.324 121.33 112.801L122.75 104.182ZM134.339 103.364L132.408 115H130.714L132.646 103.364H134.339ZM137.364 109.807L136.506 115H134.869L136.324 106.273H137.898L137.659 107.688H137.773C138.045 107.225 138.42 106.856 138.898 106.58C139.375 106.299 139.941 106.159 140.597 106.159C141.184 106.159 141.68 106.282 142.085 106.528C142.491 106.775 142.777 107.142 142.943 107.631C143.114 108.119 143.14 108.725 143.023 109.449L142.091 115H140.455L141.347 109.636C141.453 108.996 141.369 108.494 141.097 108.131C140.828 107.767 140.4 107.585 139.812 107.585C139.411 107.585 139.04 107.672 138.699 107.847C138.358 108.017 138.07 108.269 137.835 108.602C137.604 108.932 137.447 109.333 137.364 109.807ZM149.947 106.273L149.732 107.597H144.839L145.055 106.273H149.947ZM144.959 115L146.589 105.227C146.673 104.689 146.862 104.242 147.158 103.886C147.457 103.53 147.817 103.263 148.237 103.085C148.658 102.907 149.095 102.818 149.55 102.818C149.891 102.818 150.173 102.847 150.396 102.903C150.624 102.956 150.79 103.006 150.896 103.051L150.283 104.386C150.211 104.364 150.116 104.337 149.999 104.307C149.881 104.273 149.732 104.256 149.55 104.256C149.133 104.256 148.817 104.36 148.601 104.568C148.389 104.773 148.247 105.072 148.175 105.466L146.595 115H144.959ZM153.609 115.176C152.784 115.176 152.094 114.987 151.541 114.608C150.988 114.225 150.598 113.691 150.371 113.006C150.147 112.316 150.109 111.515 150.257 110.602C150.401 109.708 150.691 108.928 151.126 108.261C151.562 107.595 152.109 107.078 152.768 106.71C153.428 106.343 154.159 106.159 154.962 106.159C155.787 106.159 156.475 106.35 157.024 106.733C157.577 107.116 157.967 107.652 158.195 108.341C158.422 109.03 158.462 109.835 158.314 110.756C158.17 111.642 157.876 112.417 157.433 113.08C156.994 113.742 156.446 114.258 155.791 114.625C155.14 114.992 154.412 115.176 153.609 115.176ZM153.695 113.79C154.251 113.79 154.736 113.644 155.149 113.352C155.566 113.061 155.905 112.672 156.166 112.188C156.431 111.703 156.611 111.172 156.706 110.597C156.793 110.047 156.791 109.542 156.7 109.08C156.609 108.614 156.416 108.241 156.121 107.96C155.825 107.68 155.411 107.54 154.876 107.54C154.32 107.54 153.831 107.687 153.411 107.983C152.994 108.278 152.655 108.67 152.393 109.159C152.132 109.644 151.956 110.174 151.865 110.75C151.778 111.299 151.778 111.805 151.865 112.267C151.956 112.729 152.149 113.098 152.445 113.375C152.744 113.652 153.161 113.79 153.695 113.79Z" fill="black"/>
<path d="M30.5739 146L32.5057 134.364H39.75L39.5114 135.824H33.9602L33.358 139.443H38.5341L38.2898 140.903H33.1136L32.5114 144.54H38.1364L37.892 146H30.5739ZM43.3182 146.17C42.6023 146.17 41.9981 145.991 41.5057 145.631C41.017 145.267 40.6705 144.748 40.4659 144.074C40.2652 143.4 40.2405 142.593 40.392 141.653C40.5511 140.714 40.8447 139.909 41.2727 139.239C41.7008 138.568 42.2216 138.055 42.8352 137.699C43.4489 137.339 44.1098 137.159 44.8182 137.159C45.3636 137.159 45.786 137.25 46.0852 137.432C46.3883 137.614 46.6117 137.824 46.7557 138.062C46.8996 138.301 47.0057 138.508 47.0739 138.682H47.1761L47.8977 134.364H49.5341L47.6023 146H46.0057L46.2386 144.642H46.0909C45.9583 144.824 45.7765 145.036 45.5455 145.278C45.3182 145.517 45.0227 145.725 44.6591 145.903C44.2992 146.081 43.8523 146.17 43.3182 146.17ZM43.8466 144.767C44.3428 144.767 44.7879 144.636 45.1818 144.375C45.5795 144.11 45.9091 143.742 46.1705 143.273C46.4356 142.803 46.6193 142.258 46.7216 141.636C46.8277 141.023 46.8258 140.485 46.7159 140.023C46.6098 139.561 46.4015 139.203 46.0909 138.949C45.7841 138.691 45.3769 138.562 44.8693 138.562C44.3504 138.562 43.8977 138.697 43.5114 138.966C43.125 139.235 42.8087 139.602 42.5625 140.068C42.3201 140.53 42.1515 141.053 42.0568 141.636C41.9583 142.227 41.9545 142.759 42.0455 143.233C42.1364 143.706 42.3295 144.081 42.625 144.358C42.9242 144.631 43.3314 144.767 43.8466 144.767ZM50.0568 146L51.5114 137.273H53.142L51.6875 146H50.0568ZM52.6932 135.886C52.4053 135.886 52.161 135.79 51.9602 135.597C51.7595 135.4 51.6648 135.165 51.6761 134.892C51.6875 134.619 51.7992 134.386 52.0114 134.193C52.2273 133.996 52.4792 133.898 52.767 133.898C53.0549 133.898 53.2973 133.996 53.4943 134.193C53.6951 134.386 53.7898 134.619 53.7784 134.892C53.7708 135.165 53.6591 135.4 53.4432 135.597C53.2311 135.79 52.9811 135.886 52.6932 135.886ZM59.4872 137.273L59.2713 138.597H54.5497L54.7656 137.273H59.4872ZM56.3906 135.182H58.027L56.6463 143.449C56.5933 143.786 56.6027 144.04 56.6747 144.21C56.7467 144.381 56.8603 144.496 57.0156 144.557C57.1709 144.614 57.3414 144.642 57.527 144.642C57.6671 144.642 57.7865 144.633 57.8849 144.614C57.9872 144.595 58.0687 144.58 58.1293 144.568L58.2202 145.938C58.1065 145.975 57.955 146.013 57.7656 146.051C57.58 146.093 57.3527 146.114 57.0838 146.114C56.6482 146.121 56.2524 146.042 55.8963 145.875C55.544 145.708 55.2789 145.453 55.1009 145.108C54.9228 144.759 54.8793 144.324 54.9702 143.801L56.3906 135.182ZM64.3551 146L66.2869 134.364H70.3949C71.2964 134.364 72.0161 134.528 72.554 134.858C73.0956 135.184 73.465 135.631 73.6619 136.199C73.8627 136.767 73.9044 137.405 73.7869 138.114C73.6695 138.822 73.4157 139.46 73.0256 140.028C72.6392 140.597 72.1203 141.047 71.4688 141.381C70.821 141.714 70.0483 141.881 69.1506 141.881H66.2983L66.5369 140.432H69.2415C69.8248 140.432 70.3134 140.331 70.7074 140.131C71.1051 139.93 71.4157 139.655 71.6392 139.307C71.8665 138.955 72.0161 138.557 72.0881 138.114C72.16 137.667 72.1411 137.273 72.0312 136.932C71.9214 136.587 71.7017 136.316 71.3722 136.119C71.0426 135.922 70.5843 135.824 69.9972 135.824H67.7472L66.0483 146H64.3551ZM76.8608 146.193C76.3078 146.193 75.8229 146.091 75.4062 145.886C74.9934 145.678 74.6884 145.377 74.4915 144.983C74.2945 144.585 74.2434 144.102 74.3381 143.534C74.4214 143.038 74.5862 142.633 74.8324 142.318C75.0786 142 75.3778 141.748 75.7301 141.562C76.0824 141.377 76.465 141.237 76.8778 141.142C77.2907 141.047 77.7074 140.977 78.1278 140.932C78.6581 140.867 79.0881 140.816 79.4176 140.778C79.7509 140.737 80.0009 140.672 80.1676 140.585C80.3381 140.494 80.4403 140.347 80.4744 140.142V140.097C80.5578 139.597 80.4858 139.206 80.2585 138.926C80.035 138.642 79.6449 138.5 79.0881 138.5C78.5085 138.5 78.0218 138.629 77.6278 138.886C77.2339 139.14 76.946 139.422 76.7642 139.733L75.304 139.352C75.5805 138.822 75.9309 138.396 76.3551 138.074C76.7794 137.752 77.2396 137.519 77.7358 137.375C78.2358 137.231 78.7415 137.159 79.2528 137.159C79.5862 137.159 79.9384 137.199 80.3097 137.278C80.6847 137.358 81.0256 137.506 81.3324 137.722C81.643 137.934 81.8741 138.241 82.0256 138.642C82.1771 139.044 82.1998 139.566 82.0938 140.21L81.1335 146H79.5312L79.7358 144.812H79.6676C79.5275 145.025 79.3305 145.237 79.0767 145.449C78.8229 145.661 78.5104 145.839 78.1392 145.983C77.7718 146.123 77.3456 146.193 76.8608 146.193ZM77.4062 144.864C77.8873 144.864 78.3134 144.769 78.6847 144.58C79.0559 144.386 79.357 144.138 79.5881 143.835C79.8191 143.528 79.9631 143.201 80.0199 142.852L80.2131 141.705C80.1411 141.769 80.0123 141.828 79.8267 141.881C79.6449 141.93 79.4384 141.973 79.2074 142.011C78.9801 142.045 78.7566 142.078 78.5369 142.108C78.321 142.134 78.143 142.157 78.0028 142.176C77.6657 142.222 77.3494 142.294 77.054 142.392C76.7585 142.491 76.5104 142.633 76.3097 142.818C76.1127 143.004 75.9915 143.252 75.946 143.562C75.8741 143.991 75.9763 144.314 76.2528 144.534C76.5294 144.754 76.9138 144.864 77.4062 144.864ZM88.9091 137.273L88.6932 138.597H83.9716L84.1875 137.273H88.9091ZM85.8125 135.182H87.4489L86.0682 143.449C86.0152 143.786 86.0246 144.04 86.0966 144.21C86.1686 144.381 86.2822 144.496 86.4375 144.557C86.5928 144.614 86.7633 144.642 86.9489 144.642C87.089 144.642 87.2083 144.633 87.3068 144.614C87.4091 144.595 87.4905 144.58 87.5511 144.568L87.642 145.938C87.5284 145.975 87.3769 146.013 87.1875 146.051C87.0019 146.093 86.7746 146.114 86.5057 146.114C86.0701 146.121 85.6742 146.042 85.3182 145.875C84.9659 145.708 84.7008 145.453 84.5227 145.108C84.3447 144.759 84.3011 144.324 84.392 143.801L85.8125 135.182ZM89.3537 146L90.8082 137.273H92.4389L90.9844 146H89.3537ZM91.9901 135.886C91.7022 135.886 91.4579 135.79 91.2571 135.597C91.0563 135.4 90.9616 135.165 90.973 134.892C90.9844 134.619 91.0961 134.386 91.3082 134.193C91.5241 133.996 91.776 133.898 92.0639 133.898C92.3518 133.898 92.5942 133.996 92.7912 134.193C92.992 134.386 93.0866 134.619 93.0753 134.892C93.0677 135.165 92.956 135.4 92.7401 135.597C92.5279 135.79 92.2779 135.886 91.9901 135.886ZM97.0284 146.176C96.1761 146.176 95.4716 145.992 94.9148 145.625C94.358 145.254 93.9678 144.733 93.7443 144.062C93.5246 143.388 93.4886 142.6 93.6364 141.699C93.7841 140.801 94.0795 140.011 94.5227 139.33C94.9697 138.648 95.5265 138.116 96.1932 137.733C96.8636 137.35 97.6004 137.159 98.4034 137.159C98.8883 137.159 99.3466 137.241 99.7784 137.403C100.214 137.562 100.585 137.816 100.892 138.165C101.203 138.509 101.417 138.96 101.534 139.517C101.655 140.074 101.65 140.748 101.517 141.54L101.42 142.136H94.5227L94.7159 140.881H100.006C100.085 140.43 100.062 140.028 99.9375 139.676C99.8163 139.32 99.6061 139.04 99.3068 138.835C99.0114 138.631 98.6383 138.528 98.1875 138.528C97.7216 138.528 97.2879 138.652 96.8864 138.898C96.4848 139.14 96.1496 139.449 95.8807 139.824C95.6117 140.199 95.4432 140.587 95.375 140.989L95.1875 142.119C95.0852 142.771 95.1023 143.294 95.2386 143.688C95.3788 144.081 95.6212 144.367 95.9659 144.545C96.3106 144.72 96.7443 144.807 97.267 144.807C97.6042 144.807 97.9148 144.761 98.1989 144.67C98.483 144.576 98.7367 144.436 98.9602 144.25C99.1837 144.061 99.3712 143.826 99.5227 143.545L101.023 143.847C100.814 144.312 100.515 144.722 100.125 145.074C99.7386 145.422 99.2822 145.693 98.7557 145.886C98.233 146.08 97.6572 146.176 97.0284 146.176ZM105.207 140.807L104.349 146H102.713L104.168 137.273H105.741L105.503 138.688H105.616C105.889 138.225 106.264 137.856 106.741 137.58C107.219 137.299 107.785 137.159 108.44 137.159C109.027 137.159 109.524 137.282 109.929 137.528C110.334 137.775 110.62 138.142 110.787 138.631C110.957 139.119 110.984 139.725 110.866 140.449L109.935 146H108.298L109.19 140.636C109.296 139.996 109.213 139.494 108.94 139.131C108.671 138.767 108.243 138.585 107.656 138.585C107.255 138.585 106.884 138.672 106.543 138.847C106.202 139.017 105.914 139.269 105.679 139.602C105.448 139.932 105.291 140.333 105.207 140.807ZM117.706 137.273L117.49 138.597H112.768L112.984 137.273H117.706ZM114.609 135.182H116.246L114.865 143.449C114.812 143.786 114.821 144.04 114.893 144.21C114.965 144.381 115.079 144.496 115.234 144.557C115.39 144.614 115.56 144.642 115.746 144.642C115.886 144.642 116.005 144.633 116.104 144.614C116.206 144.595 116.287 144.58 116.348 144.568L116.439 145.938C116.325 145.975 116.174 146.013 115.984 146.051C115.799 146.093 115.571 146.114 115.303 146.114C114.867 146.121 114.471 146.042 114.115 145.875C113.763 145.708 113.498 145.453 113.32 145.108C113.142 144.759 113.098 144.324 113.189 143.801L114.609 135.182ZM126.199 134.364L124.267 146H122.574L124.506 134.364H126.199ZM129.223 140.807L128.365 146H126.729L128.183 137.273H129.757L129.518 138.688H129.632C129.905 138.225 130.28 137.856 130.757 137.58C131.234 137.299 131.801 137.159 132.456 137.159C133.043 137.159 133.539 137.282 133.945 137.528C134.35 137.775 134.636 138.142 134.803 138.631C134.973 139.119 135 139.725 134.882 140.449L133.95 146H132.314L133.206 140.636C133.312 139.996 133.229 139.494 132.956 139.131C132.687 138.767 132.259 138.585 131.672 138.585C131.27 138.585 130.899 138.672 130.558 138.847C130.217 139.017 129.929 139.269 129.695 139.602C129.464 139.932 129.306 140.333 129.223 140.807ZM141.807 137.273L141.591 138.597H136.699L136.915 137.273H141.807ZM136.818 146L138.449 136.227C138.532 135.689 138.722 135.242 139.017 134.886C139.316 134.53 139.676 134.263 140.097 134.085C140.517 133.907 140.955 133.818 141.409 133.818C141.75 133.818 142.032 133.847 142.256 133.903C142.483 133.956 142.65 134.006 142.756 134.051L142.142 135.386C142.07 135.364 141.975 135.337 141.858 135.307C141.741 135.273 141.591 135.256 141.409 135.256C140.992 135.256 140.676 135.36 140.46 135.568C140.248 135.773 140.106 136.072 140.034 136.466L138.455 146H136.818ZM145.469 146.176C144.643 146.176 143.954 145.987 143.401 145.608C142.848 145.225 142.457 144.691 142.23 144.006C142.007 143.316 141.969 142.515 142.116 141.602C142.26 140.708 142.55 139.928 142.986 139.261C143.421 138.595 143.969 138.078 144.628 137.71C145.287 137.343 146.018 137.159 146.821 137.159C147.647 137.159 148.334 137.35 148.884 137.733C149.437 138.116 149.827 138.652 150.054 139.341C150.281 140.03 150.321 140.835 150.173 141.756C150.029 142.642 149.736 143.417 149.293 144.08C148.853 144.742 148.306 145.258 147.651 145.625C146.999 145.992 146.272 146.176 145.469 146.176ZM145.554 144.79C146.111 144.79 146.596 144.644 147.009 144.352C147.425 144.061 147.764 143.672 148.026 143.188C148.291 142.703 148.471 142.172 148.565 141.597C148.652 141.047 148.651 140.542 148.56 140.08C148.469 139.614 148.276 139.241 147.98 138.96C147.685 138.68 147.27 138.54 146.736 138.54C146.179 138.54 145.69 138.687 145.27 138.983C144.853 139.278 144.514 139.67 144.253 140.159C143.991 140.644 143.815 141.174 143.724 141.75C143.637 142.299 143.637 142.805 143.724 143.267C143.815 143.729 144.009 144.098 144.304 144.375C144.603 144.652 145.02 144.79 145.554 144.79Z" fill="black"/>
<path d="M212.466 30H210.676L216.807 18.3636H218.733L221 30H219.21L217.483 20.4261H217.392L212.466 30ZM213.574 25.4489H219.602L219.364 26.8807H213.335L213.574 25.4489ZM226.078 30.1761C225.233 30.1761 224.54 29.9848 223.999 29.6023C223.461 29.2159 223.086 28.6837 222.874 28.0057C222.665 27.3277 222.633 26.5511 222.777 25.6761C222.921 24.7898 223.214 24.0076 223.658 23.3295C224.105 22.6477 224.661 22.1155 225.328 21.733C225.999 21.3504 226.741 21.1591 227.555 21.1591C228.211 21.1591 228.775 21.2803 229.249 21.5227C229.722 21.7614 230.082 22.0985 230.328 22.5341C230.574 22.9659 230.682 23.4735 230.652 24.0568H229.05C229.023 23.6477 228.87 23.2955 228.589 23C228.309 22.7008 227.896 22.5511 227.351 22.5511C226.866 22.5511 226.421 22.678 226.016 22.9318C225.61 23.1818 225.269 23.5379 224.993 24C224.716 24.4621 224.527 25.0076 224.425 25.6364C224.319 26.2765 224.324 26.8333 224.442 27.3068C224.563 27.7765 224.783 28.1402 225.101 28.3977C225.423 28.6515 225.828 28.7784 226.317 28.7784C226.646 28.7784 226.953 28.7197 227.237 28.6023C227.525 28.4811 227.779 28.3087 227.999 28.0852C228.218 27.8617 228.393 27.5928 228.521 27.2784H230.118C229.955 27.8352 229.684 28.3314 229.305 28.767C228.927 29.2027 228.463 29.5473 227.913 29.8011C227.368 30.0511 226.756 30.1761 226.078 30.1761ZM235.141 30.1761C234.296 30.1761 233.603 29.9848 233.061 29.6023C232.523 29.2159 232.148 28.6837 231.936 28.0057C231.728 27.3277 231.696 26.5511 231.839 25.6761C231.983 24.7898 232.277 24.0076 232.72 23.3295C233.167 22.6477 233.724 22.1155 234.391 21.733C235.061 21.3504 235.804 21.1591 236.618 21.1591C237.273 21.1591 237.838 21.2803 238.311 21.5227C238.785 21.7614 239.144 22.0985 239.391 22.5341C239.637 22.9659 239.745 23.4735 239.714 24.0568H238.112C238.086 23.6477 237.932 23.2955 237.652 23C237.372 22.7008 236.959 22.5511 236.413 22.5511C235.929 22.5511 235.483 22.678 235.078 22.9318C234.673 23.1818 234.332 23.5379 234.055 24C233.779 24.4621 233.589 25.0076 233.487 25.6364C233.381 26.2765 233.387 26.8333 233.504 27.3068C233.625 27.7765 233.845 28.1402 234.163 28.3977C234.485 28.6515 234.891 28.7784 235.379 28.7784C235.709 28.7784 236.016 28.7197 236.3 28.6023C236.588 28.4811 236.841 28.3087 237.061 28.0852C237.281 27.8617 237.455 27.5928 237.584 27.2784H239.18C239.018 27.8352 238.747 28.3314 238.368 28.767C237.989 29.2027 237.525 29.5473 236.976 29.8011C236.43 30.0511 235.819 30.1761 235.141 30.1761ZM244.266 30.1761C243.44 30.1761 242.75 29.9867 242.197 29.608C241.644 29.2254 241.254 28.6913 241.027 28.0057C240.804 27.3163 240.766 26.5152 240.913 25.6023C241.057 24.7083 241.347 23.928 241.783 23.2614C242.218 22.5947 242.766 22.0777 243.425 21.7102C244.084 21.3428 244.815 21.1591 245.618 21.1591C246.444 21.1591 247.131 21.3504 247.68 21.733C248.233 22.1155 248.624 22.6515 248.851 23.3409C249.078 24.0303 249.118 24.8352 248.97 25.7557C248.826 26.642 248.533 27.4167 248.089 28.0795C247.65 28.7424 247.103 29.2576 246.447 29.625C245.796 29.9924 245.069 30.1761 244.266 30.1761ZM244.351 28.7898C244.908 28.7898 245.393 28.6439 245.805 28.3523C246.222 28.0606 246.561 27.6723 246.822 27.1875C247.088 26.7027 247.268 26.1723 247.362 25.5966C247.449 25.0473 247.447 24.5417 247.357 24.0795C247.266 23.6136 247.072 23.2405 246.777 22.9602C246.482 22.6799 246.067 22.5398 245.533 22.5398C244.976 22.5398 244.487 22.6875 244.067 22.983C243.65 23.2784 243.311 23.6705 243.05 24.1591C242.788 24.6439 242.612 25.1742 242.521 25.75C242.434 26.2992 242.434 26.8049 242.521 27.267C242.612 27.7292 242.805 28.0985 243.101 28.375C243.4 28.6515 243.817 28.7898 244.351 28.7898ZM256.317 26.392L257.175 21.2727H258.811L257.357 30H255.749L255.999 28.4943H255.908C255.639 28.9564 255.256 29.3428 254.76 29.6534C254.264 29.9602 253.686 30.1136 253.027 30.1136C252.47 30.1136 251.997 29.9905 251.607 29.7443C251.22 29.4981 250.946 29.1307 250.783 28.642C250.62 28.1534 250.599 27.5473 250.72 26.8239L251.652 21.2727H253.283L252.391 26.6364C252.296 27.2386 252.385 27.7197 252.658 28.0795C252.934 28.4356 253.338 28.6136 253.868 28.6136C254.19 28.6136 254.523 28.5341 254.868 28.375C255.216 28.2121 255.525 27.9678 255.794 27.642C256.063 27.3125 256.237 26.8958 256.317 26.392ZM262.161 24.8068L261.303 30H259.666L261.121 21.2727H262.695L262.456 22.6875H262.57C262.842 22.2254 263.217 21.8561 263.695 21.5795C264.172 21.2992 264.738 21.1591 265.393 21.1591C265.981 21.1591 266.477 21.2822 266.882 21.5284C267.287 21.7746 267.573 22.142 267.74 22.6307C267.911 23.1193 267.937 23.7254 267.82 24.4489L266.888 30H265.251L266.143 24.6364C266.25 23.9962 266.166 23.4943 265.893 23.1307C265.625 22.767 265.196 22.5852 264.609 22.5852C264.208 22.5852 263.837 22.6723 263.496 22.8466C263.155 23.017 262.867 23.2689 262.632 23.6023C262.401 23.9318 262.244 24.3333 262.161 24.8068ZM274.659 21.2727L274.443 22.5966H269.722L269.938 21.2727H274.659ZM271.562 19.1818H273.199L271.818 27.4489C271.765 27.786 271.775 28.0398 271.847 28.2102C271.919 28.3807 272.032 28.4962 272.188 28.5568C272.343 28.6136 272.513 28.642 272.699 28.642C272.839 28.642 272.958 28.6326 273.057 28.6136C273.159 28.5947 273.241 28.5795 273.301 28.5682L273.392 29.9375C273.278 29.9754 273.127 30.0133 272.938 30.0511C272.752 30.0928 272.525 30.1136 272.256 30.1136C271.82 30.1212 271.424 30.0417 271.068 29.875C270.716 29.7083 270.451 29.4527 270.273 29.108C270.095 28.7595 270.051 28.3239 270.142 27.8011L271.562 19.1818Z" fill="black"/>
<defs>
<filter id="filter0_i_47_189" x="0" y="40" width="245" height="131" filterUnits="userSpaceOnUse" color-interpolation-filters="sRGB">
<feFlood flood-opacity="0" result="BackgroundImageFix"/>
<feBlend mode="normal" in="SourceGraphic" in2="BackgroundImageFix" result="shape"/>
<feColorMatrix in="SourceAlpha" type="matrix" values="0 0 0 0 0 0 0 0 0 0 0 0 0 0 0 0 0 0 127 0" result="hardAlpha"/>
<feOffset dy="4"/>
<feGaussianBlur stdDeviation="2"/>
<feComposite in2="hardAlpha" operator="arithmetic" k2="-1" k3="1"/>
<feColorMatrix type="matrix" values="0 0 0 0 0 0 0 0 0 0 0 0 0 0 0 0 0 0 0.25 0"/>
<feBlend mode="normal" in2="shape" result="effect1_innerShadow_47_189"/>
</filter>
<filter id="filter1_i_47_189" x="0" y="15" width="68" height="25" filterUnits="userSpaceOnUse" color-interpolation-filters="sRGB">
<feFlood flood-opacity="0" result="BackgroundImageFix"/>
<feBlend mode="normal" in="SourceGraphic" in2="BackgroundImageFix" result="shape"/>
<feColorMatrix in="SourceAlpha" type="matrix" values="0 0 0 0 0 0 0 0 0 0 0 0 0 0 0 0 0 0 127 0" result="hardAlpha"/>
<feOffset dy="4"/>
<feGaussianBlur stdDeviation="2"/>
<feComposite in2="hardAlpha" operator="arithmetic" k2="-1" k3="1"/>
<feColorMatrix type="matrix" values="0 0 0 0 0 0 0 0 0 0 0 0 0 0 0 0 0 0 0.25 0"/>
<feBlend mode="normal" in2="shape" result="effect1_innerShadow_47_189"/>
</filter>
<filter id="filter2_i_47_189" x="10.5739" y="19.8977" width="53.3509" height="16.2955" filterUnits="userSpaceOnUse" color-interpolation-filters="sRGB">
<feFlood flood-opacity="0" result="BackgroundImageFix"/>
<feBlend mode="normal" in="SourceGraphic" in2="BackgroundImageFix" result="shape"/>
<feColorMatrix in="SourceAlpha" type="matrix" values="0 0 0 0 0 0 0 0 0 0 0 0 0 0 0 0 0 0 127 0" result="hardAlpha"/>
<feOffset dy="4"/>
<feGaussianBlur stdDeviation="2"/>
<feComposite in2="hardAlpha" operator="arithmetic" k2="-1" k3="1"/>
<feColorMatrix type="matrix" values="0 0 0 0 0 0 0 0 0 0 0 0 0 0 0 0 0 0 0.25 0"/>
<feBlend mode="normal" in2="shape" result="effect1_innerShadow_47_189"/>
</filter>
</defs>
</svg>
