<svg width="765" height="497" viewBox="0 0 765 497" fill="none" xmlns="http://www.w3.org/2000/svg">
<rect y="7" width="765" height="490" fill="#BDBCBB"/>
<rect width="765" height="39" fill="#FFF8F8"/>
<g filter="url(#filter0_i_47_190)">
<rect x="96" y="39" width="241" height="80" fill="#FCFCFC"/>
</g>
<rect x="96.5" y="39.5" width="240" height="79" stroke="black"/>
<g filter="url(#filter1_i_47_190)">
<rect x="96" y="15" width="101" height="20" fill="#F7F6F6"/>
</g>
<path d="M98.5057 19.3636H100.557L102.795 28.517H102.932L108.193 19.3636H110.244L108.312 31H106.705L108.119 22.5057H108.011L103.131 30.983H101.761L99.7159 22.5H99.6023L98.1818 31H96.5739L98.5057 19.3636ZM114.497 31.1761C113.645 31.1761 112.94 30.9924 112.384 30.625C111.827 30.2538 111.437 29.733 111.213 29.0625C110.993 28.3883 110.957 27.6004 111.105 26.6989C111.253 25.8011 111.548 25.0114 111.991 24.3295C112.438 23.6477 112.995 23.1155 113.662 22.733C114.332 22.3504 115.069 22.1591 115.872 22.1591C116.357 22.1591 116.815 22.2405 117.247 22.4034C117.683 22.5625 118.054 22.8163 118.361 23.1648C118.671 23.5095 118.885 23.9602 119.003 24.517C119.124 25.0739 119.118 25.7481 118.986 26.5398L118.889 27.1364H111.991L112.185 25.8807H117.474C117.554 25.4299 117.531 25.0284 117.406 24.6761C117.285 24.3201 117.075 24.0398 116.776 23.8352C116.48 23.6307 116.107 23.5284 115.656 23.5284C115.19 23.5284 114.757 23.6515 114.355 23.8977C113.954 24.1402 113.618 24.4489 113.349 24.8239C113.08 25.1989 112.912 25.5871 112.844 25.9886L112.656 27.1193C112.554 27.7708 112.571 28.2936 112.707 28.6875C112.848 29.0814 113.09 29.3674 113.435 29.5455C113.779 29.7197 114.213 29.8068 114.736 29.8068C115.073 29.8068 115.384 29.7614 115.668 29.6705C115.952 29.5758 116.205 29.4356 116.429 29.25C116.652 29.0606 116.84 28.8258 116.991 28.5455L118.491 28.8466C118.283 29.3125 117.984 29.7216 117.594 30.0739C117.207 30.4223 116.751 30.6932 116.224 30.8864C115.702 31.0795 115.126 31.1761 114.497 31.1761ZM123.443 31.1705C122.727 31.1705 122.123 30.9905 121.631 30.6307C121.142 30.267 120.795 29.7481 120.591 29.0739C120.39 28.3996 120.366 27.5928 120.517 26.6534C120.676 25.714 120.97 24.9091 121.398 24.2386C121.826 23.5682 122.347 23.0549 122.96 22.6989C123.574 22.339 124.235 22.1591 124.943 22.1591C125.489 22.1591 125.911 22.25 126.21 22.4318C126.513 22.6136 126.737 22.8239 126.881 23.0625C127.025 23.3011 127.131 23.5076 127.199 23.6818H127.301L128.023 19.3636H129.659L127.727 31H126.131L126.364 29.642H126.216C126.083 29.8239 125.902 30.036 125.67 30.2784C125.443 30.517 125.148 30.7254 124.784 30.9034C124.424 31.0814 123.977 31.1705 123.443 31.1705ZM123.972 29.767C124.468 29.767 124.913 29.6364 125.307 29.375C125.705 29.1098 126.034 28.7424 126.295 28.2727C126.561 27.803 126.744 27.2576 126.847 26.6364C126.953 26.0227 126.951 25.4848 126.841 25.0227C126.735 24.5606 126.527 24.2027 126.216 23.9489C125.909 23.6913 125.502 23.5625 124.994 23.5625C124.475 23.5625 124.023 23.697 123.636 23.9659C123.25 24.2348 122.934 24.6023 122.688 25.0682C122.445 25.5303 122.277 26.053 122.182 26.6364C122.083 27.2273 122.08 27.7595 122.17 28.233C122.261 28.7064 122.455 29.0814 122.75 29.358C123.049 29.6307 123.456 29.767 123.972 29.767ZM130.182 31L131.636 22.2727H133.267L131.812 31H130.182ZM132.818 20.8864C132.53 20.8864 132.286 20.7898 132.085 20.5966C131.884 20.3996 131.79 20.1648 131.801 19.892C131.813 19.6193 131.924 19.3864 132.136 19.1932C132.352 18.9962 132.604 18.8977 132.892 18.8977C133.18 18.8977 133.422 18.9962 133.619 19.1932C133.82 19.3864 133.915 19.6193 133.903 19.892C133.896 20.1648 133.784 20.3996 133.568 20.5966C133.356 20.7898 133.106 20.8864 132.818 20.8864ZM137.766 31.1761C136.921 31.1761 136.228 30.9848 135.686 30.6023C135.148 30.2159 134.773 29.6837 134.561 29.0057C134.353 28.3277 134.321 27.5511 134.464 26.6761C134.608 25.7898 134.902 25.0076 135.345 24.3295C135.792 23.6477 136.349 23.1155 137.016 22.733C137.686 22.3504 138.429 22.1591 139.243 22.1591C139.898 22.1591 140.463 22.2803 140.936 22.5227C141.41 22.7614 141.769 23.0985 142.016 23.5341C142.262 23.9659 142.37 24.4735 142.339 25.0568H140.737C140.711 24.6477 140.557 24.2955 140.277 24C139.997 23.7008 139.584 23.5511 139.038 23.5511C138.554 23.5511 138.108 23.678 137.703 23.9318C137.298 24.1818 136.957 24.5379 136.68 25C136.404 25.4621 136.214 26.0076 136.112 26.6364C136.006 27.2765 136.012 27.8333 136.129 28.3068C136.25 28.7765 136.47 29.1402 136.788 29.3977C137.11 29.6515 137.516 29.7784 138.004 29.7784C138.334 29.7784 138.641 29.7197 138.925 29.6023C139.213 29.4811 139.466 29.3087 139.686 29.0852C139.906 28.8617 140.08 28.5928 140.209 28.2784H141.805C141.643 28.8352 141.372 29.3314 140.993 29.767C140.614 30.2027 140.15 30.5473 139.601 30.8011C139.055 31.0511 138.444 31.1761 137.766 31.1761ZM145.72 31.1932C145.167 31.1932 144.682 31.0909 144.266 30.8864C143.853 30.678 143.548 30.3769 143.351 29.983C143.154 29.5852 143.103 29.1023 143.197 28.5341C143.281 28.0379 143.446 27.6326 143.692 27.3182C143.938 27 144.237 26.7481 144.589 26.5625C144.942 26.3769 145.324 26.2367 145.737 26.142C146.15 26.0473 146.567 25.9773 146.987 25.9318C147.518 25.8674 147.947 25.8163 148.277 25.7784C148.61 25.7367 148.86 25.6723 149.027 25.5852C149.197 25.4943 149.3 25.3466 149.334 25.142V25.0966C149.417 24.5966 149.345 24.2064 149.118 23.9261C148.894 23.642 148.504 23.5 147.947 23.5C147.368 23.5 146.881 23.6288 146.487 23.8864C146.093 24.1402 145.805 24.4223 145.624 24.733L144.163 24.3523C144.44 23.822 144.79 23.3958 145.214 23.0739C145.639 22.7519 146.099 22.5189 146.595 22.375C147.095 22.2311 147.601 22.1591 148.112 22.1591C148.446 22.1591 148.798 22.1989 149.169 22.2784C149.544 22.358 149.885 22.5057 150.192 22.7216C150.502 22.9337 150.733 23.2405 150.885 23.642C151.036 24.0436 151.059 24.5663 150.953 25.2102L149.993 31H148.391L148.595 29.8125H148.527C148.387 30.0246 148.19 30.2367 147.936 30.4489C147.682 30.661 147.37 30.839 146.999 30.983C146.631 31.1231 146.205 31.1932 145.72 31.1932ZM146.266 29.8636C146.747 29.8636 147.173 29.7689 147.544 29.5795C147.915 29.3864 148.216 29.1383 148.447 28.8352C148.679 28.5284 148.822 28.2008 148.879 27.8523L149.072 26.7045C149 26.7689 148.872 26.8277 148.686 26.8807C148.504 26.9299 148.298 26.9735 148.067 27.0114C147.839 27.0455 147.616 27.0777 147.396 27.108C147.18 27.1345 147.002 27.1572 146.862 27.1761C146.525 27.2216 146.209 27.2936 145.913 27.392C145.618 27.4905 145.37 27.6326 145.169 27.8182C144.972 28.0038 144.851 28.2519 144.805 28.5625C144.733 28.9905 144.836 29.3144 145.112 29.5341C145.389 29.7538 145.773 29.8636 146.266 29.8636ZM155.854 19.3636L153.922 31H152.291L154.223 19.3636H155.854ZM164.452 31H160.668L162.599 19.3636H166.412C167.552 19.3636 168.493 19.6023 169.236 20.0795C169.982 20.553 170.503 21.2311 170.798 22.1136C171.098 22.9924 171.145 24.0436 170.94 25.267C170.743 26.4602 170.359 27.4848 169.787 28.3409C169.215 29.197 168.478 29.8542 167.577 30.3125C166.675 30.7708 165.634 31 164.452 31ZM162.611 29.517H164.526C165.423 29.517 166.202 29.3428 166.861 28.9943C167.52 28.642 168.054 28.1345 168.463 27.4716C168.872 26.8049 169.154 26.0019 169.31 25.0625C169.465 24.161 169.452 23.3977 169.27 22.7727C169.092 22.1439 168.743 21.6667 168.224 21.3409C167.709 21.0114 167.022 20.8466 166.162 20.8466H164.048L162.611 29.517ZM174.595 31.1932C174.042 31.1932 173.557 31.0909 173.141 30.8864C172.728 30.678 172.423 30.3769 172.226 29.983C172.029 29.5852 171.978 29.1023 172.072 28.5341C172.156 28.0379 172.321 27.6326 172.567 27.3182C172.813 27 173.112 26.7481 173.464 26.5625C173.817 26.3769 174.199 26.2367 174.612 26.142C175.025 26.0473 175.442 25.9773 175.862 25.9318C176.393 25.8674 176.822 25.8163 177.152 25.7784C177.485 25.7367 177.735 25.6723 177.902 25.5852C178.072 25.4943 178.175 25.3466 178.209 25.142V25.0966C178.292 24.5966 178.22 24.2064 177.993 23.9261C177.769 23.642 177.379 23.5 176.822 23.5C176.243 23.5 175.756 23.6288 175.362 23.8864C174.968 24.1402 174.68 24.4223 174.499 24.733L173.038 24.3523C173.315 23.822 173.665 23.3958 174.089 23.0739C174.514 22.7519 174.974 22.5189 175.47 22.375C175.97 22.2311 176.476 22.1591 176.987 22.1591C177.321 22.1591 177.673 22.1989 178.044 22.2784C178.419 22.358 178.76 22.5057 179.067 22.7216C179.377 22.9337 179.608 23.2405 179.76 23.642C179.911 24.0436 179.934 24.5663 179.828 25.2102L178.868 31H177.266L177.47 29.8125H177.402C177.262 30.0246 177.065 30.2367 176.811 30.4489C176.557 30.661 176.245 30.839 175.874 30.983C175.506 31.1231 175.08 31.1932 174.595 31.1932ZM175.141 29.8636C175.622 29.8636 176.048 29.7689 176.419 29.5795C176.79 29.3864 177.091 29.1383 177.322 28.8352C177.554 28.5284 177.697 28.2008 177.754 27.8523L177.947 26.7045C177.875 26.7689 177.747 26.8277 177.561 26.8807C177.379 26.9299 177.173 26.9735 176.942 27.0114C176.714 27.0455 176.491 27.0777 176.271 27.108C176.055 27.1345 175.877 27.1572 175.737 27.1761C175.4 27.2216 175.084 27.2936 174.788 27.392C174.493 27.4905 174.245 27.6326 174.044 27.8182C173.847 28.0038 173.726 28.2519 173.68 28.5625C173.608 28.9905 173.711 29.3144 173.987 29.5341C174.264 29.7538 174.648 29.8636 175.141 29.8636ZM186.643 22.2727L186.428 23.5966H181.706L181.922 22.2727H186.643ZM183.547 20.1818H185.183L183.803 28.4489C183.75 28.786 183.759 29.0398 183.831 29.2102C183.903 29.3807 184.017 29.4962 184.172 29.5568C184.327 29.6136 184.498 29.642 184.683 29.642C184.823 29.642 184.943 29.6326 185.041 29.6136C185.143 29.5947 185.225 29.5795 185.286 29.5682L185.376 30.9375C185.263 30.9754 185.111 31.0133 184.922 31.0511C184.736 31.0928 184.509 31.1136 184.24 31.1136C183.804 31.1212 183.409 31.0417 183.053 30.875C182.7 30.7083 182.435 30.4527 182.257 30.108C182.079 29.7595 182.036 29.3239 182.126 28.8011L183.547 20.1818ZM189.611 31.1932C189.058 31.1932 188.573 31.0909 188.156 30.8864C187.743 30.678 187.438 30.3769 187.241 29.983C187.045 29.5852 186.993 29.1023 187.088 28.5341C187.171 28.0379 187.336 27.6326 187.582 27.3182C187.829 27 188.128 26.7481 188.48 26.5625C188.832 26.3769 189.215 26.2367 189.628 26.142C190.041 26.0473 190.457 25.9773 190.878 25.9318C191.408 25.8674 191.838 25.8163 192.168 25.7784C192.501 25.7367 192.751 25.6723 192.918 25.5852C193.088 25.4943 193.19 25.3466 193.224 25.142V25.0966C193.308 24.5966 193.236 24.2064 193.009 23.9261C192.785 23.642 192.395 23.5 191.838 23.5C191.259 23.5 190.772 23.6288 190.378 23.8864C189.984 24.1402 189.696 24.4223 189.514 24.733L188.054 24.3523C188.33 23.822 188.681 23.3958 189.105 23.0739C189.529 22.7519 189.99 22.5189 190.486 22.375C190.986 22.2311 191.491 22.1591 192.003 22.1591C192.336 22.1591 192.688 22.1989 193.06 22.2784C193.435 22.358 193.776 22.5057 194.082 22.7216C194.393 22.9337 194.624 23.2405 194.776 23.642C194.927 24.0436 194.95 24.5663 194.844 25.2102L193.884 31H192.281L192.486 29.8125H192.418C192.277 30.0246 192.08 30.2367 191.827 30.4489C191.573 30.661 191.26 30.839 190.889 30.983C190.522 31.1231 190.096 31.1932 189.611 31.1932ZM190.156 29.8636C190.637 29.8636 191.063 29.7689 191.435 29.5795C191.806 29.3864 192.107 29.1383 192.338 28.8352C192.569 28.5284 192.713 28.2008 192.77 27.8523L192.963 26.7045C192.891 26.7689 192.762 26.8277 192.577 26.8807C192.395 26.9299 192.188 26.9735 191.957 27.0114C191.73 27.0455 191.507 27.0777 191.287 27.108C191.071 27.1345 190.893 27.1572 190.753 27.1761C190.416 27.2216 190.099 27.2936 189.804 27.392C189.509 27.4905 189.26 27.6326 189.06 27.8182C188.863 28.0038 188.741 28.2519 188.696 28.5625C188.624 28.9905 188.726 29.3144 189.003 29.5341C189.279 29.7538 189.664 29.8636 190.156 29.8636Z" fill="black"/>
<g filter="url(#filter2_i_47_190)">
<path d="M10.5739 32L12.5057 20.3636H16.6136C17.5152 20.3636 18.2348 20.5284 18.7727 20.858C19.3144 21.1837 19.6837 21.6307 19.8807 22.1989C20.0814 22.767 20.1231 23.4053 20.0057 24.1136C19.8883 24.822 19.6345 25.4602 19.2443 26.0284C18.858 26.5966 18.339 27.0473 17.6875 27.3807C17.0398 27.714 16.267 27.8807 15.3693 27.8807H12.517L12.7557 26.4318H15.4602C16.0436 26.4318 16.5322 26.3314 16.9261 26.1307C17.3239 25.9299 17.6345 25.6553 17.858 25.3068C18.0852 24.9545 18.2348 24.5568 18.3068 24.1136C18.3788 23.6667 18.3598 23.2727 18.25 22.9318C18.1402 22.5871 17.9205 22.3163 17.5909 22.1193C17.2614 21.9223 16.803 21.8239 16.2159 21.8239H13.9659L12.267 32H10.5739ZM23.0795 32.1932C22.5265 32.1932 22.0417 32.0909 21.625 31.8864C21.2121 31.678 20.9072 31.3769 20.7102 30.983C20.5133 30.5852 20.4621 30.1023 20.5568 29.5341C20.6402 29.0379 20.8049 28.6326 21.0511 28.3182C21.2973 28 21.5966 27.7481 21.9489 27.5625C22.3011 27.3769 22.6837 27.2367 23.0966 27.142C23.5095 27.0473 23.9261 26.9773 24.3466 26.9318C24.8769 26.8674 25.3068 26.8163 25.6364 26.7784C25.9697 26.7367 26.2197 26.6723 26.3864 26.5852C26.5568 26.4943 26.6591 26.3466 26.6932 26.142V26.0966C26.7765 25.5966 26.7045 25.2064 26.4773 24.9261C26.2538 24.642 25.8636 24.5 25.3068 24.5C24.7273 24.5 24.2405 24.6288 23.8466 24.8864C23.4527 25.1402 23.1648 25.4223 22.983 25.733L21.5227 25.3523C21.7992 24.822 22.1496 24.3958 22.5739 24.0739C22.9981 23.7519 23.4583 23.5189 23.9545 23.375C24.4545 23.2311 24.9602 23.1591 25.4716 23.1591C25.8049 23.1591 26.1572 23.1989 26.5284 23.2784C26.9034 23.358 27.2443 23.5057 27.5511 23.7216C27.8617 23.9337 28.0928 24.2405 28.2443 24.642C28.3958 25.0436 28.4186 25.5663 28.3125 26.2102L27.3523 32H25.75L25.9545 30.8125H25.8864C25.7462 31.0246 25.5492 31.2367 25.2955 31.4489C25.0417 31.661 24.7292 31.839 24.358 31.983C23.9905 32.1231 23.5644 32.1932 23.0795 32.1932ZM23.625 30.8636C24.1061 30.8636 24.5322 30.7689 24.9034 30.5795C25.2746 30.3864 25.5758 30.1383 25.8068 29.8352C26.0379 29.5284 26.1818 29.2008 26.2386 28.8523L26.4318 27.7045C26.3598 27.7689 26.2311 27.8277 26.0455 27.8807C25.8636 27.9299 25.6572 27.9735 25.4261 28.0114C25.1989 28.0455 24.9754 28.0777 24.7557 28.108C24.5398 28.1345 24.3617 28.1572 24.2216 28.1761C23.8845 28.2216 23.5682 28.2936 23.2727 28.392C22.9773 28.4905 22.7292 28.6326 22.5284 28.8182C22.3314 29.0038 22.2102 29.2519 22.1648 29.5625C22.0928 29.9905 22.1951 30.3144 22.4716 30.5341C22.7481 30.7538 23.1326 30.8636 23.625 30.8636ZM35.1278 23.2727L34.9119 24.5966H30.1903L30.4062 23.2727H35.1278ZM32.0312 21.1818H33.6676L32.2869 29.4489C32.2339 29.786 32.2434 30.0398 32.3153 30.2102C32.3873 30.3807 32.5009 30.4962 32.6562 30.5568C32.8116 30.6136 32.982 30.642 33.1676 30.642C33.3078 30.642 33.4271 30.6326 33.5256 30.6136C33.6278 30.5947 33.7093 30.5795 33.7699 30.5682L33.8608 31.9375C33.7472 31.9754 33.5956 32.0133 33.4062 32.0511C33.2206 32.0928 32.9934 32.1136 32.7244 32.1136C32.2888 32.1212 31.893 32.0417 31.5369 31.875C31.1847 31.7083 30.9195 31.4527 30.7415 31.108C30.5634 30.7595 30.5199 30.3239 30.6108 29.8011L32.0312 21.1818ZM35.5724 32L37.027 23.2727H38.6577L37.2031 32H35.5724ZM38.2088 21.8864C37.9209 21.8864 37.6766 21.7898 37.4759 21.5966C37.2751 21.3996 37.1804 21.1648 37.1918 20.892C37.2031 20.6193 37.3149 20.3864 37.527 20.1932C37.7429 19.9962 37.9948 19.8977 38.2827 19.8977C38.5705 19.8977 38.813 19.9962 39.0099 20.1932C39.2107 20.3864 39.3054 20.6193 39.294 20.892C39.2865 21.1648 39.1747 21.3996 38.9588 21.5966C38.7467 21.7898 38.4967 21.8864 38.2088 21.8864ZM43.2472 32.1761C42.3949 32.1761 41.6903 31.9924 41.1335 31.625C40.5767 31.2538 40.1866 30.733 39.9631 30.0625C39.7434 29.3883 39.7074 28.6004 39.8551 27.6989C40.0028 26.8011 40.2983 26.0114 40.7415 25.3295C41.1884 24.6477 41.7453 24.1155 42.4119 23.733C43.0824 23.3504 43.8191 23.1591 44.6222 23.1591C45.107 23.1591 45.5653 23.2405 45.9972 23.4034C46.4328 23.5625 46.804 23.8163 47.1108 24.1648C47.4214 24.5095 47.6354 24.9602 47.7528 25.517C47.8741 26.0739 47.8684 26.7481 47.7358 27.5398L47.6392 28.1364H40.7415L40.9347 26.8807H46.2244C46.304 26.4299 46.2812 26.0284 46.1562 25.6761C46.035 25.3201 45.8248 25.0398 45.5256 24.8352C45.2301 24.6307 44.857 24.5284 44.4062 24.5284C43.9403 24.5284 43.5066 24.6515 43.1051 24.8977C42.7036 25.1402 42.3684 25.4489 42.0994 25.8239C41.8305 26.1989 41.6619 26.5871 41.5938 26.9886L41.4062 28.1193C41.304 28.7708 41.321 29.2936 41.4574 29.6875C41.5975 30.0814 41.84 30.3674 42.1847 30.5455C42.5294 30.7197 42.9631 30.8068 43.4858 30.8068C43.8229 30.8068 44.1335 30.7614 44.4176 30.6705C44.7017 30.5758 44.9555 30.4356 45.179 30.25C45.4025 30.0606 45.59 29.8258 45.7415 29.5455L47.2415 29.8466C47.0331 30.3125 46.7339 30.7216 46.3438 31.0739C45.9574 31.4223 45.5009 31.6932 44.9744 31.8864C44.4517 32.0795 43.8759 32.1761 43.2472 32.1761ZM51.4261 26.8068L50.5682 32H48.9318L50.3864 23.2727H51.9602L51.7216 24.6875H51.8352C52.108 24.2254 52.483 23.8561 52.9602 23.5795C53.4375 23.2992 54.0038 23.1591 54.6591 23.1591C55.2462 23.1591 55.7424 23.2822 56.1477 23.5284C56.553 23.7746 56.839 24.142 57.0057 24.6307C57.1761 25.1193 57.2027 25.7254 57.0852 26.4489L56.1534 32H54.517L55.4091 26.6364C55.5152 25.9962 55.4318 25.4943 55.1591 25.1307C54.8902 24.767 54.4621 24.5852 53.875 24.5852C53.4735 24.5852 53.1023 24.6723 52.7614 24.8466C52.4205 25.017 52.1326 25.2689 51.8977 25.6023C51.6667 25.9318 51.5095 26.3333 51.4261 26.8068ZM63.9247 23.2727L63.7088 24.5966H58.9872L59.2031 23.2727H63.9247ZM60.8281 21.1818H62.4645L61.0838 29.4489C61.0308 29.786 61.0402 30.0398 61.1122 30.2102C61.1842 30.3807 61.2978 30.4962 61.4531 30.5568C61.6084 30.6136 61.7789 30.642 61.9645 30.642C62.1046 30.642 62.224 30.6326 62.3224 30.6136C62.4247 30.5947 62.5062 30.5795 62.5668 30.5682L62.6577 31.9375C62.544 31.9754 62.3925 32.0133 62.2031 32.0511C62.0175 32.0928 61.7902 32.1136 61.5213 32.1136C61.0857 32.1212 60.6899 32.0417 60.3338 31.875C59.9815 31.7083 59.7164 31.4527 59.5384 31.108C59.3603 30.7595 59.3168 30.3239 59.4077 29.8011L60.8281 21.1818Z" fill="black"/>
</g>
<path d="M126.199 46.3636L124.267 58H122.574L124.506 46.3636H126.199ZM134.308 51.375L132.786 51.6591C132.748 51.4583 132.676 51.267 132.57 51.0852C132.464 50.9034 132.303 50.7557 132.087 50.642C131.871 50.5284 131.585 50.4716 131.229 50.4716C130.729 50.4716 130.293 50.5852 129.922 50.8125C129.554 51.0398 129.344 51.3277 129.291 51.6761C129.238 51.9678 129.304 52.2027 129.49 52.3807C129.679 52.5549 130.005 52.7008 130.467 52.8182L131.791 53.1364C132.56 53.322 133.111 53.6098 133.445 54C133.778 54.3902 133.893 54.8977 133.791 55.5227C133.704 56.0379 133.479 56.4962 133.115 56.8977C132.751 57.2955 132.287 57.608 131.723 57.8352C131.159 58.0625 130.53 58.1761 129.837 58.1761C128.859 58.1761 128.098 57.9697 127.553 57.5568C127.007 57.1402 126.725 56.5511 126.706 55.7898L128.325 55.5227C128.356 55.9583 128.511 56.2879 128.791 56.5114C129.075 56.7311 129.471 56.8409 129.979 56.8409C130.554 56.8447 131.037 56.7235 131.428 56.4773C131.818 56.2273 132.037 55.928 132.087 55.5795C132.14 55.303 132.081 55.0739 131.911 54.892C131.744 54.7102 131.454 54.572 131.041 54.4773L129.632 54.1477C128.844 53.9583 128.289 53.6591 127.967 53.25C127.645 52.8409 127.537 52.3258 127.643 51.7045C127.731 51.197 127.946 50.7538 128.291 50.375C128.64 49.9924 129.081 49.6951 129.615 49.483C130.153 49.267 130.744 49.1591 131.388 49.1591C132.323 49.1591 133.024 49.3598 133.49 49.7614C133.96 50.1629 134.232 50.7008 134.308 51.375ZM142.839 51.375L141.317 51.6591C141.279 51.4583 141.207 51.267 141.101 51.0852C140.995 50.9034 140.834 50.7557 140.618 50.642C140.402 50.5284 140.116 50.4716 139.76 50.4716C139.26 50.4716 138.824 50.5852 138.453 50.8125C138.086 51.0398 137.875 51.3277 137.822 51.6761C137.769 51.9678 137.836 52.2027 138.021 52.3807C138.211 52.5549 138.536 52.7008 138.999 52.8182L140.322 53.1364C141.091 53.322 141.643 53.6098 141.976 54C142.309 54.3902 142.425 54.8977 142.322 55.5227C142.235 56.0379 142.01 56.4962 141.646 56.8977C141.283 57.2955 140.819 57.608 140.254 57.8352C139.69 58.0625 139.061 58.1761 138.368 58.1761C137.391 58.1761 136.629 57.9697 136.084 57.5568C135.538 57.1402 135.256 56.5511 135.237 55.7898L136.857 55.5227C136.887 55.9583 137.042 56.2879 137.322 56.5114C137.607 56.7311 138.002 56.8409 138.51 56.8409C139.086 56.8447 139.569 56.7235 139.959 56.4773C140.349 56.2273 140.569 55.928 140.618 55.5795C140.671 55.303 140.612 55.0739 140.442 54.892C140.275 54.7102 139.985 54.572 139.572 54.4773L138.163 54.1477C137.375 53.9583 136.821 53.6591 136.499 53.25C136.177 52.8409 136.069 52.3258 136.175 51.7045C136.262 51.197 136.478 50.7538 136.822 50.375C137.171 49.9924 137.612 49.6951 138.146 49.483C138.684 49.267 139.275 49.1591 139.919 49.1591C140.855 49.1591 141.555 49.3598 142.021 49.7614C142.491 50.1629 142.764 50.7008 142.839 51.375ZM149.911 54.392L150.768 49.2727H152.405L150.95 58H149.342L149.592 56.4943H149.501C149.232 56.9564 148.85 57.3428 148.354 57.6534C147.857 57.9602 147.28 58.1136 146.621 58.1136C146.064 58.1136 145.59 57.9905 145.2 57.7443C144.814 57.4981 144.539 57.1307 144.376 56.642C144.214 56.1534 144.193 55.5473 144.314 54.8239L145.246 49.2727H146.876L145.984 54.6364C145.89 55.2386 145.979 55.7197 146.251 56.0795C146.528 56.4356 146.931 56.6136 147.462 56.6136C147.784 56.6136 148.117 56.5341 148.462 56.375C148.81 56.2121 149.119 55.9678 149.388 55.642C149.657 55.3125 149.831 54.8958 149.911 54.392ZM156.982 58.1761C156.129 58.1761 155.425 57.9924 154.868 57.625C154.311 57.2538 153.921 56.733 153.697 56.0625C153.478 55.3883 153.442 54.6004 153.589 53.6989C153.737 52.8011 154.033 52.0114 154.476 51.3295C154.923 50.6477 155.48 50.1155 156.146 49.733C156.817 49.3504 157.554 49.1591 158.357 49.1591C158.841 49.1591 159.3 49.2405 159.732 49.4034C160.167 49.5625 160.538 49.8163 160.845 50.1648C161.156 50.5095 161.37 50.9602 161.487 51.517C161.608 52.0739 161.603 52.7481 161.47 53.5398L161.374 54.1364H154.476L154.669 52.8807H159.959C160.038 52.4299 160.016 52.0284 159.891 51.6761C159.769 51.3201 159.559 51.0398 159.26 50.8352C158.964 50.6307 158.591 50.5284 158.141 50.5284C157.675 50.5284 157.241 50.6515 156.839 50.8977C156.438 51.1402 156.103 51.4489 155.834 51.8239C155.565 52.1989 155.396 52.5871 155.328 52.9886L155.141 54.1193C155.038 54.7708 155.055 55.2936 155.192 55.6875C155.332 56.0814 155.574 56.3674 155.919 56.5455C156.264 56.7197 156.697 56.8068 157.22 56.8068C157.557 56.8068 157.868 56.7614 158.152 56.6705C158.436 56.5758 158.69 56.4356 158.913 56.25C159.137 56.0606 159.324 55.8258 159.476 55.5455L160.976 55.8466C160.768 56.3125 160.468 56.7216 160.078 57.0739C159.692 57.4223 159.235 57.6932 158.709 57.8864C158.186 58.0795 157.61 58.1761 156.982 58.1761ZM167.089 58L169.021 46.3636H173.129C174.031 46.3636 174.75 46.5284 175.288 46.858C175.83 47.1837 176.199 47.6307 176.396 48.1989C176.597 48.767 176.639 49.4053 176.521 50.1136C176.404 50.822 176.15 51.4602 175.76 52.0284C175.374 52.5966 174.855 53.0473 174.203 53.3807C173.555 53.714 172.783 53.8807 171.885 53.8807H169.033L169.271 52.4318H171.976C172.559 52.4318 173.048 52.3314 173.442 52.1307C173.839 51.9299 174.15 51.6553 174.374 51.3068C174.601 50.9545 174.75 50.5568 174.822 50.1136C174.894 49.6667 174.875 49.2727 174.766 48.9318C174.656 48.5871 174.436 48.3163 174.107 48.1193C173.777 47.9223 173.319 47.8239 172.732 47.8239H170.482L168.783 58H167.089ZM177.135 58L178.589 49.2727H180.169L179.936 50.6477H180.027C180.258 50.1856 180.601 49.8201 181.055 49.5511C181.51 49.2784 181.995 49.142 182.51 49.142C182.616 49.142 182.739 49.1439 182.879 49.1477C183.023 49.1515 183.137 49.161 183.22 49.1761L182.959 50.7557C182.898 50.7367 182.783 50.7159 182.612 50.6932C182.442 50.6667 182.268 50.6534 182.089 50.6534C181.684 50.6534 181.309 50.7386 180.964 50.9091C180.62 51.0795 180.33 51.3144 180.095 51.6136C179.864 51.9129 179.716 52.2538 179.652 52.6364L178.766 58H177.135ZM186.7 58.1761C185.848 58.1761 185.143 57.9924 184.587 57.625C184.03 57.2538 183.64 56.733 183.416 56.0625C183.196 55.3883 183.161 54.6004 183.308 53.6989C183.456 52.8011 183.751 52.0114 184.195 51.3295C184.642 50.6477 185.198 50.1155 185.865 49.733C186.536 49.3504 187.272 49.1591 188.075 49.1591C188.56 49.1591 189.018 49.2405 189.45 49.4034C189.886 49.5625 190.257 49.8163 190.564 50.1648C190.875 50.5095 191.089 50.9602 191.206 51.517C191.327 52.0739 191.321 52.7481 191.189 53.5398L191.092 54.1364H184.195L184.388 52.8807H189.678C189.757 52.4299 189.734 52.0284 189.609 51.6761C189.488 51.3201 189.278 51.0398 188.979 50.8352C188.683 50.6307 188.31 50.5284 187.859 50.5284C187.393 50.5284 186.96 50.6515 186.558 50.8977C186.157 51.1402 185.821 51.4489 185.553 51.8239C185.284 52.1989 185.115 52.5871 185.047 52.9886L184.859 54.1193C184.757 54.7708 184.774 55.2936 184.911 55.6875C185.051 56.0814 185.293 56.3674 185.638 56.5455C185.982 56.7197 186.416 56.8068 186.939 56.8068C187.276 56.8068 187.587 56.7614 187.871 56.6705C188.155 56.5758 188.409 56.4356 188.632 56.25C188.856 56.0606 189.043 55.8258 189.195 55.5455L190.695 55.8466C190.486 56.3125 190.187 56.7216 189.797 57.0739C189.411 57.4223 188.954 57.6932 188.428 57.8864C187.905 58.0795 187.329 58.1761 186.7 58.1761ZM199.964 51.375L198.442 51.6591C198.404 51.4583 198.332 51.267 198.226 51.0852C198.12 50.9034 197.959 50.7557 197.743 50.642C197.527 50.5284 197.241 50.4716 196.885 50.4716C196.385 50.4716 195.949 50.5852 195.578 50.8125C195.211 51.0398 195 51.3277 194.947 51.6761C194.894 51.9678 194.961 52.2027 195.146 52.3807C195.336 52.5549 195.661 52.7008 196.124 52.8182L197.447 53.1364C198.216 53.322 198.768 53.6098 199.101 54C199.434 54.3902 199.55 54.8977 199.447 55.5227C199.36 56.0379 199.135 56.4962 198.771 56.8977C198.408 57.2955 197.944 57.608 197.379 57.8352C196.815 58.0625 196.186 58.1761 195.493 58.1761C194.516 58.1761 193.754 57.9697 193.209 57.5568C192.663 57.1402 192.381 56.5511 192.362 55.7898L193.982 55.5227C194.012 55.9583 194.167 56.2879 194.447 56.5114C194.732 56.7311 195.127 56.8409 195.635 56.8409C196.211 56.8447 196.694 56.7235 197.084 56.4773C197.474 56.2273 197.694 55.928 197.743 55.5795C197.796 55.303 197.737 55.0739 197.567 54.892C197.4 54.7102 197.11 54.572 196.697 54.4773L195.288 54.1477C194.5 53.9583 193.946 53.6591 193.624 53.25C193.302 52.8409 193.194 52.3258 193.3 51.7045C193.387 51.197 193.603 50.7538 193.947 50.375C194.296 49.9924 194.737 49.6951 195.271 49.483C195.809 49.267 196.4 49.1591 197.044 49.1591C197.98 49.1591 198.68 49.3598 199.146 49.7614C199.616 50.1629 199.889 50.7008 199.964 51.375ZM204.547 58.1761C203.702 58.1761 203.009 57.9848 202.467 57.6023C201.929 57.2159 201.554 56.6837 201.342 56.0057C201.134 55.3277 201.102 54.5511 201.246 53.6761C201.39 52.7898 201.683 52.0076 202.126 51.3295C202.573 50.6477 203.13 50.1155 203.797 49.733C204.467 49.3504 205.21 49.1591 206.024 49.1591C206.679 49.1591 207.244 49.2803 207.717 49.5227C208.191 49.7614 208.551 50.0985 208.797 50.5341C209.043 50.9659 209.151 51.4735 209.121 52.0568H207.518C207.492 51.6477 207.339 51.2955 207.058 51C206.778 50.7008 206.365 50.5511 205.82 50.5511C205.335 50.5511 204.89 50.678 204.484 50.9318C204.079 51.1818 203.738 51.5379 203.462 52C203.185 52.4621 202.996 53.0076 202.893 53.6364C202.787 54.2765 202.793 54.8333 202.911 55.3068C203.032 55.7765 203.251 56.1402 203.57 56.3977C203.892 56.6515 204.297 56.7784 204.786 56.7784C205.115 56.7784 205.422 56.7197 205.706 56.6023C205.994 56.4811 206.248 56.3087 206.467 56.0852C206.687 55.8617 206.861 55.5928 206.99 55.2784H208.587C208.424 55.8352 208.153 56.3314 207.774 56.767C207.395 57.2027 206.931 57.5473 206.382 57.8011C205.837 58.0511 205.225 58.1761 204.547 58.1761ZM209.979 58L211.433 49.2727H213.013L212.78 50.6477H212.871C213.102 50.1856 213.445 49.8201 213.899 49.5511C214.354 49.2784 214.839 49.142 215.354 49.142C215.46 49.142 215.583 49.1439 215.723 49.1477C215.867 49.1515 215.981 49.161 216.064 49.1761L215.803 50.7557C215.742 50.7367 215.626 50.7159 215.456 50.6932C215.286 50.6667 215.111 50.6534 214.933 50.6534C214.528 50.6534 214.153 50.7386 213.808 50.9091C213.464 51.0795 213.174 51.3144 212.939 51.6136C212.708 51.9129 212.56 52.2538 212.496 52.6364L211.609 58H209.979ZM216.119 58L217.574 49.2727H219.205L217.75 58H216.119ZM218.756 47.8864C218.468 47.8864 218.223 47.7898 218.023 47.5966C217.822 47.3996 217.727 47.1648 217.739 46.892C217.75 46.6193 217.862 46.3864 218.074 46.1932C218.29 45.9962 218.542 45.8977 218.83 45.8977C219.117 45.8977 219.36 45.9962 219.557 46.1932C219.758 46.3864 219.852 46.6193 219.841 46.892C219.833 47.1648 219.722 47.3996 219.506 47.5966C219.294 47.7898 219.044 47.8864 218.756 47.8864ZM219.527 61.2727L221.538 49.2727H223.135L222.902 50.6818H223.044C223.173 50.5076 223.347 50.3011 223.567 50.0625C223.79 49.8239 224.084 49.6136 224.447 49.4318C224.811 49.25 225.266 49.1591 225.811 49.1591C226.519 49.1591 227.12 49.339 227.612 49.6989C228.105 50.0549 228.453 50.5682 228.658 51.2386C228.866 51.9091 228.893 52.714 228.737 53.6534C228.582 54.5928 228.29 55.3996 227.862 56.0739C227.434 56.7481 226.915 57.267 226.305 57.6307C225.696 57.9905 225.036 58.1705 224.328 58.1705C223.79 58.1705 223.368 58.0814 223.061 57.9034C222.758 57.7254 222.533 57.517 222.385 57.2784C222.237 57.036 222.127 56.8239 222.055 56.642H221.947L221.175 61.2727H219.527ZM222.419 53.6364C222.317 54.2576 222.315 54.803 222.413 55.2727C222.516 55.7424 222.718 56.1098 223.021 56.375C223.324 56.6364 223.724 56.767 224.22 56.767C224.739 56.767 225.194 56.6307 225.584 56.358C225.974 56.0814 226.296 55.7064 226.55 55.233C226.807 54.7595 226.985 54.2273 227.084 53.6364C227.179 53.053 227.177 52.5303 227.078 52.0682C226.98 51.6023 226.781 51.2348 226.482 50.9659C226.182 50.697 225.771 50.5625 225.249 50.5625C224.745 50.5625 224.298 50.6913 223.908 50.9489C223.521 51.2027 223.201 51.5606 222.947 52.0227C222.694 52.4848 222.518 53.0227 222.419 53.6364ZM235.409 49.2727L235.193 50.5966H230.472L230.688 49.2727H235.409ZM232.312 47.1818H233.949L232.568 55.4489C232.515 55.786 232.525 56.0398 232.597 56.2102C232.669 56.3807 232.782 56.4962 232.938 56.5568C233.093 56.6136 233.263 56.642 233.449 56.642C233.589 56.642 233.708 56.6326 233.807 56.6136C233.909 56.5947 233.991 56.5795 234.051 56.5682L234.142 57.9375C234.028 57.9754 233.877 58.0133 233.688 58.0511C233.502 58.0928 233.275 58.1136 233.006 58.1136C232.57 58.1212 232.174 58.0417 231.818 57.875C231.466 57.7083 231.201 57.4527 231.023 57.108C230.845 56.7595 230.801 56.3239 230.892 55.8011L232.312 47.1818ZM235.854 58L237.308 49.2727H238.939L237.484 58H235.854ZM238.49 47.8864C238.202 47.8864 237.958 47.7898 237.757 47.5966C237.556 47.3996 237.462 47.1648 237.473 46.892C237.484 46.6193 237.596 46.3864 237.808 46.1932C238.024 45.9962 238.276 45.8977 238.564 45.8977C238.852 45.8977 239.094 45.9962 239.291 46.1932C239.492 46.3864 239.587 46.6193 239.575 46.892C239.568 47.1648 239.456 47.3996 239.24 47.5966C239.028 47.7898 238.778 47.8864 238.49 47.8864ZM243.5 58.1761C242.674 58.1761 241.985 57.9867 241.432 57.608C240.879 57.2254 240.489 56.6913 240.261 56.0057C240.038 55.3163 240 54.5152 240.148 53.6023C240.292 52.7083 240.581 51.928 241.017 51.2614C241.453 50.5947 242 50.0777 242.659 49.7102C243.318 49.3428 244.049 49.1591 244.852 49.1591C245.678 49.1591 246.366 49.3504 246.915 49.733C247.468 50.1155 247.858 50.6515 248.085 51.3409C248.313 52.0303 248.352 52.8352 248.205 53.7557C248.061 54.642 247.767 55.4167 247.324 56.0795C246.884 56.7424 246.337 57.2576 245.682 57.625C245.03 57.9924 244.303 58.1761 243.5 58.1761ZM243.585 56.7898C244.142 56.7898 244.627 56.6439 245.04 56.3523C245.456 56.0606 245.795 55.6723 246.057 55.1875C246.322 54.7027 246.502 54.1723 246.597 53.5966C246.684 53.0473 246.682 52.5417 246.591 52.0795C246.5 51.6136 246.307 51.2405 246.011 50.9602C245.716 50.6799 245.301 50.5398 244.767 50.5398C244.21 50.5398 243.722 50.6875 243.301 50.983C242.884 51.2784 242.545 51.6705 242.284 52.1591C242.023 52.6439 241.847 53.1742 241.756 53.75C241.669 54.2992 241.669 54.8049 241.756 55.267C241.847 55.7292 242.04 56.0985 242.335 56.375C242.634 56.6515 243.051 56.7898 243.585 56.7898ZM251.926 52.8068L251.068 58H249.432L250.886 49.2727H252.46L252.222 50.6875H252.335C252.608 50.2254 252.983 49.8561 253.46 49.5795C253.938 49.2992 254.504 49.1591 255.159 49.1591C255.746 49.1591 256.242 49.2822 256.648 49.5284C257.053 49.7746 257.339 50.142 257.506 50.6307C257.676 51.1193 257.703 51.7254 257.585 52.4489L256.653 58H255.017L255.909 52.6364C256.015 51.9962 255.932 51.4943 255.659 51.1307C255.39 50.767 254.962 50.5852 254.375 50.5852C253.973 50.5852 253.602 50.6723 253.261 50.8466C252.92 51.017 252.633 51.2689 252.398 51.6023C252.167 51.9318 252.009 52.3333 251.926 52.8068Z" fill="black"/>
<path d="M126.199 82.3636L124.267 94H122.574L124.506 82.3636H126.199ZM134.308 87.375L132.786 87.6591C132.748 87.4583 132.676 87.267 132.57 87.0852C132.464 86.9034 132.303 86.7557 132.087 86.642C131.871 86.5284 131.585 86.4716 131.229 86.4716C130.729 86.4716 130.293 86.5852 129.922 86.8125C129.554 87.0398 129.344 87.3277 129.291 87.6761C129.238 87.9678 129.304 88.2027 129.49 88.3807C129.679 88.5549 130.005 88.7008 130.467 88.8182L131.791 89.1364C132.56 89.322 133.111 89.6098 133.445 90C133.778 90.3902 133.893 90.8977 133.791 91.5227C133.704 92.0379 133.479 92.4962 133.115 92.8977C132.751 93.2955 132.287 93.608 131.723 93.8352C131.159 94.0625 130.53 94.1761 129.837 94.1761C128.859 94.1761 128.098 93.9697 127.553 93.5568C127.007 93.1402 126.725 92.5511 126.706 91.7898L128.325 91.5227C128.356 91.9583 128.511 92.2879 128.791 92.5114C129.075 92.7311 129.471 92.8409 129.979 92.8409C130.554 92.8447 131.037 92.7235 131.428 92.4773C131.818 92.2273 132.037 91.928 132.087 91.5795C132.14 91.303 132.081 91.0739 131.911 90.892C131.744 90.7102 131.454 90.572 131.041 90.4773L129.632 90.1477C128.844 89.9583 128.289 89.6591 127.967 89.25C127.645 88.8409 127.537 88.3258 127.643 87.7045C127.731 87.197 127.946 86.7538 128.291 86.375C128.64 85.9924 129.081 85.6951 129.615 85.483C130.153 85.267 130.744 85.1591 131.388 85.1591C132.323 85.1591 133.024 85.3598 133.49 85.7614C133.96 86.1629 134.232 86.7008 134.308 87.375ZM142.839 87.375L141.317 87.6591C141.279 87.4583 141.207 87.267 141.101 87.0852C140.995 86.9034 140.834 86.7557 140.618 86.642C140.402 86.5284 140.116 86.4716 139.76 86.4716C139.26 86.4716 138.824 86.5852 138.453 86.8125C138.086 87.0398 137.875 87.3277 137.822 87.6761C137.769 87.9678 137.836 88.2027 138.021 88.3807C138.211 88.5549 138.536 88.7008 138.999 88.8182L140.322 89.1364C141.091 89.322 141.643 89.6098 141.976 90C142.309 90.3902 142.425 90.8977 142.322 91.5227C142.235 92.0379 142.01 92.4962 141.646 92.8977C141.283 93.2955 140.819 93.608 140.254 93.8352C139.69 94.0625 139.061 94.1761 138.368 94.1761C137.391 94.1761 136.629 93.9697 136.084 93.5568C135.538 93.1402 135.256 92.5511 135.237 91.7898L136.857 91.5227C136.887 91.9583 137.042 92.2879 137.322 92.5114C137.607 92.7311 138.002 92.8409 138.51 92.8409C139.086 92.8447 139.569 92.7235 139.959 92.4773C140.349 92.2273 140.569 91.928 140.618 91.5795C140.671 91.303 140.612 91.0739 140.442 90.892C140.275 90.7102 139.985 90.572 139.572 90.4773L138.163 90.1477C137.375 89.9583 136.821 89.6591 136.499 89.25C136.177 88.8409 136.069 88.3258 136.175 87.7045C136.262 87.197 136.478 86.7538 136.822 86.375C137.171 85.9924 137.612 85.6951 138.146 85.483C138.684 85.267 139.275 85.1591 139.919 85.1591C140.855 85.1591 141.555 85.3598 142.021 85.7614C142.491 86.1629 142.764 86.7008 142.839 87.375ZM149.911 90.392L150.768 85.2727H152.405L150.95 94H149.342L149.592 92.4943H149.501C149.232 92.9564 148.85 93.3428 148.354 93.6534C147.857 93.9602 147.28 94.1136 146.621 94.1136C146.064 94.1136 145.59 93.9905 145.2 93.7443C144.814 93.4981 144.539 93.1307 144.376 92.642C144.214 92.1534 144.193 91.5473 144.314 90.8239L145.246 85.2727H146.876L145.984 90.6364C145.89 91.2386 145.979 91.7197 146.251 92.0795C146.528 92.4356 146.931 92.6136 147.462 92.6136C147.784 92.6136 148.117 92.5341 148.462 92.375C148.81 92.2121 149.119 91.9678 149.388 91.642C149.657 91.3125 149.831 90.8958 149.911 90.392ZM156.982 94.1761C156.129 94.1761 155.425 93.9924 154.868 93.625C154.311 93.2538 153.921 92.733 153.697 92.0625C153.478 91.3883 153.442 90.6004 153.589 89.6989C153.737 88.8011 154.033 88.0114 154.476 87.3295C154.923 86.6477 155.48 86.1155 156.146 85.733C156.817 85.3504 157.554 85.1591 158.357 85.1591C158.841 85.1591 159.3 85.2405 159.732 85.4034C160.167 85.5625 160.538 85.8163 160.845 86.1648C161.156 86.5095 161.37 86.9602 161.487 87.517C161.608 88.0739 161.603 88.7481 161.47 89.5398L161.374 90.1364H154.476L154.669 88.8807H159.959C160.038 88.4299 160.016 88.0284 159.891 87.6761C159.769 87.3201 159.559 87.0398 159.26 86.8352C158.964 86.6307 158.591 86.5284 158.141 86.5284C157.675 86.5284 157.241 86.6515 156.839 86.8977C156.438 87.1402 156.103 87.4489 155.834 87.8239C155.565 88.1989 155.396 88.5871 155.328 88.9886L155.141 90.1193C155.038 90.7708 155.055 91.2936 155.192 91.6875C155.332 92.0814 155.574 92.3674 155.919 92.5455C156.264 92.7197 156.697 92.8068 157.22 92.8068C157.557 92.8068 157.868 92.7614 158.152 92.6705C158.436 92.5758 158.69 92.4356 158.913 92.25C159.137 92.0606 159.324 91.8258 159.476 91.5455L160.976 91.8466C160.768 92.3125 160.468 92.7216 160.078 93.0739C159.692 93.4223 159.235 93.6932 158.709 93.8864C158.186 94.0795 157.61 94.1761 156.982 94.1761ZM169.021 82.3636H171.072L173.311 91.517H173.447L178.709 82.3636H180.76L178.828 94H177.22L178.635 85.5057H178.527L173.646 93.983H172.277L170.232 85.5H170.118L168.697 94H167.089L169.021 82.3636ZM185.013 94.1761C184.161 94.1761 183.456 93.9924 182.899 93.625C182.342 93.2538 181.952 92.733 181.729 92.0625C181.509 91.3883 181.473 90.6004 181.621 89.6989C181.768 88.8011 182.064 88.0114 182.507 87.3295C182.954 86.6477 183.511 86.1155 184.178 85.733C184.848 85.3504 185.585 85.1591 186.388 85.1591C186.873 85.1591 187.331 85.2405 187.763 85.4034C188.198 85.5625 188.57 85.8163 188.876 86.1648C189.187 86.5095 189.401 86.9602 189.518 87.517C189.64 88.0739 189.634 88.7481 189.501 89.5398L189.405 90.1364H182.507L182.7 88.8807H187.99C188.07 88.4299 188.047 88.0284 187.922 87.6761C187.801 87.3201 187.59 87.0398 187.291 86.8352C186.996 86.6307 186.623 86.5284 186.172 86.5284C185.706 86.5284 185.272 86.6515 184.871 86.8977C184.469 87.1402 184.134 87.4489 183.865 87.8239C183.596 88.1989 183.428 88.5871 183.359 88.9886L183.172 90.1193C183.07 90.7708 183.087 91.2936 183.223 91.6875C183.363 92.0814 183.606 92.3674 183.95 92.5455C184.295 92.7197 184.729 92.8068 185.251 92.8068C185.589 92.8068 185.899 92.7614 186.183 92.6705C186.467 92.5758 186.721 92.4356 186.945 92.25C187.168 92.0606 187.356 91.8258 187.507 91.5455L189.007 91.8466C188.799 92.3125 188.5 92.7216 188.109 93.0739C187.723 93.4223 187.267 93.6932 186.74 93.8864C186.217 94.0795 185.642 94.1761 185.013 94.1761ZM193.959 94.1705C193.243 94.1705 192.639 93.9905 192.146 93.6307C191.658 93.267 191.311 92.7481 191.107 92.0739C190.906 91.3996 190.881 90.5928 191.033 89.6534C191.192 88.714 191.485 87.9091 191.913 87.2386C192.341 86.5682 192.862 86.0549 193.476 85.6989C194.089 85.339 194.75 85.1591 195.459 85.1591C196.004 85.1591 196.427 85.25 196.726 85.4318C197.029 85.6136 197.252 85.8239 197.396 86.0625C197.54 86.3011 197.646 86.5076 197.714 86.6818H197.817L198.538 82.3636H200.175L198.243 94H196.646L196.879 92.642H196.732C196.599 92.8239 196.417 93.036 196.186 93.2784C195.959 93.517 195.663 93.7254 195.3 93.9034C194.94 94.0814 194.493 94.1705 193.959 94.1705ZM194.487 92.767C194.983 92.767 195.429 92.6364 195.822 92.375C196.22 92.1098 196.55 91.7424 196.811 91.2727C197.076 90.803 197.26 90.2576 197.362 89.6364C197.468 89.0227 197.466 88.4848 197.357 88.0227C197.25 87.5606 197.042 87.2027 196.732 86.9489C196.425 86.6913 196.018 86.5625 195.51 86.5625C194.991 86.5625 194.538 86.697 194.152 86.9659C193.766 87.2348 193.449 87.6023 193.203 88.0682C192.961 88.5303 192.792 89.053 192.697 89.6364C192.599 90.2273 192.595 90.7595 192.686 91.233C192.777 91.7064 192.97 92.0814 193.266 92.358C193.565 92.6307 193.972 92.767 194.487 92.767ZM200.697 94L202.152 85.2727H203.783L202.328 94H200.697ZM203.334 83.8864C203.046 83.8864 202.802 83.7898 202.601 83.5966C202.4 83.3996 202.305 83.1648 202.317 82.892C202.328 82.6193 202.44 82.3864 202.652 82.1932C202.868 81.9962 203.12 81.8977 203.408 81.8977C203.696 81.8977 203.938 81.9962 204.135 82.1932C204.336 82.3864 204.43 82.6193 204.419 82.892C204.411 83.1648 204.3 83.3996 204.084 83.5966C203.872 83.7898 203.622 83.8864 203.334 83.8864ZM208.281 94.1761C207.437 94.1761 206.743 93.9848 206.202 93.6023C205.664 93.2159 205.289 92.6837 205.077 92.0057C204.868 91.3277 204.836 90.5511 204.98 89.6761C205.124 88.7898 205.418 88.0076 205.861 87.3295C206.308 86.6477 206.865 86.1155 207.531 85.733C208.202 85.3504 208.944 85.1591 209.759 85.1591C210.414 85.1591 210.978 85.2803 211.452 85.5227C211.925 85.7614 212.285 86.0985 212.531 86.5341C212.777 86.9659 212.885 87.4735 212.855 88.0568H211.253C211.226 87.6477 211.073 87.2955 210.793 87C210.512 86.7008 210.099 86.5511 209.554 86.5511C209.069 86.5511 208.624 86.678 208.219 86.9318C207.813 87.1818 207.473 87.5379 207.196 88C206.92 88.4621 206.73 89.0076 206.628 89.6364C206.522 90.2765 206.527 90.8333 206.645 91.3068C206.766 91.7765 206.986 92.1402 207.304 92.3977C207.626 92.6515 208.031 92.7784 208.52 92.7784C208.849 92.7784 209.156 92.7197 209.44 92.6023C209.728 92.4811 209.982 92.3087 210.202 92.0852C210.421 91.8617 210.596 91.5928 210.724 91.2784H212.321C212.158 91.8352 211.887 92.3314 211.509 92.767C211.13 93.2027 210.666 93.5473 210.116 93.8011C209.571 94.0511 208.959 94.1761 208.281 94.1761ZM216.236 94.1932C215.683 94.1932 215.198 94.0909 214.781 93.8864C214.368 93.678 214.063 93.3769 213.866 92.983C213.67 92.5852 213.618 92.1023 213.713 91.5341C213.796 91.0379 213.961 90.6326 214.207 90.3182C214.454 90 214.753 89.7481 215.105 89.5625C215.457 89.3769 215.84 89.2367 216.253 89.142C216.666 89.0473 217.082 88.9773 217.503 88.9318C218.033 88.8674 218.463 88.8163 218.793 88.7784C219.126 88.7367 219.376 88.6723 219.543 88.5852C219.713 88.4943 219.815 88.3466 219.849 88.142V88.0966C219.933 87.5966 219.861 87.2064 219.634 86.9261C219.41 86.642 219.02 86.5 218.463 86.5C217.884 86.5 217.397 86.6288 217.003 86.8864C216.609 87.1402 216.321 87.4223 216.139 87.733L214.679 87.3523C214.955 86.822 215.306 86.3958 215.73 86.0739C216.154 85.7519 216.615 85.5189 217.111 85.375C217.611 85.2311 218.116 85.1591 218.628 85.1591C218.961 85.1591 219.313 85.1989 219.685 85.2784C220.06 85.358 220.401 85.5057 220.707 85.7216C221.018 85.9337 221.249 86.2405 221.401 86.642C221.552 87.0436 221.575 87.5663 221.469 88.2102L220.509 94H218.906L219.111 92.8125H219.043C218.902 93.0246 218.705 93.2367 218.452 93.4489C218.198 93.661 217.885 93.839 217.514 93.983C217.147 94.1231 216.721 94.1932 216.236 94.1932ZM216.781 92.8636C217.262 92.8636 217.688 92.7689 218.06 92.5795C218.431 92.3864 218.732 92.1383 218.963 91.8352C219.194 91.5284 219.338 91.2008 219.395 90.8523L219.588 89.7045C219.516 89.7689 219.387 89.8277 219.202 89.8807C219.02 89.9299 218.813 89.9735 218.582 90.0114C218.355 90.0455 218.132 90.0777 217.912 90.108C217.696 90.1345 217.518 90.1572 217.378 90.1761C217.041 90.2216 216.724 90.2936 216.429 90.392C216.134 90.4905 215.885 90.6326 215.685 90.8182C215.488 91.0038 215.366 91.2519 215.321 91.5625C215.249 91.9905 215.351 92.3144 215.628 92.5341C215.904 92.7538 216.289 92.8636 216.781 92.8636ZM226.369 82.3636L224.438 94H222.807L224.739 82.3636H226.369ZM242.092 86.1193H240.411C240.403 85.7367 240.331 85.3996 240.195 85.108C240.062 84.8163 239.878 84.5701 239.643 84.3693C239.409 84.1648 239.136 84.0114 238.825 83.9091C238.515 83.8068 238.179 83.7557 237.82 83.7557C237.126 83.7557 236.475 83.9318 235.865 84.2841C235.255 84.6326 234.734 85.1439 234.303 85.8182C233.875 86.4924 233.581 87.3163 233.422 88.2898C233.267 89.2292 233.287 90.0189 233.484 90.6591C233.681 91.2992 234.013 91.7841 234.479 92.1136C234.945 92.4432 235.505 92.608 236.161 92.608C236.543 92.608 236.916 92.5568 237.28 92.4545C237.647 92.3523 237.988 92.2027 238.303 92.0057C238.617 91.8049 238.897 91.5606 239.143 91.2727C239.39 90.9811 239.581 90.6477 239.717 90.2727H241.422C241.225 90.8485 240.952 91.375 240.604 91.8523C240.259 92.3295 239.852 92.7405 239.382 93.0852C238.916 93.4299 238.405 93.6951 237.848 93.8807C237.295 94.0663 236.71 94.1591 236.092 94.1591C235.07 94.1591 234.198 93.9129 233.479 93.4205C232.759 92.928 232.244 92.2292 231.933 91.3239C231.623 90.4148 231.571 89.3314 231.78 88.0739C231.984 86.8542 232.38 85.8068 232.967 84.9318C233.554 84.053 234.272 83.3788 235.121 82.9091C235.973 82.4394 236.893 82.2045 237.882 82.2045C238.5 82.2045 239.064 82.2936 239.575 82.4716C240.09 82.6458 240.536 82.9015 240.911 83.2386C241.286 83.5758 241.575 83.9867 241.78 84.4716C241.988 84.9527 242.092 85.5019 242.092 86.1193ZM246.513 94.1761C245.661 94.1761 244.956 93.9924 244.399 93.625C243.842 93.2538 243.452 92.733 243.229 92.0625C243.009 91.3883 242.973 90.6004 243.121 89.6989C243.268 88.8011 243.564 88.0114 244.007 87.3295C244.454 86.6477 245.011 86.1155 245.678 85.733C246.348 85.3504 247.085 85.1591 247.888 85.1591C248.373 85.1591 248.831 85.2405 249.263 85.4034C249.698 85.5625 250.07 85.8163 250.376 86.1648C250.687 86.5095 250.901 86.9602 251.018 87.517C251.14 88.0739 251.134 88.7481 251.001 89.5398L250.905 90.1364H244.007L244.2 88.8807H249.49C249.57 88.4299 249.547 88.0284 249.422 87.6761C249.301 87.3201 249.09 87.0398 248.791 86.8352C248.496 86.6307 248.123 86.5284 247.672 86.5284C247.206 86.5284 246.772 86.6515 246.371 86.8977C245.969 87.1402 245.634 87.4489 245.365 87.8239C245.096 88.1989 244.928 88.5871 244.859 88.9886L244.672 90.1193C244.57 90.7708 244.587 91.2936 244.723 91.6875C244.863 92.0814 245.106 92.3674 245.45 92.5455C245.795 92.7197 246.229 92.8068 246.751 92.8068C247.089 92.8068 247.399 92.7614 247.683 92.6705C247.967 92.5758 248.221 92.4356 248.445 92.25C248.668 92.0606 248.856 91.8258 249.007 91.5455L250.507 91.8466C250.299 92.3125 250 92.7216 249.609 93.0739C249.223 93.4223 248.767 93.6932 248.24 93.8864C247.717 94.0795 247.142 94.1761 246.513 94.1761ZM252.197 94L253.652 85.2727H255.232L254.999 86.6477H255.089C255.321 86.1856 255.663 85.8201 256.118 85.5511C256.572 85.2784 257.057 85.142 257.572 85.142C257.679 85.142 257.802 85.1439 257.942 85.1477C258.086 85.1515 258.199 85.161 258.283 85.1761L258.021 86.7557C257.961 86.7367 257.845 86.7159 257.675 86.6932C257.504 86.6667 257.33 86.6534 257.152 86.6534C256.747 86.6534 256.372 86.7386 256.027 86.9091C255.682 87.0795 255.393 87.3144 255.158 87.6136C254.927 87.9129 254.779 88.2538 254.714 88.6364L253.828 94H252.197ZM264.331 85.2727L264.115 86.5966H259.393L259.609 85.2727H264.331ZM261.234 83.1818H262.871L261.49 91.4489C261.437 91.786 261.446 92.0398 261.518 92.2102C261.59 92.3807 261.704 92.4962 261.859 92.5568C262.015 92.6136 262.185 92.642 262.371 92.642C262.511 92.642 262.63 92.6326 262.729 92.6136C262.831 92.5947 262.912 92.5795 262.973 92.5682L263.064 93.9375C262.95 93.9754 262.799 94.0133 262.609 94.0511C262.424 94.0928 262.196 94.1136 261.928 94.1136C261.492 94.1212 261.096 94.0417 260.74 93.875C260.388 93.7083 260.123 93.4527 259.945 93.108C259.767 92.7595 259.723 92.3239 259.814 91.8011L261.234 83.1818ZM264.776 94L266.23 85.2727H267.861L266.406 94H264.776ZM267.412 83.8864C267.124 83.8864 266.88 83.7898 266.679 83.5966C266.478 83.3996 266.384 83.1648 266.395 82.892C266.406 82.6193 266.518 82.3864 266.73 82.1932C266.946 81.9962 267.198 81.8977 267.486 81.8977C267.774 81.8977 268.016 81.9962 268.213 82.1932C268.414 82.3864 268.509 82.6193 268.497 82.892C268.49 83.1648 268.378 83.3996 268.162 83.5966C267.95 83.7898 267.7 83.8864 267.412 83.8864ZM274.291 85.2727L274.075 86.5966H269.183L269.399 85.2727H274.291ZM269.303 94L270.933 84.2273C271.017 83.6894 271.206 83.2424 271.501 82.8864C271.801 82.5303 272.161 82.2633 272.581 82.0852C273.001 81.9072 273.439 81.8182 273.893 81.8182C274.234 81.8182 274.517 81.8466 274.74 81.9034C274.967 81.9564 275.134 82.0057 275.24 82.0511L274.626 83.3864C274.554 83.3636 274.46 83.3371 274.342 83.3068C274.225 83.2727 274.075 83.2557 273.893 83.2557C273.477 83.2557 273.161 83.3598 272.945 83.5682C272.732 83.7727 272.59 84.072 272.518 84.4659L270.939 94H269.303ZM274.604 94L276.058 85.2727H277.689L276.234 94H274.604ZM277.24 83.8864C276.952 83.8864 276.708 83.7898 276.507 83.5966C276.306 83.3996 276.212 83.1648 276.223 82.892C276.234 82.6193 276.346 82.3864 276.558 82.1932C276.774 81.9962 277.026 81.8977 277.314 81.8977C277.602 81.8977 277.844 81.9962 278.041 82.1932C278.242 82.3864 278.337 82.6193 278.325 82.892C278.318 83.1648 278.206 83.3996 277.99 83.5966C277.778 83.7898 277.528 83.8864 277.24 83.8864ZM282.188 94.1761C281.343 94.1761 280.65 93.9848 280.108 93.6023C279.57 93.2159 279.195 92.6837 278.983 92.0057C278.775 91.3277 278.742 90.5511 278.886 89.6761C279.03 88.7898 279.324 88.0076 279.767 87.3295C280.214 86.6477 280.771 86.1155 281.438 85.733C282.108 85.3504 282.85 85.1591 283.665 85.1591C284.32 85.1591 284.884 85.2803 285.358 85.5227C285.831 85.7614 286.191 86.0985 286.438 86.5341C286.684 86.9659 286.792 87.4735 286.761 88.0568H285.159C285.133 87.6477 284.979 87.2955 284.699 87C284.419 86.7008 284.006 86.5511 283.46 86.5511C282.975 86.5511 282.53 86.678 282.125 86.9318C281.72 87.1818 281.379 87.5379 281.102 88C280.826 88.4621 280.636 89.0076 280.534 89.6364C280.428 90.2765 280.434 90.8333 280.551 91.3068C280.672 91.7765 280.892 92.1402 281.21 92.3977C281.532 92.6515 281.938 92.7784 282.426 92.7784C282.756 92.7784 283.062 92.7197 283.347 92.6023C283.634 92.4811 283.888 92.3087 284.108 92.0852C284.328 91.8617 284.502 91.5928 284.631 91.2784H286.227C286.064 91.8352 285.794 92.3314 285.415 92.767C285.036 93.2027 284.572 93.5473 284.023 93.8011C283.477 94.0511 282.866 94.1761 282.188 94.1761ZM290.142 94.1932C289.589 94.1932 289.104 94.0909 288.688 93.8864C288.275 93.678 287.97 93.3769 287.773 92.983C287.576 92.5852 287.525 92.1023 287.619 91.5341C287.703 91.0379 287.867 90.6326 288.114 90.3182C288.36 90 288.659 89.7481 289.011 89.5625C289.364 89.3769 289.746 89.2367 290.159 89.142C290.572 89.0473 290.989 88.9773 291.409 88.9318C291.939 88.8674 292.369 88.8163 292.699 88.7784C293.032 88.7367 293.282 88.6723 293.449 88.5852C293.619 88.4943 293.722 88.3466 293.756 88.142V88.0966C293.839 87.5966 293.767 87.2064 293.54 86.9261C293.316 86.642 292.926 86.5 292.369 86.5C291.79 86.5 291.303 86.6288 290.909 86.8864C290.515 87.1402 290.227 87.4223 290.045 87.733L288.585 87.3523C288.862 86.822 289.212 86.3958 289.636 86.0739C290.061 85.7519 290.521 85.5189 291.017 85.375C291.517 85.2311 292.023 85.1591 292.534 85.1591C292.867 85.1591 293.22 85.1989 293.591 85.2784C293.966 85.358 294.307 85.5057 294.614 85.7216C294.924 85.9337 295.155 86.2405 295.307 86.642C295.458 87.0436 295.481 87.5663 295.375 88.2102L294.415 94H292.812L293.017 92.8125H292.949C292.809 93.0246 292.612 93.2367 292.358 93.4489C292.104 93.661 291.792 93.839 291.42 93.983C291.053 94.1231 290.627 94.1932 290.142 94.1932ZM290.688 92.8636C291.169 92.8636 291.595 92.7689 291.966 92.5795C292.337 92.3864 292.638 92.1383 292.869 91.8352C293.1 91.5284 293.244 91.2008 293.301 90.8523L293.494 89.7045C293.422 89.7689 293.294 89.8277 293.108 89.8807C292.926 89.9299 292.72 89.9735 292.489 90.0114C292.261 90.0455 292.038 90.0777 291.818 90.108C291.602 90.1345 291.424 90.1572 291.284 90.1761C290.947 90.2216 290.631 90.2936 290.335 90.392C290.04 90.4905 289.792 90.6326 289.591 90.8182C289.394 91.0038 289.273 91.2519 289.227 91.5625C289.155 91.9905 289.258 92.3144 289.534 92.5341C289.811 92.7538 290.195 92.8636 290.688 92.8636ZM302.19 85.2727L301.974 86.5966H297.253L297.469 85.2727H302.19ZM299.094 83.1818H300.73L299.349 91.4489C299.296 91.786 299.306 92.0398 299.378 92.2102C299.45 92.3807 299.563 92.4962 299.719 92.5568C299.874 92.6136 300.045 92.642 300.23 92.642C300.37 92.642 300.49 92.6326 300.588 92.6136C300.69 92.5947 300.772 92.5795 300.832 92.5682L300.923 93.9375C300.81 93.9754 300.658 94.0133 300.469 94.0511C300.283 94.0928 300.056 94.1136 299.787 94.1136C299.351 94.1212 298.955 94.0417 298.599 93.875C298.247 93.7083 297.982 93.4527 297.804 93.108C297.626 92.7595 297.582 92.3239 297.673 91.8011L299.094 83.1818ZM306.263 94.1761C305.411 94.1761 304.706 93.9924 304.149 93.625C303.592 93.2538 303.202 92.733 302.979 92.0625C302.759 91.3883 302.723 90.6004 302.871 89.6989C303.018 88.8011 303.314 88.0114 303.757 87.3295C304.204 86.6477 304.761 86.1155 305.428 85.733C306.098 85.3504 306.835 85.1591 307.638 85.1591C308.123 85.1591 308.581 85.2405 309.013 85.4034C309.448 85.5625 309.82 85.8163 310.126 86.1648C310.437 86.5095 310.651 86.9602 310.768 87.517C310.89 88.0739 310.884 88.7481 310.751 89.5398L310.655 90.1364H303.757L303.95 88.8807H309.24C309.32 88.4299 309.297 88.0284 309.172 87.6761C309.051 87.3201 308.84 87.0398 308.541 86.8352C308.246 86.6307 307.873 86.5284 307.422 86.5284C306.956 86.5284 306.522 86.6515 306.121 86.8977C305.719 87.1402 305.384 87.4489 305.115 87.8239C304.846 88.1989 304.678 88.5871 304.609 88.9886L304.422 90.1193C304.32 90.7708 304.337 91.2936 304.473 91.6875C304.613 92.0814 304.856 92.3674 305.2 92.5455C305.545 92.7197 305.979 92.8068 306.501 92.8068C306.839 92.8068 307.149 92.7614 307.433 92.6705C307.717 92.5758 307.971 92.4356 308.195 92.25C308.418 92.0606 308.606 91.8258 308.757 91.5455L310.257 91.8466C310.049 92.3125 309.75 92.7216 309.359 93.0739C308.973 93.4223 308.517 93.6932 307.99 93.8864C307.467 94.0795 306.892 94.1761 306.263 94.1761Z" fill="black"/>
<path d="M212.466 30H210.676L216.807 18.3636H218.733L221 30H219.21L217.483 20.4261H217.392L212.466 30ZM213.574 25.4489H219.602L219.364 26.8807H213.335L213.574 25.4489ZM226.078 30.1761C225.233 30.1761 224.54 29.9848 223.999 29.6023C223.461 29.2159 223.086 28.6837 222.874 28.0057C222.665 27.3277 222.633 26.5511 222.777 25.6761C222.921 24.7898 223.214 24.0076 223.658 23.3295C224.105 22.6477 224.661 22.1155 225.328 21.733C225.999 21.3504 226.741 21.1591 227.555 21.1591C228.211 21.1591 228.775 21.2803 229.249 21.5227C229.722 21.7614 230.082 22.0985 230.328 22.5341C230.574 22.9659 230.682 23.4735 230.652 24.0568H229.05C229.023 23.6477 228.87 23.2955 228.589 23C228.309 22.7008 227.896 22.5511 227.351 22.5511C226.866 22.5511 226.421 22.678 226.016 22.9318C225.61 23.1818 225.269 23.5379 224.993 24C224.716 24.4621 224.527 25.0076 224.425 25.6364C224.319 26.2765 224.324 26.8333 224.442 27.3068C224.563 27.7765 224.783 28.1402 225.101 28.3977C225.423 28.6515 225.828 28.7784 226.317 28.7784C226.646 28.7784 226.953 28.7197 227.237 28.6023C227.525 28.4811 227.779 28.3087 227.999 28.0852C228.218 27.8617 228.393 27.5928 228.521 27.2784H230.118C229.955 27.8352 229.684 28.3314 229.305 28.767C228.927 29.2027 228.463 29.5473 227.913 29.8011C227.368 30.0511 226.756 30.1761 226.078 30.1761ZM235.141 30.1761C234.296 30.1761 233.603 29.9848 233.061 29.6023C232.523 29.2159 232.148 28.6837 231.936 28.0057C231.728 27.3277 231.696 26.5511 231.839 25.6761C231.983 24.7898 232.277 24.0076 232.72 23.3295C233.167 22.6477 233.724 22.1155 234.391 21.733C235.061 21.3504 235.804 21.1591 236.618 21.1591C237.273 21.1591 237.838 21.2803 238.311 21.5227C238.785 21.7614 239.144 22.0985 239.391 22.5341C239.637 22.9659 239.745 23.4735 239.714 24.0568H238.112C238.086 23.6477 237.932 23.2955 237.652 23C237.372 22.7008 236.959 22.5511 236.413 22.5511C235.929 22.5511 235.483 22.678 235.078 22.9318C234.673 23.1818 234.332 23.5379 234.055 24C233.779 24.4621 233.589 25.0076 233.487 25.6364C233.381 26.2765 233.387 26.8333 233.504 27.3068C233.625 27.7765 233.845 28.1402 234.163 28.3977C234.485 28.6515 234.891 28.7784 235.379 28.7784C235.709 28.7784 236.016 28.7197 236.3 28.6023C236.588 28.4811 236.841 28.3087 237.061 28.0852C237.281 27.8617 237.455 27.5928 237.584 27.2784H239.18C239.018 27.8352 238.747 28.3314 238.368 28.767C237.989 29.2027 237.525 29.5473 236.976 29.8011C236.43 30.0511 235.819 30.1761 235.141 30.1761ZM244.266 30.1761C243.44 30.1761 242.75 29.9867 242.197 29.608C241.644 29.2254 241.254 28.6913 241.027 28.0057C240.804 27.3163 240.766 26.5152 240.913 25.6023C241.057 24.7083 241.347 23.928 241.783 23.2614C242.218 22.5947 242.766 22.0777 243.425 21.7102C244.084 21.3428 244.815 21.1591 245.618 21.1591C246.444 21.1591 247.131 21.3504 247.68 21.733C248.233 22.1155 248.624 22.6515 248.851 23.3409C249.078 24.0303 249.118 24.8352 248.97 25.7557C248.826 26.642 248.533 27.4167 248.089 28.0795C247.65 28.7424 247.103 29.2576 246.447 29.625C245.796 29.9924 245.069 30.1761 244.266 30.1761ZM244.351 28.7898C244.908 28.7898 245.393 28.6439 245.805 28.3523C246.222 28.0606 246.561 27.6723 246.822 27.1875C247.088 26.7027 247.268 26.1723 247.362 25.5966C247.449 25.0473 247.447 24.5417 247.357 24.0795C247.266 23.6136 247.072 23.2405 246.777 22.9602C246.482 22.6799 246.067 22.5398 245.533 22.5398C244.976 22.5398 244.487 22.6875 244.067 22.983C243.65 23.2784 243.311 23.6705 243.05 24.1591C242.788 24.6439 242.612 25.1742 242.521 25.75C242.434 26.2992 242.434 26.8049 242.521 27.267C242.612 27.7292 242.805 28.0985 243.101 28.375C243.4 28.6515 243.817 28.7898 244.351 28.7898ZM256.317 26.392L257.175 21.2727H258.811L257.357 30H255.749L255.999 28.4943H255.908C255.639 28.9564 255.256 29.3428 254.76 29.6534C254.264 29.9602 253.686 30.1136 253.027 30.1136C252.47 30.1136 251.997 29.9905 251.607 29.7443C251.22 29.4981 250.946 29.1307 250.783 28.642C250.62 28.1534 250.599 27.5473 250.72 26.8239L251.652 21.2727H253.283L252.391 26.6364C252.296 27.2386 252.385 27.7197 252.658 28.0795C252.934 28.4356 253.338 28.6136 253.868 28.6136C254.19 28.6136 254.523 28.5341 254.868 28.375C255.216 28.2121 255.525 27.9678 255.794 27.642C256.063 27.3125 256.237 26.8958 256.317 26.392ZM262.161 24.8068L261.303 30H259.666L261.121 21.2727H262.695L262.456 22.6875H262.57C262.842 22.2254 263.217 21.8561 263.695 21.5795C264.172 21.2992 264.738 21.1591 265.393 21.1591C265.981 21.1591 266.477 21.2822 266.882 21.5284C267.287 21.7746 267.573 22.142 267.74 22.6307C267.911 23.1193 267.937 23.7254 267.82 24.4489L266.888 30H265.251L266.143 24.6364C266.25 23.9962 266.166 23.4943 265.893 23.1307C265.625 22.767 265.196 22.5852 264.609 22.5852C264.208 22.5852 263.837 22.6723 263.496 22.8466C263.155 23.017 262.867 23.2689 262.632 23.6023C262.401 23.9318 262.244 24.3333 262.161 24.8068ZM274.659 21.2727L274.443 22.5966H269.722L269.938 21.2727H274.659ZM271.562 19.1818H273.199L271.818 27.4489C271.765 27.786 271.775 28.0398 271.847 28.2102C271.919 28.3807 272.032 28.4962 272.188 28.5568C272.343 28.6136 272.513 28.642 272.699 28.642C272.839 28.642 272.958 28.6326 273.057 28.6136C273.159 28.5947 273.241 28.5795 273.301 28.5682L273.392 29.9375C273.278 29.9754 273.127 30.0133 272.938 30.0511C272.752 30.0928 272.525 30.1136 272.256 30.1136C271.82 30.1212 271.424 30.0417 271.068 29.875C270.716 29.7083 270.451 29.4527 270.273 29.108C270.095 28.7595 270.051 28.3239 270.142 27.8011L271.562 19.1818Z" fill="black"/>
<defs>
<filter id="filter0_i_47_190" x="96" y="39" width="241" height="84" filterUnits="userSpaceOnUse" color-interpolation-filters="sRGB">
<feFlood flood-opacity="0" result="BackgroundImageFix"/>
<feBlend mode="normal" in="SourceGraphic" in2="BackgroundImageFix" result="shape"/>
<feColorMatrix in="SourceAlpha" type="matrix" values="0 0 0 0 0 0 0 0 0 0 0 0 0 0 0 0 0 0 127 0" result="hardAlpha"/>
<feOffset dy="4"/>
<feGaussianBlur stdDeviation="2"/>
<feComposite in2="hardAlpha" operator="arithmetic" k2="-1" k3="1"/>
<feColorMatrix type="matrix" values="0 0 0 0 0 0 0 0 0 0 0 0 0 0 0 0 0 0 0.25 0"/>
<feBlend mode="normal" in2="shape" result="effect1_innerShadow_47_190"/>
</filter>
<filter id="filter1_i_47_190" x="96" y="15" width="101" height="24" filterUnits="userSpaceOnUse" color-interpolation-filters="sRGB">
<feFlood flood-opacity="0" result="BackgroundImageFix"/>
<feBlend mode="normal" in="SourceGraphic" in2="BackgroundImageFix" result="shape"/>
<feColorMatrix in="SourceAlpha" type="matrix" values="0 0 0 0 0 0 0 0 0 0 0 0 0 0 0 0 0 0 127 0" result="hardAlpha"/>
<feOffset dy="4"/>
<feGaussianBlur stdDeviation="2"/>
<feComposite in2="hardAlpha" operator="arithmetic" k2="-1" k3="1"/>
<feColorMatrix type="matrix" values="0 0 0 0 0 0 0 0 0 0 0 0 0 0 0 0 0 0 0.25 0"/>
<feBlend mode="normal" in2="shape" result="effect1_innerShadow_47_190"/>
</filter>
<filter id="filter2_i_47_190" x="10.5739" y="19.8977" width="53.3509" height="16.2955" filterUnits="userSpaceOnUse" color-interpolation-filters="sRGB">
<feFlood flood-opacity="0" result="BackgroundImageFix"/>
<feBlend mode="normal" in="SourceGraphic" in2="BackgroundImageFix" result="shape"/>
<feColorMatrix in="SourceAlpha" type="matrix" values="0 0 0 0 0 0 0 0 0 0 0 0 0 0 0 0 0 0 127 0" result="hardAlpha"/>
<feOffset dy="4"/>
<feGaussianBlur stdDeviation="2"/>
<feComposite in2="hardAlpha" operator="arithmetic" k2="-1" k3="1"/>
<feColorMatrix type="matrix" values="0 0 0 0 0 0 0 0 0 0 0 0 0 0 0 0 0 0 0.25 0"/>
<feBlend mode="normal" in2="shape" result="effect1_innerShadow_47_190"/>
</filter>
</defs>
</svg>
