<svg width="765" height="490" viewBox="0 0 765 490" fill="none" xmlns="http://www.w3.org/2000/svg">
<rect width="765" height="490" fill="#FFA826"/>
<rect x="207" y="94" width="351" height="302" rx="25" fill="#464DF4"/>
<rect x="231.5" y="129.5" width="307" height="54" fill="#464DF4" stroke="#ECECEC"/>
<rect x="243" y="111" width="86" height="41" fill="#464DF4"/>
<path d="M256.513 123.273H257.787L256.837 129.021C256.734 129.629 256.501 130.169 256.138 130.641C255.774 131.109 255.31 131.477 254.744 131.744C254.182 132.011 253.554 132.145 252.861 132.145C252.165 132.145 251.58 132.011 251.105 131.744C250.634 131.477 250.294 131.109 250.087 130.641C249.879 130.169 249.827 129.629 249.929 129.021L250.879 123.273H252.149L251.212 128.915C251.149 129.315 251.18 129.672 251.305 129.984C251.43 130.294 251.641 130.538 251.936 130.717C252.234 130.893 252.608 130.982 253.057 130.982C253.509 130.982 253.912 130.893 254.267 130.717C254.625 130.538 254.916 130.294 255.141 129.984C255.368 129.672 255.513 129.315 255.575 128.915L256.513 123.273ZM265.37 125.789L263.942 126.055C263.907 125.867 263.839 125.688 263.74 125.517C263.641 125.347 263.49 125.208 263.287 125.102C263.085 124.995 262.817 124.942 262.483 124.942C262.014 124.942 261.606 125.049 261.258 125.262C260.913 125.475 260.716 125.745 260.667 126.071C260.617 126.345 260.679 126.565 260.853 126.732C261.031 126.895 261.336 127.032 261.769 127.142L263.01 127.44C263.731 127.614 264.248 127.884 264.56 128.25C264.873 128.616 264.981 129.092 264.885 129.678C264.804 130.161 264.592 130.59 264.251 130.967C263.911 131.339 263.475 131.632 262.946 131.846C262.417 132.059 261.828 132.165 261.178 132.165C260.262 132.165 259.548 131.972 259.037 131.585C258.525 131.194 258.261 130.642 258.243 129.928L259.761 129.678C259.789 130.086 259.935 130.395 260.198 130.604C260.464 130.81 260.835 130.913 261.311 130.913C261.851 130.917 262.304 130.803 262.669 130.572C263.035 130.338 263.241 130.058 263.287 129.731C263.337 129.472 263.282 129.257 263.122 129.086C262.966 128.916 262.694 128.786 262.307 128.697L260.986 128.388C260.248 128.211 259.727 127.93 259.425 127.547C259.124 127.163 259.022 126.68 259.122 126.098C259.203 125.622 259.406 125.207 259.729 124.852C260.056 124.493 260.469 124.214 260.97 124.015C261.474 123.813 262.028 123.712 262.632 123.712C263.509 123.712 264.166 123.9 264.603 124.276C265.043 124.653 265.299 125.157 265.37 125.789ZM269.751 132.165C268.952 132.165 268.292 131.993 267.77 131.648C267.248 131.3 266.882 130.812 266.672 130.184C266.466 129.551 266.433 128.813 266.571 127.968C266.71 127.126 266.987 126.386 267.402 125.746C267.821 125.107 268.343 124.608 268.968 124.25C269.597 123.891 270.287 123.712 271.04 123.712C271.495 123.712 271.925 123.788 272.329 123.941C272.738 124.09 273.086 124.328 273.373 124.654C273.665 124.978 273.865 125.4 273.975 125.922C274.089 126.444 274.084 127.076 273.959 127.819L273.869 128.378H267.402L267.583 127.201H272.542C272.617 126.778 272.596 126.402 272.479 126.071C272.365 125.738 272.168 125.475 271.887 125.283C271.61 125.091 271.26 124.995 270.838 124.995C270.401 124.995 269.994 125.111 269.618 125.342C269.242 125.569 268.927 125.858 268.675 126.21C268.423 126.561 268.265 126.925 268.201 127.302L268.025 128.362C267.93 128.973 267.945 129.463 268.073 129.832C268.205 130.201 268.432 130.469 268.755 130.636C269.078 130.8 269.485 130.881 269.975 130.881C270.291 130.881 270.582 130.839 270.849 130.754C271.115 130.665 271.353 130.533 271.562 130.359C271.772 130.182 271.948 129.962 272.09 129.699L273.496 129.981C273.301 130.418 273.02 130.801 272.654 131.132C272.292 131.458 271.864 131.712 271.371 131.893C270.881 132.075 270.341 132.165 269.751 132.165ZM275.081 132L276.444 123.818H277.925L277.707 125.107H277.792C278.009 124.674 278.33 124.331 278.756 124.079C279.182 123.824 279.637 123.696 280.12 123.696C280.219 123.696 280.335 123.697 280.466 123.701C280.601 123.705 280.707 123.713 280.786 123.728L280.54 125.208C280.484 125.191 280.375 125.171 280.216 125.15C280.056 125.125 279.892 125.113 279.725 125.113C279.346 125.113 278.994 125.192 278.671 125.352C278.348 125.512 278.076 125.732 277.856 126.013C277.639 126.293 277.501 126.613 277.44 126.972L276.609 132H275.081ZM286.023 122.46L286.247 121.091H294.642L294.418 122.46H291.009L289.427 132H287.845L289.427 122.46H286.023ZM294.124 135.068C293.889 135.068 293.68 135.049 293.495 135.01C293.314 134.974 293.179 134.937 293.09 134.898L293.681 133.63C293.962 133.708 294.214 133.737 294.438 133.715C294.662 133.694 294.871 133.598 295.066 133.428C295.265 133.257 295.468 132.987 295.674 132.618L295.983 132.059L294.374 123.818H295.956L296.995 130.216H297.08L300.255 123.818H301.959L297.037 133.103C296.803 133.539 296.54 133.903 296.249 134.195C295.961 134.486 295.64 134.704 295.285 134.85C294.93 134.995 294.543 135.068 294.124 135.068ZM301.61 135.068L303.496 123.818H304.993L304.774 125.139H304.907C305.028 124.976 305.192 124.782 305.398 124.559C305.607 124.335 305.882 124.138 306.223 123.967C306.564 123.797 306.99 123.712 307.502 123.712C308.166 123.712 308.729 123.88 309.19 124.218C309.652 124.551 309.979 125.033 310.17 125.661C310.366 126.29 310.39 127.044 310.245 127.925C310.099 128.806 309.826 129.562 309.425 130.194C309.023 130.826 308.537 131.313 307.965 131.654C307.393 131.991 306.775 132.16 306.111 132.16C305.607 132.16 305.211 132.076 304.923 131.909C304.639 131.743 304.428 131.547 304.29 131.324C304.151 131.096 304.048 130.897 303.981 130.727H303.879L303.155 135.068H301.61ZM304.322 127.909C304.226 128.491 304.224 129.003 304.316 129.443C304.412 129.884 304.602 130.228 304.886 130.477C305.17 130.722 305.545 130.844 306.01 130.844C306.497 130.844 306.923 130.716 307.289 130.461C307.654 130.201 307.956 129.85 308.194 129.406C308.436 128.962 308.602 128.463 308.695 127.909C308.784 127.362 308.782 126.872 308.689 126.439C308.597 126.002 308.411 125.658 308.13 125.406C307.85 125.153 307.464 125.027 306.974 125.027C306.502 125.027 306.083 125.148 305.717 125.39C305.355 125.627 305.055 125.963 304.817 126.396C304.579 126.83 304.414 127.334 304.322 127.909ZM314.854 132.165C314.055 132.165 313.394 131.993 312.872 131.648C312.35 131.3 311.984 130.812 311.775 130.184C311.569 129.551 311.535 128.813 311.674 127.968C311.812 127.126 312.089 126.386 312.505 125.746C312.924 125.107 313.446 124.608 314.071 124.25C314.699 123.891 315.39 123.712 316.143 123.712C316.597 123.712 317.027 123.788 317.432 123.941C317.84 124.09 318.188 124.328 318.476 124.654C318.767 124.978 318.968 125.4 319.078 125.922C319.191 126.444 319.186 127.076 319.062 127.819L318.971 128.378H312.505L312.686 127.201H317.645C317.72 126.778 317.698 126.402 317.581 126.071C317.467 125.738 317.27 125.475 316.99 125.283C316.713 125.091 316.363 124.995 315.94 124.995C315.504 124.995 315.097 125.111 314.721 125.342C314.344 125.569 314.03 125.858 313.778 126.21C313.526 126.561 313.368 126.925 313.304 127.302L313.128 128.362C313.032 128.973 313.048 129.463 313.176 129.832C313.307 130.201 313.535 130.469 313.858 130.636C314.181 130.8 314.587 130.881 315.078 130.881C315.394 130.881 315.685 130.839 315.951 130.754C316.217 130.665 316.455 130.533 316.665 130.359C316.874 130.182 317.05 129.962 317.192 129.699L318.598 129.981C318.403 130.418 318.123 130.801 317.757 131.132C317.395 131.458 316.967 131.712 316.473 131.893C315.983 132.075 315.443 132.165 314.854 132.165Z" fill="black"/>
<ellipse cx="249" cy="162.5" rx="6" ry="5.5" fill="#D9D9D9"/>
<ellipse cx="462" cy="162.5" rx="6" ry="5.5" fill="#D9D9D9"/>
<path d="M368 162.5C368 165.538 365.314 168 362 168C358.686 168 356 165.538 356 162.5C356 159.462 358.686 157 362 157C365.314 157 368 159.462 368 162.5Z" fill="#D9D9D9"/>
<path d="M266.374 168H264.696L270.444 157.091H272.25L274.375 168H272.697L271.078 159.025H270.993L266.374 168ZM267.413 163.733H273.065L272.841 165.076H267.189L267.413 163.733ZM278.79 168.16C278.118 168.16 277.552 167.991 277.09 167.654C276.632 167.313 276.307 166.826 276.116 166.194C275.927 165.562 275.904 164.806 276.046 163.925C276.195 163.044 276.471 162.29 276.872 161.661C277.273 161.033 277.761 160.551 278.337 160.218C278.912 159.88 279.532 159.712 280.196 159.712C280.707 159.712 281.103 159.797 281.384 159.967C281.668 160.138 281.877 160.335 282.012 160.559C282.147 160.782 282.247 160.976 282.31 161.139H282.406L283.083 157.091H284.617L282.806 168H281.309L281.527 166.727H281.389C281.265 166.897 281.094 167.096 280.878 167.324C280.665 167.547 280.388 167.743 280.047 167.909C279.709 168.076 279.29 168.16 278.79 168.16ZM279.285 166.844C279.75 166.844 280.167 166.722 280.537 166.477C280.91 166.228 281.218 165.884 281.464 165.443C281.712 165.003 281.884 164.491 281.98 163.909C282.08 163.334 282.078 162.83 281.975 162.396C281.875 161.963 281.68 161.627 281.389 161.39C281.101 161.148 280.72 161.027 280.244 161.027C279.757 161.027 279.333 161.153 278.971 161.406C278.608 161.658 278.312 162.002 278.081 162.439C277.854 162.872 277.696 163.362 277.607 163.909C277.515 164.463 277.511 164.962 277.596 165.406C277.682 165.85 277.863 166.201 278.14 166.461C278.42 166.716 278.802 166.844 279.285 166.844ZM285.107 168L286.471 159.818H287.946L287.722 161.145H287.829C288.074 160.694 288.41 160.342 288.836 160.09C289.265 159.838 289.75 159.712 290.29 159.712C290.826 159.712 291.259 159.839 291.59 160.095C291.92 160.347 292.14 160.697 292.25 161.145H292.335C292.602 160.704 292.969 160.356 293.438 160.1C293.907 159.841 294.438 159.712 295.031 159.712C295.762 159.712 296.325 159.944 296.719 160.409C297.113 160.875 297.232 161.578 297.076 162.519L296.16 168H294.626L295.526 162.641C295.615 162.073 295.528 161.665 295.265 161.416C295.002 161.168 294.658 161.043 294.232 161.043C293.703 161.043 293.264 161.205 292.916 161.528C292.571 161.848 292.36 162.26 292.282 162.764L291.398 168H289.869L290.785 162.535C290.856 162.084 290.775 161.723 290.54 161.453C290.306 161.18 289.963 161.043 289.512 161.043C289.203 161.043 288.905 161.125 288.617 161.288C288.33 161.448 288.083 161.672 287.877 161.96C287.674 162.244 287.545 162.57 287.488 162.94L286.641 168H285.107ZM298.32 168L299.684 159.818H301.212L299.849 168H298.32ZM300.791 158.518C300.522 158.518 300.293 158.428 300.104 158.247C299.916 158.062 299.827 157.842 299.838 157.586C299.849 157.331 299.953 157.112 300.152 156.931C300.355 156.746 300.591 156.654 300.861 156.654C301.131 156.654 301.358 156.746 301.543 156.931C301.731 157.112 301.82 157.331 301.809 157.586C301.802 157.842 301.697 158.062 301.495 158.247C301.296 158.428 301.061 158.518 300.791 158.518ZM304.364 163.131L303.56 168H302.026L303.39 159.818H304.865L304.641 161.145H304.748C305.004 160.711 305.355 160.365 305.803 160.106C306.25 159.843 306.781 159.712 307.395 159.712C307.946 159.712 308.411 159.827 308.791 160.058C309.171 160.289 309.439 160.633 309.595 161.091C309.755 161.549 309.78 162.118 309.67 162.796L308.796 168H307.262L308.098 162.972C308.198 162.371 308.12 161.901 307.864 161.56C307.612 161.219 307.211 161.049 306.66 161.049C306.284 161.049 305.936 161.13 305.616 161.294C305.297 161.453 305.027 161.69 304.806 162.002C304.59 162.311 304.442 162.687 304.364 163.131Z" fill="black"/>
<path d="M382.086 168H378.538L380.349 157.091H383.923C384.992 157.091 385.875 157.315 386.571 157.762C387.27 158.206 387.759 158.842 388.036 159.669C388.316 160.493 388.36 161.478 388.169 162.625C387.984 163.744 387.624 164.705 387.087 165.507C386.551 166.31 385.86 166.926 385.015 167.355C384.17 167.785 383.194 168 382.086 168ZM380.36 166.61H382.155C382.996 166.61 383.726 166.446 384.344 166.12C384.962 165.789 385.463 165.314 385.846 164.692C386.23 164.067 386.494 163.314 386.64 162.434C386.786 161.588 386.773 160.873 386.603 160.287C386.436 159.697 386.109 159.25 385.623 158.945C385.14 158.636 384.495 158.481 383.689 158.481H381.707L380.36 166.61ZM392.692 168.165C391.918 168.165 391.272 167.988 390.753 167.632C390.235 167.274 389.869 166.773 389.656 166.13C389.447 165.484 389.411 164.733 389.55 163.877C389.685 163.039 389.956 162.308 390.365 161.683C390.773 161.058 391.286 160.573 391.904 160.228C392.522 159.884 393.207 159.712 393.96 159.712C394.734 159.712 395.379 159.891 395.894 160.25C396.412 160.608 396.778 161.111 396.991 161.757C397.204 162.403 397.241 163.158 397.103 164.021C396.968 164.852 396.693 165.578 396.277 166.2C395.865 166.821 395.352 167.304 394.738 167.648C394.127 167.993 393.445 168.165 392.692 168.165ZM392.772 166.865C393.294 166.865 393.749 166.729 394.136 166.455C394.527 166.182 394.844 165.818 395.089 165.363C395.338 164.909 395.507 164.412 395.595 163.872C395.677 163.357 395.675 162.883 395.59 162.45C395.505 162.013 395.324 161.663 395.047 161.4C394.77 161.137 394.381 161.006 393.88 161.006C393.358 161.006 392.9 161.145 392.506 161.422C392.115 161.699 391.797 162.066 391.552 162.524C391.307 162.979 391.142 163.476 391.057 164.016C390.975 164.531 390.975 165.005 391.057 165.438C391.142 165.871 391.323 166.217 391.6 166.477C391.881 166.736 392.272 166.865 392.772 166.865ZM401.657 168.165C400.865 168.165 400.215 167.986 399.708 167.627C399.203 167.265 398.852 166.766 398.653 166.13C398.458 165.495 398.427 164.767 398.562 163.946C398.697 163.115 398.973 162.382 399.388 161.746C399.807 161.107 400.329 160.608 400.954 160.25C401.583 159.891 402.279 159.712 403.042 159.712C403.657 159.712 404.186 159.825 404.63 160.053C405.073 160.276 405.411 160.592 405.642 161.001C405.872 161.406 405.974 161.881 405.945 162.428H404.443C404.418 162.045 404.274 161.714 404.012 161.438C403.749 161.157 403.362 161.017 402.85 161.017C402.396 161.017 401.979 161.136 401.599 161.374C401.219 161.608 400.899 161.942 400.64 162.375C400.381 162.808 400.203 163.32 400.107 163.909C400.008 164.509 400.013 165.031 400.123 165.475C400.237 165.915 400.443 166.256 400.741 166.498C401.043 166.736 401.423 166.855 401.881 166.855C402.19 166.855 402.478 166.8 402.744 166.69C403.014 166.576 403.252 166.414 403.458 166.205C403.664 165.995 403.827 165.743 403.948 165.449H405.445C405.292 165.971 405.038 166.436 404.683 166.844C404.328 167.252 403.893 167.576 403.378 167.814C402.866 168.048 402.293 168.165 401.657 168.165ZM411.884 159.818L411.682 161.059H407.256L407.458 159.818H411.884ZM408.981 157.858H410.516L409.221 165.608C409.171 165.924 409.18 166.162 409.248 166.322C409.315 166.482 409.422 166.59 409.567 166.647C409.713 166.7 409.873 166.727 410.047 166.727C410.178 166.727 410.29 166.718 410.382 166.7C410.478 166.683 410.555 166.668 410.611 166.658L410.697 167.941C410.59 167.977 410.448 168.012 410.271 168.048C410.097 168.087 409.883 168.107 409.631 168.107C409.223 168.114 408.852 168.039 408.518 167.883C408.188 167.727 407.939 167.487 407.772 167.164C407.605 166.837 407.565 166.429 407.65 165.939L408.981 157.858ZM415.676 168.165C414.902 168.165 414.255 167.988 413.737 167.632C413.218 167.274 412.853 166.773 412.64 166.13C412.43 165.484 412.395 164.733 412.533 163.877C412.668 163.039 412.94 162.308 413.348 161.683C413.756 161.058 414.27 160.573 414.887 160.228C415.505 159.884 416.191 159.712 416.944 159.712C417.718 159.712 418.362 159.891 418.877 160.25C419.396 160.608 419.761 161.111 419.974 161.757C420.188 162.403 420.225 163.158 420.086 164.021C419.951 164.852 419.676 165.578 419.261 166.2C418.849 166.821 418.336 167.304 417.721 167.648C417.11 167.993 416.429 168.165 415.676 168.165ZM415.756 166.865C416.278 166.865 416.732 166.729 417.119 166.455C417.51 166.182 417.828 165.818 418.073 165.363C418.321 164.909 418.49 164.412 418.579 163.872C418.661 163.357 418.659 162.883 418.574 162.45C418.488 162.013 418.307 161.663 418.03 161.4C417.753 161.137 417.364 161.006 416.864 161.006C416.342 161.006 415.884 161.145 415.489 161.422C415.099 161.699 414.781 162.066 414.536 162.524C414.291 162.979 414.126 163.476 414.04 164.016C413.959 164.531 413.959 165.005 414.04 165.438C414.126 165.871 414.307 166.217 414.584 166.477C414.864 166.736 415.255 166.865 415.756 166.865ZM421.237 168L422.6 159.818H424.081L423.863 161.107H423.948C424.165 160.674 424.486 160.331 424.912 160.079C425.338 159.824 425.793 159.696 426.276 159.696C426.375 159.696 426.491 159.697 426.622 159.701C426.757 159.705 426.864 159.713 426.942 159.728L426.697 161.208C426.64 161.191 426.532 161.171 426.372 161.15C426.212 161.125 426.049 161.113 425.882 161.113C425.502 161.113 425.15 161.192 424.827 161.352C424.504 161.512 424.232 161.732 424.012 162.013C423.795 162.293 423.657 162.613 423.597 162.972L422.766 168H421.237Z" fill="black"/>
<path d="M489.127 157.091L487.316 168H485.846L481.58 159.898H481.478L480.125 168H478.538L480.349 157.091H481.83L486.107 165.203H486.208L487.556 157.091H489.127ZM495.362 164.618L496.167 159.818H497.701L496.337 168H494.83L495.064 166.588H494.979C494.727 167.022 494.368 167.384 493.903 167.675C493.438 167.963 492.896 168.107 492.278 168.107C491.756 168.107 491.312 167.991 490.947 167.76C490.584 167.529 490.327 167.185 490.174 166.727C490.021 166.269 490.002 165.701 490.116 165.022L490.989 159.818H492.518L491.682 164.847C491.593 165.411 491.676 165.862 491.932 166.2C492.191 166.533 492.569 166.7 493.067 166.7C493.368 166.7 493.681 166.626 494.004 166.477C494.331 166.324 494.62 166.095 494.872 165.789C495.124 165.48 495.288 165.09 495.362 164.618ZM498.502 168L499.866 159.818H501.347L501.129 161.107H501.214C501.43 160.674 501.752 160.331 502.178 160.079C502.604 159.824 503.059 159.696 503.542 159.696C503.641 159.696 503.756 159.697 503.888 159.701C504.023 159.705 504.129 159.713 504.207 159.728L503.962 161.208C503.906 161.191 503.797 161.171 503.637 161.15C503.478 161.125 503.314 161.113 503.147 161.113C502.767 161.113 502.416 161.192 502.093 161.352C501.77 161.512 501.498 161.732 501.278 162.013C501.061 162.293 500.923 162.613 500.862 162.972L500.031 168H498.502ZM511.365 161.789L509.938 162.055C509.902 161.867 509.835 161.688 509.735 161.517C509.636 161.347 509.485 161.208 509.282 161.102C509.08 160.995 508.812 160.942 508.478 160.942C508.009 160.942 507.601 161.049 507.253 161.262C506.908 161.475 506.711 161.745 506.662 162.071C506.612 162.345 506.674 162.565 506.848 162.732C507.026 162.895 507.331 163.032 507.764 163.142L509.005 163.44C509.726 163.614 510.243 163.884 510.555 164.25C510.868 164.616 510.976 165.092 510.88 165.678C510.799 166.161 510.587 166.59 510.247 166.967C509.906 167.339 509.471 167.632 508.941 167.846C508.412 168.059 507.823 168.165 507.173 168.165C506.257 168.165 505.543 167.972 505.032 167.585C504.52 167.194 504.256 166.642 504.238 165.928L505.756 165.678C505.785 166.086 505.93 166.395 506.193 166.604C506.459 166.81 506.83 166.913 507.306 166.913C507.846 166.917 508.299 166.803 508.665 166.572C509.03 166.338 509.236 166.058 509.282 165.731C509.332 165.472 509.277 165.257 509.117 165.086C508.961 164.916 508.689 164.786 508.302 164.697L506.981 164.388C506.243 164.211 505.722 163.93 505.421 163.547C505.119 163.163 505.017 162.68 505.117 162.098C505.199 161.622 505.401 161.207 505.724 160.852C506.051 160.493 506.465 160.214 506.965 160.015C507.47 159.813 508.024 159.712 508.627 159.712C509.504 159.712 510.161 159.9 510.598 160.276C511.038 160.653 511.294 161.157 511.365 161.789ZM515.746 168.165C514.947 168.165 514.287 167.993 513.765 167.648C513.243 167.3 512.877 166.812 512.668 166.184C512.462 165.551 512.428 164.813 512.566 163.968C512.705 163.126 512.982 162.386 513.397 161.746C513.816 161.107 514.338 160.608 514.963 160.25C515.592 159.891 516.283 159.712 517.035 159.712C517.49 159.712 517.92 159.788 518.324 159.941C518.733 160.09 519.081 160.328 519.369 160.654C519.66 160.978 519.86 161.4 519.97 161.922C520.084 162.444 520.079 163.076 519.954 163.819L519.864 164.378H513.397L513.578 163.201H518.538C518.612 162.778 518.591 162.402 518.474 162.071C518.36 161.738 518.163 161.475 517.882 161.283C517.605 161.091 517.256 160.995 516.833 160.995C516.396 160.995 515.99 161.111 515.613 161.342C515.237 161.569 514.922 161.858 514.67 162.21C514.418 162.561 514.26 162.925 514.196 163.302L514.021 164.362C513.925 164.973 513.941 165.463 514.068 165.832C514.2 166.201 514.427 166.469 514.75 166.636C515.073 166.8 515.48 166.881 515.97 166.881C516.286 166.881 516.577 166.839 516.844 166.754C517.11 166.665 517.348 166.533 517.557 166.359C517.767 166.182 517.943 165.962 518.085 165.699L519.491 165.981C519.296 166.418 519.015 166.801 518.649 167.132C518.287 167.458 517.859 167.712 517.366 167.893C516.876 168.075 516.336 168.165 515.746 168.165Z" fill="black"/>
<path d="M264.652 244.818H267.306L265.326 256.794C265.113 258.061 264.628 259.185 263.87 260.168C263.113 261.145 262.145 261.911 260.967 262.467C259.795 263.024 258.487 263.302 257.043 263.302C255.593 263.302 254.374 263.024 253.386 262.467C252.403 261.911 251.696 261.145 251.264 260.168C250.832 259.185 250.722 258.061 250.935 256.794L252.915 244.818H255.561L253.608 256.572C253.477 257.407 253.542 258.15 253.803 258.801C254.063 259.446 254.501 259.955 255.117 260.328C255.738 260.695 256.517 260.878 257.452 260.878C258.393 260.878 259.233 260.695 259.973 260.328C260.719 259.955 261.325 259.446 261.793 258.801C262.266 258.15 262.568 257.407 262.699 256.572L264.652 244.818ZM279.975 252.648L277.596 253.092C277.536 252.779 277.424 252.48 277.258 252.196C277.092 251.912 276.841 251.681 276.504 251.503C276.166 251.326 275.719 251.237 275.163 251.237C274.382 251.237 273.701 251.414 273.121 251.77C272.547 252.125 272.219 252.574 272.136 253.119C272.053 253.575 272.156 253.942 272.446 254.22C272.742 254.492 273.251 254.72 273.973 254.903L276.042 255.401C277.243 255.691 278.105 256.14 278.625 256.75C279.146 257.36 279.327 258.153 279.167 259.129C279.031 259.934 278.679 260.65 278.11 261.278C277.542 261.899 276.817 262.387 275.935 262.743C275.054 263.098 274.071 263.275 272.988 263.275C271.461 263.275 270.271 262.953 269.419 262.308C268.567 261.656 268.126 260.736 268.096 259.547L270.626 259.129C270.674 259.81 270.916 260.325 271.354 260.674C271.798 261.017 272.417 261.189 273.21 261.189C274.109 261.195 274.864 261.005 275.474 260.621C276.083 260.23 276.427 259.763 276.504 259.218C276.586 258.786 276.495 258.428 276.228 258.144C275.968 257.86 275.515 257.644 274.87 257.496L272.668 256.981C271.437 256.685 270.57 256.217 270.067 255.578C269.564 254.939 269.395 254.134 269.561 253.163C269.697 252.37 270.035 251.678 270.573 251.086C271.118 250.488 271.807 250.024 272.642 249.692C273.482 249.355 274.405 249.186 275.412 249.186C276.873 249.186 277.968 249.5 278.696 250.127C279.43 250.754 279.856 251.595 279.975 252.648ZM287.277 263.275C285.945 263.275 284.844 262.988 283.974 262.414C283.104 261.834 282.495 261.02 282.145 259.973C281.802 258.919 281.746 257.688 281.977 256.279C282.208 254.877 282.669 253.643 283.362 252.577C284.06 251.512 284.93 250.681 285.972 250.083C287.019 249.485 288.171 249.186 289.425 249.186C290.183 249.186 290.899 249.313 291.574 249.568C292.254 249.816 292.834 250.213 293.314 250.757C293.799 251.296 294.133 252 294.317 252.87C294.506 253.74 294.497 254.794 294.29 256.031L294.139 256.963H283.362L283.664 255.001H291.929C292.053 254.297 292.018 253.669 291.822 253.119C291.633 252.563 291.304 252.125 290.837 251.805C290.375 251.485 289.792 251.326 289.088 251.326C288.36 251.326 287.682 251.518 287.055 251.903C286.427 252.281 285.904 252.764 285.483 253.35C285.063 253.936 284.8 254.542 284.693 255.17L284.4 256.936C284.241 257.954 284.267 258.771 284.48 259.387C284.699 260.002 285.078 260.449 285.617 260.727C286.155 261 286.833 261.136 287.65 261.136C288.176 261.136 288.662 261.065 289.106 260.923C289.55 260.775 289.946 260.556 290.295 260.266C290.644 259.97 290.937 259.603 291.174 259.165L293.518 259.635C293.192 260.363 292.725 261.002 292.115 261.553C291.512 262.097 290.798 262.521 289.976 262.822C289.159 263.124 288.259 263.275 287.277 263.275ZM296.159 263L298.432 249.364H300.9L300.536 251.512H300.678C301.039 250.79 301.575 250.219 302.285 249.799C302.995 249.373 303.753 249.159 304.558 249.159C304.723 249.159 304.916 249.162 305.135 249.168C305.359 249.174 305.537 249.189 305.667 249.213L305.259 251.681C305.164 251.651 304.984 251.619 304.717 251.583C304.451 251.542 304.179 251.521 303.901 251.521C303.267 251.521 302.681 251.654 302.143 251.92C301.604 252.187 301.151 252.554 300.784 253.021C300.423 253.489 300.193 254.022 300.092 254.619L298.707 263H296.159ZM318.329 244.818L315.311 263H312.665L315.684 244.818H318.329ZM325.292 263H319.379L322.398 244.818H328.355C330.136 244.818 331.607 245.191 332.767 245.937C333.933 246.677 334.747 247.736 335.208 249.115C335.676 250.488 335.75 252.131 335.43 254.042C335.122 255.907 334.522 257.508 333.628 258.845C332.734 260.183 331.583 261.21 330.175 261.926C328.766 262.642 327.138 263 325.292 263ZM322.415 260.683H325.407C326.81 260.683 328.026 260.411 329.056 259.866C330.086 259.316 330.92 258.523 331.559 257.487C332.199 256.445 332.64 255.19 332.882 253.723C333.125 252.314 333.104 251.121 332.82 250.145C332.542 249.162 331.997 248.417 331.187 247.908C330.382 247.393 329.307 247.135 327.964 247.135H324.661L322.415 260.683Z" fill="black"/>
<path d="M249.897 312L252.915 293.818H259.334C260.742 293.818 261.867 294.076 262.707 294.591C263.554 295.1 264.131 295.798 264.439 296.686C264.752 297.574 264.817 298.571 264.634 299.678C264.45 300.784 264.054 301.782 263.444 302.669C262.841 303.557 262.03 304.261 261.012 304.782C260 305.303 258.792 305.564 257.39 305.564H252.933L253.306 303.3H257.532C258.443 303.3 259.207 303.143 259.822 302.829C260.444 302.516 260.929 302.086 261.278 301.542C261.633 300.991 261.867 300.37 261.979 299.678C262.092 298.979 262.062 298.364 261.891 297.831C261.719 297.292 261.376 296.869 260.861 296.561C260.346 296.254 259.63 296.1 258.712 296.1H255.197L252.542 312H249.897ZM269.437 312.302C268.573 312.302 267.815 312.142 267.164 311.822C266.519 311.497 266.042 311.026 265.735 310.411C265.427 309.789 265.347 309.035 265.495 308.147C265.625 307.372 265.883 306.738 266.267 306.247C266.652 305.75 267.12 305.356 267.67 305.066C268.221 304.776 268.818 304.557 269.463 304.409C270.109 304.261 270.76 304.152 271.417 304.081C272.245 303.98 272.917 303.9 273.432 303.841C273.953 303.776 274.343 303.676 274.604 303.539C274.87 303.397 275.03 303.167 275.083 302.847V302.776C275.213 301.995 275.101 301.385 274.746 300.947C274.397 300.503 273.787 300.281 272.917 300.281C272.011 300.281 271.251 300.482 270.635 300.885C270.02 301.281 269.57 301.722 269.286 302.208L267.004 301.613C267.436 300.784 267.984 300.118 268.647 299.615C269.31 299.112 270.029 298.748 270.804 298.523C271.585 298.299 272.375 298.186 273.174 298.186C273.695 298.186 274.246 298.248 274.826 298.373C275.412 298.497 275.944 298.728 276.424 299.065C276.909 299.396 277.27 299.876 277.507 300.503C277.743 301.131 277.779 301.947 277.613 302.953L276.113 312H273.609L273.929 310.145H273.822C273.603 310.476 273.296 310.807 272.899 311.139C272.503 311.47 272.014 311.748 271.434 311.973C270.86 312.192 270.194 312.302 269.437 312.302ZM270.289 310.224C271.041 310.224 271.707 310.076 272.287 309.781C272.867 309.479 273.337 309.091 273.698 308.618C274.059 308.138 274.284 307.626 274.373 307.082L274.675 305.288C274.562 305.389 274.361 305.481 274.071 305.564C273.787 305.641 273.464 305.709 273.103 305.768C272.748 305.821 272.399 305.871 272.056 305.919C271.718 305.96 271.44 305.996 271.221 306.025C270.694 306.096 270.2 306.209 269.739 306.363C269.277 306.516 268.889 306.738 268.576 307.028C268.268 307.318 268.078 307.706 268.007 308.191C267.895 308.86 268.055 309.366 268.487 309.71C268.919 310.053 269.52 310.224 270.289 310.224ZM291.547 301.648L289.168 302.092C289.109 301.779 288.996 301.48 288.83 301.196C288.665 300.912 288.413 300.681 288.076 300.503C287.738 300.326 287.292 300.237 286.735 300.237C285.954 300.237 285.273 300.414 284.693 300.77C284.119 301.125 283.791 301.574 283.708 302.119C283.625 302.575 283.729 302.942 284.019 303.22C284.315 303.492 284.824 303.72 285.546 303.903L287.614 304.401C288.816 304.691 289.677 305.14 290.198 305.75C290.718 306.36 290.899 307.153 290.739 308.129C290.603 308.934 290.251 309.65 289.683 310.278C289.115 310.899 288.39 311.387 287.508 311.743C286.626 312.098 285.643 312.275 284.56 312.275C283.033 312.275 281.844 311.953 280.991 311.308C280.139 310.656 279.698 309.736 279.669 308.547L282.199 308.129C282.246 308.81 282.489 309.325 282.927 309.674C283.371 310.017 283.989 310.189 284.782 310.189C285.682 310.195 286.436 310.005 287.046 309.621C287.656 309.23 287.999 308.763 288.076 308.218C288.159 307.786 288.067 307.428 287.801 307.144C287.54 306.86 287.087 306.644 286.442 306.496L284.241 305.981C283.01 305.685 282.142 305.217 281.639 304.578C281.136 303.939 280.968 303.134 281.133 302.163C281.269 301.37 281.607 300.678 282.145 300.086C282.69 299.488 283.379 299.024 284.214 298.692C285.054 298.355 285.978 298.186 286.984 298.186C288.446 298.186 289.541 298.5 290.269 299.127C291.003 299.754 291.429 300.595 291.547 301.648ZM304.877 301.648L302.498 302.092C302.439 301.779 302.326 301.48 302.161 301.196C301.995 300.912 301.743 300.681 301.406 300.503C301.069 300.326 300.622 300.237 300.065 300.237C299.284 300.237 298.603 300.414 298.023 300.77C297.449 301.125 297.121 301.574 297.038 302.119C296.955 302.575 297.059 302.942 297.349 303.22C297.645 303.492 298.154 303.72 298.876 303.903L300.944 304.401C302.146 304.691 303.007 305.14 303.528 305.75C304.049 306.36 304.229 307.153 304.069 308.129C303.933 308.934 303.581 309.65 303.013 310.278C302.445 310.899 301.72 311.387 300.838 311.743C299.956 312.098 298.973 312.275 297.89 312.275C296.363 312.275 295.174 311.953 294.321 311.308C293.469 310.656 293.028 309.736 292.999 308.547L295.529 308.129C295.576 308.81 295.819 309.325 296.257 309.674C296.701 310.017 297.319 310.189 298.112 310.189C299.012 310.195 299.766 310.005 300.376 309.621C300.986 309.23 301.329 308.763 301.406 308.218C301.489 307.786 301.397 307.428 301.131 307.144C300.87 306.86 300.417 306.644 299.772 306.496L297.571 305.981C296.34 305.685 295.473 305.217 294.969 304.578C294.466 303.939 294.298 303.134 294.463 302.163C294.6 301.37 294.937 300.678 295.475 300.086C296.02 299.488 296.71 299.024 297.544 298.692C298.384 298.355 299.308 298.186 300.314 298.186C301.776 298.186 302.871 298.5 303.599 299.127C304.333 299.754 304.759 300.595 304.877 301.648ZM309.338 312L307.58 298.364H310.226L311.265 308.458H311.398L315.801 298.364H318.447L319.468 308.413H319.61L323.996 298.364H326.641L320.338 312H317.746L316.591 302.039H316.387L311.931 312H309.338ZM332.276 312.275C330.986 312.275 329.909 311.979 329.045 311.387C328.181 310.79 327.571 309.955 327.216 308.884C326.867 307.807 326.808 306.555 327.038 305.129C327.263 303.732 327.716 302.513 328.397 301.471C329.077 300.429 329.933 299.621 330.962 299.047C331.992 298.473 333.135 298.186 334.389 298.186C335.68 298.186 336.754 298.485 337.612 299.083C338.476 299.681 339.086 300.518 339.441 301.595C339.796 302.672 339.858 303.93 339.627 305.368C339.402 306.753 338.944 307.964 338.251 308.999C337.565 310.035 336.709 310.84 335.685 311.414C334.667 311.988 333.531 312.275 332.276 312.275ZM332.41 310.109C333.28 310.109 334.037 309.881 334.682 309.425C335.333 308.97 335.863 308.363 336.271 307.605C336.686 306.848 336.967 306.019 337.115 305.12C337.251 304.261 337.248 303.471 337.106 302.749C336.964 302.021 336.662 301.438 336.2 301C335.739 300.562 335.091 300.343 334.256 300.343C333.386 300.343 332.623 300.574 331.966 301.036C331.315 301.498 330.785 302.11 330.377 302.874C329.968 303.631 329.693 304.46 329.551 305.359C329.415 306.218 329.415 307.008 329.551 307.73C329.693 308.452 329.995 309.029 330.456 309.461C330.924 309.893 331.575 310.109 332.41 310.109ZM341.545 312L343.818 298.364H346.286L345.922 300.512H346.064C346.425 299.79 346.96 299.219 347.671 298.799C348.381 298.373 349.138 298.159 349.943 298.159C350.109 298.159 350.301 298.162 350.52 298.168C350.745 298.174 350.923 298.189 351.053 298.213L350.645 300.681C350.55 300.651 350.369 300.619 350.103 300.583C349.837 300.542 349.564 300.521 349.286 300.521C348.653 300.521 348.067 300.654 347.528 300.92C346.99 301.187 346.537 301.554 346.17 302.021C345.809 302.489 345.578 303.022 345.478 303.619L344.093 312H341.545ZM355.772 312.266C354.653 312.266 353.709 311.985 352.94 311.423C352.176 310.855 351.634 310.044 351.315 308.99C351.001 307.937 350.963 306.676 351.199 305.208C351.448 303.741 351.907 302.483 352.576 301.435C353.244 300.388 354.058 299.586 355.017 299.029C355.976 298.467 357.009 298.186 358.115 298.186C358.968 298.186 359.628 298.328 360.095 298.612C360.569 298.896 360.918 299.225 361.143 299.598C361.368 299.971 361.533 300.293 361.64 300.565H361.8L362.927 293.818H365.484L362.465 312H359.971L360.335 309.878H360.104C359.897 310.162 359.613 310.494 359.252 310.873C358.897 311.245 358.435 311.571 357.867 311.849C357.304 312.127 356.606 312.266 355.772 312.266ZM356.597 310.074C357.373 310.074 358.068 309.869 358.684 309.461C359.305 309.047 359.82 308.473 360.228 307.739C360.643 307.005 360.93 306.152 361.089 305.182C361.255 304.223 361.252 303.383 361.081 302.661C360.915 301.938 360.589 301.379 360.104 300.983C359.625 300.58 358.988 300.379 358.195 300.379C357.384 300.379 356.677 300.589 356.073 301.009C355.47 301.429 354.976 302.004 354.591 302.732C354.212 303.454 353.949 304.27 353.801 305.182C353.647 306.105 353.641 306.937 353.783 307.676C353.925 308.416 354.227 309.002 354.688 309.434C355.156 309.86 355.792 310.074 356.597 310.074Z" fill="black"/>
<g filter="url(#filter0_d_47_196)">
<rect x="378" y="239" width="161" height="31" fill="white"/>
</g>
<g filter="url(#filter1_d_47_196)">
<rect x="378" y="281" width="161" height="31" fill="white"/>
</g>
<path d="M276.654 72L285.589 18.1818H293.42L285.615 65.2464H310.107L308.977 72H276.654ZM334.775 72.8146C330.956 72.8146 327.768 71.9387 325.21 70.1868C322.652 68.4174 320.848 65.9472 319.797 62.7763C318.763 59.5878 318.588 55.8826 319.271 51.6605C319.937 47.526 321.277 43.9171 323.292 40.8338C325.306 37.7505 327.838 35.3591 330.886 33.6598C333.934 31.9605 337.316 31.1108 341.03 31.1108C344.849 31.1108 348.028 31.9955 350.569 33.7649C353.126 35.5343 354.931 38.0133 355.982 41.2017C357.033 44.3902 357.217 48.1129 356.534 52.37C355.868 56.4695 354.51 60.0521 352.461 63.1179C350.429 66.1837 347.897 68.5663 344.866 70.2656C341.853 71.965 338.489 72.8146 334.775 72.8146ZM335.17 66.4027C337.745 66.4027 339.987 65.7282 341.897 64.3793C343.824 63.0303 345.392 61.2346 346.601 58.9922C347.827 56.7498 348.659 54.2971 349.097 51.6342C349.5 49.094 349.491 46.7552 349.071 44.6179C348.65 42.4631 347.757 40.7375 346.39 39.441C345.024 38.1446 343.106 37.4964 340.635 37.4964C338.06 37.4964 335.8 38.1797 333.856 39.5462C331.929 40.9126 330.361 42.7259 329.152 44.9858C327.943 47.2282 327.128 49.6809 326.708 52.3438C326.305 54.884 326.305 57.2228 326.708 59.3601C327.128 61.4974 328.022 63.2055 329.388 64.4844C330.772 65.7633 332.699 66.4027 335.17 66.4027ZM376.479 87.9773C373.291 87.9773 370.628 87.5656 368.491 86.7422C366.353 85.9188 364.663 84.8239 363.419 83.4574C362.193 82.0909 361.334 80.6106 360.844 79.0163L367.807 76.1257C368.158 76.879 368.648 77.6937 369.279 78.5696C369.91 79.4631 370.864 80.2251 372.143 80.8558C373.422 81.4865 375.183 81.8018 377.425 81.8018C380.439 81.8018 383.075 81.0661 385.335 79.5945C387.613 78.1229 389.014 75.7929 389.54 72.6044L390.801 64.6158H390.275C389.697 65.4567 388.883 66.4115 387.831 67.4801C386.798 68.5312 385.44 69.451 383.758 70.2393C382.094 71.0102 380.018 71.3956 377.53 71.3956C374.324 71.3956 371.565 70.6423 369.253 69.1357C366.958 67.629 365.302 65.4129 364.286 62.4872C363.287 59.544 363.147 55.9264 363.866 51.6342C364.566 47.3771 365.898 43.7157 367.86 40.6499C369.822 37.584 372.222 35.2277 375.06 33.581C377.898 31.9342 380.955 31.1108 384.231 31.1108C386.754 31.1108 388.716 31.5312 390.118 32.3722C391.537 33.2131 392.579 34.1854 393.245 35.2891C393.928 36.3928 394.436 37.3475 394.769 38.1534H395.347L396.425 31.6364H403.809L396.976 72.946C396.416 76.4148 395.154 79.2528 393.192 81.4602C391.23 83.6851 388.795 85.3232 385.887 86.3743C382.996 87.4429 379.86 87.9773 376.479 87.9773ZM380.001 65.0362C382.278 65.0362 384.31 64.5019 386.097 63.4332C387.902 62.3646 389.399 60.8229 390.591 58.8082C391.8 56.776 392.632 54.3584 393.087 51.5554C393.543 48.7874 393.516 46.361 393.008 44.2763C392.5 42.174 391.528 40.536 390.091 39.3622C388.655 38.1884 386.78 37.6016 384.468 37.6016C382.05 37.6016 379.948 38.2235 378.161 39.4673C376.374 40.6937 374.92 42.3667 373.799 44.4865C372.695 46.5888 371.924 48.9451 371.486 51.5554C371.066 54.2183 371.075 56.5658 371.513 58.598C371.968 60.6127 372.897 62.1894 374.298 63.3281C375.7 64.4669 377.6 65.0362 380.001 65.0362ZM407.81 72L414.537 31.6364H422.079L415.352 72H407.81ZM420.003 25.2244C418.671 25.2244 417.541 24.7777 416.613 23.8842C415.684 22.9732 415.246 21.8871 415.299 20.6257C415.352 19.3643 415.868 18.2869 416.849 17.3935C417.848 16.4825 419.013 16.027 420.344 16.027C421.676 16.027 422.797 16.4825 423.708 17.3935C424.637 18.2869 425.075 19.3643 425.022 20.6257C424.987 21.8871 424.47 22.9732 423.472 23.8842C422.491 24.7777 421.334 25.2244 420.003 25.2244ZM437.629 47.9815L433.661 72H426.093L432.82 31.6364H440.099L438.996 38.1797H439.521C440.782 36.0424 442.517 34.3343 444.724 33.0554C446.932 31.759 449.551 31.1108 452.581 31.1108C455.297 31.1108 457.592 31.6802 459.466 32.8189C461.341 33.9576 462.664 35.657 463.434 37.9169C464.223 40.1768 464.345 42.9799 463.802 46.326L459.493 72H451.925L456.05 47.1932C456.541 44.2325 456.155 41.9112 454.894 40.2294C453.65 38.5476 451.671 37.7067 448.955 37.7067C447.098 37.7067 445.381 38.1096 443.805 38.9155C442.228 39.7038 440.896 40.8688 439.81 42.4105C438.742 43.9347 438.015 45.7917 437.629 47.9815Z" fill="black"/>
<defs>
<filter id="filter0_d_47_196" x="374" y="239" width="169" height="39" filterUnits="userSpaceOnUse" color-interpolation-filters="sRGB">
<feFlood flood-opacity="0" result="BackgroundImageFix"/>
<feColorMatrix in="SourceAlpha" type="matrix" values="0 0 0 0 0 0 0 0 0 0 0 0 0 0 0 0 0 0 127 0" result="hardAlpha"/>
<feOffset dy="4"/>
<feGaussianBlur stdDeviation="2"/>
<feComposite in2="hardAlpha" operator="out"/>
<feColorMatrix type="matrix" values="0 0 0 0 0 0 0 0 0 0 0 0 0 0 0 0 0 0 0.25 0"/>
<feBlend mode="normal" in2="BackgroundImageFix" result="effect1_dropShadow_47_196"/>
<feBlend mode="normal" in="SourceGraphic" in2="effect1_dropShadow_47_196" result="shape"/>
</filter>
<filter id="filter1_d_47_196" x="374" y="281" width="169" height="39" filterUnits="userSpaceOnUse" color-interpolation-filters="sRGB">
<feFlood flood-opacity="0" result="BackgroundImageFix"/>
<feColorMatrix in="SourceAlpha" type="matrix" values="0 0 0 0 0 0 0 0 0 0 0 0 0 0 0 0 0 0 127 0" result="hardAlpha"/>
<feOffset dy="4"/>
<feGaussianBlur stdDeviation="2"/>
<feComposite in2="hardAlpha" operator="out"/>
<feColorMatrix type="matrix" values="0 0 0 0 0 0 0 0 0 0 0 0 0 0 0 0 0 0 0.25 0"/>
<feBlend mode="normal" in2="BackgroundImageFix" result="effect1_dropShadow_47_196"/>
<feBlend mode="normal" in="SourceGraphic" in2="effect1_dropShadow_47_196" result="shape"/>
</filter>
</defs>
</svg>
