<svg width="765" height="490" viewBox="0 0 765 490" fill="none" xmlns="http://www.w3.org/2000/svg">
<rect width="765" height="490" fill="#BDBCBB"/>
<rect width="765" height="39" fill="#FFF8F8"/>
<path d="M98.5057 19.3636H100.557L102.795 28.517H102.932L108.193 19.3636H110.244L108.312 31H106.705L108.119 22.5057H108.011L103.131 30.983H101.761L99.7159 22.5H99.6023L98.1818 31H96.5739L98.5057 19.3636ZM114.497 31.1761C113.645 31.1761 112.94 30.9924 112.384 30.625C111.827 30.2538 111.437 29.733 111.213 29.0625C110.993 28.3883 110.957 27.6004 111.105 26.6989C111.253 25.8011 111.548 25.0114 111.991 24.3295C112.438 23.6477 112.995 23.1155 113.662 22.733C114.332 22.3504 115.069 22.1591 115.872 22.1591C116.357 22.1591 116.815 22.2405 117.247 22.4034C117.683 22.5625 118.054 22.8163 118.361 23.1648C118.671 23.5095 118.885 23.9602 119.003 24.517C119.124 25.0739 119.118 25.7481 118.986 26.5398L118.889 27.1364H111.991L112.185 25.8807H117.474C117.554 25.4299 117.531 25.0284 117.406 24.6761C117.285 24.3201 117.075 24.0398 116.776 23.8352C116.48 23.6307 116.107 23.5284 115.656 23.5284C115.19 23.5284 114.757 23.6515 114.355 23.8977C113.954 24.1402 113.618 24.4489 113.349 24.8239C113.08 25.1989 112.912 25.5871 112.844 25.9886L112.656 27.1193C112.554 27.7708 112.571 28.2936 112.707 28.6875C112.848 29.0814 113.09 29.3674 113.435 29.5455C113.779 29.7197 114.213 29.8068 114.736 29.8068C115.073 29.8068 115.384 29.7614 115.668 29.6705C115.952 29.5758 116.205 29.4356 116.429 29.25C116.652 29.0606 116.84 28.8258 116.991 28.5455L118.491 28.8466C118.283 29.3125 117.984 29.7216 117.594 30.0739C117.207 30.4223 116.751 30.6932 116.224 30.8864C115.702 31.0795 115.126 31.1761 114.497 31.1761ZM123.443 31.1705C122.727 31.1705 122.123 30.9905 121.631 30.6307C121.142 30.267 120.795 29.7481 120.591 29.0739C120.39 28.3996 120.366 27.5928 120.517 26.6534C120.676 25.714 120.97 24.9091 121.398 24.2386C121.826 23.5682 122.347 23.0549 122.96 22.6989C123.574 22.339 124.235 22.1591 124.943 22.1591C125.489 22.1591 125.911 22.25 126.21 22.4318C126.513 22.6136 126.737 22.8239 126.881 23.0625C127.025 23.3011 127.131 23.5076 127.199 23.6818H127.301L128.023 19.3636H129.659L127.727 31H126.131L126.364 29.642H126.216C126.083 29.8239 125.902 30.036 125.67 30.2784C125.443 30.517 125.148 30.7254 124.784 30.9034C124.424 31.0814 123.977 31.1705 123.443 31.1705ZM123.972 29.767C124.468 29.767 124.913 29.6364 125.307 29.375C125.705 29.1098 126.034 28.7424 126.295 28.2727C126.561 27.803 126.744 27.2576 126.847 26.6364C126.953 26.0227 126.951 25.4848 126.841 25.0227C126.735 24.5606 126.527 24.2027 126.216 23.9489C125.909 23.6913 125.502 23.5625 124.994 23.5625C124.475 23.5625 124.023 23.697 123.636 23.9659C123.25 24.2348 122.934 24.6023 122.688 25.0682C122.445 25.5303 122.277 26.053 122.182 26.6364C122.083 27.2273 122.08 27.7595 122.17 28.233C122.261 28.7064 122.455 29.0814 122.75 29.358C123.049 29.6307 123.456 29.767 123.972 29.767ZM130.182 31L131.636 22.2727H133.267L131.812 31H130.182ZM132.818 20.8864C132.53 20.8864 132.286 20.7898 132.085 20.5966C131.884 20.3996 131.79 20.1648 131.801 19.892C131.813 19.6193 131.924 19.3864 132.136 19.1932C132.352 18.9962 132.604 18.8977 132.892 18.8977C133.18 18.8977 133.422 18.9962 133.619 19.1932C133.82 19.3864 133.915 19.6193 133.903 19.892C133.896 20.1648 133.784 20.3996 133.568 20.5966C133.356 20.7898 133.106 20.8864 132.818 20.8864ZM137.766 31.1761C136.921 31.1761 136.228 30.9848 135.686 30.6023C135.148 30.2159 134.773 29.6837 134.561 29.0057C134.353 28.3277 134.321 27.5511 134.464 26.6761C134.608 25.7898 134.902 25.0076 135.345 24.3295C135.792 23.6477 136.349 23.1155 137.016 22.733C137.686 22.3504 138.429 22.1591 139.243 22.1591C139.898 22.1591 140.463 22.2803 140.936 22.5227C141.41 22.7614 141.769 23.0985 142.016 23.5341C142.262 23.9659 142.37 24.4735 142.339 25.0568H140.737C140.711 24.6477 140.557 24.2955 140.277 24C139.997 23.7008 139.584 23.5511 139.038 23.5511C138.554 23.5511 138.108 23.678 137.703 23.9318C137.298 24.1818 136.957 24.5379 136.68 25C136.404 25.4621 136.214 26.0076 136.112 26.6364C136.006 27.2765 136.012 27.8333 136.129 28.3068C136.25 28.7765 136.47 29.1402 136.788 29.3977C137.11 29.6515 137.516 29.7784 138.004 29.7784C138.334 29.7784 138.641 29.7197 138.925 29.6023C139.213 29.4811 139.466 29.3087 139.686 29.0852C139.906 28.8617 140.08 28.5928 140.209 28.2784H141.805C141.643 28.8352 141.372 29.3314 140.993 29.767C140.614 30.2027 140.15 30.5473 139.601 30.8011C139.055 31.0511 138.444 31.1761 137.766 31.1761ZM145.72 31.1932C145.167 31.1932 144.682 31.0909 144.266 30.8864C143.853 30.678 143.548 30.3769 143.351 29.983C143.154 29.5852 143.103 29.1023 143.197 28.5341C143.281 28.0379 143.446 27.6326 143.692 27.3182C143.938 27 144.237 26.7481 144.589 26.5625C144.942 26.3769 145.324 26.2367 145.737 26.142C146.15 26.0473 146.567 25.9773 146.987 25.9318C147.518 25.8674 147.947 25.8163 148.277 25.7784C148.61 25.7367 148.86 25.6723 149.027 25.5852C149.197 25.4943 149.3 25.3466 149.334 25.142V25.0966C149.417 24.5966 149.345 24.2064 149.118 23.9261C148.894 23.642 148.504 23.5 147.947 23.5C147.368 23.5 146.881 23.6288 146.487 23.8864C146.093 24.1402 145.805 24.4223 145.624 24.733L144.163 24.3523C144.44 23.822 144.79 23.3958 145.214 23.0739C145.639 22.7519 146.099 22.5189 146.595 22.375C147.095 22.2311 147.601 22.1591 148.112 22.1591C148.446 22.1591 148.798 22.1989 149.169 22.2784C149.544 22.358 149.885 22.5057 150.192 22.7216C150.502 22.9337 150.733 23.2405 150.885 23.642C151.036 24.0436 151.059 24.5663 150.953 25.2102L149.993 31H148.391L148.595 29.8125H148.527C148.387 30.0246 148.19 30.2367 147.936 30.4489C147.682 30.661 147.37 30.839 146.999 30.983C146.631 31.1231 146.205 31.1932 145.72 31.1932ZM146.266 29.8636C146.747 29.8636 147.173 29.7689 147.544 29.5795C147.915 29.3864 148.216 29.1383 148.447 28.8352C148.679 28.5284 148.822 28.2008 148.879 27.8523L149.072 26.7045C149 26.7689 148.872 26.8277 148.686 26.8807C148.504 26.9299 148.298 26.9735 148.067 27.0114C147.839 27.0455 147.616 27.0777 147.396 27.108C147.18 27.1345 147.002 27.1572 146.862 27.1761C146.525 27.2216 146.209 27.2936 145.913 27.392C145.618 27.4905 145.37 27.6326 145.169 27.8182C144.972 28.0038 144.851 28.2519 144.805 28.5625C144.733 28.9905 144.836 29.3144 145.112 29.5341C145.389 29.7538 145.773 29.8636 146.266 29.8636ZM155.854 19.3636L153.922 31H152.291L154.223 19.3636H155.854ZM164.452 31H160.668L162.599 19.3636H166.412C167.552 19.3636 168.493 19.6023 169.236 20.0795C169.982 20.553 170.503 21.2311 170.798 22.1136C171.098 22.9924 171.145 24.0436 170.94 25.267C170.743 26.4602 170.359 27.4848 169.787 28.3409C169.215 29.197 168.478 29.8542 167.577 30.3125C166.675 30.7708 165.634 31 164.452 31ZM162.611 29.517H164.526C165.423 29.517 166.202 29.3428 166.861 28.9943C167.52 28.642 168.054 28.1345 168.463 27.4716C168.872 26.8049 169.154 26.0019 169.31 25.0625C169.465 24.161 169.452 23.3977 169.27 22.7727C169.092 22.1439 168.743 21.6667 168.224 21.3409C167.709 21.0114 167.022 20.8466 166.162 20.8466H164.048L162.611 29.517ZM174.595 31.1932C174.042 31.1932 173.557 31.0909 173.141 30.8864C172.728 30.678 172.423 30.3769 172.226 29.983C172.029 29.5852 171.978 29.1023 172.072 28.5341C172.156 28.0379 172.321 27.6326 172.567 27.3182C172.813 27 173.112 26.7481 173.464 26.5625C173.817 26.3769 174.199 26.2367 174.612 26.142C175.025 26.0473 175.442 25.9773 175.862 25.9318C176.393 25.8674 176.822 25.8163 177.152 25.7784C177.485 25.7367 177.735 25.6723 177.902 25.5852C178.072 25.4943 178.175 25.3466 178.209 25.142V25.0966C178.292 24.5966 178.22 24.2064 177.993 23.9261C177.769 23.642 177.379 23.5 176.822 23.5C176.243 23.5 175.756 23.6288 175.362 23.8864C174.968 24.1402 174.68 24.4223 174.499 24.733L173.038 24.3523C173.315 23.822 173.665 23.3958 174.089 23.0739C174.514 22.7519 174.974 22.5189 175.47 22.375C175.97 22.2311 176.476 22.1591 176.987 22.1591C177.321 22.1591 177.673 22.1989 178.044 22.2784C178.419 22.358 178.76 22.5057 179.067 22.7216C179.377 22.9337 179.608 23.2405 179.76 23.642C179.911 24.0436 179.934 24.5663 179.828 25.2102L178.868 31H177.266L177.47 29.8125H177.402C177.262 30.0246 177.065 30.2367 176.811 30.4489C176.557 30.661 176.245 30.839 175.874 30.983C175.506 31.1231 175.08 31.1932 174.595 31.1932ZM175.141 29.8636C175.622 29.8636 176.048 29.7689 176.419 29.5795C176.79 29.3864 177.091 29.1383 177.322 28.8352C177.554 28.5284 177.697 28.2008 177.754 27.8523L177.947 26.7045C177.875 26.7689 177.747 26.8277 177.561 26.8807C177.379 26.9299 177.173 26.9735 176.942 27.0114C176.714 27.0455 176.491 27.0777 176.271 27.108C176.055 27.1345 175.877 27.1572 175.737 27.1761C175.4 27.2216 175.084 27.2936 174.788 27.392C174.493 27.4905 174.245 27.6326 174.044 27.8182C173.847 28.0038 173.726 28.2519 173.68 28.5625C173.608 28.9905 173.711 29.3144 173.987 29.5341C174.264 29.7538 174.648 29.8636 175.141 29.8636ZM186.643 22.2727L186.428 23.5966H181.706L181.922 22.2727H186.643ZM183.547 20.1818H185.183L183.803 28.4489C183.75 28.786 183.759 29.0398 183.831 29.2102C183.903 29.3807 184.017 29.4962 184.172 29.5568C184.327 29.6136 184.498 29.642 184.683 29.642C184.823 29.642 184.943 29.6326 185.041 29.6136C185.143 29.5947 185.225 29.5795 185.286 29.5682L185.376 30.9375C185.263 30.9754 185.111 31.0133 184.922 31.0511C184.736 31.0928 184.509 31.1136 184.24 31.1136C183.804 31.1212 183.409 31.0417 183.053 30.875C182.7 30.7083 182.435 30.4527 182.257 30.108C182.079 29.7595 182.036 29.3239 182.126 28.8011L183.547 20.1818ZM189.611 31.1932C189.058 31.1932 188.573 31.0909 188.156 30.8864C187.743 30.678 187.438 30.3769 187.241 29.983C187.045 29.5852 186.993 29.1023 187.088 28.5341C187.171 28.0379 187.336 27.6326 187.582 27.3182C187.829 27 188.128 26.7481 188.48 26.5625C188.832 26.3769 189.215 26.2367 189.628 26.142C190.041 26.0473 190.457 25.9773 190.878 25.9318C191.408 25.8674 191.838 25.8163 192.168 25.7784C192.501 25.7367 192.751 25.6723 192.918 25.5852C193.088 25.4943 193.19 25.3466 193.224 25.142V25.0966C193.308 24.5966 193.236 24.2064 193.009 23.9261C192.785 23.642 192.395 23.5 191.838 23.5C191.259 23.5 190.772 23.6288 190.378 23.8864C189.984 24.1402 189.696 24.4223 189.514 24.733L188.054 24.3523C188.33 23.822 188.681 23.3958 189.105 23.0739C189.529 22.7519 189.99 22.5189 190.486 22.375C190.986 22.2311 191.491 22.1591 192.003 22.1591C192.336 22.1591 192.688 22.1989 193.06 22.2784C193.435 22.358 193.776 22.5057 194.082 22.7216C194.393 22.9337 194.624 23.2405 194.776 23.642C194.927 24.0436 194.95 24.5663 194.844 25.2102L193.884 31H192.281L192.486 29.8125H192.418C192.277 30.0246 192.08 30.2367 191.827 30.4489C191.573 30.661 191.26 30.839 190.889 30.983C190.522 31.1231 190.096 31.1932 189.611 31.1932ZM190.156 29.8636C190.637 29.8636 191.063 29.7689 191.435 29.5795C191.806 29.3864 192.107 29.1383 192.338 28.8352C192.569 28.5284 192.713 28.2008 192.77 27.8523L192.963 26.7045C192.891 26.7689 192.762 26.8277 192.577 26.8807C192.395 26.9299 192.188 26.9735 191.957 27.0114C191.73 27.0455 191.507 27.0777 191.287 27.108C191.071 27.1345 190.893 27.1572 190.753 27.1761C190.416 27.2216 190.099 27.2936 189.804 27.392C189.509 27.4905 189.26 27.6326 189.06 27.8182C188.863 28.0038 188.741 28.2519 188.696 28.5625C188.624 28.9905 188.726 29.3144 189.003 29.5341C189.279 29.7538 189.664 29.8636 190.156 29.8636Z" fill="black"/>
<g filter="url(#filter0_i_47_191)">
<rect y="40" width="245" height="98" fill="#FCFCFC"/>
</g>
<rect x="0.5" y="40.5" width="244" height="97" stroke="black"/>
<g filter="url(#filter1_i_47_191)">
<rect y="15" width="68" height="21" fill="#F7F6F6"/>
</g>
<g filter="url(#filter2_i_47_191)">
<path d="M10.5739 32L12.5057 20.3636H16.6136C17.5152 20.3636 18.2348 20.5284 18.7727 20.858C19.3144 21.1837 19.6837 21.6307 19.8807 22.1989C20.0814 22.767 20.1231 23.4053 20.0057 24.1136C19.8883 24.822 19.6345 25.4602 19.2443 26.0284C18.858 26.5966 18.339 27.0473 17.6875 27.3807C17.0398 27.714 16.267 27.8807 15.3693 27.8807H12.517L12.7557 26.4318H15.4602C16.0436 26.4318 16.5322 26.3314 16.9261 26.1307C17.3239 25.9299 17.6345 25.6553 17.858 25.3068C18.0852 24.9545 18.2348 24.5568 18.3068 24.1136C18.3788 23.6667 18.3598 23.2727 18.25 22.9318C18.1402 22.5871 17.9205 22.3163 17.5909 22.1193C17.2614 21.9223 16.803 21.8239 16.2159 21.8239H13.9659L12.267 32H10.5739ZM23.0795 32.1932C22.5265 32.1932 22.0417 32.0909 21.625 31.8864C21.2121 31.678 20.9072 31.3769 20.7102 30.983C20.5133 30.5852 20.4621 30.1023 20.5568 29.5341C20.6402 29.0379 20.8049 28.6326 21.0511 28.3182C21.2973 28 21.5966 27.7481 21.9489 27.5625C22.3011 27.3769 22.6837 27.2367 23.0966 27.142C23.5095 27.0473 23.9261 26.9773 24.3466 26.9318C24.8769 26.8674 25.3068 26.8163 25.6364 26.7784C25.9697 26.7367 26.2197 26.6723 26.3864 26.5852C26.5568 26.4943 26.6591 26.3466 26.6932 26.142V26.0966C26.7765 25.5966 26.7045 25.2064 26.4773 24.9261C26.2538 24.642 25.8636 24.5 25.3068 24.5C24.7273 24.5 24.2405 24.6288 23.8466 24.8864C23.4527 25.1402 23.1648 25.4223 22.983 25.733L21.5227 25.3523C21.7992 24.822 22.1496 24.3958 22.5739 24.0739C22.9981 23.7519 23.4583 23.5189 23.9545 23.375C24.4545 23.2311 24.9602 23.1591 25.4716 23.1591C25.8049 23.1591 26.1572 23.1989 26.5284 23.2784C26.9034 23.358 27.2443 23.5057 27.5511 23.7216C27.8617 23.9337 28.0928 24.2405 28.2443 24.642C28.3958 25.0436 28.4186 25.5663 28.3125 26.2102L27.3523 32H25.75L25.9545 30.8125H25.8864C25.7462 31.0246 25.5492 31.2367 25.2955 31.4489C25.0417 31.661 24.7292 31.839 24.358 31.983C23.9905 32.1231 23.5644 32.1932 23.0795 32.1932ZM23.625 30.8636C24.1061 30.8636 24.5322 30.7689 24.9034 30.5795C25.2746 30.3864 25.5758 30.1383 25.8068 29.8352C26.0379 29.5284 26.1818 29.2008 26.2386 28.8523L26.4318 27.7045C26.3598 27.7689 26.2311 27.8277 26.0455 27.8807C25.8636 27.9299 25.6572 27.9735 25.4261 28.0114C25.1989 28.0455 24.9754 28.0777 24.7557 28.108C24.5398 28.1345 24.3617 28.1572 24.2216 28.1761C23.8845 28.2216 23.5682 28.2936 23.2727 28.392C22.9773 28.4905 22.7292 28.6326 22.5284 28.8182C22.3314 29.0038 22.2102 29.2519 22.1648 29.5625C22.0928 29.9905 22.1951 30.3144 22.4716 30.5341C22.7481 30.7538 23.1326 30.8636 23.625 30.8636ZM35.1278 23.2727L34.9119 24.5966H30.1903L30.4062 23.2727H35.1278ZM32.0312 21.1818H33.6676L32.2869 29.4489C32.2339 29.786 32.2434 30.0398 32.3153 30.2102C32.3873 30.3807 32.5009 30.4962 32.6562 30.5568C32.8116 30.6136 32.982 30.642 33.1676 30.642C33.3078 30.642 33.4271 30.6326 33.5256 30.6136C33.6278 30.5947 33.7093 30.5795 33.7699 30.5682L33.8608 31.9375C33.7472 31.9754 33.5956 32.0133 33.4062 32.0511C33.2206 32.0928 32.9934 32.1136 32.7244 32.1136C32.2888 32.1212 31.893 32.0417 31.5369 31.875C31.1847 31.7083 30.9195 31.4527 30.7415 31.108C30.5634 30.7595 30.5199 30.3239 30.6108 29.8011L32.0312 21.1818ZM35.5724 32L37.027 23.2727H38.6577L37.2031 32H35.5724ZM38.2088 21.8864C37.9209 21.8864 37.6766 21.7898 37.4759 21.5966C37.2751 21.3996 37.1804 21.1648 37.1918 20.892C37.2031 20.6193 37.3149 20.3864 37.527 20.1932C37.7429 19.9962 37.9948 19.8977 38.2827 19.8977C38.5705 19.8977 38.813 19.9962 39.0099 20.1932C39.2107 20.3864 39.3054 20.6193 39.294 20.892C39.2865 21.1648 39.1747 21.3996 38.9588 21.5966C38.7467 21.7898 38.4967 21.8864 38.2088 21.8864ZM43.2472 32.1761C42.3949 32.1761 41.6903 31.9924 41.1335 31.625C40.5767 31.2538 40.1866 30.733 39.9631 30.0625C39.7434 29.3883 39.7074 28.6004 39.8551 27.6989C40.0028 26.8011 40.2983 26.0114 40.7415 25.3295C41.1884 24.6477 41.7453 24.1155 42.4119 23.733C43.0824 23.3504 43.8191 23.1591 44.6222 23.1591C45.107 23.1591 45.5653 23.2405 45.9972 23.4034C46.4328 23.5625 46.804 23.8163 47.1108 24.1648C47.4214 24.5095 47.6354 24.9602 47.7528 25.517C47.8741 26.0739 47.8684 26.7481 47.7358 27.5398L47.6392 28.1364H40.7415L40.9347 26.8807H46.2244C46.304 26.4299 46.2812 26.0284 46.1562 25.6761C46.035 25.3201 45.8248 25.0398 45.5256 24.8352C45.2301 24.6307 44.857 24.5284 44.4062 24.5284C43.9403 24.5284 43.5066 24.6515 43.1051 24.8977C42.7036 25.1402 42.3684 25.4489 42.0994 25.8239C41.8305 26.1989 41.6619 26.5871 41.5938 26.9886L41.4062 28.1193C41.304 28.7708 41.321 29.2936 41.4574 29.6875C41.5975 30.0814 41.84 30.3674 42.1847 30.5455C42.5294 30.7197 42.9631 30.8068 43.4858 30.8068C43.8229 30.8068 44.1335 30.7614 44.4176 30.6705C44.7017 30.5758 44.9555 30.4356 45.179 30.25C45.4025 30.0606 45.59 29.8258 45.7415 29.5455L47.2415 29.8466C47.0331 30.3125 46.7339 30.7216 46.3438 31.0739C45.9574 31.4223 45.5009 31.6932 44.9744 31.8864C44.4517 32.0795 43.8759 32.1761 43.2472 32.1761ZM51.4261 26.8068L50.5682 32H48.9318L50.3864 23.2727H51.9602L51.7216 24.6875H51.8352C52.108 24.2254 52.483 23.8561 52.9602 23.5795C53.4375 23.2992 54.0038 23.1591 54.6591 23.1591C55.2462 23.1591 55.7424 23.2822 56.1477 23.5284C56.553 23.7746 56.839 24.142 57.0057 24.6307C57.1761 25.1193 57.2027 25.7254 57.0852 26.4489L56.1534 32H54.517L55.4091 26.6364C55.5152 25.9962 55.4318 25.4943 55.1591 25.1307C54.8902 24.767 54.4621 24.5852 53.875 24.5852C53.4735 24.5852 53.1023 24.6723 52.7614 24.8466C52.4205 25.017 52.1326 25.2689 51.8977 25.6023C51.6667 25.9318 51.5095 26.3333 51.4261 26.8068ZM63.9247 23.2727L63.7088 24.5966H58.9872L59.2031 23.2727H63.9247ZM60.8281 21.1818H62.4645L61.0838 29.4489C61.0308 29.786 61.0402 30.0398 61.1122 30.2102C61.1842 30.3807 61.2978 30.4962 61.4531 30.5568C61.6084 30.6136 61.7789 30.642 61.9645 30.642C62.1046 30.642 62.224 30.6326 62.3224 30.6136C62.4247 30.5947 62.5062 30.5795 62.5668 30.5682L62.6577 31.9375C62.544 31.9754 62.3925 32.0133 62.2031 32.0511C62.0175 32.0928 61.7902 32.1136 61.5213 32.1136C61.0857 32.1212 60.6899 32.0417 60.3338 31.875C59.9815 31.7083 59.7164 31.4527 59.5384 31.108C59.3603 30.7595 59.3168 30.3239 59.4077 29.8011L60.8281 21.1818Z" fill="black"/>
</g>
<path d="M41.483 50.1193H39.8011C39.7936 49.7367 39.7216 49.3996 39.5852 49.108C39.4527 48.8163 39.2689 48.5701 39.0341 48.3693C38.7992 48.1648 38.5265 48.0114 38.2159 47.9091C37.9053 47.8068 37.5701 47.7557 37.2102 47.7557C36.517 47.7557 35.8655 47.9318 35.2557 48.2841C34.6458 48.6326 34.125 49.1439 33.6932 49.8182C33.2652 50.4924 32.9716 51.3163 32.8125 52.2898C32.6572 53.2292 32.678 54.0189 32.875 54.6591C33.072 55.2992 33.4034 55.7841 33.8693 56.1136C34.3352 56.4432 34.8958 56.608 35.5511 56.608C35.9337 56.608 36.3068 56.5568 36.6705 56.4545C37.0379 56.3523 37.3788 56.2027 37.6932 56.0057C38.0076 55.8049 38.2879 55.5606 38.5341 55.2727C38.7803 54.9811 38.9716 54.6477 39.108 54.2727H40.8125C40.6155 54.8485 40.3428 55.375 39.9943 55.8523C39.6496 56.3295 39.2424 56.7405 38.7727 57.0852C38.3068 57.4299 37.7955 57.6951 37.2386 57.8807C36.6856 58.0663 36.1004 58.1591 35.483 58.1591C34.4602 58.1591 33.589 57.9129 32.8693 57.4205C32.1496 56.928 31.6345 56.2292 31.3239 55.3239C31.0133 54.4148 30.9621 53.3314 31.1705 52.0739C31.375 50.8542 31.7708 49.8068 32.358 48.9318C32.9451 48.053 33.6629 47.3788 34.5114 46.9091C35.3636 46.4394 36.2841 46.2045 37.2727 46.2045C37.8902 46.2045 38.4545 46.2936 38.9659 46.4716C39.4811 46.6458 39.9261 46.9015 40.3011 47.2386C40.6761 47.5758 40.9659 47.9867 41.1705 48.4716C41.3788 48.9527 41.483 49.5019 41.483 50.1193ZM44.6761 52.8068L43.8182 58H42.1818L44.1136 46.3636H45.733L45.017 50.6875H45.1307C45.4034 50.214 45.7727 49.8409 46.2386 49.5682C46.7045 49.2955 47.2803 49.1591 47.9659 49.1591C48.5606 49.1591 49.0606 49.2822 49.4659 49.5284C49.875 49.7708 50.1629 50.1364 50.3295 50.625C50.5 51.1098 50.5265 51.7178 50.4091 52.4489L49.4773 58H47.8409L48.7386 52.6364C48.8447 51.9848 48.7576 51.4811 48.4773 51.125C48.2008 50.7652 47.7689 50.5852 47.1818 50.5852C46.7727 50.5852 46.392 50.6723 46.0398 50.8466C45.6913 51.017 45.3977 51.2689 45.1591 51.6023C44.9205 51.9318 44.7595 52.3333 44.6761 52.8068ZM55.5128 58.1761C54.6605 58.1761 53.956 57.9924 53.3991 57.625C52.8423 57.2538 52.4522 56.733 52.2287 56.0625C52.009 55.3883 51.973 54.6004 52.1207 53.6989C52.2685 52.8011 52.5639 52.0114 53.0071 51.3295C53.4541 50.6477 54.0109 50.1155 54.6776 49.733C55.348 49.3504 56.0848 49.1591 56.8878 49.1591C57.3726 49.1591 57.831 49.2405 58.2628 49.4034C58.6984 49.5625 59.0696 49.8163 59.3764 50.1648C59.687 50.5095 59.901 50.9602 60.0185 51.517C60.1397 52.0739 60.134 52.7481 60.0014 53.5398L59.9048 54.1364H53.0071L53.2003 52.8807H58.4901C58.5696 52.4299 58.5469 52.0284 58.4219 51.6761C58.3007 51.3201 58.0904 51.0398 57.7912 50.8352C57.4957 50.6307 57.1226 50.5284 56.6719 50.5284C56.206 50.5284 55.7723 50.6515 55.3707 50.8977C54.9692 51.1402 54.634 51.4489 54.3651 51.8239C54.0961 52.1989 53.9276 52.5871 53.8594 52.9886L53.6719 54.1193C53.5696 54.7708 53.5866 55.2936 53.723 55.6875C53.8632 56.0814 54.1056 56.3674 54.4503 56.5455C54.795 56.7197 55.2287 56.8068 55.7514 56.8068C56.0885 56.8068 56.3991 56.7614 56.6832 56.6705C56.9673 56.5758 57.2211 56.4356 57.4446 56.25C57.6681 56.0606 57.8556 55.8258 58.0071 55.5455L59.5071 55.8466C59.2988 56.3125 58.9995 56.7216 58.6094 57.0739C58.223 57.4223 57.7666 57.6932 57.2401 57.8864C56.7173 58.0795 56.1416 58.1761 55.5128 58.1761ZM64.8281 58.1761C63.9834 58.1761 63.2902 57.9848 62.7486 57.6023C62.2107 57.2159 61.8357 56.6837 61.6236 56.0057C61.4152 55.3277 61.383 54.5511 61.527 53.6761C61.6709 52.7898 61.9645 52.0076 62.4077 51.3295C62.8546 50.6477 63.4115 50.1155 64.0781 49.733C64.7486 49.3504 65.491 49.1591 66.3054 49.1591C66.9607 49.1591 67.5251 49.2803 67.9986 49.5227C68.4721 49.7614 68.8319 50.0985 69.0781 50.5341C69.3243 50.9659 69.4323 51.4735 69.402 52.0568H67.7997C67.7732 51.6477 67.6198 51.2955 67.3395 51C67.0592 50.7008 66.6463 50.5511 66.1009 50.5511C65.616 50.5511 65.1709 50.678 64.7656 50.9318C64.3603 51.1818 64.0194 51.5379 63.7429 52C63.4664 52.4621 63.277 53.0076 63.1747 53.6364C63.0687 54.2765 63.0743 54.8333 63.1918 55.3068C63.313 55.7765 63.5327 56.1402 63.8509 56.3977C64.1728 56.6515 64.5781 56.7784 65.0668 56.7784C65.3963 56.7784 65.7031 56.7197 65.9872 56.6023C66.2751 56.4811 66.5289 56.3087 66.7486 56.0852C66.9683 55.8617 67.1425 55.5928 67.2713 55.2784H68.8679C68.705 55.8352 68.4342 56.3314 68.0554 56.767C67.6766 57.2027 67.2126 57.5473 66.6634 57.8011C66.1179 58.0511 65.5062 58.1761 64.8281 58.1761ZM72.2599 55L72.5724 53H72.8679L77.0384 49.2727H79.0043L74.3281 53.4602H74.0838L72.2599 55ZM70.2599 58L72.1918 46.3636H73.8224L71.8906 58H70.2599ZM75.777 58L73.2997 53.8239L74.6122 52.6818L77.7884 58H75.777ZM85.4901 46.3636H87.5412L89.7798 55.517H89.9162L95.1776 46.3636H97.2287L95.2969 58H93.6889L95.1037 49.5057H94.9957L90.1151 57.983H88.7457L86.7003 49.5H86.5866L85.1662 58H83.5582L85.4901 46.3636ZM101.482 58.1761C100.629 58.1761 99.9247 57.9924 99.3679 57.625C98.8111 57.2538 98.4209 56.733 98.1974 56.0625C97.9777 55.3883 97.9418 54.6004 98.0895 53.6989C98.2372 52.8011 98.5327 52.0114 98.9759 51.3295C99.4228 50.6477 99.9796 50.1155 100.646 49.733C101.317 49.3504 102.054 49.1591 102.857 49.1591C103.341 49.1591 103.8 49.2405 104.232 49.4034C104.667 49.5625 105.038 49.8163 105.345 50.1648C105.656 50.5095 105.87 50.9602 105.987 51.517C106.108 52.0739 106.103 52.7481 105.97 53.5398L105.874 54.1364H98.9759L99.169 52.8807H104.459C104.538 52.4299 104.516 52.0284 104.391 51.6761C104.269 51.3201 104.059 51.0398 103.76 50.8352C103.464 50.6307 103.091 50.5284 102.641 50.5284C102.175 50.5284 101.741 50.6515 101.339 50.8977C100.938 51.1402 100.603 51.4489 100.334 51.8239C100.065 52.1989 99.8963 52.5871 99.8281 52.9886L99.6406 54.1193C99.5384 54.7708 99.5554 55.2936 99.6918 55.6875C99.8319 56.0814 100.074 56.3674 100.419 56.5455C100.764 56.7197 101.197 56.8068 101.72 56.8068C102.057 56.8068 102.368 56.7614 102.652 56.6705C102.936 56.5758 103.19 56.4356 103.413 56.25C103.637 56.0606 103.824 55.8258 103.976 55.5455L105.476 55.8466C105.268 56.3125 104.968 56.7216 104.578 57.0739C104.192 57.4223 103.735 57.6932 103.209 57.8864C102.686 58.0795 102.11 58.1761 101.482 58.1761ZM110.428 58.1705C109.712 58.1705 109.107 57.9905 108.615 57.6307C108.126 57.267 107.78 56.7481 107.575 56.0739C107.375 55.3996 107.35 54.5928 107.501 53.6534C107.661 52.714 107.954 51.9091 108.382 51.2386C108.81 50.5682 109.331 50.0549 109.945 49.6989C110.558 49.339 111.219 49.1591 111.928 49.1591C112.473 49.1591 112.895 49.25 113.195 49.4318C113.498 49.6136 113.721 49.8239 113.865 50.0625C114.009 50.3011 114.115 50.5076 114.183 50.6818H114.286L115.007 46.3636H116.643L114.712 58H113.115L113.348 56.642H113.2C113.068 56.8239 112.886 57.036 112.655 57.2784C112.428 57.517 112.132 57.7254 111.768 57.9034C111.409 58.0814 110.962 58.1705 110.428 58.1705ZM110.956 56.767C111.452 56.767 111.897 56.6364 112.291 56.375C112.689 56.1098 113.018 55.7424 113.28 55.2727C113.545 54.803 113.729 54.2576 113.831 53.6364C113.937 53.0227 113.935 52.4848 113.825 52.0227C113.719 51.5606 113.511 51.2027 113.2 50.9489C112.893 50.6913 112.486 50.5625 111.979 50.5625C111.46 50.5625 111.007 50.697 110.621 50.9659C110.234 51.2348 109.918 51.6023 109.672 52.0682C109.429 52.5303 109.261 53.053 109.166 53.6364C109.068 54.2273 109.064 54.7595 109.155 55.233C109.246 55.7064 109.439 56.0814 109.734 56.358C110.034 56.6307 110.441 56.767 110.956 56.767ZM117.166 58L118.621 49.2727H120.251L118.797 58H117.166ZM119.803 47.8864C119.515 47.8864 119.27 47.7898 119.07 47.5966C118.869 47.3996 118.774 47.1648 118.786 46.892C118.797 46.6193 118.909 46.3864 119.121 46.1932C119.337 45.9962 119.589 45.8977 119.876 45.8977C120.164 45.8977 120.407 45.9962 120.604 46.1932C120.804 46.3864 120.899 46.6193 120.888 46.892C120.88 47.1648 120.768 47.3996 120.553 47.5966C120.34 47.7898 120.09 47.8864 119.803 47.8864ZM124.75 58.1761C123.905 58.1761 123.212 57.9848 122.67 57.6023C122.133 57.2159 121.758 56.6837 121.545 56.0057C121.337 55.3277 121.305 54.5511 121.449 53.6761C121.593 52.7898 121.886 52.0076 122.33 51.3295C122.777 50.6477 123.333 50.1155 124 49.733C124.67 49.3504 125.413 49.1591 126.227 49.1591C126.883 49.1591 127.447 49.2803 127.92 49.5227C128.394 49.7614 128.754 50.0985 129 50.5341C129.246 50.9659 129.354 51.4735 129.324 52.0568H127.722C127.695 51.6477 127.542 51.2955 127.261 51C126.981 50.7008 126.568 50.5511 126.023 50.5511C125.538 50.5511 125.093 50.678 124.688 50.9318C124.282 51.1818 123.941 51.5379 123.665 52C123.388 52.4621 123.199 53.0076 123.097 53.6364C122.991 54.2765 122.996 54.8333 123.114 55.3068C123.235 55.7765 123.455 56.1402 123.773 56.3977C124.095 56.6515 124.5 56.7784 124.989 56.7784C125.318 56.7784 125.625 56.7197 125.909 56.6023C126.197 56.4811 126.451 56.3087 126.67 56.0852C126.89 55.8617 127.064 55.5928 127.193 55.2784H128.79C128.627 55.8352 128.356 56.3314 127.977 56.767C127.598 57.2027 127.134 57.5473 126.585 57.8011C126.04 58.0511 125.428 58.1761 124.75 58.1761ZM132.705 58.1932C132.152 58.1932 131.667 58.0909 131.25 57.8864C130.837 57.678 130.532 57.3769 130.335 56.983C130.138 56.5852 130.087 56.1023 130.182 55.5341C130.265 55.0379 130.43 54.6326 130.676 54.3182C130.922 54 131.222 53.7481 131.574 53.5625C131.926 53.3769 132.309 53.2367 132.722 53.142C133.134 53.0473 133.551 52.9773 133.972 52.9318C134.502 52.8674 134.932 52.8163 135.261 52.7784C135.595 52.7367 135.845 52.6723 136.011 52.5852C136.182 52.4943 136.284 52.3466 136.318 52.142V52.0966C136.402 51.5966 136.33 51.2064 136.102 50.9261C135.879 50.642 135.489 50.5 134.932 50.5C134.352 50.5 133.866 50.6288 133.472 50.8864C133.078 51.1402 132.79 51.4223 132.608 51.733L131.148 51.3523C131.424 50.822 131.775 50.3958 132.199 50.0739C132.623 49.7519 133.083 49.5189 133.58 49.375C134.08 49.2311 134.585 49.1591 135.097 49.1591C135.43 49.1591 135.782 49.1989 136.153 49.2784C136.528 49.358 136.869 49.5057 137.176 49.7216C137.487 49.9337 137.718 50.2405 137.869 50.642C138.021 51.0436 138.044 51.5663 137.938 52.2102L136.977 58H135.375L135.58 56.8125H135.511C135.371 57.0246 135.174 57.2367 134.92 57.4489C134.667 57.661 134.354 57.839 133.983 57.983C133.616 58.1231 133.189 58.1932 132.705 58.1932ZM133.25 56.8636C133.731 56.8636 134.157 56.7689 134.528 56.5795C134.9 56.3864 135.201 56.1383 135.432 55.8352C135.663 55.5284 135.807 55.2008 135.864 54.8523L136.057 53.7045C135.985 53.7689 135.856 53.8277 135.67 53.8807C135.489 53.9299 135.282 53.9735 135.051 54.0114C134.824 54.0455 134.6 54.0777 134.381 54.108C134.165 54.1345 133.987 54.1572 133.847 54.1761C133.509 54.2216 133.193 54.2936 132.898 54.392C132.602 54.4905 132.354 54.6326 132.153 54.8182C131.956 55.0038 131.835 55.2519 131.79 55.5625C131.718 55.9905 131.82 56.3144 132.097 56.5341C132.373 56.7538 132.758 56.8636 133.25 56.8636ZM144.753 49.2727L144.537 50.5966H139.815L140.031 49.2727H144.753ZM141.656 47.1818H143.293L141.912 55.4489C141.859 55.786 141.868 56.0398 141.94 56.2102C142.012 56.3807 142.126 56.4962 142.281 56.5568C142.437 56.6136 142.607 56.642 142.793 56.642C142.933 56.642 143.052 56.6326 143.151 56.6136C143.253 56.5947 143.334 56.5795 143.395 56.5682L143.486 57.9375C143.372 57.9754 143.221 58.0133 143.031 58.0511C142.846 58.0928 142.618 58.1136 142.349 58.1136C141.914 58.1212 141.518 58.0417 141.162 57.875C140.81 57.7083 140.545 57.4527 140.366 57.108C140.188 56.7595 140.145 56.3239 140.236 55.8011L141.656 47.1818ZM145.197 58L146.652 49.2727H148.283L146.828 58H145.197ZM147.834 47.8864C147.546 47.8864 147.302 47.7898 147.101 47.5966C146.9 47.3996 146.805 47.1648 146.817 46.892C146.828 46.6193 146.94 46.3864 147.152 46.1932C147.368 45.9962 147.62 45.8977 147.908 45.8977C148.196 45.8977 148.438 45.9962 148.635 46.1932C148.836 46.3864 148.93 46.6193 148.919 46.892C148.911 47.1648 148.8 47.3996 148.584 47.5966C148.372 47.7898 148.122 47.8864 147.834 47.8864ZM152.844 58.1761C152.018 58.1761 151.329 57.9867 150.776 57.608C150.223 57.2254 149.832 56.6913 149.605 56.0057C149.382 55.3163 149.344 54.5152 149.491 53.6023C149.635 52.7083 149.925 51.928 150.361 51.2614C150.796 50.5947 151.344 50.0777 152.003 49.7102C152.662 49.3428 153.393 49.1591 154.196 49.1591C155.022 49.1591 155.709 49.3504 156.259 49.733C156.812 50.1155 157.202 50.6515 157.429 51.3409C157.656 52.0303 157.696 52.8352 157.548 53.7557C157.404 54.642 157.111 55.4167 156.668 56.0795C156.228 56.7424 155.681 57.2576 155.026 57.625C154.374 57.9924 153.647 58.1761 152.844 58.1761ZM152.929 56.7898C153.486 56.7898 153.971 56.6439 154.384 56.3523C154.8 56.0606 155.139 55.6723 155.401 55.1875C155.666 54.7027 155.846 54.1723 155.94 53.5966C156.027 53.0473 156.026 52.5417 155.935 52.0795C155.844 51.6136 155.651 51.2405 155.355 50.9602C155.06 50.6799 154.645 50.5398 154.111 50.5398C153.554 50.5398 153.065 50.6875 152.645 50.983C152.228 51.2784 151.889 51.6705 151.628 52.1591C151.366 52.6439 151.19 53.1742 151.099 53.75C151.012 54.2992 151.012 54.8049 151.099 55.267C151.19 55.7292 151.384 56.0985 151.679 56.375C151.978 56.6515 152.395 56.7898 152.929 56.7898ZM161.27 52.8068L160.412 58H158.776L160.23 49.2727H161.804L161.565 50.6875H161.679C161.952 50.2254 162.327 49.8561 162.804 49.5795C163.281 49.2992 163.848 49.1591 164.503 49.1591C165.09 49.1591 165.586 49.2822 165.991 49.5284C166.397 49.7746 166.683 50.142 166.849 50.6307C167.02 51.1193 167.046 51.7254 166.929 52.4489L165.997 58H164.361L165.253 52.6364C165.359 51.9962 165.276 51.4943 165.003 51.1307C164.734 50.767 164.306 50.5852 163.719 50.5852C163.317 50.5852 162.946 50.6723 162.605 50.8466C162.264 51.017 161.976 51.2689 161.741 51.6023C161.51 51.9318 161.353 52.3333 161.27 52.8068Z" fill="black"/>
<path d="M41.483 81.1193H39.8011C39.7936 80.7367 39.7216 80.3996 39.5852 80.108C39.4527 79.8163 39.2689 79.5701 39.0341 79.3693C38.7992 79.1648 38.5265 79.0114 38.2159 78.9091C37.9053 78.8068 37.5701 78.7557 37.2102 78.7557C36.517 78.7557 35.8655 78.9318 35.2557 79.2841C34.6458 79.6326 34.125 80.1439 33.6932 80.8182C33.2652 81.4924 32.9716 82.3163 32.8125 83.2898C32.6572 84.2292 32.678 85.0189 32.875 85.6591C33.072 86.2992 33.4034 86.7841 33.8693 87.1136C34.3352 87.4432 34.8958 87.608 35.5511 87.608C35.9337 87.608 36.3068 87.5568 36.6705 87.4545C37.0379 87.3523 37.3788 87.2027 37.6932 87.0057C38.0076 86.8049 38.2879 86.5606 38.5341 86.2727C38.7803 85.9811 38.9716 85.6477 39.108 85.2727H40.8125C40.6155 85.8485 40.3428 86.375 39.9943 86.8523C39.6496 87.3295 39.2424 87.7405 38.7727 88.0852C38.3068 88.4299 37.7955 88.6951 37.2386 88.8807C36.6856 89.0663 36.1004 89.1591 35.483 89.1591C34.4602 89.1591 33.589 88.9129 32.8693 88.4205C32.1496 87.928 31.6345 87.2292 31.3239 86.3239C31.0133 85.4148 30.9621 84.3314 31.1705 83.0739C31.375 81.8542 31.7708 80.8068 32.358 79.9318C32.9451 79.053 33.6629 78.3788 34.5114 77.9091C35.3636 77.4394 36.2841 77.2045 37.2727 77.2045C37.8902 77.2045 38.4545 77.2936 38.9659 77.4716C39.4811 77.6458 39.9261 77.9015 40.3011 78.2386C40.6761 78.5758 40.9659 78.9867 41.1705 79.4716C41.3788 79.9527 41.483 80.5019 41.483 81.1193ZM44.6761 83.8068L43.8182 89H42.1818L44.1136 77.3636H45.733L45.017 81.6875H45.1307C45.4034 81.214 45.7727 80.8409 46.2386 80.5682C46.7045 80.2955 47.2803 80.1591 47.9659 80.1591C48.5606 80.1591 49.0606 80.2822 49.4659 80.5284C49.875 80.7708 50.1629 81.1364 50.3295 81.625C50.5 82.1098 50.5265 82.7178 50.4091 83.4489L49.4773 89H47.8409L48.7386 83.6364C48.8447 82.9848 48.7576 82.4811 48.4773 82.125C48.2008 81.7652 47.7689 81.5852 47.1818 81.5852C46.7727 81.5852 46.392 81.6723 46.0398 81.8466C45.6913 82.017 45.3977 82.2689 45.1591 82.6023C44.9205 82.9318 44.7595 83.3333 44.6761 83.8068ZM55.5128 89.1761C54.6605 89.1761 53.956 88.9924 53.3991 88.625C52.8423 88.2538 52.4522 87.733 52.2287 87.0625C52.009 86.3883 51.973 85.6004 52.1207 84.6989C52.2685 83.8011 52.5639 83.0114 53.0071 82.3295C53.4541 81.6477 54.0109 81.1155 54.6776 80.733C55.348 80.3504 56.0848 80.1591 56.8878 80.1591C57.3726 80.1591 57.831 80.2405 58.2628 80.4034C58.6984 80.5625 59.0696 80.8163 59.3764 81.1648C59.687 81.5095 59.901 81.9602 60.0185 82.517C60.1397 83.0739 60.134 83.7481 60.0014 84.5398L59.9048 85.1364H53.0071L53.2003 83.8807H58.4901C58.5696 83.4299 58.5469 83.0284 58.4219 82.6761C58.3007 82.3201 58.0904 82.0398 57.7912 81.8352C57.4957 81.6307 57.1226 81.5284 56.6719 81.5284C56.206 81.5284 55.7723 81.6515 55.3707 81.8977C54.9692 82.1402 54.634 82.4489 54.3651 82.8239C54.0961 83.1989 53.9276 83.5871 53.8594 83.9886L53.6719 85.1193C53.5696 85.7708 53.5866 86.2936 53.723 86.6875C53.8632 87.0814 54.1056 87.3674 54.4503 87.5455C54.795 87.7197 55.2287 87.8068 55.7514 87.8068C56.0885 87.8068 56.3991 87.7614 56.6832 87.6705C56.9673 87.5758 57.2211 87.4356 57.4446 87.25C57.6681 87.0606 57.8556 86.8258 58.0071 86.5455L59.5071 86.8466C59.2988 87.3125 58.9995 87.7216 58.6094 88.0739C58.223 88.4223 57.7666 88.6932 57.2401 88.8864C56.7173 89.0795 56.1416 89.1761 55.5128 89.1761ZM64.8281 89.1761C63.9834 89.1761 63.2902 88.9848 62.7486 88.6023C62.2107 88.2159 61.8357 87.6837 61.6236 87.0057C61.4152 86.3277 61.383 85.5511 61.527 84.6761C61.6709 83.7898 61.9645 83.0076 62.4077 82.3295C62.8546 81.6477 63.4115 81.1155 64.0781 80.733C64.7486 80.3504 65.491 80.1591 66.3054 80.1591C66.9607 80.1591 67.5251 80.2803 67.9986 80.5227C68.4721 80.7614 68.8319 81.0985 69.0781 81.5341C69.3243 81.9659 69.4323 82.4735 69.402 83.0568H67.7997C67.7732 82.6477 67.6198 82.2955 67.3395 82C67.0592 81.7008 66.6463 81.5511 66.1009 81.5511C65.616 81.5511 65.1709 81.678 64.7656 81.9318C64.3603 82.1818 64.0194 82.5379 63.7429 83C63.4664 83.4621 63.277 84.0076 63.1747 84.6364C63.0687 85.2765 63.0743 85.8333 63.1918 86.3068C63.313 86.7765 63.5327 87.1402 63.8509 87.3977C64.1728 87.6515 64.5781 87.7784 65.0668 87.7784C65.3963 87.7784 65.7031 87.7197 65.9872 87.6023C66.2751 87.4811 66.5289 87.3087 66.7486 87.0852C66.9683 86.8617 67.1425 86.5928 67.2713 86.2784H68.8679C68.705 86.8352 68.4342 87.3314 68.0554 87.767C67.6766 88.2027 67.2126 88.5473 66.6634 88.8011C66.1179 89.0511 65.5062 89.1761 64.8281 89.1761ZM72.2599 86L72.5724 84H72.8679L77.0384 80.2727H79.0043L74.3281 84.4602H74.0838L72.2599 86ZM70.2599 89L72.1918 77.3636H73.8224L71.8906 89H70.2599ZM75.777 89L73.2997 84.8239L74.6122 83.6818L77.7884 89H75.777ZM91.3196 80.4659C91.3272 79.8826 91.1397 79.4394 90.7571 79.1364C90.3783 78.8295 89.8518 78.6761 89.1776 78.6761C88.6927 78.6761 88.259 78.7519 87.8764 78.9034C87.4976 79.0549 87.1889 79.2633 86.9503 79.5284C86.7116 79.7936 86.5658 80.0966 86.5128 80.4375C86.4635 80.7178 86.4901 80.9602 86.5923 81.1648C86.6946 81.3655 86.8423 81.536 87.0355 81.6761C87.2325 81.8125 87.4465 81.9261 87.6776 82.017C87.9124 82.1042 88.1378 82.1761 88.3537 82.233L89.4503 82.5341C89.7912 82.6212 90.1416 82.7424 90.5014 82.8977C90.8613 83.0492 91.187 83.2519 91.4787 83.5057C91.7741 83.7557 91.9957 84.0682 92.1435 84.4432C92.2912 84.8182 92.3215 85.2689 92.2344 85.7955C92.1245 86.447 91.8594 87.0284 91.4389 87.5398C91.0185 88.0511 90.4654 88.4545 89.7798 88.75C89.0942 89.0455 88.2969 89.1932 87.3878 89.1932C86.5279 89.1932 85.8026 89.0568 85.2116 88.7841C84.6245 88.5076 84.1927 88.1174 83.9162 87.6136C83.6435 87.1098 83.545 86.5133 83.6207 85.8239H85.331C85.2893 86.2481 85.367 86.6004 85.5639 86.8807C85.7647 87.1572 86.045 87.3636 86.4048 87.5C86.7647 87.6364 87.17 87.7045 87.6207 87.7045C88.1283 87.7045 88.5923 87.625 89.0128 87.4659C89.4332 87.303 89.7798 87.0777 90.0526 86.7898C90.3291 86.5019 90.4995 86.1648 90.5639 85.7784C90.6245 85.4261 90.5734 85.1383 90.4105 84.9148C90.2514 84.6875 90.0147 84.5019 89.7003 84.358C89.3859 84.214 89.0298 84.0871 88.6321 83.9773L87.3082 83.5909C86.4257 83.3371 85.7552 82.9659 85.2969 82.4773C84.8385 81.9848 84.6738 81.3352 84.8026 80.5284C84.92 79.8617 85.2003 79.2803 85.6435 78.7841C86.0866 78.2841 86.6397 77.8958 87.3026 77.6193C87.9654 77.3428 88.6832 77.2045 89.456 77.2045C90.2363 77.2045 90.901 77.3447 91.4503 77.625C92.0033 77.9015 92.4124 78.286 92.6776 78.7784C92.9427 79.267 93.0355 79.8295 92.956 80.4659H91.3196ZM99.1747 80.2727L98.9588 81.5966H94.2372L94.4531 80.2727H99.1747ZM96.0781 78.1818H97.7145L96.3338 86.4489C96.2808 86.786 96.2902 87.0398 96.3622 87.2102C96.4342 87.3807 96.5478 87.4962 96.7031 87.5568C96.8584 87.6136 97.0289 87.642 97.2145 87.642C97.3546 87.642 97.474 87.6326 97.5724 87.6136C97.6747 87.5947 97.7562 87.5795 97.8168 87.5682L97.9077 88.9375C97.794 88.9754 97.6425 89.0133 97.4531 89.0511C97.2675 89.0928 97.0402 89.1136 96.7713 89.1136C96.3357 89.1212 95.9399 89.0417 95.5838 88.875C95.2315 88.7083 94.9664 88.4527 94.7884 88.108C94.6103 87.7595 94.5668 87.3239 94.6577 86.8011L96.0781 78.1818ZM102.142 89.1932C101.589 89.1932 101.104 89.0909 100.688 88.8864C100.275 88.678 99.9697 88.3769 99.7727 87.983C99.5758 87.5852 99.5246 87.1023 99.6193 86.5341C99.7027 86.0379 99.8674 85.6326 100.114 85.3182C100.36 85 100.659 84.7481 101.011 84.5625C101.364 84.3769 101.746 84.2367 102.159 84.142C102.572 84.0473 102.989 83.9773 103.409 83.9318C103.939 83.8674 104.369 83.8163 104.699 83.7784C105.032 83.7367 105.282 83.6723 105.449 83.5852C105.619 83.4943 105.722 83.3466 105.756 83.142V83.0966C105.839 82.5966 105.767 82.2064 105.54 81.9261C105.316 81.642 104.926 81.5 104.369 81.5C103.79 81.5 103.303 81.6288 102.909 81.8864C102.515 82.1402 102.227 82.4223 102.045 82.733L100.585 82.3523C100.862 81.822 101.212 81.3958 101.636 81.0739C102.061 80.7519 102.521 80.5189 103.017 80.375C103.517 80.2311 104.023 80.1591 104.534 80.1591C104.867 80.1591 105.22 80.1989 105.591 80.2784C105.966 80.358 106.307 80.5057 106.614 80.7216C106.924 80.9337 107.155 81.2405 107.307 81.642C107.458 82.0436 107.481 82.5663 107.375 83.2102L106.415 89H104.812L105.017 87.8125H104.949C104.809 88.0246 104.612 88.2367 104.358 88.4489C104.104 88.661 103.792 88.839 103.42 88.983C103.053 89.1231 102.627 89.1932 102.142 89.1932ZM102.688 87.8636C103.169 87.8636 103.595 87.7689 103.966 87.5795C104.337 87.3864 104.638 87.1383 104.869 86.8352C105.1 86.5284 105.244 86.2008 105.301 85.8523L105.494 84.7045C105.422 84.7689 105.294 84.8277 105.108 84.8807C104.926 84.9299 104.72 84.9735 104.489 85.0114C104.261 85.0455 104.038 85.0777 103.818 85.108C103.602 85.1345 103.424 85.1572 103.284 85.1761C102.947 85.2216 102.631 85.2936 102.335 85.392C102.04 85.4905 101.792 85.6326 101.591 85.8182C101.394 86.0038 101.273 86.2519 101.227 86.5625C101.155 86.9905 101.258 87.3144 101.534 87.5341C101.811 87.7538 102.195 87.8636 102.688 87.8636ZM114.19 80.2727L113.974 81.5966H109.253L109.469 80.2727H114.19ZM111.094 78.1818H112.73L111.349 86.4489C111.296 86.786 111.306 87.0398 111.378 87.2102C111.45 87.3807 111.563 87.4962 111.719 87.5568C111.874 87.6136 112.045 87.642 112.23 87.642C112.37 87.642 112.49 87.6326 112.588 87.6136C112.69 87.5947 112.772 87.5795 112.832 87.5682L112.923 88.9375C112.81 88.9754 112.658 89.0133 112.469 89.0511C112.283 89.0928 112.056 89.1136 111.787 89.1136C111.351 89.1212 110.955 89.0417 110.599 88.875C110.247 88.7083 109.982 88.4527 109.804 88.108C109.626 87.7595 109.582 87.3239 109.673 86.8011L111.094 78.1818ZM120.754 85.392L121.612 80.2727H123.249L121.794 89H120.186L120.436 87.4943H120.345C120.076 87.9564 119.694 88.3428 119.197 88.6534C118.701 88.9602 118.124 89.1136 117.464 89.1136C116.908 89.1136 116.434 88.9905 116.044 88.7443C115.658 88.4981 115.383 88.1307 115.22 87.642C115.057 87.1534 115.036 86.5473 115.158 85.8239L116.089 80.2727H117.72L116.828 85.6364C116.733 86.2386 116.822 86.7197 117.095 87.0795C117.372 87.4356 117.775 87.6136 118.305 87.6136C118.627 87.6136 118.961 87.5341 119.305 87.375C119.654 87.2121 119.963 86.9678 120.232 86.642C120.5 86.3125 120.675 85.8958 120.754 85.392ZM131.683 82.375L130.161 82.6591C130.123 82.4583 130.051 82.267 129.945 82.0852C129.839 81.9034 129.678 81.7557 129.462 81.642C129.246 81.5284 128.96 81.4716 128.604 81.4716C128.104 81.4716 127.668 81.5852 127.297 81.8125C126.929 82.0398 126.719 82.3277 126.666 82.6761C126.613 82.9678 126.679 83.2027 126.865 83.3807C127.054 83.5549 127.38 83.7008 127.842 83.8182L129.166 84.1364C129.935 84.322 130.486 84.6098 130.82 85C131.153 85.3902 131.268 85.8977 131.166 86.5227C131.079 87.0379 130.854 87.4962 130.49 87.8977C130.126 88.2955 129.662 88.608 129.098 88.8352C128.534 89.0625 127.905 89.1761 127.212 89.1761C126.234 89.1761 125.473 88.9697 124.928 88.5568C124.382 88.1402 124.1 87.5511 124.081 86.7898L125.7 86.5227C125.731 86.9583 125.886 87.2879 126.166 87.5114C126.45 87.7311 126.846 87.8409 127.354 87.8409C127.929 87.8447 128.412 87.7235 128.803 87.4773C129.193 87.2273 129.412 86.928 129.462 86.5795C129.515 86.303 129.456 86.0739 129.286 85.892C129.119 85.7102 128.829 85.572 128.416 85.4773L127.007 85.1477C126.219 84.9583 125.664 84.6591 125.342 84.25C125.02 83.8409 124.912 83.3258 125.018 82.7045C125.106 82.197 125.321 81.7538 125.666 81.375C126.015 80.9924 126.456 80.6951 126.99 80.483C127.528 80.267 128.119 80.1591 128.763 80.1591C129.698 80.1591 130.399 80.3598 130.865 80.7614C131.335 81.1629 131.607 81.7008 131.683 82.375Z" fill="black"/>
<path d="M31.4659 120H29.6761L35.8068 108.364H37.733L40 120H38.2102L36.483 110.426H36.392L31.4659 120ZM32.5739 115.449H38.6023L38.3636 116.881H32.3352L32.5739 115.449ZM44.7088 120.17C43.9929 120.17 43.3887 119.991 42.8963 119.631C42.4077 119.267 42.0611 118.748 41.8565 118.074C41.6558 117.4 41.6312 116.593 41.7827 115.653C41.9418 114.714 42.2353 113.909 42.6634 113.239C43.0914 112.568 43.6122 112.055 44.2259 111.699C44.8395 111.339 45.5005 111.159 46.2088 111.159C46.7543 111.159 47.1766 111.25 47.4759 111.432C47.7789 111.614 48.0024 111.824 48.1463 112.062C48.2902 112.301 48.3963 112.508 48.4645 112.682H48.5668L49.2884 108.364H50.9247L48.9929 120H47.3963L47.6293 118.642H47.4815C47.349 118.824 47.1671 119.036 46.9361 119.278C46.7088 119.517 46.4134 119.725 46.0497 119.903C45.6899 120.081 45.2429 120.17 44.7088 120.17ZM45.2372 118.767C45.7334 118.767 46.1785 118.636 46.5724 118.375C46.9702 118.11 47.2997 117.742 47.5611 117.273C47.8262 116.803 48.0099 116.258 48.1122 115.636C48.2183 115.023 48.2164 114.485 48.1065 114.023C48.0005 113.561 47.7921 113.203 47.4815 112.949C47.1747 112.691 46.7675 112.562 46.2599 112.562C45.741 112.562 45.2884 112.697 44.902 112.966C44.5156 113.235 44.1993 113.602 43.9531 114.068C43.7107 114.53 43.5421 115.053 43.4474 115.636C43.349 116.227 43.3452 116.759 43.4361 117.233C43.527 117.706 43.7202 118.081 44.0156 118.358C44.3149 118.631 44.7221 118.767 45.2372 118.767ZM51.4474 120L52.902 111.273H54.4759L54.2372 112.688H54.3509C54.6122 112.206 54.9702 111.831 55.4247 111.562C55.883 111.294 56.4001 111.159 56.9759 111.159C57.5478 111.159 58.0099 111.295 58.3622 111.568C58.7145 111.837 58.9493 112.21 59.0668 112.688H59.1577C59.4418 112.218 59.8338 111.847 60.3338 111.574C60.8338 111.297 61.4001 111.159 62.0327 111.159C62.813 111.159 63.4134 111.407 63.8338 111.903C64.2543 112.4 64.3812 113.15 64.2145 114.153L63.2372 120H61.6009L62.5611 114.284C62.6558 113.678 62.563 113.242 62.2827 112.977C62.0024 112.712 61.6349 112.58 61.1804 112.58C60.616 112.58 60.1482 112.752 59.777 113.097C59.4096 113.437 59.1842 113.877 59.1009 114.415L58.1577 120H56.527L57.5043 114.17C57.58 113.689 57.4929 113.305 57.2429 113.017C56.9929 112.725 56.6274 112.58 56.1463 112.58C55.8168 112.58 55.4986 112.667 55.1918 112.841C54.8849 113.011 54.6217 113.25 54.402 113.557C54.1861 113.86 54.0478 114.208 53.9872 114.602L53.0838 120H51.4474ZM65.5412 120L66.9957 111.273H68.6264L67.1719 120H65.5412ZM68.1776 109.886C67.8897 109.886 67.6454 109.79 67.4446 109.597C67.2438 109.4 67.1491 109.165 67.1605 108.892C67.1719 108.619 67.2836 108.386 67.4957 108.193C67.7116 107.996 67.9635 107.898 68.2514 107.898C68.5393 107.898 68.7817 107.996 68.9787 108.193C69.1795 108.386 69.2741 108.619 69.2628 108.892C69.2552 109.165 69.1435 109.4 68.9276 109.597C68.7154 109.79 68.4654 109.886 68.1776 109.886ZM71.9886 114.807L71.1307 120H69.4943L70.9489 111.273H72.5227L72.2841 112.688H72.3977C72.6705 112.225 73.0455 111.856 73.5227 111.58C74 111.299 74.5663 111.159 75.2216 111.159C75.8087 111.159 76.3049 111.282 76.7102 111.528C77.1155 111.775 77.4015 112.142 77.5682 112.631C77.7386 113.119 77.7652 113.725 77.6477 114.449L76.7159 120H75.0795L75.9716 114.636C76.0777 113.996 75.9943 113.494 75.7216 113.131C75.4527 112.767 75.0246 112.585 74.4375 112.585C74.036 112.585 73.6648 112.672 73.3239 112.847C72.983 113.017 72.6951 113.269 72.4602 113.602C72.2292 113.932 72.072 114.333 71.9886 114.807ZM79.0099 120L80.4645 111.273H82.0952L80.6406 120H79.0099ZM81.6463 109.886C81.3584 109.886 81.1141 109.79 80.9134 109.597C80.7126 109.4 80.6179 109.165 80.6293 108.892C80.6406 108.619 80.7524 108.386 80.9645 108.193C81.1804 107.996 81.4323 107.898 81.7202 107.898C82.008 107.898 82.2505 107.996 82.4474 108.193C82.6482 108.386 82.7429 108.619 82.7315 108.892C82.724 109.165 82.6122 109.4 82.3963 109.597C82.1842 109.79 81.9342 109.886 81.6463 109.886ZM90.5426 113.375L89.0199 113.659C88.982 113.458 88.91 113.267 88.804 113.085C88.6979 112.903 88.5369 112.756 88.321 112.642C88.1051 112.528 87.8191 112.472 87.4631 112.472C86.9631 112.472 86.5275 112.585 86.1562 112.812C85.7888 113.04 85.5786 113.328 85.5256 113.676C85.4725 113.968 85.5388 114.203 85.7244 114.381C85.9138 114.555 86.2396 114.701 86.7017 114.818L88.0256 115.136C88.7945 115.322 89.3456 115.61 89.679 116C90.0123 116.39 90.1278 116.898 90.0256 117.523C89.9384 118.038 89.7131 118.496 89.3494 118.898C88.9858 119.295 88.5218 119.608 87.9574 119.835C87.393 120.063 86.7642 120.176 86.071 120.176C85.0938 120.176 84.3324 119.97 83.7869 119.557C83.2415 119.14 82.9593 118.551 82.9403 117.79L84.5597 117.523C84.59 117.958 84.7453 118.288 85.0256 118.511C85.3097 118.731 85.7055 118.841 86.2131 118.841C86.7888 118.845 87.2718 118.723 87.6619 118.477C88.0521 118.227 88.2718 117.928 88.321 117.58C88.3741 117.303 88.3153 117.074 88.1449 116.892C87.9782 116.71 87.6884 116.572 87.2756 116.477L85.8665 116.148C85.0786 115.958 84.5237 115.659 84.2017 115.25C83.8797 114.841 83.7718 114.326 83.8778 113.705C83.965 113.197 84.1809 112.754 84.5256 112.375C84.8741 111.992 85.3153 111.695 85.8494 111.483C86.3873 111.267 86.9782 111.159 87.6222 111.159C88.5578 111.159 89.2585 111.36 89.7244 111.761C90.1941 112.163 90.4669 112.701 90.5426 113.375ZM96.9716 111.273L96.7557 112.597H92.0341L92.25 111.273H96.9716ZM93.875 109.182H95.5114L94.1307 117.449C94.0777 117.786 94.0871 118.04 94.1591 118.21C94.2311 118.381 94.3447 118.496 94.5 118.557C94.6553 118.614 94.8258 118.642 95.0114 118.642C95.1515 118.642 95.2708 118.633 95.3693 118.614C95.4716 118.595 95.553 118.58 95.6136 118.568L95.7045 119.938C95.5909 119.975 95.4394 120.013 95.25 120.051C95.0644 120.093 94.8371 120.114 94.5682 120.114C94.1326 120.121 93.7367 120.042 93.3807 119.875C93.0284 119.708 92.7633 119.453 92.5852 119.108C92.4072 118.759 92.3636 118.324 92.4545 117.801L93.875 109.182ZM101.044 120.176C100.192 120.176 99.4872 119.992 98.9304 119.625C98.3736 119.254 97.9834 118.733 97.7599 118.062C97.5402 117.388 97.5043 116.6 97.652 115.699C97.7997 114.801 98.0952 114.011 98.5384 113.33C98.9853 112.648 99.5421 112.116 100.209 111.733C100.879 111.35 101.616 111.159 102.419 111.159C102.904 111.159 103.362 111.241 103.794 111.403C104.23 111.562 104.601 111.816 104.908 112.165C105.218 112.509 105.432 112.96 105.55 113.517C105.671 114.074 105.665 114.748 105.533 115.54L105.436 116.136H98.5384L98.7315 114.881H104.021C104.101 114.43 104.078 114.028 103.953 113.676C103.832 113.32 103.622 113.04 103.322 112.835C103.027 112.631 102.654 112.528 102.203 112.528C101.737 112.528 101.304 112.652 100.902 112.898C100.5 113.14 100.165 113.449 99.8963 113.824C99.6274 114.199 99.4588 114.587 99.3906 114.989L99.2031 116.119C99.1009 116.771 99.1179 117.294 99.2543 117.688C99.3944 118.081 99.6368 118.367 99.9815 118.545C100.326 118.72 100.76 118.807 101.283 118.807C101.62 118.807 101.93 118.761 102.214 118.67C102.499 118.576 102.752 118.436 102.976 118.25C103.199 118.061 103.387 117.826 103.538 117.545L105.038 117.847C104.83 118.312 104.531 118.722 104.141 119.074C103.754 119.422 103.298 119.693 102.771 119.886C102.249 120.08 101.673 120.176 101.044 120.176ZM106.729 120L108.183 111.273H109.763L109.53 112.648H109.621C109.852 112.186 110.195 111.82 110.649 111.551C111.104 111.278 111.589 111.142 112.104 111.142C112.21 111.142 112.333 111.144 112.473 111.148C112.617 111.152 112.731 111.161 112.814 111.176L112.553 112.756C112.492 112.737 112.376 112.716 112.206 112.693C112.036 112.667 111.861 112.653 111.683 112.653C111.278 112.653 110.903 112.739 110.558 112.909C110.214 113.08 109.924 113.314 109.689 113.614C109.458 113.913 109.31 114.254 109.246 114.636L108.359 120H106.729ZM119.224 108.364H121.276L123.514 117.517H123.651L128.912 108.364H130.963L129.031 120H127.423L128.838 111.506H128.73L123.849 119.983H122.48L120.435 111.5H120.321L118.901 120H117.293L119.224 108.364ZM135.216 120.176C134.364 120.176 133.659 119.992 133.102 119.625C132.545 119.254 132.155 118.733 131.932 118.062C131.712 117.388 131.676 116.6 131.824 115.699C131.972 114.801 132.267 114.011 132.71 113.33C133.157 112.648 133.714 112.116 134.381 111.733C135.051 111.35 135.788 111.159 136.591 111.159C137.076 111.159 137.534 111.241 137.966 111.403C138.402 111.562 138.773 111.816 139.08 112.165C139.39 112.509 139.604 112.96 139.722 113.517C139.843 114.074 139.837 114.748 139.705 115.54L139.608 116.136H132.71L132.903 114.881H138.193C138.273 114.43 138.25 114.028 138.125 113.676C138.004 113.32 137.794 113.04 137.494 112.835C137.199 112.631 136.826 112.528 136.375 112.528C135.909 112.528 135.475 112.652 135.074 112.898C134.672 113.14 134.337 113.449 134.068 113.824C133.799 114.199 133.631 114.587 133.562 114.989L133.375 116.119C133.273 116.771 133.29 117.294 133.426 117.688C133.566 118.081 133.809 118.367 134.153 118.545C134.498 118.72 134.932 118.807 135.455 118.807C135.792 118.807 136.102 118.761 136.386 118.67C136.67 118.576 136.924 118.436 137.148 118.25C137.371 118.061 137.559 117.826 137.71 117.545L139.21 117.847C139.002 118.312 138.703 118.722 138.312 119.074C137.926 119.422 137.47 119.693 136.943 119.886C136.42 120.08 135.845 120.176 135.216 120.176ZM144.162 120.17C143.446 120.17 142.842 119.991 142.349 119.631C141.861 119.267 141.514 118.748 141.31 118.074C141.109 117.4 141.084 116.593 141.236 115.653C141.395 114.714 141.688 113.909 142.116 113.239C142.545 112.568 143.065 112.055 143.679 111.699C144.293 111.339 144.954 111.159 145.662 111.159C146.207 111.159 146.63 111.25 146.929 111.432C147.232 111.614 147.455 111.824 147.599 112.062C147.743 112.301 147.849 112.508 147.918 112.682H148.02L148.741 108.364H150.378L148.446 120H146.849L147.082 118.642H146.935C146.802 118.824 146.62 119.036 146.389 119.278C146.162 119.517 145.866 119.725 145.503 119.903C145.143 120.081 144.696 120.17 144.162 120.17ZM144.69 118.767C145.187 118.767 145.632 118.636 146.026 118.375C146.423 118.11 146.753 117.742 147.014 117.273C147.279 116.803 147.463 116.258 147.565 115.636C147.671 115.023 147.67 114.485 147.56 114.023C147.454 113.561 147.245 113.203 146.935 112.949C146.628 112.691 146.221 112.562 145.713 112.562C145.194 112.562 144.741 112.697 144.355 112.966C143.969 113.235 143.652 113.602 143.406 114.068C143.164 114.53 142.995 115.053 142.901 115.636C142.802 116.227 142.798 116.759 142.889 117.233C142.98 117.706 143.173 118.081 143.469 118.358C143.768 118.631 144.175 118.767 144.69 118.767ZM150.901 120L152.355 111.273H153.986L152.531 120H150.901ZM153.537 109.886C153.249 109.886 153.005 109.79 152.804 109.597C152.603 109.4 152.509 109.165 152.52 108.892C152.531 108.619 152.643 108.386 152.855 108.193C153.071 107.996 153.323 107.898 153.611 107.898C153.899 107.898 154.141 107.996 154.338 108.193C154.539 108.386 154.634 108.619 154.622 108.892C154.615 109.165 154.503 109.4 154.287 109.597C154.075 109.79 153.825 109.886 153.537 109.886ZM158.484 120.176C157.64 120.176 156.946 119.985 156.405 119.602C155.867 119.216 155.492 118.684 155.28 118.006C155.071 117.328 155.039 116.551 155.183 115.676C155.327 114.79 155.621 114.008 156.064 113.33C156.511 112.648 157.068 112.116 157.734 111.733C158.405 111.35 159.147 111.159 159.962 111.159C160.617 111.159 161.181 111.28 161.655 111.523C162.128 111.761 162.488 112.098 162.734 112.534C162.981 112.966 163.089 113.473 163.058 114.057H161.456C161.429 113.648 161.276 113.295 160.996 113C160.715 112.701 160.303 112.551 159.757 112.551C159.272 112.551 158.827 112.678 158.422 112.932C158.017 113.182 157.676 113.538 157.399 114C157.123 114.462 156.933 115.008 156.831 115.636C156.725 116.277 156.731 116.833 156.848 117.307C156.969 117.777 157.189 118.14 157.507 118.398C157.829 118.652 158.234 118.778 158.723 118.778C159.053 118.778 159.359 118.72 159.643 118.602C159.931 118.481 160.185 118.309 160.405 118.085C160.625 117.862 160.799 117.593 160.928 117.278H162.524C162.361 117.835 162.09 118.331 161.712 118.767C161.333 119.203 160.869 119.547 160.32 119.801C159.774 120.051 159.162 120.176 158.484 120.176ZM166.439 120.193C165.886 120.193 165.401 120.091 164.984 119.886C164.571 119.678 164.267 119.377 164.07 118.983C163.873 118.585 163.821 118.102 163.916 117.534C164 117.038 164.164 116.633 164.411 116.318C164.657 116 164.956 115.748 165.308 115.562C165.661 115.377 166.043 115.237 166.456 115.142C166.869 115.047 167.286 114.977 167.706 114.932C168.236 114.867 168.666 114.816 168.996 114.778C169.329 114.737 169.579 114.672 169.746 114.585C169.916 114.494 170.018 114.347 170.053 114.142V114.097C170.136 113.597 170.064 113.206 169.837 112.926C169.613 112.642 169.223 112.5 168.666 112.5C168.087 112.5 167.6 112.629 167.206 112.886C166.812 113.14 166.524 113.422 166.342 113.733L164.882 113.352C165.159 112.822 165.509 112.396 165.933 112.074C166.357 111.752 166.818 111.519 167.314 111.375C167.814 111.231 168.32 111.159 168.831 111.159C169.164 111.159 169.517 111.199 169.888 111.278C170.263 111.358 170.604 111.506 170.911 111.722C171.221 111.934 171.452 112.241 171.604 112.642C171.755 113.044 171.778 113.566 171.672 114.21L170.712 120H169.109L169.314 118.812H169.246C169.106 119.025 168.909 119.237 168.655 119.449C168.401 119.661 168.089 119.839 167.717 119.983C167.35 120.123 166.924 120.193 166.439 120.193ZM166.984 118.864C167.465 118.864 167.892 118.769 168.263 118.58C168.634 118.386 168.935 118.138 169.166 117.835C169.397 117.528 169.541 117.201 169.598 116.852L169.791 115.705C169.719 115.769 169.59 115.828 169.405 115.881C169.223 115.93 169.017 115.973 168.786 116.011C168.558 116.045 168.335 116.078 168.115 116.108C167.899 116.134 167.721 116.157 167.581 116.176C167.244 116.222 166.928 116.294 166.632 116.392C166.337 116.491 166.089 116.633 165.888 116.818C165.691 117.004 165.57 117.252 165.524 117.562C165.452 117.991 165.554 118.314 165.831 118.534C166.107 118.754 166.492 118.864 166.984 118.864ZM178.487 111.273L178.271 112.597H173.55L173.766 111.273H178.487ZM175.391 109.182H177.027L175.646 117.449C175.593 117.786 175.603 118.04 175.675 118.21C175.747 118.381 175.86 118.496 176.016 118.557C176.171 118.614 176.341 118.642 176.527 118.642C176.667 118.642 176.786 118.633 176.885 118.614C176.987 118.595 177.069 118.58 177.129 118.568L177.22 119.938C177.107 119.975 176.955 120.013 176.766 120.051C176.58 120.093 176.353 120.114 176.084 120.114C175.648 120.121 175.252 120.042 174.896 119.875C174.544 119.708 174.279 119.453 174.101 119.108C173.923 118.759 173.879 118.324 173.97 117.801L175.391 109.182ZM178.932 120L180.386 111.273H182.017L180.562 120H178.932ZM181.568 109.886C181.28 109.886 181.036 109.79 180.835 109.597C180.634 109.4 180.54 109.165 180.551 108.892C180.563 108.619 180.674 108.386 180.886 108.193C181.102 107.996 181.354 107.898 181.642 107.898C181.93 107.898 182.172 107.996 182.369 108.193C182.57 108.386 182.665 108.619 182.653 108.892C182.646 109.165 182.534 109.4 182.318 109.597C182.106 109.79 181.856 109.886 181.568 109.886ZM186.578 120.176C185.752 120.176 185.063 119.987 184.51 119.608C183.957 119.225 183.567 118.691 183.339 118.006C183.116 117.316 183.078 116.515 183.226 115.602C183.37 114.708 183.66 113.928 184.095 113.261C184.531 112.595 185.078 112.078 185.737 111.71C186.396 111.343 187.127 111.159 187.93 111.159C188.756 111.159 189.444 111.35 189.993 111.733C190.546 112.116 190.936 112.652 191.163 113.341C191.391 114.03 191.43 114.835 191.283 115.756C191.139 116.642 190.845 117.417 190.402 118.08C189.963 118.742 189.415 119.258 188.76 119.625C188.108 119.992 187.381 120.176 186.578 120.176ZM186.663 118.79C187.22 118.79 187.705 118.644 188.118 118.352C188.535 118.061 188.874 117.672 189.135 117.188C189.4 116.703 189.58 116.172 189.675 115.597C189.762 115.047 189.76 114.542 189.669 114.08C189.578 113.614 189.385 113.241 189.089 112.96C188.794 112.68 188.379 112.54 187.845 112.54C187.288 112.54 186.8 112.687 186.379 112.983C185.963 113.278 185.624 113.67 185.362 114.159C185.101 114.644 184.925 115.174 184.834 115.75C184.747 116.299 184.747 116.805 184.834 117.267C184.925 117.729 185.118 118.098 185.413 118.375C185.713 118.652 186.129 118.79 186.663 118.79ZM195.004 114.807L194.146 120H192.51L193.964 111.273H195.538L195.3 112.688H195.413C195.686 112.225 196.061 111.856 196.538 111.58C197.016 111.299 197.582 111.159 198.237 111.159C198.824 111.159 199.321 111.282 199.726 111.528C200.131 111.775 200.417 112.142 200.584 112.631C200.754 113.119 200.781 113.725 200.663 114.449L199.732 120H198.095L198.987 114.636C199.093 113.996 199.01 113.494 198.737 113.131C198.468 112.767 198.04 112.585 197.453 112.585C197.052 112.585 196.68 112.672 196.339 112.847C195.999 113.017 195.711 113.269 195.476 113.602C195.245 113.932 195.088 114.333 195.004 114.807Z" fill="black"/>
<path d="M212.466 30H210.676L216.807 18.3636H218.733L221 30H219.21L217.483 20.4261H217.392L212.466 30ZM213.574 25.4489H219.602L219.364 26.8807H213.335L213.574 25.4489ZM226.078 30.1761C225.233 30.1761 224.54 29.9848 223.999 29.6023C223.461 29.2159 223.086 28.6837 222.874 28.0057C222.665 27.3277 222.633 26.5511 222.777 25.6761C222.921 24.7898 223.214 24.0076 223.658 23.3295C224.105 22.6477 224.661 22.1155 225.328 21.733C225.999 21.3504 226.741 21.1591 227.555 21.1591C228.211 21.1591 228.775 21.2803 229.249 21.5227C229.722 21.7614 230.082 22.0985 230.328 22.5341C230.574 22.9659 230.682 23.4735 230.652 24.0568H229.05C229.023 23.6477 228.87 23.2955 228.589 23C228.309 22.7008 227.896 22.5511 227.351 22.5511C226.866 22.5511 226.421 22.678 226.016 22.9318C225.61 23.1818 225.269 23.5379 224.993 24C224.716 24.4621 224.527 25.0076 224.425 25.6364C224.319 26.2765 224.324 26.8333 224.442 27.3068C224.563 27.7765 224.783 28.1402 225.101 28.3977C225.423 28.6515 225.828 28.7784 226.317 28.7784C226.646 28.7784 226.953 28.7197 227.237 28.6023C227.525 28.4811 227.779 28.3087 227.999 28.0852C228.218 27.8617 228.393 27.5928 228.521 27.2784H230.118C229.955 27.8352 229.684 28.3314 229.305 28.767C228.927 29.2027 228.463 29.5473 227.913 29.8011C227.368 30.0511 226.756 30.1761 226.078 30.1761ZM235.141 30.1761C234.296 30.1761 233.603 29.9848 233.061 29.6023C232.523 29.2159 232.148 28.6837 231.936 28.0057C231.728 27.3277 231.696 26.5511 231.839 25.6761C231.983 24.7898 232.277 24.0076 232.72 23.3295C233.167 22.6477 233.724 22.1155 234.391 21.733C235.061 21.3504 235.804 21.1591 236.618 21.1591C237.273 21.1591 237.838 21.2803 238.311 21.5227C238.785 21.7614 239.144 22.0985 239.391 22.5341C239.637 22.9659 239.745 23.4735 239.714 24.0568H238.112C238.086 23.6477 237.932 23.2955 237.652 23C237.372 22.7008 236.959 22.5511 236.413 22.5511C235.929 22.5511 235.483 22.678 235.078 22.9318C234.673 23.1818 234.332 23.5379 234.055 24C233.779 24.4621 233.589 25.0076 233.487 25.6364C233.381 26.2765 233.387 26.8333 233.504 27.3068C233.625 27.7765 233.845 28.1402 234.163 28.3977C234.485 28.6515 234.891 28.7784 235.379 28.7784C235.709 28.7784 236.016 28.7197 236.3 28.6023C236.588 28.4811 236.841 28.3087 237.061 28.0852C237.281 27.8617 237.455 27.5928 237.584 27.2784H239.18C239.018 27.8352 238.747 28.3314 238.368 28.767C237.989 29.2027 237.525 29.5473 236.976 29.8011C236.43 30.0511 235.819 30.1761 235.141 30.1761ZM244.266 30.1761C243.44 30.1761 242.75 29.9867 242.197 29.608C241.644 29.2254 241.254 28.6913 241.027 28.0057C240.804 27.3163 240.766 26.5152 240.913 25.6023C241.057 24.7083 241.347 23.928 241.783 23.2614C242.218 22.5947 242.766 22.0777 243.425 21.7102C244.084 21.3428 244.815 21.1591 245.618 21.1591C246.444 21.1591 247.131 21.3504 247.68 21.733C248.233 22.1155 248.624 22.6515 248.851 23.3409C249.078 24.0303 249.118 24.8352 248.97 25.7557C248.826 26.642 248.533 27.4167 248.089 28.0795C247.65 28.7424 247.103 29.2576 246.447 29.625C245.796 29.9924 245.069 30.1761 244.266 30.1761ZM244.351 28.7898C244.908 28.7898 245.393 28.6439 245.805 28.3523C246.222 28.0606 246.561 27.6723 246.822 27.1875C247.088 26.7027 247.268 26.1723 247.362 25.5966C247.449 25.0473 247.447 24.5417 247.357 24.0795C247.266 23.6136 247.072 23.2405 246.777 22.9602C246.482 22.6799 246.067 22.5398 245.533 22.5398C244.976 22.5398 244.487 22.6875 244.067 22.983C243.65 23.2784 243.311 23.6705 243.05 24.1591C242.788 24.6439 242.612 25.1742 242.521 25.75C242.434 26.2992 242.434 26.8049 242.521 27.267C242.612 27.7292 242.805 28.0985 243.101 28.375C243.4 28.6515 243.817 28.7898 244.351 28.7898ZM256.317 26.392L257.175 21.2727H258.811L257.357 30H255.749L255.999 28.4943H255.908C255.639 28.9564 255.256 29.3428 254.76 29.6534C254.264 29.9602 253.686 30.1136 253.027 30.1136C252.47 30.1136 251.997 29.9905 251.607 29.7443C251.22 29.4981 250.946 29.1307 250.783 28.642C250.62 28.1534 250.599 27.5473 250.72 26.8239L251.652 21.2727H253.283L252.391 26.6364C252.296 27.2386 252.385 27.7197 252.658 28.0795C252.934 28.4356 253.338 28.6136 253.868 28.6136C254.19 28.6136 254.523 28.5341 254.868 28.375C255.216 28.2121 255.525 27.9678 255.794 27.642C256.063 27.3125 256.237 26.8958 256.317 26.392ZM262.161 24.8068L261.303 30H259.666L261.121 21.2727H262.695L262.456 22.6875H262.57C262.842 22.2254 263.217 21.8561 263.695 21.5795C264.172 21.2992 264.738 21.1591 265.393 21.1591C265.981 21.1591 266.477 21.2822 266.882 21.5284C267.287 21.7746 267.573 22.142 267.74 22.6307C267.911 23.1193 267.937 23.7254 267.82 24.4489L266.888 30H265.251L266.143 24.6364C266.25 23.9962 266.166 23.4943 265.893 23.1307C265.625 22.767 265.196 22.5852 264.609 22.5852C264.208 22.5852 263.837 22.6723 263.496 22.8466C263.155 23.017 262.867 23.2689 262.632 23.6023C262.401 23.9318 262.244 24.3333 262.161 24.8068ZM274.659 21.2727L274.443 22.5966H269.722L269.938 21.2727H274.659ZM271.562 19.1818H273.199L271.818 27.4489C271.765 27.786 271.775 28.0398 271.847 28.2102C271.919 28.3807 272.032 28.4962 272.188 28.5568C272.343 28.6136 272.513 28.642 272.699 28.642C272.839 28.642 272.958 28.6326 273.057 28.6136C273.159 28.5947 273.241 28.5795 273.301 28.5682L273.392 29.9375C273.278 29.9754 273.127 30.0133 272.938 30.0511C272.752 30.0928 272.525 30.1136 272.256 30.1136C271.82 30.1212 271.424 30.0417 271.068 29.875C270.716 29.7083 270.451 29.4527 270.273 29.108C270.095 28.7595 270.051 28.3239 270.142 27.8011L271.562 19.1818Z" fill="black"/>
<defs>
<filter id="filter0_i_47_191" x="0" y="40" width="245" height="102" filterUnits="userSpaceOnUse" color-interpolation-filters="sRGB">
<feFlood flood-opacity="0" result="BackgroundImageFix"/>
<feBlend mode="normal" in="SourceGraphic" in2="BackgroundImageFix" result="shape"/>
<feColorMatrix in="SourceAlpha" type="matrix" values="0 0 0 0 0 0 0 0 0 0 0 0 0 0 0 0 0 0 127 0" result="hardAlpha"/>
<feOffset dy="4"/>
<feGaussianBlur stdDeviation="2"/>
<feComposite in2="hardAlpha" operator="arithmetic" k2="-1" k3="1"/>
<feColorMatrix type="matrix" values="0 0 0 0 0 0 0 0 0 0 0 0 0 0 0 0 0 0 0.25 0"/>
<feBlend mode="normal" in2="shape" result="effect1_innerShadow_47_191"/>
</filter>
<filter id="filter1_i_47_191" x="0" y="15" width="68" height="25" filterUnits="userSpaceOnUse" color-interpolation-filters="sRGB">
<feFlood flood-opacity="0" result="BackgroundImageFix"/>
<feBlend mode="normal" in="SourceGraphic" in2="BackgroundImageFix" result="shape"/>
<feColorMatrix in="SourceAlpha" type="matrix" values="0 0 0 0 0 0 0 0 0 0 0 0 0 0 0 0 0 0 127 0" result="hardAlpha"/>
<feOffset dy="4"/>
<feGaussianBlur stdDeviation="2"/>
<feComposite in2="hardAlpha" operator="arithmetic" k2="-1" k3="1"/>
<feColorMatrix type="matrix" values="0 0 0 0 0 0 0 0 0 0 0 0 0 0 0 0 0 0 0.25 0"/>
<feBlend mode="normal" in2="shape" result="effect1_innerShadow_47_191"/>
</filter>
<filter id="filter2_i_47_191" x="10.5739" y="19.8977" width="53.3509" height="16.2954" filterUnits="userSpaceOnUse" color-interpolation-filters="sRGB">
<feFlood flood-opacity="0" result="BackgroundImageFix"/>
<feBlend mode="normal" in="SourceGraphic" in2="BackgroundImageFix" result="shape"/>
<feColorMatrix in="SourceAlpha" type="matrix" values="0 0 0 0 0 0 0 0 0 0 0 0 0 0 0 0 0 0 127 0" result="hardAlpha"/>
<feOffset dy="4"/>
<feGaussianBlur stdDeviation="2"/>
<feComposite in2="hardAlpha" operator="arithmetic" k2="-1" k3="1"/>
<feColorMatrix type="matrix" values="0 0 0 0 0 0 0 0 0 0 0 0 0 0 0 0 0 0 0.25 0"/>
<feBlend mode="normal" in2="shape" result="effect1_innerShadow_47_191"/>
</filter>
</defs>
</svg>
